<svg width="120" height="124" viewBox="0 0 120 124" fill="none" xmlns="http://www.w3.org/2000/svg">
<path d="M56.9477 106.866C56.9727 102.25 50.5116 98.473 42.5164 98.4297C34.5212 98.3863 28.0196 102.093 27.9945 106.709C27.9695 111.325 34.4306 115.102 42.4258 115.146C50.421 115.189 56.9227 111.482 56.9477 106.866Z" fill="#F2F2F2"/>
<path d="M92.1441 109.045L60.0842 90.5412C59.3981 90.1462 59.4842 89.4542 60.2772 88.9968L62.0979 87.9453C62.891 87.4879 64.088 87.4374 64.7741 87.8354L96.834 106.34C97.5201 106.735 97.434 107.427 96.6409 107.884L94.8202 108.935C94.0302 109.393 92.8302 109.443 92.1441 109.045Z" fill="#F2F2F2"/>
<path d="M95.2992 18.1406L65.7996 1.10672C65.2471 0.785946 64.7452 0.777036 64.3561 0.999798L61.4453 2.68388L64.8699 5.34811L65.7075 5.13723V75.0459C65.7075 76.6854 66.7055 78.5893 67.9351 79.2992L93.8023 98.2339V99.4012L96.814 97.6429V97.631C97.2506 97.3399 97.5268 96.734 97.5268 95.8756V22.3939C97.5268 20.7543 96.5289 18.8505 95.2992 18.1406Z" fill="#999999"/>
<path d="M90.7865 24.3809V21.0811L87.8847 23.2612L75.2051 17.9476L65.7065 11.033V5.13428L64.8659 5.34516L61.4473 2.6839L64.3551 0.999817C64.7471 0.782995 65.2431 0.788935 65.7986 1.10377L95.2982 18.1406C96.1091 18.6069 96.816 19.59 97.1991 20.6742L90.7865 24.3809Z" fill="#E6E6E6"/>
<path d="M92.3698 99.2646L62.8702 82.2337C61.6406 81.5238 60.6426 79.6199 60.6426 77.9804V4.49863C60.6426 2.85911 61.6406 2.10469 62.8702 2.81455L92.3698 19.8455C93.5995 20.5553 94.5975 22.4592 94.5975 24.0987V97.5775C94.5975 99.22 93.5995 99.9744 92.3698 99.2646Z" fill="#CCCCCC"/>
<path d="M61.293 78.4111V4.81647C61.293 3.62246 62.0207 3.07298 62.9147 3.58979L92.3222 20.5672C93.2192 21.084 93.944 22.4741 93.944 23.6681V97.2627C93.944 98.4567 93.2163 99.0062 92.3222 98.4894L62.9147 81.5119C62.0207 80.9951 61.293 79.6051 61.293 78.4111Z" fill="#333333"/>
<path d="M93.0826 24.4492V95.739C93.0826 96.7994 92.3341 97.2182 91.4163 96.6895L63.8265 80.7605C62.9028 80.2259 62.1543 78.9368 62.1543 77.8765V6.59262C62.1543 5.53227 62.9028 5.10457 63.8265 5.6392L68.8669 8.54996C69.0777 8.67173 69.2619 8.93905 69.3213 9.20339L69.5559 10.2697C69.7312 11.2884 70.5331 12.423 71.4687 12.9666L83.7711 20.0682C84.7097 20.6088 85.5146 20.4039 85.6839 19.5811L85.9186 18.7851C85.978 18.5861 86.1621 18.5327 86.373 18.6544L91.4193 21.5682C92.3341 22.0969 93.0826 23.3889 93.0826 24.4492Z" fill="#80C5FF"/>
<path d="M86.8967 42.1453C87.3808 42.4245 87.7699 43.0988 87.7669 43.6571L87.758 46.6748C87.755 47.2302 87.3659 47.456 86.8818 47.1768L69.1945 36.9654C68.7104 36.6862 68.3213 36.009 68.3242 35.4536L68.3331 32.4359C68.3361 31.8775 68.7252 31.6547 69.2093 31.9339L86.8967 42.1453Z" fill="#57B2FF"/>
<path d="M86.8967 52.7013C87.3808 52.9804 87.7699 53.6576 87.7669 54.2131L87.758 57.2337C87.755 57.7891 87.3659 58.0119 86.8818 57.7327L69.1945 47.5213C68.7104 47.2421 68.3213 46.5679 68.3242 46.0124L68.3331 42.9918C68.3361 42.4364 68.7252 42.2106 69.2093 42.4898L86.8967 52.7013Z" fill="#57B2FF"/>
<path d="M62.1574 50.5896V55.6983L60.6426 54.825V49.7164L62.1574 50.5896Z" fill="#B3B3B3"/>
<path d="M87.769 66.7235L87.763 69.1323C87.7571 69.8719 87.2314 70.1749 86.5839 69.8066L62.1543 55.7013V50.5926L86.5958 64.6979C87.2462 65.0721 87.769 65.9751 87.769 66.7235Z" fill="#57B2FF"/>
<path d="M73.5572 70.6677C74.0235 70.938 74.4007 71.5885 74.3977 72.1261L74.374 80.398C74.371 80.9326 73.9938 81.1465 73.5275 80.8792L66.3308 76.7239C65.8645 76.4536 65.4902 75.8061 65.4902 75.2685L65.514 66.9966C65.517 66.462 65.8942 66.2452 66.3575 66.5125L73.5572 70.6677Z" fill="#57B2FF"/>
<path d="M86.9292 78.3724C87.3956 78.6427 87.7698 79.2932 87.7698 79.8278L87.746 88.0997C87.7431 88.6343 87.3659 88.8511 86.9025 88.5809L79.7058 84.4256C79.2395 84.1553 78.8623 83.5048 78.8653 82.9702L78.889 74.6983C78.892 74.1637 79.2692 73.9469 79.7355 74.2172L86.9292 78.3724Z" fill="#57B2FF"/>
<path d="M86.4115 25.649C87.163 26.0826 87.7689 27.1341 87.7689 27.9984L87.7481 35.0792C87.7451 35.9435 87.1333 36.2911 86.3818 35.8574L65.9531 24.0629C65.2016 23.6293 64.5957 22.5778 64.5957 21.7135L64.6165 14.6326C64.6195 13.7683 65.2313 13.4179 65.9828 13.8515L86.4115 25.649Z" fill="#57B2FF"/>
<path d="M62.1574 28.4886V42.3593L60.6426 41.4861V27.6154L62.1574 28.4886Z" fill="#B3B3B3"/>
<path d="M64.4185 31.1469L64.3858 42.2969C64.3858 43.0365 63.8601 43.3335 63.2067 42.9622L62.1582 42.3563V28.4857L63.2483 29.1183C63.8987 29.4985 64.4185 30.4074 64.4185 31.1469Z" fill="#57B2FF"/>
<path d="M72.5908 11.93C72.5908 12.4973 72.1898 12.726 71.6968 12.4409C71.2037 12.1557 70.8027 11.4637 70.8027 10.8964C70.8027 10.3291 71.2037 10.1004 71.6968 10.3855C72.1898 10.6707 72.5908 11.3627 72.5908 11.93Z" fill="#666666"/>
<path d="M72.1872 11.6953C72.1872 12.0072 71.9674 12.132 71.6971 11.9745C71.4268 11.8171 71.207 11.4399 71.207 11.128C71.207 10.8162 71.4268 10.6914 71.6971 10.8489C71.9674 11.0063 72.1872 11.3835 72.1872 11.6953Z" fill="#333333"/>
<path d="M81.9168 16.0526L73.1637 11.0003C73.0182 10.9172 72.9023 10.6944 72.9023 10.5013V10.1479C72.9023 9.95483 73.0182 9.8687 73.1637 9.95186L81.9168 15.0041C82.0623 15.0873 82.1782 15.31 82.1782 15.5031V15.8565C82.1782 16.0466 82.0623 16.1357 81.9168 16.0526Z" fill="black"/>
<path d="M96.7068 33.7191C96.5345 33.6181 96.2939 33.6329 96.0266 33.7844C95.4979 34.0903 95.0732 34.8269 95.0762 35.4328L95.0999 44.1681C95.0999 44.4681 95.2069 44.679 95.3791 44.7799L95.9078 45.0888C95.7356 44.9878 95.6286 44.777 95.6286 44.477L95.6049 35.7417C95.6019 35.1358 96.0296 34.3992 96.5553 34.0933C96.8197 33.9389 97.0603 33.927 97.2355 34.025L96.7068 33.7191Z" fill="#E6E6E6"/>
<path d="M96.5579 34.0933C97.0866 33.7874 97.5143 34.0339 97.5172 34.6398L97.541 43.375C97.544 43.975 97.1163 44.7175 96.5906 45.0235C96.0619 45.3294 95.6342 45.0799 95.6312 44.477L95.6074 35.7417C95.6045 35.1358 96.0292 34.3962 96.5579 34.0933Z" fill="#BFBFBF"/>
<path d="M96.7128 35.0735C97.1464 34.824 97.4969 35.023 97.4999 35.522L97.5207 42.686C97.5207 43.179 97.1732 43.7879 96.7395 44.0374C96.3059 44.2869 95.9554 44.082 95.9524 43.5889L95.9316 36.4249C95.9316 35.9289 96.2791 35.3259 96.7128 35.0735Z" fill="#CCCCCC"/>
<path d="M59.7214 11.0925L52.5247 6.93728C52.29 6.80363 52.0792 6.78877 51.9247 6.87788L50.5703 7.66497C50.7248 7.57587 50.9356 7.58775 51.1703 7.72438L58.367 11.8796C58.8333 12.1499 59.2105 12.8004 59.2075 13.338L59.1838 21.6099C59.1838 21.8742 59.0887 22.0613 58.9373 22.1504L60.2917 21.3634C60.4431 21.2742 60.5352 21.0901 60.5382 20.8228L60.5619 12.5509C60.5649 12.0133 60.1877 11.3599 59.7214 11.0925Z" fill="#8482FF"/>
<path d="M58.3697 11.8796C58.836 12.1499 59.2132 12.8004 59.2103 13.338L59.1865 21.6099C59.1835 22.1445 58.8063 22.3583 58.34 22.091L51.1433 17.9298C50.677 17.6595 50.3027 17.012 50.3027 16.4744L50.3265 8.20255C50.3295 7.66792 50.7067 7.4511 51.17 7.71842L58.3697 11.8796Z" fill="#4D4BB7"/>
<path d="M54.241 15.334L53.5638 17.1487L50.748 15.5211L52.4975 13.0529C52.744 12.7054 53.3558 13.0618 53.6024 13.6915L54.241 15.334Z" fill="white"/>
<path d="M55.3515 18.1824L53.5664 17.1488L54.2406 15.334L55.3515 18.1824Z" fill="#E6E6E6"/>
<path d="M58.1698 19.807L55.3511 18.1794L54.2402 15.3339L55.0956 13.041C55.3511 12.3549 56.3817 12.9489 56.6372 13.932L58.1698 19.807Z" fill="white"/>
<path d="M54.2554 12.1083C54.2554 12.5063 53.9733 12.6667 53.6258 12.4677C53.2783 12.2657 52.9961 11.7816 52.9961 11.3836C52.9961 10.9856 53.2783 10.8252 53.6258 11.0242C53.9733 11.2232 54.2554 11.7103 54.2554 12.1083Z" fill="#E6E6E6"/>
<path d="M86.1986 42.5642L68.5112 32.3528C68.2677 32.2132 68.0479 32.1983 67.8905 32.2904L66.5391 33.0775C66.6965 32.9854 66.9163 32.9973 67.1598 33.1399L84.8471 43.3513C85.3313 43.6305 85.7204 44.3047 85.7174 44.8631L85.7085 47.8808C85.7085 48.157 85.6105 48.353 85.4531 48.4421L86.8074 47.6551C86.9649 47.563 87.0629 47.3699 87.0629 47.0937L87.0718 44.076C87.0718 43.5176 86.6827 42.8434 86.1986 42.5642Z" fill="#8482FF"/>
<path d="M84.8478 43.3483C85.332 43.6275 85.7211 44.3018 85.7181 44.8601L85.7092 47.8778C85.7062 48.4332 85.3171 48.659 84.833 48.3798L67.1457 38.1684C66.6615 37.8892 66.2724 37.212 66.2754 36.6566L66.2843 33.6389C66.2873 33.0805 66.6764 32.8577 67.1605 33.1369L84.8478 43.3483Z" fill="#4D4BB7"/>
<path d="M84.2598 45.1987L68.0368 35.7863C67.8497 35.6793 67.7012 35.7922 67.7012 36.0417C67.7012 36.2882 67.8527 36.5763 68.0368 36.6833L84.2598 46.0957C84.4469 46.2026 84.5955 46.0898 84.5955 45.8403C84.5955 45.5937 84.4469 45.3056 84.2598 45.1987Z" fill="white"/>
<path d="M86.1996 53.1201L68.5123 42.9087C68.2687 42.7691 68.0489 42.7543 67.8915 42.8493L66.5371 43.6364C66.6945 43.5443 66.9143 43.5562 67.1579 43.6958L84.8452 53.9072C85.3293 54.1864 85.7184 54.8636 85.7154 55.4161L85.7065 58.4367C85.7065 58.7129 85.6085 58.906 85.4511 58.9981L86.8025 58.211C86.9599 58.1189 87.055 57.9259 87.058 57.6496L87.0669 54.629C87.0728 54.0736 86.6837 53.3993 86.1996 53.1201Z" fill="#8482FF"/>
<path d="M84.8478 53.9042C85.332 54.1834 85.7211 54.8606 85.7181 55.4131L85.7092 58.4337C85.7062 58.9891 85.3171 59.2119 84.833 58.9327L67.1457 48.7213C66.6615 48.4421 66.2724 47.7679 66.2754 47.2125L66.2843 44.1918C66.2873 43.6364 66.6764 43.4107 67.1605 43.6899L84.8478 53.9042Z" fill="#4D4BB7"/>
<path d="M84.2598 55.5824L68.0368 46.1699C67.8497 46.063 67.7012 46.1759 67.7012 46.4254C67.7012 46.6719 67.8527 46.96 68.0368 47.0669L84.2598 56.4794C84.4469 56.5863 84.5955 56.4734 84.5955 56.2239C84.5955 55.9774 84.4469 55.6923 84.2598 55.5824Z" fill="white"/>
<path d="M59.7214 63.5159L52.5247 59.3606C52.29 59.227 52.0792 59.2121 51.9247 59.3012L50.5703 60.0883C50.7248 59.9992 50.9356 60.0111 51.1703 60.1477L58.367 64.303C58.8333 64.5733 59.2105 65.2237 59.2075 65.7613L59.1838 74.0332C59.1838 74.2976 59.0887 74.4847 58.9373 74.5738L60.2917 73.7867C60.4431 73.6976 60.5352 73.5134 60.5382 73.2461L60.5619 64.9742C60.5649 64.4366 60.1877 63.7832 59.7214 63.5159Z" fill="#8482FF"/>
<path d="M58.3697 64.3C58.836 64.5703 59.2132 65.2208 59.2103 65.7584L59.1865 74.0302C59.1835 74.5649 58.8063 74.7787 58.34 74.5114L51.1433 70.3562C50.677 70.0859 50.3027 69.4384 50.3027 68.9008L50.3265 60.6289C50.3295 60.0943 50.7067 59.8774 51.17 60.1447L58.3697 64.3Z" fill="#4D4BB7"/>
<path d="M58.1352 67.1097V67.1216L54.7076 67.4097L51.2266 63.1207C51.2266 62.9871 51.3216 62.9307 51.4404 62.999L57.9243 66.7414C58.0371 66.8127 58.1352 66.976 58.1352 67.1097Z" fill="white"/>
<path d="M54.7037 67.6829L58.1313 67.3948V71.5708C58.1313 71.7045 58.0362 71.7609 57.9204 71.6926L51.4365 67.9472C51.3207 67.8789 51.2227 67.7156 51.2227 67.5819V63.394L54.6502 67.6205L54.7037 67.6829Z" fill="white"/>
<path d="M85.9067 65.1168L53.8794 46.6275C53.5527 46.4404 53.2586 46.4226 53.0448 46.5473L51.6934 47.3344C51.9072 47.2097 52.2013 47.2275 52.528 47.4146L84.5523 65.9039C85.1998 66.2781 85.7225 67.181 85.7195 67.9266L85.7136 70.3354C85.7136 70.7066 85.5829 70.965 85.372 71.0898L86.7264 70.3027C86.9373 70.1809 87.068 69.9195 87.068 69.5483L87.0739 67.1395C87.0739 66.3969 86.5542 65.491 85.9067 65.1168Z" fill="#8482FF"/>
<path d="M84.5521 65.9039C85.1996 66.2781 85.7224 67.181 85.7194 67.9265L85.7135 70.3353C85.7105 71.0808 85.1848 71.3808 84.5373 71.0066L52.513 52.5173C51.8655 52.1431 51.3427 51.2372 51.3457 50.4917L51.3517 48.0829C51.3546 47.3374 51.8803 47.0404 52.5278 47.4146L84.5521 65.9039Z" fill="#4D4BB7"/>
<path d="M83.7088 67.7216L52.8845 49.8175C52.6973 49.7105 52.5488 49.8234 52.5488 50.0729C52.5488 50.3194 52.7003 50.6075 52.8845 50.7144L83.7088 68.6186C83.8959 68.7255 84.0444 68.6126 84.0444 68.3631C84.0444 68.1166 83.8929 67.8285 83.7088 67.7216Z" fill="white"/>
<path d="M72.8649 71.0868L65.6682 66.9315C65.4335 66.7979 65.2227 66.783 65.0682 66.8721L63.7168 67.6592C63.8683 67.5701 64.0821 67.582 64.3168 67.7186L71.5135 71.8739C71.9798 72.1442 72.357 72.7946 72.354 73.3322L72.3303 81.6041C72.3303 81.8685 72.2352 82.0556 72.0837 82.1447L73.4381 81.3576C73.5896 81.2685 73.6817 81.0844 73.6847 80.817L73.7084 72.5451C73.7055 72.0105 73.3282 71.3571 72.8649 71.0868Z" fill="#8482FF"/>
<path d="M71.5103 71.8739C71.9766 72.1442 72.3538 72.7946 72.3509 73.3322L72.3271 81.6041C72.3241 82.1388 71.9469 82.3526 71.4806 82.0853L64.2839 77.93C63.8176 77.6597 63.4434 77.0122 63.4434 76.4776L63.4671 68.2057C63.4701 67.6711 63.8473 67.4543 64.3106 67.7216L71.5103 71.8739Z" fill="#4D4BB7"/>
<path d="M70.8663 79.3082L64.92 75.8747C64.5606 75.6668 64.2695 75.1648 64.2695 74.752V71.4759C64.2695 71.063 64.5606 70.8967 64.92 71.1046L70.8663 74.5381C71.2256 74.746 71.5167 75.248 71.5167 75.6608V78.9369C71.5167 79.3498 71.2256 79.5161 70.8663 79.3082ZM64.92 71.4194C64.7121 71.2977 64.5398 71.3957 64.5398 71.6363V74.9123C64.5398 75.1529 64.7091 75.447 64.92 75.5658L70.8663 78.9993C71.0742 79.1211 71.2464 79.023 71.2464 78.7825V75.5064C71.2464 75.2658 71.0771 74.9717 70.8663 74.8529L64.92 71.4194Z" fill="white"/>
<path d="M67.8926 77.0568C67.0194 76.5549 66.3125 75.3311 66.3125 74.3302C66.3125 73.3293 67.0224 72.9253 67.8926 73.4302C68.7659 73.9322 69.4728 75.1559 69.4728 76.1569C69.4728 77.1578 68.7659 77.5617 67.8926 77.0568ZM67.8926 73.7421C67.1709 73.3263 66.5828 73.6589 66.5828 74.4876C66.5828 75.3163 67.1709 76.3291 67.8926 76.7479C68.6144 77.1637 69.2025 76.8311 69.2025 76.0024C69.2025 75.1708 68.6144 74.1579 67.8926 73.7421Z" fill="white"/>
<path d="M69.7699 74.1607L66.0156 71.9925V71.2084C66.0156 70.9381 66.2057 70.8282 66.4433 70.9648L69.3422 72.64C69.5769 72.7766 69.7699 73.1063 69.7699 73.3766V74.1607ZM66.2859 71.8381L69.4967 73.6914V73.2162C69.4967 73.1182 69.4254 72.9964 69.3422 72.9459L66.4433 71.2708C66.3572 71.2203 66.2889 71.2619 66.2889 71.3599V71.8381H66.2859Z" fill="white"/>
<path d="M86.2321 78.7914L79.0354 74.6361C78.8007 74.4995 78.5899 74.4876 78.4354 74.5767L77.084 75.3638C77.2384 75.2747 77.4493 75.2866 77.684 75.4232L84.8807 79.5785C85.347 79.8488 85.7212 80.4992 85.7212 81.0338L85.6975 89.3057C85.6975 89.5731 85.6024 89.7572 85.4509 89.8463L86.8024 89.0592C86.9538 88.9701 87.0459 88.783 87.0489 88.5187L87.0726 80.2468C87.0726 79.7121 86.6984 79.0617 86.2321 78.7914Z" fill="#8482FF"/>
<path d="M84.8804 79.5785C85.3467 79.8488 85.721 80.4992 85.721 81.0338L85.6972 89.3057C85.6972 89.8404 85.317 90.0572 84.8537 89.7869L77.657 85.6317C77.1907 85.3614 76.8135 84.7109 76.8164 84.1763L76.8402 75.9044C76.8402 75.3697 77.2204 75.1529 77.6867 75.4232L84.8804 79.5785Z" fill="#4D4BB7"/>
<path d="M81.2955 79.3973C79.65 78.4468 78.3164 78.9428 78.3164 80.5051C78.3164 81.518 78.8778 82.7268 79.7183 83.7099C79.6797 83.9743 79.5074 84.5267 78.756 84.102C78.756 84.102 79.7955 85.2485 80.7787 84.7079C80.948 84.8327 81.1173 84.9485 81.2955 85.0495C82.9409 85.9999 84.2746 85.5039 84.2746 83.9416C84.2746 82.3852 82.9409 80.3477 81.2955 79.3973Z" fill="white"/>
<path d="M85.7153 26.071L65.2865 14.2764C64.9093 14.0596 64.5677 14.0388 64.3182 14.1814L62.9668 14.9655C63.2133 14.823 63.5579 14.8408 63.9351 15.0606L84.3638 26.8551C85.1153 27.2887 85.7212 28.3402 85.7212 29.2045L85.7004 36.2853C85.7004 36.713 85.5489 37.016 85.3024 37.1586L86.6568 36.3715C86.9004 36.2289 87.0518 35.9289 87.0548 35.4982L87.0756 28.4174C87.0726 27.556 86.4667 26.5046 85.7153 26.071Z" fill="#8482FF"/>
<path d="M84.3647 26.8551C85.1161 27.2887 85.722 28.3402 85.722 29.2045L85.7012 36.2853C85.6983 37.1497 85.0864 37.4972 84.335 37.0635L63.9062 25.269C63.1547 24.8354 62.5488 23.7839 62.5488 22.9196L62.5696 15.8388C62.5726 14.9744 63.1844 14.624 63.9359 15.0576L84.3647 26.8551Z" fill="#4D4BB7"/>
<path d="M83.851 28.554L64.5895 17.3892C64.4024 17.2823 64.2539 17.3951 64.2539 17.6446C64.2539 17.8911 64.4054 18.1792 64.5895 18.2862L83.851 29.451C84.0382 29.5579 84.1867 29.4451 84.1867 29.1956C84.1867 28.949 84.0352 28.6639 83.851 28.554Z" fill="white"/>
<path d="M83.851 31.2302L64.5895 20.0653C64.4024 19.9584 64.2539 20.0713 64.2539 20.3208C64.2539 20.5673 64.4054 20.8554 64.5895 20.9623L83.851 32.1271C84.0382 32.2341 84.1867 32.1212 84.1867 31.8717C84.1867 31.6252 84.0352 31.3371 83.851 31.2302Z" fill="white"/>
<path d="M83.851 33.9033L64.5895 22.7384C64.4024 22.6315 64.2539 22.7444 64.2539 22.9939C64.2539 23.2404 64.4054 23.5285 64.5895 23.6354L83.851 34.8002C84.0382 34.9072 84.1867 34.7943 84.1867 34.5448C84.1867 34.2983 84.0352 34.0102 83.851 33.9033Z" fill="white"/>
<path d="M52.6797 28.8095C52.6589 28.7471 52.6292 28.6848 52.6203 28.6194C52.6114 28.5511 52.6263 28.4798 52.6292 28.4115C52.6322 28.2571 52.5579 28.1026 52.4332 28.0105C52.3857 27.9749 52.3292 27.9452 52.2877 27.9006C52.249 27.8591 52.2283 27.8026 52.1956 27.7521C52.0441 27.5115 51.7114 27.467 51.4293 27.4908C50.8412 27.5413 50.2828 27.7789 49.7719 28.0699C49.0739 28.465 48.4264 28.9788 47.9839 29.6501C47.8116 29.9114 47.672 30.1966 47.5562 30.4877C47.4552 30.7431 47.372 31.0074 47.2978 31.2747C47.2503 31.453 47.1849 31.6252 47.1463 31.8034C47.1285 31.8866 47.1166 31.9727 47.1107 32.0559C47.1047 32.1361 47.1166 32.2133 47.0691 32.2846C47.0097 32.3707 41.5386 39.211 41.1525 39.6922C40.811 40.1169 40.5347 40.6426 40.1338 41.0109C39.3021 41.7743 38.221 42.3237 37.2141 42.8108C36.3943 43.2088 34.9449 43.5682 35.3043 44.8216C35.4112 45.1929 35.7171 45.4632 35.9815 45.7424C36.43 46.2176 36.7923 46.773 37.0448 47.373C37.0596 47.4087 37.0775 47.4473 37.1101 47.4651C37.1577 47.4918 37.2171 47.4651 37.2675 47.4384C38.6962 46.678 42.599 43.9217 43.2613 43.5207C43.2613 43.4999 43.2584 43.4791 43.2584 43.4583C43.4574 43.3603 43.6118 43.1762 43.7484 42.992C44.2296 42.3445 44.6811 41.6762 45.1088 40.9931C45.5365 40.31 45.9404 39.609 46.3236 38.9021C46.7097 38.1922 47.078 37.4735 47.4374 36.7458C47.7968 36.0211 48.6254 34.2657 48.6938 34.1172C48.7443 34.0073 48.774 33.8439 48.8957 33.7845C48.973 33.7489 49.0621 33.7489 49.1393 33.7073C49.2284 33.6598 49.3056 33.5944 49.3799 33.5261C50.1759 32.7895 50.6244 31.7589 51.2511 30.8738C51.3639 30.7164 51.4827 30.5619 51.6312 30.4372C51.9164 30.2055 52.3084 30.0896 52.5015 29.7778C52.5787 29.6501 52.6144 29.5045 52.65 29.359C52.6886 29.1838 52.7332 28.9907 52.6797 28.8095Z" fill="#FFB78C"/>
<path d="M31.6274 108.754C31.669 109.25 31.8205 109.708 32.1977 109.969C32.4145 110.121 32.6878 110.171 32.9521 110.18C33.6768 110.21 34.4075 109.954 34.96 109.482C35.5807 108.95 35.9639 108.169 36.6262 107.688C36.9797 107.433 37.3925 107.275 37.7905 107.097C38.7736 106.654 39.6914 106.063 40.4963 105.345C40.6716 105.19 40.8765 104.997 40.9627 104.774C41.0993 104.415 40.9567 104.008 40.6389 103.812C40.4429 103.69 40.2171 103.634 39.9914 103.595C39.1865 103.453 38.3608 103.503 37.547 103.577C36.5104 103.672 35.4679 103.803 34.4936 104.171C34.0719 104.332 33.665 104.537 33.2907 104.792C33.1511 104.89 32.9462 105.134 32.7799 105.163C32.7205 105.175 32.3224 105.036 32.3284 105.012C32.0997 105.737 31.871 106.461 31.7462 107.21C31.669 107.629 31.5829 108.214 31.6274 108.754Z" fill="#4D4BB7"/>
<path d="M39.1383 70.3472C39.0997 70.0651 38.9542 69.8126 38.8205 69.5601C37.9235 67.8523 37.5166 65.9514 36.8661 64.1485C36.5513 63.2782 36.183 62.4228 35.6721 61.6476C35.3692 61.1902 34.5346 59.9665 33.8187 60.2219C33.7178 60.2576 33.6346 60.3348 33.5574 60.412C32.2446 61.6803 31.1545 63.1802 30.3437 64.8168C29.515 66.489 29.1407 68.084 29.1348 69.9492C29.1318 71.3333 29.3397 72.7204 29.7734 74.0391C29.9278 74.5025 30.106 74.9629 30.2011 75.441C30.3021 75.9489 30.308 76.4687 30.314 76.9855C30.3347 78.9993 30.3555 81.0131 30.3763 83.0239C30.3852 83.9506 30.3882 84.8772 30.4535 85.795C30.5189 86.7128 30.5337 87.7078 30.2724 88.5959C29.9991 89.5315 29.8179 90.4968 29.7021 91.4651C29.3932 94.0105 29.9308 96.5737 30.4625 99.0835C30.9436 101.344 31.4248 103.607 31.906 105.867C31.9327 105.998 31.9654 106.138 32.0604 106.236C32.1347 106.313 32.2386 106.352 32.3426 106.381C32.9633 106.559 33.6376 106.45 34.2286 106.188C34.8197 105.927 35.3335 105.526 35.8177 105.098C35.9454 104.985 36.0731 104.869 36.1503 104.718C36.3434 104.341 36.1622 103.889 36.0018 103.497C34.5643 99.9894 34.6741 96.0064 35.5474 92.3175C35.8444 91.0552 36.2305 89.8107 36.4028 88.5276C36.4147 88.4325 36.4236 88.3345 36.4206 88.2365C36.4236 88.2306 36.4236 88.2246 36.4265 88.2187C37.8047 82.5338 38.5027 76.7093 39.1205 70.8937C39.1442 70.7126 39.1621 70.5284 39.1383 70.3472Z" fill="#333333"/>
<path d="M49.5699 102.968C48.7472 102.933 47.9185 102.927 47.0988 103.04C46.478 103.126 45.7889 103.331 45.3137 103.756C44.9929 104.041 44.7464 104.4 44.5207 104.765C43.9029 105.76 42.7653 108.08 44.4078 108.751C44.69 108.867 45.0078 108.87 45.3107 108.823C46.3533 108.662 47.2503 107.964 48.2868 107.78C48.673 107.712 49.068 107.718 49.4571 107.706C50.859 107.667 52.2936 107.403 53.4727 106.646C54.04 106.28 54.4083 105.752 54.5687 105.092C54.7856 104.195 54.2361 103.637 53.4074 103.447C52.154 103.159 50.862 103.025 49.5699 102.968Z" fill="#8482FF"/>
<path d="M48.2116 102.339C47.374 99.5677 46.9552 96.6688 46.9701 93.7759C46.982 91.4591 46.6671 89.0236 46.9582 86.7306C47.2523 84.4228 47.0711 81.9041 46.6582 79.6141C45.9899 75.9103 44.3564 72.3996 44.0296 68.6513C43.9079 67.2375 43.9702 65.8088 43.7267 64.4099C42.0515 65.2742 40.0645 65.5207 38.2289 65.0901C37.2725 64.8643 36.3696 64.4663 35.4518 64.1247C35.0687 63.9644 34.6588 63.9317 34.2697 63.7891C33.9251 63.6644 33.6964 63.4535 33.4083 63.2159C31.9559 64.9653 31.0946 67.1959 30.9877 69.4681C30.9075 71.1908 31.2639 72.9283 32.0005 74.4876C32.7727 76.1212 34.0202 77.2737 35.3597 78.4469C36.6547 79.5815 38.0151 80.6864 38.9477 82.1328C39.7556 83.3833 40.1862 84.9753 40.5813 86.395C41.0298 88.0019 41.3803 89.6444 41.4545 91.3136C41.5228 92.8551 41.3149 94.2778 41.5852 95.8223C41.707 96.5233 41.8763 97.2153 42.0931 97.8925C42.8802 100.367 44.294 102.737 44.2049 105.333C44.2019 105.443 44.1989 105.561 44.2643 105.651C44.3148 105.716 44.3979 105.749 44.4781 105.775C45.5444 106.117 46.7147 105.654 47.6027 104.973C47.9087 104.739 48.2027 104.468 48.3482 104.112C48.5799 103.554 48.3869 102.921 48.2116 102.339Z" fill="#424242"/>
<path d="M29.1556 44.4296C28.8407 46.1285 29.016 47.9997 29.3427 49.6006C29.8179 51.9263 30.4832 54.2163 31.3297 56.435C31.6743 57.3379 32.0545 58.2497 32.1317 59.215C32.2683 60.911 31.4634 62.5238 30.6615 64.0208C30.5872 64.1604 30.51 64.3118 30.5248 64.4693C30.5367 64.597 30.611 64.7098 30.6852 64.8168C31.6594 66.2068 33.1356 67.1959 34.7335 67.7661C36.3315 68.3394 38.0482 68.5146 39.7442 68.4938C41.1847 68.476 42.6579 68.3097 43.95 67.6681C44.0212 65.5534 44.0955 63.4356 44.0747 61.3179C44.0569 59.3279 43.5787 57.2369 44.0509 55.2707C44.2232 54.5608 44.5173 53.8836 44.7014 53.1767C44.9004 52.4223 44.9717 51.6352 44.9153 50.86C44.8677 50.2273 44.6866 49.5264 44.1371 49.2056C43.9648 49.1076 43.7718 49.0541 43.5965 48.9621C42.7649 48.5254 42.5629 47.3552 41.761 46.8651C41.4699 46.6869 41.1283 46.6186 40.8016 46.5265C37.2968 45.5464 34.6474 41.2396 30.7446 41.8604C30.5367 41.8931 30.3199 41.9317 30.1446 42.0505C29.9546 42.1782 29.8358 42.3861 29.7377 42.5911C29.4645 43.1643 29.2774 43.7851 29.1556 44.4296Z" fill="#D9D9D9"/>
<path d="M30.8718 43.0782C30.8213 43.1762 30.7768 43.2742 30.7441 43.3782C30.4976 44.1326 31.1986 44.6316 31.7807 44.9523C32.7163 45.4691 33.7945 45.7008 34.8608 45.7038C35.5053 45.7068 36.1498 45.6295 36.7825 45.4959C37.026 45.4454 37.1923 45.4394 37.3141 45.2197C37.4567 44.9642 37.4745 44.6464 37.4894 44.3583C37.525 43.7138 37.5428 43.0663 37.5606 42.4188C37.5874 41.4178 37.6141 40.4169 37.6408 39.416C37.6527 38.9942 37.0646 39.113 36.7498 39.0744C36.2954 39.015 35.8409 38.9496 35.3895 38.8635C34.4954 38.6942 33.6103 38.4477 32.7935 38.0348C32.5767 37.9249 32.2351 37.6636 31.9916 37.6487C31.6857 37.6339 31.6886 38.0378 31.656 38.2843C31.5639 38.9645 31.5817 39.6565 31.5579 40.3426C31.5312 41.1446 31.4451 41.9703 31.0827 42.6861C31.0174 42.8198 30.9401 42.9475 30.8718 43.0782Z" fill="#FFB78C"/>
<path d="M39.3547 33.1341C39.4468 33.2796 39.5359 33.4341 39.5567 33.6034C39.5745 33.7638 39.524 33.9271 39.524 34.0905C39.5211 34.6578 40.0765 35.0409 40.525 35.3855C40.7032 35.5221 40.8903 35.7092 40.8636 35.932C40.8517 36.0211 40.8071 36.1013 40.7655 36.1815C40.4477 36.8111 40.4299 37.5269 40.4685 38.216C40.4953 38.6556 40.8309 39.8258 40.3883 40.108C39.8626 40.4407 39.2923 40.702 38.6953 40.8862C38.3449 40.9931 37.9231 41.0763 37.5875 40.8832C37.2994 40.7169 37.1033 40.3813 36.842 40.1644C36.5301 39.906 36.1143 40.2773 35.7786 40.3902C35.342 40.5357 34.8846 40.6248 34.4272 40.6605C33.5362 40.7317 32.6273 40.604 31.7897 40.2833C31.2551 40.0783 30.7442 39.7961 30.3225 39.4071C29.8532 38.9734 29.5086 38.421 29.1908 37.8655C28.7661 37.123 28.3711 36.3359 28.282 35.4835C28.1839 34.5776 28.4513 33.6776 28.8819 32.8876C29.3067 32.1064 29.8413 31.5302 30.5423 30.9956C31.8343 30.0095 33.554 29.8105 35.1787 29.8075C35.7697 29.8075 36.2628 29.855 36.8004 30.0837C37.3677 30.3243 37.8281 30.7134 38.0746 31.2688C38.3627 31.943 38.9656 32.5133 39.3547 33.1341Z" fill="#FFE5CC"/>
<path d="M35.821 37.3339C36.0141 37.0072 36.326 36.7636 36.7269 36.5468C37.5764 36.0864 37.7279 35.035 37.8378 34.1826C37.9774 33.0836 37.9506 31.851 37.5645 30.8055C37.2111 29.8461 36.023 29.46 35.1082 29.3471C33.9795 29.2075 32.8123 29.3323 31.7549 29.76C30.1866 30.3926 28.8768 31.8718 28.161 33.3717C27.2907 35.2013 27.2759 37.0963 27.4095 39.0655C27.4541 39.7308 27.4778 40.1971 27.9442 40.7199C28.2293 41.0407 28.5887 41.2842 28.9629 41.4921C30.9945 42.6386 33.531 42.8495 35.723 42.0594C36.0527 41.9406 36.3765 41.7981 36.6408 41.5694C37.2942 41.008 37.1932 40.2239 36.6557 39.612C36.3824 39.3002 35.9131 39.2556 35.7022 38.8635C35.6042 38.6794 35.5864 38.4626 35.5894 38.2517C35.5953 37.8804 35.6755 37.5834 35.821 37.3339Z" fill="#733118"/>
<path d="M62.5554 29.5461L52.2222 23.582C51.8955 23.3949 51.6014 23.3771 51.3876 23.4989L50.0332 24.286C50.2471 24.1612 50.5411 24.179 50.8678 24.3691L61.201 30.3332C61.8485 30.7075 62.3713 31.6134 62.3713 32.3559L62.3386 43.5029C62.3386 43.8712 62.2079 44.1296 61.997 44.2544L63.3514 43.4673C63.5623 43.3455 63.693 43.0841 63.693 42.7158L63.7257 31.5688C63.7257 30.8263 63.2029 29.9204 62.5554 29.5461Z" fill="#8482FF"/>
<path d="M61.2003 30.3302C61.8477 30.7045 62.3705 31.6104 62.3705 32.3529L62.3378 43.4999C62.3349 44.2425 61.8091 44.5425 61.1616 44.1682L50.8284 38.2041C50.181 37.8299 49.6582 36.924 49.6582 36.1815L49.6909 25.0344C49.6938 24.2919 50.2196 23.9919 50.8671 24.3662L61.2003 30.3302Z" fill="#4D4BB7"/>
<path d="M55.664 30.5292C53.8462 29.4808 52.373 30.3184 52.373 32.4064C52.373 34.4914 53.8462 37.0339 55.664 38.0824C57.4817 39.1308 58.9549 38.2903 58.9549 36.2052C58.9549 34.1172 57.4817 31.5777 55.664 30.5292ZM54.8591 35.5815V32.1866L57.4223 35.3647L54.8591 35.5815Z" fill="white"/>
<path d="M45.2244 54.148C48.4886 54.4301 51.7736 54.1866 55.0348 53.9074C55.0496 53.9074 55.0675 53.9015 55.0823 53.9015C55.9051 53.8213 56.0951 53.1292 56.4189 52.4847C56.707 51.9055 56.9654 51.3144 57.2208 50.7204C58.5812 47.5245 59.7752 44.2603 60.8147 40.9486C61.0048 40.6545 61.3137 40.4496 61.5929 40.2268C62.7216 39.3209 63.6423 38.1596 64.2661 36.8557C64.4651 36.4369 64.6314 35.935 64.4116 35.528C64.3433 35.4003 64.2423 35.2934 64.1918 35.1568C64.1324 34.9964 64.1502 34.8152 64.0997 34.6518C63.9839 34.2806 63.5562 34.1024 63.372 33.7608C63.3008 33.6242 63.2532 33.4519 63.1077 33.3955C62.9889 33.3509 62.8523 33.4163 62.7691 33.5113C62.6889 33.6093 62.6473 33.7341 62.5998 33.8529C62.3355 34.5301 61.8068 35.1003 61.1504 35.4152C61.0226 35.4746 60.8652 35.5251 60.7524 35.4449C60.9543 35.1211 61.1028 34.7677 61.1919 34.3964C61.2424 34.1826 61.2721 33.9479 61.183 33.7489C61.0939 33.5469 60.8444 33.4044 60.6454 33.4994C60.4524 33.5915 60.4049 33.841 60.3573 34.0519C60.2771 34.4024 60.1316 34.738 59.9267 35.038C59.7158 35.3469 59.4455 35.6112 59.2405 35.9231C59.0653 36.1874 58.9406 36.4785 58.8515 36.7814C58.6911 37.328 58.6346 37.9131 58.6198 38.4834C58.6109 38.7863 58.5752 39.1011 58.5129 39.41C58.501 39.4427 58.4861 39.4754 58.4742 39.5051C58.1327 40.4437 53.5616 49.072 52.8963 50.0729C52.7032 50.07 52.5102 50.067 52.329 50.0462C50.1697 49.7937 47.9896 49.4432 46.0055 48.5552C45.0016 48.1067 44.0511 47.5216 42.9967 47.2067C41.9423 46.8919 40.7156 46.8889 39.8305 47.5394C39.1236 48.0591 38.7613 48.8997 38.589 49.7373C37.9267 52.9659 42.0285 53.7767 44.3571 54.0589C44.6481 54.0915 44.9362 54.1212 45.2244 54.148Z" fill="#FFE5CC"/>
<path d="M48.7081 51.5491C48.7199 52.6688 48.4437 53.7322 47.915 54.7183C47.7249 55.0717 47.5348 55.2024 47.1131 55.1935C46.8131 55.1875 46.5161 55.1519 46.2191 55.1103C44.5469 54.8816 42.8955 54.5133 41.2827 54.0143C40.5134 53.7767 39.857 53.6044 39.1738 53.15C38.8026 52.9005 38.4729 52.5827 38.2412 52.1996C37.861 51.5729 37.7244 50.8214 37.864 50.1026C38.1135 48.8017 39.0016 47.6017 40.2401 47.0938C40.4035 47.0285 40.5698 46.9721 40.7451 46.9394C41.1015 46.8711 41.4727 46.8978 41.8321 46.9513C42.8568 47.1028 43.84 47.4532 44.8142 47.8007C45.8478 48.172 46.8784 48.5433 47.9091 48.9175C48.3606 49.0809 48.3843 49.4729 48.5001 49.8888C48.6427 50.4323 48.7021 50.9848 48.7081 51.5491Z" fill="#F2F2F2"/>
<path d="M48.7801 28.9135C48.498 29.0917 48.1891 29.2521 47.9752 29.5075C47.6604 29.8818 47.5891 30.4134 47.6515 30.9005C47.6782 31.1144 47.7287 31.3282 47.8534 31.5064C47.9782 31.6817 48.1861 31.8094 48.3999 31.7886C48.5989 31.7708 48.7682 31.6312 48.89 31.4738C49.0207 31.3074 49.1217 31.1144 49.1781 30.9124C49.2969 30.5025 49.2583 30.0362 49.4989 29.6857C49.6088 29.5254 49.7692 29.4065 49.9177 29.2788C50.1048 29.1184 50.2771 28.9402 50.4137 28.7353C50.5117 28.5898 50.5919 28.4264 50.6246 28.2512C50.6543 28.0759 50.6335 27.8888 50.5385 27.7403C50.2771 27.3245 49.9385 27.9185 49.7662 28.1026C49.4692 28.4115 49.1395 28.6848 48.7801 28.9135Z" fill="#FFE5CC"/>
<path d="M92.329 65.9721C94.2477 66.4236 96.1664 66.8721 98.0852 67.3236C99.2346 67.5938 100.393 67.8671 101.477 68.3304C102.564 68.7967 103.586 69.471 104.293 70.4155C104.334 70.469 104.373 70.5432 104.334 70.5996C104.311 70.6353 104.263 70.6472 104.222 70.6561C102.736 70.959 101.228 71.262 99.7188 71.1254C98.5574 71.0214 97.4347 70.6561 96.3536 70.2135C95.1506 69.7205 93.9893 69.1264 92.8874 68.4403C92.0082 67.8938 91.138 67.2582 90.6479 66.3493C90.5885 66.2394 90.535 66.1147 90.5736 65.9959C90.6063 65.8979 90.6924 65.8296 90.7786 65.7731C91.0251 65.6098 91.2449 65.4494 91.5063 65.6335C91.7617 65.8117 92.032 65.9008 92.329 65.9721Z" fill="#FFB78C"/>
<path d="M116.318 78.3132C116.318 80.9507 114.459 84.1704 112.151 85.4921C110.987 86.1663 109.932 86.2228 109.178 85.7743C109.16 85.7683 109.148 85.7624 109.13 85.7505C107.755 84.9307 106.169 84.4763 104.607 84.212C102.424 83.8496 100.196 83.8555 97.9834 83.6922C97.0359 83.6209 96.0765 83.5169 95.1855 83.1724C94.1726 82.7863 93.3024 82.1121 92.4826 81.3992C91.7757 80.7844 91.0896 80.131 90.4124 79.4805C88.3868 77.538 86.3641 75.5955 84.3325 73.659C84.1038 73.4303 83.8424 73.1956 83.6642 72.9283C83.4949 72.6699 83.5929 72.2897 83.7295 72.0402C83.8751 71.77 84.1038 71.5531 84.3384 71.3601C84.3503 71.3541 84.3622 71.3423 84.3741 71.3304C84.4038 71.2947 84.4275 71.2532 84.4157 71.2145C84.4038 71.1967 84.386 71.1789 84.3681 71.167C84.3562 71.1551 84.3444 71.1492 84.3325 71.1373C84.3325 71.1373 84.3325 71.1314 84.3266 71.1314C83.8513 70.7453 83.385 70.3651 82.9098 69.9849C82.6187 69.7503 82.3068 69.4889 82.2237 69.1176C82.1464 68.7849 82.295 68.4226 82.5445 68.1879C82.6662 68.078 82.8147 67.9889 82.9722 67.9355C83.0375 67.9117 83.0939 67.9058 83.1533 67.9058C83.2632 67.9058 83.3702 67.9236 83.4801 67.8939C83.2454 67.7246 83.0108 67.5553 82.7791 67.3919C82.7791 67.3801 82.7732 67.3801 82.7672 67.386C82.5504 67.2226 82.3336 67.0712 82.1168 66.9108C81.8702 66.7296 81.6534 66.4771 81.6296 66.1623C81.594 65.699 81.9177 65.2445 82.3187 65.0515C82.8682 64.7812 83.6107 65.0158 84.1275 65.3396C84.187 65.3752 84.2374 65.4168 84.2909 65.4495C84.2374 65.4079 84.1899 65.2683 84.1513 65.2089C84.0919 65.1138 84.0236 65.0277 83.9583 64.9386C83.9226 64.8911 83.887 64.8495 83.8543 64.8049C83.7503 64.6772 83.6494 64.5406 83.5632 64.401C83.3464 64.0386 83.1771 63.5931 83.4296 63.201C83.6226 62.904 83.9969 62.7674 84.3473 62.7615C84.7572 62.7496 85.1493 62.8654 85.5354 62.9961C86.9165 63.4476 88.268 63.9733 89.5837 64.5703C90.1926 64.8465 90.7896 65.1257 91.345 65.4881C91.9242 65.8683 92.4262 66.3257 92.9608 66.7563C94.6805 68.1493 96.8398 68.9869 99.0467 69.1087C100.113 69.1681 101.188 69.0671 102.237 69.2542C103.309 69.4473 104.301 69.9285 105.278 70.4126C106.882 71.2205 111.685 73.8342 114.797 75.4975C114.949 75.5807 115.1 75.6549 115.243 75.7322C115.914 76.1955 116.318 77.0836 116.318 78.3132Z" fill="#FFE5CC"/>
<path d="M116.319 78.3132C116.319 80.9507 114.459 84.1704 112.151 85.4921C110.987 86.1663 109.933 86.2228 109.178 85.7743C109.16 85.7683 109.149 85.7624 109.131 85.7505C108.424 85.305 107.99 84.3991 107.99 83.1249C107.99 80.4874 109.85 77.2677 112.151 75.9401C113.158 75.3609 114.082 75.2391 114.801 75.5005C114.958 75.5599 115.104 75.6341 115.246 75.7351C115.915 76.1955 116.319 77.0836 116.319 78.3132Z" fill="#FFB78C"/>
<path d="M83.5907 63.2159C83.4481 63.3941 83.3946 63.6287 83.3857 63.8574C83.3827 63.9436 83.3857 64.0297 83.4095 64.1129C83.4392 64.2049 83.4926 64.2851 83.552 64.3594C83.8461 64.7396 84.2322 65.0396 84.6273 65.3128C84.9064 64.9267 84.948 64.4277 84.9807 63.9525C84.9837 63.9198 84.9837 63.8871 84.9748 63.8545C84.9658 63.8248 84.948 63.801 84.9302 63.7772C84.7847 63.5872 84.6391 63.3941 84.4936 63.204C84.3718 63.0466 84.2946 62.9456 84.0896 62.9664C83.8906 62.9872 83.7184 63.0555 83.5907 63.2159Z" fill="#FFB78C"/>
<path d="M81.6824 65.9662C81.6409 66.1355 81.6557 66.3137 81.6795 66.486C81.6943 66.584 81.7151 66.685 81.7775 66.7622C81.822 66.8157 81.8814 66.8513 81.9408 66.884C82.3745 67.1305 82.8408 67.3147 83.322 67.4335C83.4467 67.0711 83.4586 66.682 83.4705 66.3019C83.4734 66.2514 83.4734 66.1949 83.4527 66.1474C83.4378 66.1118 83.414 66.0821 83.3903 66.0553C83.1408 65.7702 82.8022 65.5623 82.4369 65.4672C82.2468 65.4197 82.1428 65.3841 81.9795 65.5118C81.8369 65.6247 81.727 65.788 81.6824 65.9662Z" fill="#FFB78C"/>
<path d="M82.3369 68.9988C82.2924 69.1443 82.2538 69.3017 82.3072 69.4413C82.3399 69.5305 82.4082 69.6047 82.4765 69.673C82.8745 70.071 83.329 70.4245 83.8458 70.6472C83.8785 70.4037 83.9082 70.1572 83.8933 69.9106C83.8785 69.6641 83.8101 69.4176 83.6646 69.2186C83.4834 68.9721 83.2042 68.8325 82.9221 68.7285C82.83 68.6958 82.6459 68.5919 82.5478 68.6275C82.429 68.6721 82.3696 68.8919 82.3369 68.9988Z" fill="#FFB78C"/>
<path d="M83.9254 72.9818C84.2432 73.1986 84.5581 73.4125 84.8759 73.6293C84.8907 73.6412 84.9115 73.6501 84.9293 73.6441C84.9501 73.6352 84.9531 73.6115 84.9531 73.5907C84.968 73.3442 84.9828 73.0858 84.8878 72.86C84.8076 72.6699 84.6591 72.5185 84.5076 72.3818C84.365 72.2541 84.2046 72.0818 84.0145 72.0284C83.6938 71.9393 83.4264 72.2452 83.5245 72.5571C83.5839 72.7442 83.768 72.8719 83.9254 72.9818Z" fill="#FFB78C"/>
<path d="M93.5157 80.4666C92.4494 80.0151 91.6148 79.1686 90.8069 78.337C89.5386 77.045 88.2734 75.744 87.011 74.4461C86.5358 73.959 86.0576 73.4748 85.6477 72.9313C85.2141 72.364 84.8636 71.8026 84.3795 71.3274C84.4092 71.2918 84.4329 71.2502 84.4211 71.2116C84.4092 71.1937 84.3914 71.1759 84.3735 71.164C84.3617 71.1522 84.3498 71.1462 84.3379 71.1343C84.9468 71.4908 85.4368 72.0521 85.8943 72.5749C87.0407 73.9025 88.1456 75.2658 89.399 76.4895C90.7594 77.8291 92.292 79.0053 93.5157 80.4666Z" fill="#FFB78C"/>
<path d="M92.759 76.8965C91.5531 76.0143 90.5462 74.9005 89.5482 73.7956C88.6987 72.8541 87.8582 71.9185 87.0087 70.9799C86.6464 70.576 86.284 70.172 85.8741 69.8156C85.4939 69.4829 85.0781 69.1948 84.6623 68.9097C84.199 68.5949 83.7445 68.2355 83.2574 67.9622C83.2218 67.9444 83.1861 67.9266 83.1594 67.9028C83.2693 67.9028 83.3762 67.9206 83.4861 67.8909C83.2515 67.7216 83.0168 67.5523 82.7852 67.389C83.9019 67.9088 84.9563 68.7523 85.8385 69.5958C86.3018 70.0354 86.7325 70.5017 87.1661 70.9769C89.0106 72.9669 90.8759 74.9421 92.759 76.8965Z" fill="#FFB78C"/>
<path d="M93.257 72.7383C92.5827 72.3937 92.0392 71.8561 91.4897 71.3393C89.7641 69.6998 87.9137 68.185 85.9712 66.8039C85.3682 66.3762 84.7237 65.9544 84.2039 65.4227C84.1802 65.393 84.1505 65.3633 84.1326 65.3336C84.192 65.3693 84.2425 65.4109 84.296 65.4435C84.2425 65.402 84.198 65.2624 84.1564 65.203C84.097 65.1079 84.0287 65.0218 83.9633 64.9327C83.9277 64.8851 83.892 64.8436 83.8594 64.799C84.0346 64.9148 84.2099 65.0337 84.3792 65.1554C86.0009 66.29 87.48 67.5939 88.9532 68.9067C89.4908 69.3879 90.0284 69.8661 90.563 70.3413C91.466 71.1462 92.36 71.9422 93.257 72.7383Z" fill="#FFB78C"/>
<path d="M96.0885 73.1244C96.2548 73.1422 96.4212 73.1422 96.5845 73.1273C96.6677 73.1184 96.7538 73.1065 96.8221 73.0531C96.8786 73.0085 96.9142 72.9432 96.938 72.8778C97.0182 72.6581 96.9914 72.4056 96.8993 72.1888C96.6617 71.6185 95.7826 70.8076 95.2509 71.5205C94.7668 72.168 95.3816 73.0501 96.0885 73.1244Z" fill="#FFB78C"/>
<path d="M94.8523 77.8499C94.9533 77.8588 95.0543 77.8588 95.1494 77.8261C95.3632 77.7518 95.488 77.5113 95.4672 77.2855C95.3989 76.5727 94.1454 76.2074 93.6524 76.6856C93.0108 77.3034 94.4039 77.8083 94.8523 77.8499Z" fill="#FFB78C"/>
<path d="M94.8764 80.8616C95.2001 80.7161 94.5615 79.1122 93.8249 79.7181C93.6319 79.8755 93.4923 80.1398 93.6289 80.3715C93.7774 80.621 94.5972 80.9863 94.8764 80.8616Z" fill="#FFB78C"/>
<path d="M94.7722 82.3764C94.793 82.3526 94.8019 82.317 94.8019 82.2873C94.8167 81.9131 93.9286 81.2567 93.7742 81.7913C93.7296 81.9457 93.8098 82.1744 93.9286 82.2784C94.0534 82.3913 94.6474 82.516 94.7722 82.3764Z" fill="#FFB78C"/>
<path d="M107.855 11.4098C106.165 10.4326 104.633 10.3435 103.525 10.988L101.775 12.0038C102.883 11.3593 104.416 11.4514 106.106 12.4256C109.468 14.3681 112.186 19.0699 112.174 22.937C112.168 24.8528 111.491 26.2012 110.401 26.8368L112.15 25.821C113.243 25.1854 113.917 23.837 113.923 21.9212C113.935 18.0541 111.218 13.3523 107.855 11.4098Z" fill="#4D4D4D"/>
<path d="M106.107 12.4256C109.469 14.3681 112.187 19.0699 112.175 22.937C112.163 26.7953 109.43 28.3546 106.068 26.4121C102.709 24.4726 99.9882 19.7679 100 15.9067C100.012 12.0425 102.75 10.4861 106.107 12.4256Z" fill="black"/>
<path d="M106.271 15.2531C104.156 14.0324 102.445 15.0096 102.445 17.4362C102.445 19.8599 104.159 22.8152 106.271 24.0359C108.383 25.2566 110.096 24.2795 110.096 21.8528C110.099 19.4262 108.383 16.4709 106.271 15.2531ZM105.335 21.1281V17.1808L108.314 20.8757L105.335 21.1281Z" fill="white"/>
<path d="M114.337 31.2906L108.62 27.9878C107.72 27.468 106.906 27.4205 106.318 27.7621L104.568 28.7779C105.156 28.4363 105.97 28.4838 106.87 29.0036L112.588 32.3064C114.367 33.3341 115.81 35.832 115.804 37.8755L115.787 44.4514C115.784 45.4672 115.424 46.183 114.845 46.5186L116.595 45.5028C117.174 45.1672 117.533 44.4514 117.536 43.4356L117.554 36.8597C117.557 34.8162 116.116 32.3183 114.337 31.2906Z" fill="url(#paint0_linear_24_5788)"/>
<path d="M112.587 32.3064C114.366 33.3341 115.81 35.832 115.804 37.8755L115.786 44.4514C115.78 46.4949 114.328 47.3235 112.549 46.2959L106.831 42.9931C105.046 41.9624 103.605 39.4645 103.611 37.421L103.629 30.8451C103.635 28.8016 105.088 27.973 106.873 29.0036L112.587 32.3064Z" fill="#E8772B"/>
<path d="M109.837 33.3608C107.723 32.1401 106.012 33.1173 106.012 35.5439C106.012 37.9675 107.725 40.9228 109.837 42.1436C111.949 43.3643 113.663 42.3871 113.663 39.9605C113.666 37.5369 111.949 34.5815 109.837 33.3608ZM108.902 39.2358V35.2884L111.881 38.9833L108.902 39.2358Z" fill="white"/>
<path d="M116.88 53.946L106.173 47.7651C105.971 47.6493 105.783 47.6374 105.65 47.7146L103.9 48.7304C104.034 48.6532 104.221 48.6621 104.423 48.7809L115.131 54.9618C115.537 55.1965 115.864 55.7608 115.861 56.2301L115.826 68.5355C115.826 68.7642 115.745 68.9246 115.615 69.0018L117.364 67.986C117.495 67.9088 117.575 67.7484 117.575 67.5197L117.611 55.2143C117.611 54.748 117.287 54.1807 116.88 53.946Z" fill="#8482FF"/>
<path d="M115.13 54.9618C115.537 55.1965 115.864 55.7608 115.861 56.2301L115.825 68.5355C115.825 68.9958 115.495 69.183 115.089 68.9483L104.381 62.7674C103.98 62.5358 103.647 61.9685 103.65 61.5051L103.686 49.1997C103.686 48.7334 104.022 48.5493 104.423 48.7809L115.13 54.9618Z" fill="#4D4BB7"/>
<path d="M109.837 54.454C107.723 53.2332 106.012 54.2104 106.012 56.637C106.012 59.0607 107.725 62.016 109.837 63.2367C111.949 64.4575 113.663 63.4803 113.663 61.0536C113.666 58.627 111.949 55.6747 109.837 54.454ZM108.902 60.3289V56.3816L111.881 60.0765L108.902 60.3289Z" fill="white"/>
<path fill-rule="evenodd" clip-rule="evenodd" d="M113.912 69.9611V69.1473L112.783 68.4968V69.3077L113.912 69.9611Z" fill="#E8772B"/>
<path fill-rule="evenodd" clip-rule="evenodd" d="M115.935 71.1284V70.3176L114.807 69.6641V70.4779L115.935 71.1284Z" fill="#E8772B"/>
<path fill-rule="evenodd" clip-rule="evenodd" d="M118.071 72.3492L117.729 71.3512L116.746 70.7839L116.868 71.666C117.269 71.8977 117.676 72.1353 118.071 72.3492Z" fill="#E8772B"/>
<path fill-rule="evenodd" clip-rule="evenodd" d="M107.832 66.4504V65.6395L106.703 64.9861V65.7999L107.832 66.4504Z" fill="#E8772B"/>
<path fill-rule="evenodd" clip-rule="evenodd" d="M109.857 67.6176V66.8068L108.729 66.1563V66.9672L109.857 67.6176Z" fill="#E8772B"/>
<path fill-rule="evenodd" clip-rule="evenodd" d="M111.875 68.7849V67.9711L110.746 67.3206V68.1315L111.875 68.7849Z" fill="#E8772B"/>
<path fill-rule="evenodd" clip-rule="evenodd" d="M102.243 61.6298L102.917 61.5259L102.914 60.3972L102.207 60.2487C102.21 60.7091 102.219 61.1695 102.243 61.6298Z" fill="#E8772B"/>
<path fill-rule="evenodd" clip-rule="evenodd" d="M103.638 63.9941L104.063 63.4624C103.733 63.2694 103.412 62.91 103.199 62.5031L102.602 62.8149C102.866 63.308 103.249 63.7476 103.638 63.9941Z" fill="#E8772B"/>
<path fill-rule="evenodd" clip-rule="evenodd" d="M105.78 65.2653L105.822 64.4782L104.839 63.9109L104.574 64.5673L105.78 65.2653Z" fill="#E8772B"/>
<path fill-rule="evenodd" clip-rule="evenodd" d="M102.211 54.4747L102.918 54.8816V53.5867L102.211 53.1797V54.4747Z" fill="#E8772B"/>
<path fill-rule="evenodd" clip-rule="evenodd" d="M102.211 56.7974L102.918 57.2043V55.9094L102.211 55.5024V56.7974Z" fill="#E8772B"/>
<path fill-rule="evenodd" clip-rule="evenodd" d="M102.211 59.129L102.918 59.4854V58.2231L102.211 57.8162V59.129Z" fill="#E8772B"/>
<path fill-rule="evenodd" clip-rule="evenodd" d="M102.211 47.4978L102.918 47.9077V46.7315L102.211 46.1375V47.4978Z" fill="#E8772B"/>
<path fill-rule="evenodd" clip-rule="evenodd" d="M102.211 49.8205L102.918 50.2304V48.9354L102.211 48.5255V49.8205Z" fill="#E8772B"/>
<path fill-rule="evenodd" clip-rule="evenodd" d="M102.211 52.1342L102.918 52.5441V51.2491L102.211 50.8422V52.1342Z" fill="#E8772B"/>
<path fill-rule="evenodd" clip-rule="evenodd" d="M105.203 44.5186L105.352 45.4156L106.385 46.0126V45.1988L105.203 44.5186Z" fill="#E8772B"/>
<path fill-rule="evenodd" clip-rule="evenodd" d="M103.092 43.4939L103.606 44.5246C103.909 44.5305 104.25 44.7919 104.574 44.9671L104.25 43.9781C103.855 43.7761 103.454 43.4909 103.092 43.4939Z" fill="#E8772B"/>
<path fill-rule="evenodd" clip-rule="evenodd" d="M102.219 45.0324L102.917 45.8225C102.92 45.6354 102.914 45.4453 102.92 45.2611C102.929 45.08 102.973 44.9196 103.05 44.7978L102.421 43.8295C102.326 43.9751 102.266 44.1592 102.245 44.3701C102.228 44.5869 102.228 44.8097 102.219 45.0324Z" fill="#E8772B"/>
<path fill-rule="evenodd" clip-rule="evenodd" d="M111.334 48.0591V48.87L112.463 49.5205V48.7096L111.334 48.0591Z" fill="#E8772B"/>
<path fill-rule="evenodd" clip-rule="evenodd" d="M109.312 46.8889V47.6998L110.441 48.3532V47.5424L109.312 46.8889Z" fill="#E8772B"/>
<path fill-rule="evenodd" clip-rule="evenodd" d="M107.295 45.7246V46.5355L108.424 47.1889V46.3751L107.295 45.7246Z" fill="#E8772B"/>
<path fill-rule="evenodd" clip-rule="evenodd" d="M117.5 51.6174L117.26 52.2887C117.586 52.4817 117.916 52.66 118.243 52.8619L118.685 52.3481C118.296 52.0897 117.901 51.855 117.5 51.6174Z" fill="#E8772B"/>
<path fill-rule="evenodd" clip-rule="evenodd" d="M115.393 50.3997V51.2105L116.48 51.8402L116.542 51.062L115.393 50.3997Z" fill="#E8772B"/>
<path fill-rule="evenodd" clip-rule="evenodd" d="M113.375 49.2354V50.0462L114.504 50.6967V49.8858L113.375 49.2354Z" fill="#E8772B"/>
<path fill-rule="evenodd" clip-rule="evenodd" d="M119.998 58.3002L119.291 57.8933V59.1883L119.998 59.5952V58.3002Z" fill="#E8772B"/>
<path fill-rule="evenodd" clip-rule="evenodd" d="M119.998 55.8796L119.291 55.7548V56.8835L119.998 57.2637V55.8796Z" fill="#E8772B"/>
<path fill-rule="evenodd" clip-rule="evenodd" d="M119.526 53.3134L118.943 53.649C119.181 54.047 119.303 54.5014 119.291 54.8697L119.974 54.7925C119.971 54.341 119.814 53.7975 119.526 53.3134Z" fill="#E8772B"/>
<path fill-rule="evenodd" clip-rule="evenodd" d="M119.998 65.2772L119.291 64.8673V66.1623L119.998 66.5722V65.2772Z" fill="#E8772B"/>
<path fill-rule="evenodd" clip-rule="evenodd" d="M119.998 62.9545L119.291 62.5476V63.8396L119.998 64.2495V62.9545Z" fill="#E8772B"/>
<path fill-rule="evenodd" clip-rule="evenodd" d="M119.998 60.6408L119.291 60.2309V61.5259L119.998 61.9358V60.6408Z" fill="#E8772B"/>
<path fill-rule="evenodd" clip-rule="evenodd" d="M119.847 72.3284L119.206 71.3749C119.084 71.6541 118.823 71.7819 118.514 71.7284L119.01 72.759C119.378 72.8125 119.69 72.6551 119.847 72.3284Z" fill="#E8772B"/>
<path fill-rule="evenodd" clip-rule="evenodd" d="M119.998 69.9879L119.291 69.4206V70.5493L119.986 71.3601C120.001 70.9116 120.001 70.4483 119.998 69.9879Z" fill="#E8772B"/>
<path fill-rule="evenodd" clip-rule="evenodd" d="M119.998 67.6147L119.291 67.2078V68.5028L119.998 68.9097V67.6147Z" fill="#E8772B"/>
<path d="M17.5405 38.67L18.6662 39.3234C17.4217 39.9976 16.5959 40.0214 16.0554 39.7066L14.9297 39.0531C15.4703 39.368 16.296 39.3412 17.5405 38.67Z" fill="url(#paint1_linear_24_5788)"/>
<path d="M12.5125 40.9808L11.3868 40.3273C10.6739 39.9145 9.96703 39.2135 9.30469 38.1146L10.4304 38.768C11.0927 39.867 11.7996 40.5679 12.5125 40.9808Z" fill="url(#paint2_linear_24_5788)"/>
<path d="M5.69597 27.2705L16.8875 20.8104C17.3628 20.5372 17.7905 20.5104 18.0994 20.6886L19.2251 21.3421C18.9162 21.1639 18.4885 21.1876 18.0132 21.4638L6.82166 27.9239C5.88309 28.4645 5.12273 29.7803 5.1257 30.8614L5.15243 39.861C5.1554 40.3957 5.34252 40.7699 5.64845 40.9481L4.52276 40.2947C4.2198 40.1165 4.02971 39.7422 4.02674 39.2076L4.00001 30.208C3.99704 29.1269 4.7574 27.8141 5.69597 27.2705Z" fill="url(#paint3_linear_24_5788)"/>
<path d="M6.82292 27.9268C5.88435 28.4674 5.12399 29.7832 5.12696 30.8643L5.15369 39.8639C5.15666 40.9421 5.92296 41.3728 6.86154 40.8322L10.4346 38.7709C12.5613 42.2995 15.1661 41.7203 16.871 40.7371C17.9521 40.1134 18.6353 39.3649 18.6709 39.3263C14.8216 41.4084 14.9849 37.2947 15.1126 36.071L18.0531 34.3721C18.9946 33.8285 19.752 32.5157 19.7491 31.4405L19.7223 22.441C19.7194 21.3568 18.956 20.9232 18.0145 21.4667L6.82292 27.9268Z" fill="#E8772B"/>
<path d="M7.05363 35.0196C7.03878 34.8978 7.03284 34.7701 7.03284 34.6335C7.03284 34.4998 7.03878 34.3632 7.05363 34.2265L6.56652 34.3275C6.49524 34.3424 6.45365 34.277 6.47742 34.179L6.73582 33.1068C6.75364 33.0296 6.8071 32.9553 6.86651 32.9226C6.88136 32.9137 6.89621 32.9078 6.90809 32.9048L7.39519 32.8068C7.50806 32.5098 7.64469 32.2157 7.80211 31.9306L7.49915 31.6306C7.4546 31.5861 7.46945 31.4791 7.52885 31.393L8.21199 30.4307C8.23575 30.395 8.26545 30.3683 8.29218 30.3535C8.33377 30.3297 8.37535 30.3267 8.40208 30.3535L8.70207 30.6564C8.90998 30.4277 9.1268 30.2168 9.35847 30.0327L9.3555 29.4446C9.3555 29.3584 9.41788 29.2515 9.49213 29.207L10.3357 28.7199C10.4129 28.6753 10.4723 28.711 10.4723 28.7971L10.4753 29.3852C10.7069 29.305 10.9237 29.2604 11.1317 29.2515L11.4316 28.6011C11.4584 28.5417 11.5 28.4971 11.5415 28.4704C11.5683 28.4555 11.598 28.4466 11.6217 28.4555L12.3049 28.6308C12.3672 28.6456 12.3821 28.7377 12.3375 28.8327L12.0376 29.4832C12.195 29.5872 12.3316 29.7238 12.4445 29.8901L12.9286 29.4268C12.9435 29.4119 12.9583 29.403 12.9732 29.3941C13.0326 29.3614 13.086 29.3733 13.1038 29.4268L13.3682 30.199C13.392 30.2703 13.3533 30.3802 13.2791 30.4485L12.792 30.9118C12.8039 31.0336 12.8128 31.1613 12.8128 31.295C12.8128 31.4287 12.8039 31.5682 12.792 31.7049L13.2791 31.6039C13.3504 31.589 13.392 31.6544 13.3682 31.7524L13.1098 32.8246C13.092 32.9019 13.0385 32.9761 12.9791 33.0088C12.9642 33.0177 12.9494 33.0236 12.9375 33.0266L12.4504 33.1246C12.3375 33.4216 12.2009 33.7157 12.0465 34.0008L12.3494 34.3008C12.394 34.3454 12.3791 34.4523 12.3197 34.5414L11.6396 35.5037C11.6158 35.5394 11.5861 35.5631 11.5594 35.5809C11.5178 35.6047 11.4762 35.6077 11.4495 35.5809L11.1465 35.278C10.9416 35.5067 10.7218 35.7176 10.4901 35.9017L10.4931 36.4898C10.4931 36.5789 10.4307 36.6829 10.3564 36.7274L9.51292 37.2145C9.4357 37.2591 9.37629 37.2234 9.37629 37.1373L9.37332 36.5492C9.14165 36.6294 8.92483 36.674 8.71692 36.6829L8.41693 37.3333C8.3902 37.3927 8.34862 37.4373 8.30704 37.464C8.2803 37.4789 8.2506 37.4878 8.22684 37.4789L7.54073 37.3036C7.48133 37.2858 7.46648 37.1967 7.51103 37.0987L7.81102 36.4482C7.6536 36.3443 7.51697 36.2076 7.40114 36.0413L6.917 36.5047C6.90215 36.5195 6.8873 36.5284 6.87542 36.5373C6.81898 36.57 6.76255 36.5581 6.74473 36.5047L6.48039 35.7324C6.45662 35.6611 6.49524 35.5512 6.56949 35.4829L7.05363 35.0196ZM9.92874 35.2958C11.0485 34.6483 11.9514 33.083 11.9485 31.797C11.9455 30.5109 11.0336 29.9941 9.91686 30.6416C8.80008 31.2861 7.89418 32.8514 7.89715 34.1374C7.90012 35.4205 8.81196 35.9403 9.92874 35.2958Z" fill="white"/>
<path d="M13.942 30.4456C13.9747 30.2377 14.0252 30.0268 14.0935 29.8189L13.7965 29.7417C13.7519 29.7298 13.743 29.6644 13.7727 29.5961L14.1262 28.8298C14.144 28.7882 14.1767 28.7556 14.2064 28.7377C14.2272 28.7259 14.2479 28.7229 14.2628 28.7259L14.5598 28.8031C14.6816 28.6041 14.8153 28.414 14.9578 28.2388L14.845 27.9031C14.8271 27.8526 14.8568 27.7724 14.9073 27.722L15.4806 27.1754C15.4895 27.1665 15.5014 27.1576 15.5103 27.1517C15.5519 27.1279 15.5905 27.1368 15.6023 27.1754L15.7152 27.5111C15.7954 27.4546 15.8786 27.3982 15.9617 27.3507C16.0449 27.3032 16.1281 27.2616 16.2083 27.2259L16.3211 26.7596C16.333 26.7032 16.3716 26.6497 16.4132 26.626C16.4221 26.62 16.434 26.6171 16.4429 26.6141L17.0191 26.4953C17.0696 26.4864 17.0993 26.5339 17.0815 26.6022L16.9686 27.0655C17.1142 27.0745 17.2478 27.1101 17.3696 27.1695L17.6636 26.7507C17.6815 26.7269 17.7022 26.7062 17.7201 26.6972C17.7498 26.6794 17.7795 26.6794 17.8003 26.6972L18.1567 27.0537C18.1894 27.0863 18.1804 27.1636 18.1359 27.2259L17.8389 27.6447C17.9072 27.7754 17.9607 27.9239 17.9933 28.0962L18.3587 27.8853C18.4151 27.8526 18.4567 27.8764 18.4567 27.9417L18.4596 28.6338C18.4596 28.6962 18.4151 28.7734 18.3616 28.8031L17.9963 29.014C17.9636 29.2219 17.9131 29.4328 17.8448 29.6407L18.1418 29.7179C18.1864 29.7298 18.1953 29.7951 18.1656 29.8634L17.8121 30.6297C17.7943 30.6713 17.7617 30.704 17.7319 30.7218C17.7112 30.7337 17.6904 30.7367 17.6755 30.7337L17.3785 30.6565C17.2567 30.8555 17.1231 31.0456 16.9805 31.2208L17.0934 31.5564C17.1112 31.6069 17.0815 31.6871 17.031 31.7346L16.4577 32.2811C16.4488 32.2901 16.437 32.299 16.428 32.3049C16.3865 32.3287 16.3479 32.3198 16.333 32.2811L16.2201 31.9455C16.1399 32.002 16.0568 32.0554 15.9736 32.1059C15.8904 32.1534 15.8073 32.195 15.7271 32.2307L15.6142 32.697C15.6023 32.7534 15.5608 32.8039 15.5192 32.8306C15.5103 32.8366 15.4984 32.8395 15.4895 32.8425L14.9133 32.9583C14.8628 32.9702 14.8331 32.9227 14.8509 32.8514L14.9638 32.3881C14.8182 32.3792 14.6846 32.3435 14.5628 32.2841L14.2658 32.7029C14.2479 32.7267 14.2272 32.7475 14.2093 32.7564C14.1796 32.7742 14.1499 32.7742 14.1291 32.7564L13.7727 32.4C13.7401 32.3703 13.749 32.293 13.7935 32.2307L14.0876 31.8119C14.0192 31.6812 13.9658 31.5327 13.9331 31.3604L13.5678 31.5713C13.5113 31.604 13.4698 31.5772 13.4698 31.5148L13.4668 30.8228C13.4668 30.7604 13.5113 30.6832 13.5648 30.6535L13.942 30.4456ZM15.9766 31.399C16.7785 30.9357 17.426 29.8159 17.4231 28.8952C17.4201 27.9744 16.7696 27.6031 15.9677 28.0665C15.1687 28.5269 14.5212 29.6496 14.5242 30.5703C14.5271 31.4881 15.1776 31.8594 15.9766 31.399Z" fill="white"/>
<path d="M12.4162 80.7516L0.158351 73.6738C-0.076292 73.5371 -0.0465903 73.2995 0.223694 73.1451L12.2647 66.1919C12.535 66.0345 12.9479 66.0167 13.1825 66.1533L25.4374 73.2282C25.672 73.3649 25.6423 73.6025 25.3721 73.7569L13.331 80.7101C13.0607 80.8705 12.6509 80.8853 12.4162 80.7516Z" fill="#F2F2F2"/>
<path d="M12.8745 73.9797L1.16016 67.2166L12.8002 60.4952L24.5145 67.2582L12.8745 73.9797Z" fill="#F2F2F2"/>
<path d="M12.8717 73.2431L2.4375 67.2196L12.8063 61.2347L23.2375 67.2553L12.8717 73.2431Z" fill="#E6E6E6"/>
<path d="M12.875 79.923V73.9797L24.5151 67.2582V73.2015L12.875 79.923Z" fill="#BFBFBF"/>
<path d="M1.16016 67.2167V73.16L12.8745 79.923V73.9797L1.16016 67.2167Z" fill="#E6E6E6"/>
<path d="M4.97708 65.6867L4.15435 65.2114L4.01178 63.3046L3.7207 59.2355L4.54047 59.6335L4.77214 62.868L4.97708 65.6867Z" fill="#4D4D4D"/>
<path d="M4.53851 59.6307L3.71875 59.2357L13.9361 53.334L14.7588 53.732L4.53851 59.6307Z" fill="#737373"/>
<path d="M15.6405 65.9275L11.215 68.4818L10.517 68.8857L10.4605 68.9214L10.4546 68.8442L10.015 68.5947L9.18932 68.1194L8.75568 67.87L7.93294 67.3947L7.49336 67.1423L6.66765 66.6641L6.24292 66.4175L5.41127 65.9394L4.97763 65.6869L4.77269 62.8682L4.54102 59.6337L14.7584 53.732L14.8 54.3171L14.8623 55.1458L14.9039 55.7309V55.7369L14.9633 56.5685L15.0049 57.1536L15.0673 57.9882L15.1089 58.5674L15.1683 59.405L15.1861 59.6099L15.2098 59.9901L15.2722 60.8247L15.6405 65.9275Z" fill="#1F2125"/>
<path d="M6.2438 67.4176L5.41216 66.9394L5.17158 63.6395L4.97852 60.9842L5.80422 61.3822L5.93194 63.1999L6.2438 67.4176Z" fill="#4D4D4D"/>
<path d="M5.80219 61.3822L4.98242 60.9842L15.1998 55.0854L16.0195 55.4835L5.80219 61.3822Z" fill="#737373"/>
<path d="M16.9072 67.676L11.8014 70.6224L11.2787 70.3253L10.5183 69.8857L10.4619 69.9214L10.456 69.8442L10.0164 69.5947L9.19067 69.1194L8.75703 68.87L7.93429 68.3947L7.49471 68.1423L6.669 67.6641L6.24427 67.4175L5.9324 63.1999L5.80469 61.3822L14.8637 56.1458L16.0161 55.4805L16.0577 56.0715L16.123 56.9002L16.1646 57.4794L16.221 58.3229L16.2686 58.9021L16.328 59.7367L16.3696 60.3159V60.3218L16.4319 61.1535V61.1594L16.4438 61.3347L16.9072 67.676Z" fill="#1F2125"/>
<path d="M7.49458 69.1422L6.66887 68.664L6.33028 63.9712L6.24414 62.7326L7.06094 63.1306L7.09064 63.5345L7.49458 69.1422Z" fill="#4D4D4D"/>
<path d="M7.06297 63.1306L6.24023 62.7326L16.4576 56.8339L17.2803 57.2319L7.06297 63.1306Z" fill="#737373"/>
<path d="M18.1452 69.1957L12.8702 72.2431L11.8009 71.6223L11.2782 71.3253L10.5178 70.8857L10.4614 70.9214L10.4554 70.8441L10.0159 70.5946L9.19015 70.1194L8.75651 69.8699L7.93377 69.3947L7.49419 69.1422L7.09025 63.5346L7.06055 63.1306L14.9641 58.5685L17.2809 57.2349L17.3225 57.814L17.3848 58.6487L17.4264 59.2278V59.2338L17.4858 60.0654L17.5274 60.6505L17.5898 61.4852L17.7026 63.0593L18.1452 69.1957Z" fill="#1F2125"/>
<path d="M8.75638 69.8698L7.93364 69.3946L7.5 63.481L8.32571 63.879L8.75638 69.8698Z" fill="#4D4D4D"/>
<path d="M8.32172 63.879L7.50195 63.484L17.7193 57.5823L18.542 57.9803L8.32172 63.879Z" fill="#737373"/>
<path d="M19.3098 68.5243L18.1455 69.1956L12.8705 72.243L11.8013 71.6222L11.2785 71.3252L10.5182 70.8856L10.4617 70.9212L10.4558 70.844L10.0162 70.5945L9.19049 70.1193L8.75685 69.8698L8.32617 63.879L13.723 60.7663L15.0684 59.9881L16.2209 59.3228L17.3852 58.6485L18.5435 57.9832L18.5851 58.5624L18.6505 59.397L18.6891 59.9762L18.7485 60.8197L18.9653 63.7899L19.3098 68.5243Z" fill="#1F2125"/>
<path d="M10.0151 70.5944L9.18942 70.1192L8.76172 64.2294L9.58148 64.6274L10.0151 70.5944Z" fill="#4D4D4D"/>
<path d="M9.58445 64.6304L8.76172 64.2324L18.982 58.3336L19.8018 58.7316L9.58445 64.6304Z" fill="#737373"/>
<path d="M20.4677 67.8559L19.3093 68.5242L18.145 69.1954L12.87 72.2428L11.8007 71.6221L11.278 71.325L10.5176 70.8855L10.4612 70.9211L10.4553 70.8439L10.0157 70.5944L9.58203 64.6273L14.9996 61.5027L15.1689 61.4047L16.3273 60.7364L17.4856 60.0652L18.6499 59.3969L19.8024 58.7316L19.841 59.3107L19.9063 60.1454V60.1513L20.2212 64.5174L20.4677 67.8559Z" fill="#1F2125"/>
<path d="M11.2758 71.3251L10.5155 70.8855L10.459 70.9212L10.4531 70.844L10.0254 64.9838L10.8452 65.3818L11.2135 70.4816L11.2758 71.3251Z" fill="#4D4D4D"/>
<path d="M10.8462 65.379L10.0234 64.981L20.2408 59.0823L21.0635 59.4803L10.8462 65.379Z" fill="#737373"/>
<path d="M21.6185 67.1849L20.4661 67.8561L19.3077 68.5244L18.1434 69.1957L12.8684 72.2431L11.7991 71.6223L11.2764 71.3253L11.214 70.4818L10.8457 65.382L15.2712 62.8247L16.2841 62.2396L16.4296 62.1594L17.4603 61.5624L17.588 61.4851L18.7463 60.8198L19.9047 60.1515L21.0631 59.4803L21.4789 65.2424L21.6185 67.1849Z" fill="#1F2125"/>
<path d="M13.7276 69.0709L15.2038 69.2105V69.8669L12.7207 69.6501L15.2038 66.573V67.2294L13.7276 69.0709Z" fill="#F2F2F2"/>
<path d="M16.32 70.1194L15.8418 70.3956C16.3141 68.664 16.6645 67.3631 16.8962 66.4988L17.4249 64.5503L17.9031 64.2741L16.32 70.1194Z" fill="#F2F2F2"/>
<path d="M19.9177 65.4978L18.4355 65.3612V64.7107L20.9245 64.9186L18.4355 68.0046V67.3393L19.9177 65.4978Z" fill="#F2F2F2"/>
<path d="M71.2347 122.251C68.3952 123.89 63.7766 123.881 60.9163 122.233C58.059 120.582 58.0442 117.917 60.8837 116.278C63.7231 114.638 68.3417 114.647 71.202 116.296C74.0623 117.944 74.0742 120.611 71.2347 122.251Z" fill="#F2F2F2"/>
<path d="M72.2768 118.83C72.2875 116.847 69.513 115.224 66.0797 115.206C62.6464 115.187 59.8544 116.78 59.8437 118.763C59.8329 120.746 62.6075 122.369 66.0408 122.388C69.4741 122.406 72.266 120.814 72.2768 118.83Z" fill="#C4C4C4"/>
<path d="M72.0693 107.082H60.0579V118.339C60.0253 119.254 60.6134 120.178 61.8281 120.879C64.1805 122.236 67.9853 122.245 70.3228 120.893C71.5346 120.192 72.1138 119.266 72.0633 118.345L72.0693 107.082Z" fill="#D9D9D9"/>
<path d="M72.2768 107.315C72.2875 105.332 69.513 103.709 66.0797 103.69C62.6464 103.672 59.8544 105.264 59.8437 107.248C59.8329 109.231 62.6075 110.854 66.0408 110.872C69.4741 110.891 72.266 109.298 72.2768 107.315Z" fill="#F2F2F2"/>
<path d="M67.3638 110.798C65.3768 111.035 63.2264 110.706 61.6789 109.815C61.4027 109.657 61.1592 109.485 60.9453 109.307L61.9997 108.722L67.1381 110.038L67.3638 110.798Z" fill="#FFD166"/>
<path d="M70.9578 108.38C70.7054 108.763 70.3103 109.12 69.7787 109.429C67.7382 110.608 64.4175 110.602 62.3622 109.417C61.8187 109.102 61.4177 108.737 61.1593 108.347C60.4464 107.266 60.8385 106.001 62.3384 105.137C64.3789 103.958 67.6996 103.963 69.7549 105.149C71.2727 106.025 71.6766 107.299 70.9578 108.38Z" fill="#999999"/>
<path d="M70.9568 108.38C70.7043 108.763 70.3093 109.12 69.7776 109.429C67.7371 110.608 64.4165 110.602 62.3611 109.417C61.8176 109.102 61.4166 108.737 61.1582 108.347C61.4107 107.964 61.8057 107.608 62.3374 107.299C64.3779 106.12 67.6985 106.126 69.7539 107.311C70.3004 107.626 70.7013 107.991 70.9568 108.38Z" fill="#E8772B"/>
<path d="M62.3405 105.689C64.381 104.51 67.7016 104.516 69.757 105.704C70.6658 106.23 71.1737 106.898 71.2836 107.584C71.4232 106.717 70.9124 105.82 69.757 105.152C67.7016 103.966 64.384 103.961 62.3405 105.137C61.2029 105.793 60.7039 106.678 60.8376 107.54C60.9445 106.862 61.4465 106.206 62.3405 105.689Z" fill="#D9D9D9"/>
<path d="M67.2132 121.431C67.1983 121.434 67.1835 121.434 67.1686 121.434C67.0557 121.437 66.9429 121.372 66.8597 121.288C66.6072 121.042 66.533 120.659 66.2894 120.4C66.0934 120.19 65.8053 120.083 65.6063 119.875C65.4578 119.72 65.3687 119.518 65.2231 119.361C65.0776 119.203 64.8311 119.099 64.6499 119.212C64.5222 119.29 64.4242 119.465 64.2786 119.438C64.2341 119.429 64.1955 119.402 64.1628 119.373C63.9311 119.174 63.8331 118.859 63.8123 118.553C63.7915 118.247 63.8361 117.944 63.8331 117.638C63.8301 117.493 63.8183 117.341 63.7618 117.205C63.6282 116.875 63.2777 116.673 63.1322 116.349C63.052 116.171 63.0312 115.954 62.8827 115.832C62.746 115.722 62.5559 115.728 62.3837 115.737C62.3362 115.74 62.2886 115.743 62.25 115.77C62.2025 115.806 62.1847 115.868 62.1728 115.927C61.9322 117.083 62.1698 118.339 61.6946 119.42C61.6144 119.604 61.4956 119.795 61.3025 119.851C61.2253 119.875 61.1392 119.86 61.0709 119.821C60.8273 119.691 60.9402 119.269 60.9402 119.034V109.304C61.154 109.482 61.3976 109.654 61.6738 109.812C63.2213 110.706 65.3746 111.033 67.3587 110.795V119.999C67.3646 120.267 67.5102 121.378 67.2132 121.431Z" fill="#E8772B"/>
<path d="M89.4189 111.979C89.4315 109.652 86.1758 107.749 82.147 107.727C78.1183 107.705 74.8421 109.573 74.8295 111.899C74.8169 114.225 78.0726 116.129 82.1014 116.151C86.1301 116.172 89.4063 114.305 89.4189 111.979Z" fill="#F2F2F2"/>
<path d="M88.3412 111.508C88.352 109.525 85.5775 107.902 82.1442 107.883C78.7109 107.865 75.9189 109.457 75.9081 111.441C75.8974 113.424 78.6719 115.047 82.1052 115.065C85.5385 115.084 88.3305 113.491 88.3412 111.508Z" fill="#C4C4C4"/>
<path d="M88.1298 99.7607H76.1185V111.018C76.0858 111.932 76.6739 112.856 77.8887 113.557C80.2411 114.914 84.0458 114.923 86.3834 113.572C87.5952 112.871 88.1744 111.944 88.1239 111.024L88.1298 99.7607Z" fill="#D9D9D9"/>
<path d="M88.3412 99.9927C88.352 98.0095 85.5775 96.3867 82.1442 96.368C78.7109 96.3494 75.9189 97.942 75.9081 99.9253C75.8974 101.908 78.6719 103.531 82.1052 103.55C85.5385 103.568 88.3305 101.976 88.3412 99.9927Z" fill="#F2F2F2"/>
<path d="M83.4244 103.476C81.4373 103.714 79.2869 103.384 77.7395 102.493C77.4633 102.336 77.2197 102.164 77.0059 101.985L78.0603 101.4L83.1986 102.716L83.4244 103.476Z" fill="#8482FF"/>
<path d="M87.0203 101.059C86.7679 101.442 86.3729 101.798 85.8412 102.107C83.8007 103.286 80.48 103.28 78.4247 102.095C77.8812 101.78 77.4802 101.415 77.2218 101.026C76.5089 99.9448 76.901 98.6796 78.4009 97.8152C80.4414 96.6361 83.7621 96.642 85.8174 97.8271C87.3352 98.7033 87.7391 99.9775 87.0203 101.059Z" fill="#999999"/>
<path d="M87.0212 101.059C86.7688 101.442 86.3737 101.798 85.8421 102.107C83.8016 103.286 80.4809 103.28 78.4256 102.095C77.882 101.78 77.4811 101.415 77.2227 101.026C77.4751 100.643 77.8702 100.286 78.4018 99.9775C80.4423 98.7984 83.763 98.8043 85.8183 99.9894C86.3648 100.304 86.7628 100.67 87.0212 101.059Z" fill="#4D4BB7"/>
<path d="M78.401 98.3677C80.4415 97.1886 83.7622 97.1945 85.8175 98.3826C86.7264 98.9083 87.2343 99.5766 87.3442 100.263C87.4838 99.3954 86.9729 98.4984 85.8175 97.8301C83.7622 96.645 80.4445 96.6391 78.401 97.8153C77.2635 98.4717 76.7645 99.3568 76.8981 100.218C77.008 99.5409 77.507 98.8845 78.401 98.3677Z" fill="#D9D9D9"/>
<path d="M83.2766 114.11C83.2617 114.113 83.2469 114.113 83.235 114.113C83.1221 114.116 83.0093 114.05 82.9261 113.967C82.6736 113.72 82.5994 113.337 82.3558 113.079C82.1598 112.868 81.8717 112.761 81.6727 112.553C81.5242 112.399 81.4351 112.197 81.2896 112.039C81.144 111.882 80.8975 111.778 80.7163 111.891C80.5886 111.968 80.4906 112.143 80.345 112.117C80.3005 112.108 80.2619 112.081 80.2292 112.051C79.9975 111.852 79.8995 111.537 79.8787 111.232C79.8579 110.926 79.9025 110.623 79.8995 110.317C79.8965 110.171 79.8847 110.02 79.8282 109.883C79.6946 109.553 79.3441 109.351 79.1986 109.028C79.1184 108.849 79.0976 108.633 78.9491 108.511C78.8124 108.401 78.6223 108.407 78.4501 108.416C78.4026 108.419 78.355 108.422 78.3164 108.448C78.2689 108.484 78.2511 108.546 78.2392 108.606C77.9986 109.761 78.2362 111.018 77.761 112.099C77.6808 112.283 77.562 112.473 77.3689 112.529C77.2917 112.553 77.2056 112.538 77.1373 112.5C76.8937 112.369 77.0066 111.947 77.0066 111.713V101.982C77.2204 102.161 77.464 102.333 77.7402 102.49C79.2877 103.384 81.441 103.711 83.4251 103.473V112.678C83.4251 112.945 83.5736 114.056 83.2766 114.11Z" fill="#4D4BB7"/>
<path d="M115.983 111.193C113.143 112.832 108.525 112.823 105.664 111.175C102.807 109.524 102.792 106.859 105.632 105.22C108.471 103.58 113.09 103.589 115.95 105.238C118.81 106.886 118.822 109.553 115.983 111.193Z" fill="#F2F2F2"/>
<path d="M115.22 110.287C112.799 111.686 108.864 111.677 106.428 110.272C103.993 108.867 103.981 106.592 106.401 105.196C108.822 103.797 112.758 103.806 115.193 105.211C117.629 106.616 117.641 108.891 115.22 110.287Z" fill="#C4C4C4"/>
<path d="M116.817 96.0242H104.806V107.281C104.773 108.196 105.361 109.12 106.576 109.821C108.929 111.178 112.733 111.187 115.071 109.835C116.283 109.135 116.862 108.208 116.811 107.287L116.817 96.0242Z" fill="#D9D9D9"/>
<path d="M117.027 96.2579C117.038 94.2747 114.263 92.6519 110.83 92.6333C107.396 92.6147 104.604 94.2073 104.594 96.1905C104.583 98.1737 107.357 99.7965 110.791 99.8151C114.224 99.8338 117.016 98.2411 117.027 96.2579Z" fill="#F2F2F2"/>
<path d="M112.11 99.7399C110.123 99.9775 107.972 99.6478 106.425 98.7568C106.149 98.5994 105.905 98.4271 105.691 98.2489L106.746 97.6638L111.884 98.9795L112.11 99.7399Z" fill="#737373"/>
<path d="M115.706 97.3252C115.453 97.7083 115.058 98.0648 114.527 98.3737C112.486 99.5528 109.166 99.5469 107.11 98.3618C106.567 98.0469 106.166 97.6816 105.907 97.2925C105.194 96.2114 105.587 94.9461 107.086 94.0818C109.127 92.9026 112.448 92.9086 114.503 94.0937C116.021 94.9699 116.425 96.2441 115.706 97.3252Z" fill="#999999"/>
<path d="M115.707 97.3251C115.454 97.7083 115.059 98.0647 114.528 98.3736C112.487 99.5528 109.166 99.5468 107.111 98.3617C106.568 98.0469 106.167 97.6816 105.908 97.2925C106.161 96.9093 106.556 96.5529 107.087 96.244C109.128 95.0649 112.449 95.0708 114.504 96.2559C115.05 96.5707 115.451 96.9361 115.707 97.3251Z" fill="#1F2125"/>
<path d="M107.09 94.6313C109.131 93.4521 112.452 93.4581 114.507 94.6461C115.416 95.1718 115.924 95.8401 116.031 96.5262C116.17 95.6589 115.659 94.762 114.507 94.0937C112.452 92.9086 109.134 92.9026 107.09 94.0788C105.953 94.7352 105.454 95.6203 105.588 96.4817C105.695 95.8045 106.196 95.1481 107.09 94.6313Z" fill="#D9D9D9"/>
<path d="M111.961 110.376C111.946 110.379 111.932 110.379 111.917 110.379C111.804 110.382 111.691 110.317 111.608 110.234C111.355 109.987 111.281 109.604 111.037 109.345C110.841 109.135 110.553 109.028 110.354 108.82C110.206 108.665 110.117 108.463 109.971 108.306C109.826 108.148 109.579 108.044 109.398 108.157C109.27 108.235 109.172 108.41 109.027 108.383C108.982 108.374 108.944 108.347 108.911 108.318C108.679 108.119 108.581 107.804 108.56 107.498C108.54 107.192 108.584 106.889 108.581 106.583C108.578 106.438 108.566 106.286 108.51 106.15C108.376 105.82 108.026 105.618 107.88 105.294C107.8 105.116 107.779 104.899 107.631 104.777C107.497 104.667 107.304 104.673 107.132 104.682C107.084 104.685 107.037 104.688 106.998 104.715C106.951 104.751 106.933 104.813 106.921 104.872C106.68 106.028 106.918 107.284 106.443 108.365C106.362 108.549 106.244 108.74 106.051 108.796C105.973 108.82 105.887 108.805 105.819 108.766C105.575 108.636 105.688 108.214 105.688 107.979V98.2489C105.902 98.4271 106.146 98.5994 106.422 98.7568C107.969 99.6508 110.123 99.9775 112.107 99.7399V108.944C112.11 109.209 112.258 110.32 111.961 110.376Z" fill="#1F2125"/>
<path d="M15.0978 104.501C14.7087 104.727 14.082 104.727 13.6929 104.501L3.47851 98.5637C3.09536 98.341 3.09833 97.9786 3.48742 97.7529L13.7701 91.8155C14.1562 91.5928 14.7859 91.5898 15.1691 91.8126L25.3835 97.7499C25.7725 97.9756 25.7636 98.341 25.3775 98.5637L15.0978 104.501Z" fill="#F2F2F2"/>
<path d="M15.0418 103.592L24.3681 98.2073C24.5433 98.1064 24.6324 97.9697 24.6324 97.8361L24.6265 96.8945C24.6265 97.0282 24.5374 97.1648 24.3621 97.2658L15.0358 102.651C14.6824 102.856 14.1121 102.856 13.7616 102.651L4.49473 97.2658C4.32246 97.1648 4.23633 97.0341 4.23633 96.9034L4.24227 97.845C4.24227 97.9757 4.3284 98.1093 4.50067 98.2073L13.7676 103.592C14.1181 103.797 14.6883 103.797 15.0418 103.592Z" fill="#FFAD66"/>
<path d="M15.0359 103.651C14.6824 103.856 14.1121 103.856 13.7617 103.651L4.49475 98.2657C4.14724 98.0638 4.15021 97.7341 4.50366 97.5291L13.83 92.1442C14.1804 91.9423 14.7537 91.9393 15.1012 92.1413L24.3681 97.5262C24.7186 97.7311 24.7126 98.0638 24.3651 98.2657L15.0359 103.651Z" fill="#FFD166"/>
<path d="M16.1935 95.0768C17.2182 94.8243 18.1656 94.6907 19.0329 94.6788L19.327 95.2728C18.5013 95.3084 17.6459 95.4451 16.7637 95.6767C15.8786 95.9084 15.044 96.25 14.2569 96.7044C13.4698 97.1589 12.8758 97.643 12.4718 98.1539C12.0679 98.6647 11.8362 99.1578 11.7798 99.633L10.7402 99.4696C10.767 98.9647 11.0016 98.4182 11.4412 97.8242C11.8808 97.2331 12.5283 96.6896 13.3807 96.1965C14.2302 95.7035 15.1687 95.3322 16.1935 95.0768Z" fill="#E8772B"/>
<path d="M30.5527 10.9261L33.1249 9.43213C33.1308 9.42916 33.1397 9.42619 33.1457 9.42322L30.5735 10.9172C30.5646 10.9202 30.5587 10.9231 30.5527 10.9261Z" fill="#4D4BB7"/>
<path d="M36.3866 14.128L33.8145 15.622C33.8323 15.6101 33.8471 15.5923 33.856 15.5655L36.4282 14.0715C36.4193 14.0983 36.4044 14.1161 36.3866 14.128Z" fill="#4D4BB7"/>
<path d="M30.5742 10.9172L33.1464 9.42323L33.684 9.28363L31.1118 10.7776L30.5742 10.9172Z" fill="#4D4BB7"/>
<path d="M34.0624 14.9566L36.6345 13.4626L36.4266 14.0715L33.8574 15.5655L34.0624 14.9566Z" fill="#4D4BB7"/>
<path d="M30.0508 7.57576L32.6229 6.08177C32.6556 6.06395 32.7002 6.06692 32.7507 6.09662L30.1785 7.59061C30.128 7.56091 30.0835 7.55794 30.0508 7.57576Z" fill="#4D4BB7"/>
<path d="M30.1777 7.59061L32.7499 6.09662L33.4152 6.47977L30.8431 7.97376L30.1777 7.59061Z" fill="#4D4BB7"/>
<path d="M39.0741 15.2893L36.502 16.7833C36.5465 16.7566 36.5673 16.6883 36.5465 16.5992L39.1187 15.1052C39.1395 15.1943 39.1187 15.2626 39.0741 15.2893Z" fill="#4D4BB7"/>
<path d="M36.3438 15.7586L38.9129 14.2646L39.1179 15.1081L36.5457 16.6021L36.3438 15.7586Z" fill="#4D4BB7"/>
<path d="M38.959 12.6458L36.3868 14.1398C35.9086 14.419 35.2463 14.3774 34.5156 13.9587L37.0878 12.4647C37.8184 12.8835 38.4808 12.9221 38.959 12.6458Z" fill="#4D4BB7"/>
<path d="M32.6608 7.72727L35.233 6.23328C34.7607 6.50653 34.4667 7.09165 34.4667 7.92033C34.4608 9.58956 35.6369 11.6241 37.0893 12.4617L34.5172 13.9557C33.0648 13.1181 31.8916 11.0835 31.8945 9.41432C31.8975 8.58564 32.1886 8.00349 32.6608 7.72727Z" fill="#4D4BB7"/>
<path d="M31.2109 5.42538L33.7831 3.93139C33.8187 3.9106 33.8633 3.91654 33.9108 3.94327C33.9465 3.96406 33.9821 3.99673 34.0148 4.04425L31.4426 5.53824C31.4099 5.49369 31.3743 5.46102 31.3387 5.44023C31.2911 5.41053 31.2466 5.40459 31.2109 5.42538Z" fill="#9996FF"/>
<path d="M40.4081 14.9477L37.8359 16.4417C37.8419 16.4387 37.8478 16.4328 37.8538 16.4269L40.4259 14.9329C40.42 14.9388 40.414 14.9447 40.4081 14.9477Z" fill="#4D4BB7"/>
<path d="M31.4434 5.53828L34.0155 4.04132L34.5501 4.80168L31.981 6.29567L31.4434 5.53828Z" fill="#4D4BB7"/>
<path d="M31.9805 6.29567L34.5526 4.80168C34.7724 4.69476 35.016 4.62941 35.2774 4.61456L32.7052 6.10855C32.4438 6.12637 32.2003 6.18875 31.9805 6.29567Z" fill="#4D4BB7"/>
<path d="M38.501 15.7794L41.0732 14.2854L40.4257 14.9329L37.8535 16.4269L38.501 15.7794Z" fill="#4D4BB7"/>
<path d="M41.0336 13.9794L40.496 13.2191L37.9238 14.713L38.4614 15.4734C38.5416 15.5863 38.5594 15.7259 38.5 15.7823L41.0722 14.2883C41.1316 14.2289 41.1138 14.0923 41.0336 13.9794Z" fill="#9996FF"/>
<path d="M38.2069 13.8933L40.7791 12.3994C40.7197 12.7112 40.6246 12.9845 40.4999 13.2191L37.9277 14.7131C38.0525 14.4785 38.1475 14.2052 38.2069 13.8933Z" fill="#4D4BB7"/>
<path d="M33.8848 5.54715L36.4569 4.05316L36.6589 4.89669L34.0867 6.39068L33.8848 5.54715Z" fill="#4D4BB7"/>
<path d="M36.2873 3.8126C36.2695 3.80071 36.2487 3.79477 36.2309 3.7918L35.1884 3.57795C35.1616 3.57201 35.1379 3.57795 35.1171 3.58686L32.5449 5.08085C32.5657 5.06897 32.5895 5.066 32.6162 5.07194L33.6587 5.28579C33.6766 5.28877 33.6973 5.29768 33.7152 5.30659C33.7894 5.35114 33.8607 5.44618 33.8845 5.54717L36.4566 4.05318C36.4329 3.95219 36.3616 3.85418 36.2873 3.8126Z" fill="#9996FF"/>
<path d="M41.5683 12.7943L38.9961 14.2883C39.0288 14.2705 39.0466 14.2289 39.0466 14.1754L41.6187 12.6815C41.6217 12.7379 41.6009 12.7765 41.5683 12.7943Z" fill="#4D4BB7"/>
<path d="M34.0879 6.39072L36.66 4.89673C36.8086 4.96207 36.9571 5.03633 37.1085 5.12246C37.26 5.2086 37.4085 5.30958 37.557 5.41354L34.9849 6.90753C34.8364 6.80357 34.6879 6.70259 34.5364 6.61645C34.3849 6.53032 34.2364 6.45903 34.0879 6.39072Z" fill="#4D4BB7"/>
<path d="M37.9355 11.0865L40.5077 9.59253C40.6325 9.97271 40.7245 10.3529 40.781 10.7301L38.2088 12.2241C38.1524 11.8499 38.0603 11.4667 37.9355 11.0865Z" fill="#4D4BB7"/>
<path d="M39.0538 12.9191L41.6259 11.4221L41.6229 12.6815L39.0508 14.1755L39.0538 12.9191Z" fill="#4D4BB7"/>
<path d="M41.4445 11.1162L40.7792 10.7331L38.207 12.2271L38.8723 12.6102C38.9733 12.6667 39.0506 12.8033 39.0506 12.9191L41.6227 11.4251C41.6257 11.3093 41.5455 11.1727 41.4445 11.1162Z" fill="#9996FF"/>
<path d="M36.3652 8.22031L38.9374 6.72632C39.1988 7.04413 39.4394 7.39163 39.6591 7.75102L37.087 9.24501C36.8672 8.88562 36.6266 8.54109 36.3652 8.22031Z" fill="#4D4BB7"/>
<path d="M36.5702 7.61441L39.1423 6.12042L38.9374 6.72634L36.3652 8.22033L36.5702 7.61441Z" fill="#4D4BB7"/>
<path d="M39.0292 5.79372L37.9897 4.80465C37.9718 4.78683 37.9511 4.77198 37.9332 4.7601C37.8857 4.73337 37.8412 4.72743 37.8085 4.74822L35.2363 6.24221C35.269 6.22439 35.3136 6.22736 35.3611 6.25409C35.3789 6.26597 35.3997 6.27785 35.4175 6.29864L36.4571 7.28771C36.5491 7.37681 36.6026 7.52235 36.5699 7.61443L39.1421 6.12043C39.1718 6.02836 39.1213 5.88282 39.0292 5.79372Z" fill="#9996FF"/>
<path d="M37.0859 9.24504L39.6581 7.75105L40.1957 7.61145L37.6235 9.10544L37.0859 9.24504Z" fill="#4D4BB7"/>
<path d="M38.8748 12.6102C38.9758 12.6666 39.0531 12.8032 39.0531 12.9191L39.0501 14.1784C39.0501 14.2913 38.9699 14.3358 38.8689 14.2794L38.2036 13.8963C38.1442 14.2081 38.0491 14.4814 37.9244 14.716L38.462 15.4764C38.5422 15.5893 38.56 15.7289 38.5006 15.7853L37.8531 16.4328C37.8175 16.4684 37.764 16.4655 37.7076 16.4328C37.6719 16.412 37.6333 16.3793 37.6036 16.3348L37.066 15.5744C36.8462 15.6813 36.6027 15.7467 36.3413 15.7615L36.5433 16.6051C36.573 16.7298 36.5225 16.8159 36.4274 16.7981L35.3849 16.5872C35.3671 16.5843 35.3493 16.5753 35.3314 16.5664C35.2572 16.5219 35.1859 16.4268 35.1621 16.3259L34.9602 15.4823C34.8117 15.417 34.6632 15.3427 34.5117 15.2536C34.3572 15.1645 34.2117 15.0695 34.0632 14.9626L33.8553 15.5714C33.8315 15.6427 33.7602 15.6576 33.686 15.616C33.6682 15.6071 33.6503 15.5922 33.6325 15.5744L32.593 14.5824C32.5009 14.4933 32.4474 14.3507 32.4801 14.2586L32.688 13.6527C32.4266 13.3349 32.186 12.9874 31.9662 12.628L31.4286 12.7676C31.396 12.7765 31.3603 12.7676 31.3247 12.7468C31.2683 12.7141 31.2148 12.6547 31.1792 12.5775L30.5376 11.1875C30.4782 11.0627 30.499 10.9469 30.5792 10.9261L31.1168 10.7865C30.992 10.4063 30.9 10.0261 30.8435 9.64894L30.1782 9.26578C30.0772 9.20935 30 9.06975 30 8.95689L30.003 7.69754C30.003 7.5817 30.0832 7.54012 30.1842 7.59655L30.8495 7.97971C30.9089 7.66784 31.0039 7.39458 31.1287 7.15994L30.5911 6.39958C30.5109 6.28671 30.493 6.14712 30.5525 6.09068L31.1999 5.44616C31.2356 5.41052 31.289 5.41349 31.3455 5.44616C31.3811 5.46695 31.4197 5.49962 31.4494 5.54417L31.987 6.30453C32.2068 6.19761 32.4504 6.13524 32.7118 6.11742L32.5098 5.27389C32.4801 5.14617 32.5306 5.06301 32.6256 5.08083L33.6681 5.29468C33.686 5.29765 33.7068 5.30656 33.7246 5.31547C33.7988 5.36002 33.8701 5.45507 33.8939 5.55605L34.0959 6.39958C34.2444 6.46492 34.3929 6.53918 34.5443 6.62531C34.6958 6.71145 34.8443 6.81243 34.9928 6.91639L35.2008 6.30751C35.2245 6.23325 35.2958 6.2184 35.3701 6.26295C35.3879 6.27483 35.4087 6.28671 35.4265 6.30751L36.466 7.29657C36.5581 7.38567 36.6116 7.53121 36.5789 7.62329L36.371 8.2292C36.6324 8.54701 36.873 8.89452 37.0927 9.2539L37.6303 9.11431C37.663 9.1054 37.6987 9.11431 37.7343 9.1351C37.7907 9.16777 37.8442 9.22717 37.8798 9.3044L38.5214 10.6944C38.5808 10.8192 38.56 10.938 38.4798 10.9588L37.9422 11.0984C38.067 11.4786 38.159 11.8587 38.2155 12.2359L38.8748 12.6102ZM34.5176 13.9557C35.97 14.7933 37.1492 14.119 37.1551 12.4498C37.1611 10.7806 35.9849 8.74601 34.5354 7.90842C33.083 7.07084 31.9009 7.74209 31.895 9.41132C31.889 11.0835 33.0652 13.1181 34.5176 13.9557Z" fill="#6865F7"/>
<path d="M41.0882 9.19154L40.4467 7.8015C40.411 7.72428 40.3576 7.66487 40.3011 7.6322C40.2655 7.61141 40.2269 7.6025 40.1972 7.61141L37.625 9.1054C37.6577 9.09649 37.6933 9.1054 37.729 9.12619C37.7854 9.15887 37.8389 9.21827 37.8745 9.29549L38.516 10.6855C38.5695 10.7984 38.5576 10.9053 38.4982 10.941L41.0704 9.44697C41.1298 9.40836 41.1417 9.3044 41.0882 9.19154Z" fill="#9996FF"/>
<path d="M33.0812 20.454L30.9219 21.7104C30.9278 21.7074 30.9367 21.7015 30.9427 21.6955L33.102 20.4391C33.096 20.4451 33.0871 20.451 33.0812 20.454Z" fill="black"/>
<path d="M28.0605 15.6453L30.2199 14.3889C30.2436 14.377 30.2703 14.3711 30.306 14.377L28.1467 15.6334C28.114 15.6275 28.0843 15.6334 28.0605 15.6453Z" fill="black"/>
<path d="M31.4018 21.2321L33.5611 19.9757L33.1007 20.4391L30.9414 21.6925L31.4018 21.2321Z" fill="black"/>
<path d="M28.1465 15.6334L30.3058 14.3799L31.0483 14.5314L28.889 15.7878L28.1465 15.6334Z" fill="black"/>
<path d="M36.1984 22.94L34.0391 24.1964C34.0777 24.1756 34.0985 24.1281 34.0985 24.0627L36.2578 22.8063C36.2607 22.8717 36.237 22.9192 36.1984 22.94Z" fill="black"/>
<path d="M34.1026 23.1658L36.2619 21.9124V22.8064L34.0996 24.0627L34.1026 23.1658Z" fill="black"/>
<path d="M28.4707 12.2504L30.63 10.9941C30.6686 10.9703 30.7221 10.9762 30.7785 11.0089C30.7993 11.0208 30.8231 11.0386 30.8439 11.0594L28.6846 12.3158C28.6638 12.295 28.64 12.2772 28.6192 12.2653C28.5628 12.2326 28.5093 12.2267 28.4707 12.2504Z" fill="black"/>
<path d="M28.6855 12.3156L30.8449 11.0592L31.5844 11.7631L29.4251 13.0195L28.6855 12.3156Z" fill="black"/>
<path d="M31.0777 13.9462L33.237 12.6898C32.6846 13.0106 32.34 13.6967 32.3371 14.6679C32.3311 16.6283 33.7093 19.0133 35.4141 19.9994L33.2548 21.2558C31.55 20.2726 30.1718 17.8846 30.1778 15.9243C30.1807 14.9531 30.5223 14.267 31.0777 13.9462Z" fill="black"/>
<path d="M37.6101 20.2134L35.4508 21.4697C34.8894 21.7965 34.1113 21.7489 33.2559 21.2559L35.4152 19.9995C36.2735 20.4926 37.0488 20.5401 37.6101 20.2134Z" fill="black"/>
<path d="M39.0792 23.0499L36.9199 24.3063C36.9912 24.2647 37.0031 24.14 36.9437 24.0063L39.103 22.7499C39.1624 22.8836 39.1505 23.0083 39.0792 23.0499Z" fill="black"/>
<path d="M36.4844 23.0143L38.6437 21.7609L39.1011 22.7499L36.9418 24.0063L36.4844 23.0143Z" fill="black"/>
<path d="M37.1081 22.3965L39.2674 21.1401C39.0922 21.3926 38.8843 21.6005 38.6437 21.7579L36.4844 23.0143C36.725 22.8569 36.9329 22.6519 37.1081 22.3965Z" fill="black"/>
<path d="M30.9707 11.0564L33.13 9.80005L33.5874 10.7891L31.4251 12.0455L30.9707 11.0564Z" fill="black"/>
<path d="M32.9607 9.60398C32.9192 9.58022 32.8746 9.56834 32.836 9.58022L31.7935 9.84754C31.7846 9.85051 31.7756 9.85348 31.7667 9.85942L29.6074 11.1158C29.6163 11.1099 29.6252 11.1069 29.6342 11.1039L30.6767 10.8366C30.7153 10.8277 30.7569 10.8366 30.8014 10.8604C30.8668 10.896 30.9291 10.9673 30.9707 11.0564L33.13 9.80001C33.0885 9.71091 33.0261 9.63963 32.9607 9.60398Z" fill="#666666"/>
<path d="M40.2199 21.9093L38.0605 23.1657C38.0843 23.1538 38.0992 23.1301 38.111 23.1004L40.2703 21.844C40.2585 21.8737 40.2436 21.8975 40.2199 21.9093Z" fill="black"/>
<path d="M31.4258 12.0454L33.5851 10.7891C33.8999 10.8039 34.2356 10.8693 34.586 10.994L32.4267 12.2504C32.0762 12.1256 31.7406 12.0603 31.4258 12.0454Z" fill="black"/>
<path d="M38.5123 21.9242L40.6716 20.6678L40.2706 21.844L38.1113 23.0974L38.5123 21.9242Z" fill="black"/>
<path d="M40.5386 20.2877L39.796 19.5837L37.6367 20.8401L38.3793 21.544C38.4892 21.651 38.5486 21.8203 38.5129 21.9272L40.6722 20.6708C40.7079 20.5609 40.6485 20.3916 40.5386 20.2877Z" fill="#666666"/>
<path d="M37.6397 19.6283L39.799 18.3719C39.8198 18.5828 39.8287 18.7907 39.8287 18.9926C39.8287 19.1976 39.8168 19.3936 39.796 19.5807L37.6367 20.8371C37.6575 20.653 37.6694 20.4569 37.6694 20.249C37.6724 20.0471 37.6605 19.8391 37.6397 19.6283Z" fill="black"/>
<path d="M34.1309 13.2336L36.2902 11.9772C36.6406 12.2593 36.9733 12.5771 37.2911 12.9276L35.1318 14.184C34.814 13.8335 34.4813 13.5127 34.1309 13.2336Z" fill="black"/>
<path d="M34.1338 12.3365L36.2931 11.0801L36.2902 11.9771L34.1309 13.2335L34.1338 12.3365Z" fill="black"/>
<path d="M36.0831 10.7178L34.8 9.97524C34.7406 9.94257 34.6901 9.9396 34.6515 9.96039L32.4922 11.2168C32.5308 11.196 32.5843 11.1989 32.6407 11.2316L33.9238 11.9742C34.0396 12.0425 34.1317 12.2029 34.1317 12.3365L36.291 11.0801C36.294 10.9465 36.1989 10.7861 36.0831 10.7178Z" fill="#666666"/>
<path d="M36.5039 16.1294L38.6632 14.873C38.9008 15.3067 39.1087 15.7552 39.281 16.2066L37.1217 17.463C36.9494 17.0116 36.7415 16.5631 36.5039 16.1294Z" fill="black"/>
<path d="M40.6281 18.5144L38.4688 19.7708C38.5222 19.7411 38.546 19.6609 38.5192 19.5569L40.6786 18.3005C40.7053 18.4045 40.6815 18.4847 40.6281 18.5144Z" fill="black"/>
<path d="M38.127 17.9205L40.2863 16.6671L40.6813 18.3006L38.519 19.557L38.127 17.9205Z" fill="black"/>
<path d="M40.0863 16.3849C40.0655 16.373 40.0418 16.3641 40.021 16.3581L39.2784 16.2067L37.1191 17.463L37.8617 17.6145C37.8825 17.6175 37.9062 17.6264 37.927 17.6413C38.0132 17.6917 38.0963 17.8046 38.1231 17.9204L40.2824 16.6641C40.2556 16.5482 40.1754 16.4354 40.0863 16.3849Z" fill="#666666"/>
<path d="M36.9643 15.6691L39.1236 14.4156L38.6632 14.8731L36.5039 16.1294L36.9643 15.6691Z" fill="black"/>
<path d="M38.3789 21.5411C38.4888 21.648 38.5482 21.8173 38.5125 21.9242L38.1116 23.1004C38.0819 23.1836 38.0017 23.2014 37.9126 23.1509C37.8918 23.139 37.871 23.1212 37.8472 23.1004L37.1077 22.3965C36.9324 22.6489 36.7245 22.8569 36.4839 23.0143L36.9413 24.0033C37.0096 24.1519 36.9859 24.2885 36.8938 24.3152L35.8513 24.5825C35.8156 24.5914 35.7711 24.5825 35.7295 24.5588C35.6642 24.5202 35.6018 24.4489 35.5602 24.3627L35.1058 23.3737C34.788 23.3588 34.4553 23.2935 34.1048 23.1687L34.1019 24.0627C34.1019 24.1964 34.0068 24.2499 33.891 24.1816L32.6079 23.439C32.492 23.3707 32.3999 23.2133 32.3999 23.0767L32.4029 22.1826C32.0524 21.9005 31.7198 21.5827 31.4049 21.2322L30.9446 21.6926C30.903 21.7341 30.8406 21.7312 30.7753 21.6955C30.7337 21.6718 30.6891 21.6302 30.6535 21.5797L29.6169 20.1124C29.5248 19.9788 29.5011 19.8184 29.5694 19.7471L30.0298 19.2897C29.7921 18.8561 29.5842 18.4076 29.412 17.9561L28.6694 17.8046C28.6486 17.8016 28.6249 17.7927 28.6041 17.7779C28.515 17.7274 28.4318 17.6145 28.4051 17.4957L28.01 15.8592C27.9744 15.7107 28.0368 15.6126 28.1467 15.6334L28.8892 15.7849C28.8714 15.577 28.8595 15.3661 28.8595 15.1612C28.8595 14.9592 28.8744 14.7632 28.8922 14.5761L28.1496 13.8721C28.0397 13.7652 27.9803 13.5959 28.016 13.489L28.417 12.3128C28.4467 12.2267 28.5269 12.2088 28.616 12.2623C28.6368 12.2742 28.6605 12.292 28.6813 12.3128L29.4209 13.0167C29.5931 12.7613 29.804 12.5563 30.0416 12.3989L29.5842 11.4099C29.5159 11.2614 29.5397 11.1247 29.6318 11.101L30.6743 10.8337C30.7129 10.8247 30.7545 10.8337 30.799 10.8574C30.8644 10.8931 30.9267 10.9643 30.9683 11.0534L31.4257 12.0425C31.7406 12.0574 32.0762 12.1227 32.4267 12.2474L32.4296 11.3505C32.4296 11.2168 32.5247 11.1633 32.6405 11.2317L33.9236 11.9742C34.0395 12.0425 34.1316 12.2029 34.1316 12.3366L34.1286 13.2335C34.4791 13.5157 34.8117 13.8335 35.1295 14.184L35.5899 13.7236C35.6315 13.682 35.6939 13.685 35.7592 13.7206C35.8008 13.7444 35.8453 13.786 35.881 13.8395L36.9205 15.3067C37.0126 15.4374 37.0334 15.6008 36.9651 15.672L36.5017 16.1294C36.7394 16.5631 36.9473 17.0116 37.1195 17.463L37.8621 17.6145C37.8829 17.6175 37.9066 17.6264 37.9274 17.6413C38.0136 17.6918 38.0967 17.8046 38.1234 17.9205L38.5185 19.557C38.5541 19.7055 38.4917 19.8035 38.3819 19.7827L37.6393 19.6313C37.6601 19.8421 37.669 20.0501 37.669 20.252C37.669 20.457 37.6571 20.653 37.6363 20.8401L38.3789 21.5411ZM33.2554 21.253C34.9602 22.2361 36.3443 21.446 36.3503 19.4857C36.3562 17.5284 34.978 15.1434 33.2732 14.1602C31.5683 13.1771 30.1812 13.9642 30.1753 15.9215C30.1723 17.8848 31.5505 20.2699 33.2554 21.253Z" fill="#333333"/>
<path d="M39.0805 14.0503L38.0409 12.583C38.0053 12.5296 37.9607 12.491 37.9191 12.4642C37.8657 12.4345 37.8122 12.4256 37.7706 12.4494L35.6113 13.7058C35.6529 13.682 35.7064 13.6879 35.7598 13.7206C35.8014 13.7444 35.846 13.786 35.8816 13.8394L36.9212 15.3067C37.0132 15.4374 37.034 15.6007 36.9657 15.672L39.125 14.4156C39.1963 14.3444 39.1726 14.184 39.0805 14.0503Z" fill="#666666"/>
<defs>
<linearGradient id="paint0_linear_24_5788" x1="117.574" y1="36.2155" x2="99.2942" y2="36.2155" gradientUnits="userSpaceOnUse">
<stop stop-color="#E8772B"/>
<stop offset="0.868852" stop-color="#E8772B" stop-opacity="0.1"/>
</linearGradient>
<linearGradient id="paint1_linear_24_5788" x1="18.6719" y1="39.233" x2="13.4121" y2="39.233" gradientUnits="userSpaceOnUse">
<stop stop-color="#E8772B"/>
<stop offset="0.868852" stop-color="#E8772B" stop-opacity="0.1"/>
</linearGradient>
<linearGradient id="paint2_linear_24_5788" x1="12.5174" y1="39.4245" x2="8.00184" y2="39.4245" gradientUnits="userSpaceOnUse">
<stop stop-color="#E8772B"/>
<stop offset="0.868852" stop-color="#E8772B" stop-opacity="0.1"/>
</linearGradient>
<linearGradient id="paint3_linear_24_5788" x1="19.2485" y1="29.8861" x2="-2.18372" y2="29.8861" gradientUnits="userSpaceOnUse">
<stop stop-color="#E8772B"/>
<stop offset="0.868852" stop-color="#E8772B" stop-opacity="0.1"/>
</linearGradient>
</defs>
</svg>
