<svg width="120" height="114" viewBox="0 0 120 114" fill="none" xmlns="http://www.w3.org/2000/svg">
<g clip-path="url(#clip0_24_5558)">
<path opacity="0.07" d="M116.307 69.9129L55.2255 104.694C53.0351 105.941 50.3371 105.941 48.1467 104.688L1.15409 77.8097C-0.389279 76.9274 -0.386311 74.7186 1.15706 73.8392L63.7763 38.1843C65.664 37.1078 67.988 37.1108 69.8727 38.1902L116.31 64.7454C118.32 65.8953 118.317 68.7688 116.307 69.9129Z" fill="#2B3990"/>
<path d="M114.263 54.9897L69.8761 29.6051C67.9914 28.5257 65.6674 28.5257 63.7798 29.5992L4.59451 63.3013H1.69926e-05V67.2335C-0.00295103 68.007 0.382892 68.7835 1.15458 69.2276L48.1472 96.1063C50.3376 97.3592 53.0326 97.3622 55.226 96.1122L116.308 61.3307C117.255 60.7925 117.756 59.869 117.81 58.9249H117.816V54.9927H114.263V54.9897Z" fill="#8CE2FF"/>
<path d="M116.307 57.4367L55.2255 92.2182C53.0351 93.4652 50.3371 93.4623 48.1467 92.2123L1.15409 65.3336C-0.389279 64.4513 -0.386311 62.2454 1.15706 61.3631L63.7793 25.7081C65.667 24.6346 67.9909 24.6346 69.8756 25.714L116.313 52.2692C118.32 53.4192 118.317 56.2926 116.307 57.4367Z" fill="#ECF5FF"/>
<path d="M114.027 54.1515L55.2455 87.5419L8.10742 60.5808L66.889 27.1934L114.027 54.1515Z" fill="url(#paint0_linear_24_5558)"/>
<path d="M25.1573 74.654C26.4869 73.8863 28.6536 73.8863 29.9951 74.654C31.3337 75.4216 31.3426 76.6627 30.01 77.4304C28.6773 78.198 26.5136 78.198 25.1721 77.4304C23.8335 76.6657 23.8276 75.4216 25.1573 74.654Z" fill="#8CBEF1"/>
<path d="M25.5488 75.9951C25.5488 76.1275 25.6171 76.2451 25.7299 76.3098L27.1694 77.1392C27.2643 77.1951 27.3712 77.2215 27.478 77.2215C27.5849 77.2215 27.6888 77.1951 27.7837 77.1392L29.342 76.248C29.4577 76.1833 29.526 76.0657 29.526 75.9333C29.526 75.801 29.4577 75.6833 29.3449 75.6186L27.9054 74.7893C27.7155 74.6804 27.481 74.6804 27.2911 74.7893L25.7328 75.6804C25.6201 75.7481 25.5518 75.8657 25.5488 75.9951ZM25.902 75.9951C25.902 75.9863 25.908 75.9833 25.9109 75.9833L27.4691 75.0922C27.5107 75.0687 27.5552 75.0569 27.5997 75.0569C27.6442 75.0569 27.6917 75.0687 27.7303 75.0922L29.1698 75.9216C29.1728 75.9216 29.1787 75.9245 29.1787 75.9333C29.1787 75.9422 29.1728 75.9451 29.1698 75.9451L27.6116 76.8363C27.5315 76.8833 27.4306 76.8833 27.3504 76.8363L25.9109 76.0069C25.908 76.0069 25.902 76.0039 25.902 75.9951Z" fill="url(#paint1_linear_24_5558)"/>
<path d="M113.371 59.1073L100.422 66.4806L100.425 70.3776L113.371 62.9984V59.1073Z" fill="#6AA5EC"/>
<path d="M60.0433 89.48L60.0463 93.3711L59.4141 93.7299V89.8359L60.0433 89.48Z" fill="#6AA5EC"/>
<path d="M71.597 82.8978V86.7919L70.9678 87.1507L70.9648 83.2566L71.597 82.8978Z" fill="#6AA5EC"/>
<path d="M83.3265 76.2186V80.1127L82.6973 80.4715V76.5774L83.3265 76.2186Z" fill="#6AA5EC"/>
<path d="M32.5464 84.0213V86.4654L31.6797 85.9684V83.5214L32.5464 84.0213Z" fill="#6AA5EC"/>
<path d="M34.0629 87.333L33.1992 86.8389V84.3919L34.0629 84.8919V87.333Z" fill="#6AA5EC"/>
<path d="M35.5824 88.2036L34.7188 87.7095V85.2625L35.5824 85.7596V88.2036Z" fill="#6AA5EC"/>
<path d="M37.102 89.0742L36.2383 88.5801V86.1331L37.102 86.6301V89.0742Z" fill="#6AA5EC"/>
<path d="M38.6215 89.9447L37.7578 89.4477V87.0036L38.6215 87.5006V89.9447Z" fill="#6AA5EC"/>
<path d="M40.141 90.8152L39.2773 90.3182V87.8741L40.141 88.3712V90.8152Z" fill="#6AA5EC"/>
<path d="M41.6606 91.6859L40.7969 91.1888V88.7418L41.6606 89.2418V91.6859Z" fill="#6AA5EC"/>
<path d="M43.1811 92.5564L42.3145 92.0594V89.6124L43.1811 90.1124V92.5564Z" fill="#6AA5EC"/>
<path d="M44.7006 93.424L43.834 92.9299V90.4829L44.7006 90.9829V93.424Z" fill="#6AA5EC"/>
<path d="M46.2172 94.2946L45.3535 93.8005V91.3535L46.2172 91.8534V94.2946Z" fill="#6AA5EC"/>
<path opacity="0.07" d="M31.004 53.931C35.0969 53.931 38.4181 54.9339 38.4181 56.1662C38.4181 57.4015 35.0998 58.4014 31.004 58.4014C26.9111 58.4014 23.5898 57.3985 23.5898 56.1662C23.5898 54.9339 26.9111 53.931 31.004 53.931Z" fill="#2B3990"/>
<path d="M71.5643 7.79393L84.9293 0.150012C85.3003 -0.0617473 85.7188 -0.0382185 86.0482 0.14413L86.0601 0.150012L86.0631 0.152953L88.1911 1.37645L86.627 6.92337V41.4401C86.627 42.7695 85.9117 43.9959 84.7512 44.6606L73.4163 51.1428L72.793 52.8104L70.6501 51.5781C70.0447 51.2399 69.6113 50.6017 69.6113 49.8164V11.1438C69.6113 9.76153 70.3563 8.48509 71.5643 7.79393Z" fill="#8CE2FF"/>
<path d="M71.7578 12.3791V51.0487C71.7578 52.6075 73.4585 53.581 74.8208 52.8016L86.8977 45.8959C88.0582 45.2312 88.7735 44.0048 88.7735 42.6754V2.35877C88.7735 1.49409 87.8296 0.955865 87.0728 1.38527L73.7078 9.02919C72.4998 9.72035 71.7578 10.9968 71.7578 12.3791Z" fill="#ECF5FF"/>
<path d="M72.5859 13.3585V48.5311L88.1176 39.6461V4.47345L72.5859 13.3585Z" fill="#E8772B"/>
<path d="M78.1586 7.46453L77.5234 9.42918L82.6017 6.52632L81.7024 5.43811L78.1586 7.46453Z" fill="#8CBEF1"/>
<path d="M79.9492 45.9871V48.1223C79.9492 48.3723 80.2223 48.5282 80.4389 48.4017L82.1159 47.4458C82.3029 47.34 82.4156 47.1429 82.4156 46.9312V44.5342C82.4156 44.3959 82.2643 44.3106 82.1426 44.3783L80.2579 45.4518C80.0679 45.5606 79.9492 45.7635 79.9492 45.9871Z" fill="#8CBEF1"/>
<path d="M73.5293 14.1438V14.4732L76.4795 12.782V12.4526L73.5293 14.1438Z" fill="#ECF5FF"/>
<path d="M73.5293 15.1467L76.4795 13.4556V13.1291L73.5293 14.8173V15.1467Z" fill="#ECF5FF"/>
<path d="M75.6099 14.2996L73.5293 15.4937V15.8231L75.6099 14.629V14.2996Z" fill="#ECF5FF"/>
<path d="M73.5293 17.1702L76.4795 15.4791V15.1526L73.5293 16.8408V17.1702Z" fill="#ECF5FF"/>
<path d="M76.067 14.7144L73.5293 16.1673V16.4967L76.067 15.0408V14.7144Z" fill="#ECF5FF"/>
<path d="M73.5293 17.8466L75.2893 16.8378V16.5084L73.5293 17.5172V17.8466Z" fill="#ECF5FF"/>
<path d="M77.8203 39.9196V40.249L80.7676 38.5579V38.2285L77.8203 39.9196Z" fill="#ECF5FF"/>
<path d="M77.8203 40.9225L80.7676 39.2314V38.902L77.8203 40.5931V40.9225Z" fill="#ECF5FF"/>
<path d="M79.9009 40.0754L77.8203 41.2666V41.596L79.9009 40.4048V40.0754Z" fill="#ECF5FF"/>
<path d="M77.8203 42.946L80.7676 41.2549V40.9255L77.8203 42.6166V42.946Z" fill="#ECF5FF"/>
<path d="M80.358 40.4872L77.8203 41.9431V42.2725L80.358 40.8166V40.4872Z" fill="#ECF5FF"/>
<path d="M77.8203 43.6195L79.5774 42.6136V42.2842L77.8203 43.293V43.6195Z" fill="#ECF5FF"/>
<path d="M82.0078 37.6784V38.0078L84.958 36.3167V35.9873L82.0078 37.6784Z" fill="#ECF5FF"/>
<path d="M82.0078 38.6814L84.958 36.9902V36.6608L82.0078 38.352V38.6814Z" fill="#ECF5FF"/>
<path d="M84.0884 37.8343L82.0078 39.0284V39.3548L84.0884 38.1637V37.8343Z" fill="#ECF5FF"/>
<path d="M82.0078 40.7049L84.958 39.0137V38.6843L82.0078 40.3755V40.7049Z" fill="#ECF5FF"/>
<path d="M84.5455 38.2461L82.0078 39.7019V40.0313L84.5455 38.5755V38.2461Z" fill="#ECF5FF"/>
<path d="M82.0078 41.3784L83.7678 40.3725V40.0431L82.0078 41.0519V41.3784Z" fill="#ECF5FF"/>
<path d="M73.5293 42.2724V42.6018L76.4795 40.9107V40.5813L73.5293 42.2724Z" fill="#ECF5FF"/>
<path d="M73.5293 43.2753L76.4795 41.5842V41.2578L73.5293 42.9459V43.2753Z" fill="#ECF5FF"/>
<path d="M75.6099 42.4283L73.5293 43.6224V43.9518L75.6099 42.7577V42.4283Z" fill="#ECF5FF"/>
<path d="M73.5293 45.2988L76.4795 43.6077V43.2812L73.5293 44.9694V45.2988Z" fill="#ECF5FF"/>
<path d="M76.067 42.843L73.5293 44.2959V44.6253L76.067 43.1695V42.843Z" fill="#ECF5FF"/>
<path d="M73.5293 45.9753L75.2893 44.9665V44.6371L73.5293 45.6459V45.9753Z" fill="#ECF5FF"/>
<path d="M79.7938 19.5054C81.4796 18.5407 82.8657 18.5995 82.9369 18.6025C84.7088 18.4613 84.9136 20.9142 84.7474 21.6994C84.5812 22.4847 84.7652 22.6259 84.8483 22.7759C84.9315 22.9259 85.4568 23.4259 85.6052 23.6994C85.7536 23.97 85.252 24.4347 85.0977 24.6288C84.9404 24.8229 85.065 25.0376 85.1155 25.2376C85.1659 25.4405 84.8305 25.8729 84.8127 25.8935C84.9493 26.014 84.8929 26.2434 84.8602 26.3934C84.8276 26.5434 84.6198 26.8611 84.6109 26.8787C84.694 27.8846 84.231 28.361 83.5276 28.7669C83.2278 28.9375 82.8865 29.0963 82.5244 29.2728C82.5036 29.2845 82.4799 29.2963 82.4591 29.3081C81.3045 29.9669 81.2659 32.2933 81.2659 32.4139L76.0511 35.3991C77.9507 30.9551 76.8466 28.7846 76.7902 28.6728C75.8315 27.9081 75.9057 26.3317 75.9087 26.2493C76.0007 23.2141 77.826 21.1348 77.921 21.0259C78.5324 20.3465 79.1794 19.8583 79.7938 19.5054Z" fill="#ECF5FF"/>
<path d="M119.724 42.9254C119.294 42.3166 118.834 42.8166 118.834 42.8166C118.226 42.6078 117.92 43.9607 117.92 43.9607L118.772 44.9783C120.235 44.5959 120.158 43.5342 119.724 42.9254Z" fill="#F7CA82"/>
<path d="M95.9628 43.1636C96.4436 42.6313 96.8265 43.1577 96.8265 43.1577C97.432 43.0254 97.5685 44.3489 97.5685 44.3489L96.6425 45.2253C95.289 44.6989 95.4849 43.6959 95.9628 43.1636Z" fill="#F7CA82"/>
<path d="M110.244 46.4047C110.244 46.4047 114.853 46.8194 117.94 43.5871L118.884 44.9988C118.884 44.9988 115.762 49.1428 110.17 48.7017L110.244 46.4047Z" fill="#0087E2"/>
<path d="M116.234 65.5483C116.234 65.5483 116.273 66.5542 116.798 66.7101C117.321 66.863 118.149 67.1336 117.932 68.01C117.727 68.8541 116.65 68.4924 116.436 68.3806C116.223 68.2688 115.083 67.8394 114.655 67.6836C114.228 67.5277 114.255 66.7218 114.412 66.0013C114.569 65.2777 116.234 65.5483 116.234 65.5483Z" fill="#C6704E"/>
<path d="M113.052 66.866C113.052 66.866 113.07 67.8542 113.592 68.0071C114.115 68.16 115.234 68.6041 114.75 69.3247C114.266 70.0453 113.483 69.8247 113.269 69.7129C113.055 69.6012 111.773 69.1482 111.346 68.9924C110.918 68.8365 110.969 68.1071 111.126 67.3865C111.283 66.6689 113.052 66.866 113.052 66.866Z" fill="#C6704E"/>
<path d="M110.44 54.925C110.44 54.925 113.848 56.8279 115.904 58.8632C115.904 58.8632 116.744 62.766 116.602 65.7101C116.602 65.7101 115.86 66.7659 114.032 66.3895L113.352 59.8543L107.837 56.9456L107.354 55.1074L110.44 54.925Z" fill="#B64D50"/>
<path d="M107.355 55.7721C107.355 55.7721 112.341 59.2573 112.872 60.069C112.872 60.069 113.632 65.0101 113.498 67.2159C113.498 67.2159 112.032 68.2924 110.759 67.613C110.759 67.613 109.999 61.8602 109.943 61.2749C109.943 61.2749 106.126 59.6749 105.517 59.0161C104.909 58.3544 104.568 56.628 104.856 56.0691L107.355 55.7721Z" fill="#B64D50"/>
<path d="M106.463 45.5047L106.377 46.6458C106.377 46.6458 106.588 47.4282 107.615 47.5429C108.642 47.6546 109.033 46.8929 109.033 46.8929V45.94L106.463 45.5047Z" fill="#F7B378"/>
<path d="M106.378 46.6459C106.378 46.6459 105.659 46.8311 104.137 47.3341C104.137 47.3341 104.122 51.5428 104.852 56.0691C104.852 56.0691 108.066 56.6691 110.545 54.925C110.545 54.925 110.61 49.234 110.242 46.4047C110.242 46.4047 109.634 46.2635 109.031 46.3488L106.378 46.6459Z" fill="#506BD6"/>
<path d="M106.208 45.0753C106.208 45.0753 106.606 46.8253 108.241 46.7988C110.129 46.7665 110.203 44.3224 109.945 43.1813C109.701 42.1137 108.387 40.8607 107.093 41.696C106.122 42.3195 105.804 43.4724 106.208 45.0753Z" fill="#F7CA82"/>
<path d="M107.668 41.1607C107.668 41.1607 106.015 41.2578 105.68 43.293C105.68 43.293 105.43 44.9842 106.715 46.0841C106.715 46.0841 106.671 45.3841 106.763 45.2489C106.858 45.1106 106.484 44.7165 106.517 44.4489C106.549 44.1812 106.582 43.693 106.894 43.9283L107.006 44.0401C107.107 44.1401 107.276 44.0577 107.262 43.9195C107.241 43.7165 107.247 43.4901 107.342 43.346C107.549 43.0283 108.743 43.596 110.013 43.346C110.013 43.346 110.247 43.1077 110.203 42.6136C110.203 42.6107 109.838 40.6901 107.668 41.1607Z" fill="#C6704E"/>
<path d="M106.826 46.3753L107.891 46.6253L109.034 46.9812L108.936 47.49L108.425 47.7135L107.339 47.2253L106.713 46.6253L106.826 46.3753Z" fill="#F7B378"/>
<path d="M106.405 46.287L106.129 46.7047L107.889 48.3811L108.426 47.7135L106.405 46.287Z" fill="#F1F2F2"/>
<path d="M108.426 47.7135L109.061 48.2723L109.361 46.3753L108.426 47.7135Z" fill="#F1F2F2"/>
<path d="M107.262 43.9518C107.262 43.9518 107.052 45.6606 107.595 46.0664C107.595 46.0664 108.473 46.59 109.536 46.1664C109.536 46.1664 109.984 46.6841 109.607 47.0164C109.23 47.3488 107.642 47.2782 107.271 46.887C106.9 46.4958 106.814 44.7724 107.01 44.043L107.173 43.8694L107.262 43.9518Z" fill="#C6704E"/>
<path d="M107.66 43.7577C109.088 43.9695 109.765 43.7254 110.008 43.546C110.061 43.5048 110.148 43.5165 110.201 43.5665L111.142 44.0871L108.31 45.7194L107.396 45.1636C107.355 45.1165 107.343 45.0547 107.364 45.0018L107.512 43.8371C107.53 43.7783 107.592 43.746 107.66 43.7577Z" fill="#EC6B8C"/>
<path d="M108.574 44.3018L111.047 44.0518C111.112 44.04 111.171 44.0989 111.156 44.1547L111.005 45.3224C110.984 45.393 110.922 45.4459 110.845 45.4606L108.393 45.7459C108.331 45.7576 108.268 45.7018 108.286 45.6459L108.405 44.443C108.426 44.3665 108.491 44.3136 108.574 44.3018Z" fill="#494DA5"/>
<path d="M107.488 43.9783C107.488 43.9783 106.414 43.4842 105.883 42.5636C105.883 42.5636 105.672 42.6989 105.731 43.0371C105.731 43.0371 106.286 43.94 107.429 44.4518L107.488 43.9783Z" fill="#734BAB"/>
<path d="M104.136 47.3341C104.136 47.3341 100.857 48.0841 97.5919 44.0489C97.5919 44.0489 96.9152 44.0959 96.5234 45.2959C96.5234 45.2959 98.8118 50.1252 104.347 50.0223C104.347 50.0223 105.223 47.9606 104.136 47.3341Z" fill="#0087E2"/>
<path opacity="0.07" d="M69.469 64.5013L69.4482 64.4895L58.3004 58.0985C58.1341 58.0044 57.9264 58.0014 57.7602 58.0985L47.5116 63.963L45.2203 65.2718C45.0244 65.3836 45.0214 65.6659 45.2203 65.7806L45.5854 65.9895L56.7332 72.3805C56.8995 72.4775 57.1072 72.4775 57.2734 72.3805L68.0651 66.2042L69.466 65.4042C69.8192 65.2042 69.8192 64.7042 69.469 64.5013Z" fill="#2B3990"/>
<path d="M68.0647 53.5634L66.2572 54.7074L65.4528 55.4457L46.879 55.0251L46.3655 54.5575L44.0861 54.081V57.2897C44.0831 57.3897 44.1306 57.4927 44.2345 57.5515L44.5995 57.7603L55.7474 64.1513C55.9136 64.2484 56.1214 64.2484 56.2876 64.1513L67.0793 57.975L68.4802 57.175C68.6613 57.0721 68.7473 56.8868 68.7414 56.7074V53.4987L68.0647 53.5634Z" fill="url(#paint2_linear_24_5558)"/>
<path d="M68.4827 53.0604L68.4619 53.0486L57.314 46.6576C57.1478 46.5606 56.9401 46.5606 56.7739 46.6576L46.5253 52.5222L44.234 53.831C44.0381 53.9427 44.0351 54.2251 44.234 54.3398L44.599 54.5486L55.7469 60.9396C55.9131 61.0367 56.1209 61.0367 56.2871 60.9396L67.0788 54.7633L68.4797 53.9633C68.8329 53.7633 68.8329 53.2633 68.4827 53.0604Z" fill="#ECF5FF"/>
<path d="M37.8535 27.611V41.6842L59.8109 29.0963V15.0231L37.8535 27.611Z" fill="#E8772B"/>
<path d="M54.1934 20.1024V19.5877L58.8442 16.9231V17.4348L54.1934 20.1024Z" fill="#ECF5FF"/>
<path d="M54.1934 21.0877V20.576L58.8442 17.9084V18.4201L54.1934 21.0877Z" fill="#ECF5FF"/>
<path d="M54.1934 22.0729V21.5612L58.8442 18.8936V19.4083L54.1934 22.0729Z" fill="#ECF5FF"/>
<path d="M51.5806 21.1083V21.623L46.9297 24.2905V23.7759L51.5806 21.1083Z" fill="#ECF5FF"/>
<path d="M51.5806 22.6082L46.9297 25.2758V24.7611L51.5806 22.0965V22.6082Z" fill="#ECF5FF"/>
<path d="M51.5806 23.5935L46.9297 26.2611V25.7464L51.5806 23.0817V23.5935Z" fill="#ECF5FF"/>
<path d="M51.5806 26.0641L46.9297 28.7316V28.2199L51.5806 25.5523V26.0641Z" fill="#ECF5FF"/>
<path d="M51.5806 27.0522L46.9297 29.7169V29.2051L51.5806 26.5375V27.0522Z" fill="#ECF5FF"/>
<path d="M51.5806 28.0375L46.9297 30.7051V30.1904L51.5806 27.5228V28.0375Z" fill="#ECF5FF"/>
<path d="M51.5806 30.508L46.9297 33.1756V32.6609L51.5806 29.9933V30.508Z" fill="#ECF5FF"/>
<path d="M51.5806 31.4933L46.9297 34.1609V33.6462L51.5806 30.9816V31.4933Z" fill="#ECF5FF"/>
<path d="M51.5806 32.4785L46.9297 35.1461V34.6314L51.5806 31.9668V32.4785Z" fill="#ECF5FF"/>
<path d="M54.1934 23.0612V22.5465L58.8442 19.8789V20.3936L54.1934 23.0612Z" fill="#ECF5FF"/>
<path d="M43.4629 31.7345L45.1101 30.7933V36.1285L43.4629 37.0726V31.7345Z" fill="#ECF5FF"/>
<path d="M41.291 30.0933L42.9353 29.1492V37.3784L41.291 38.3196V30.0933Z" fill="#ECF5FF"/>
<path d="M39.1152 28.4581L40.7595 27.5169V38.6254L39.1152 39.5695V28.4581Z" fill="#ECF5FF"/>
<path d="M56.0957 26.667V23.6847C56.1462 23.6523 56.1966 23.617 56.2501 23.5876C57.6777 22.77 58.8382 23.4259 58.8441 25.0523C58.8501 26.6787 57.6955 28.6581 56.2679 29.4757C54.8403 30.2933 53.6798 29.6375 53.6738 28.011C53.6738 27.9875 53.6768 27.9611 53.6768 27.9375L56.0957 26.667Z" fill="#ECF5FF"/>
<path d="M37.7648 27.4611L37.6758 27.5111V41.9901L59.8973 29.2492L59.9864 29.1993V14.7202L37.7648 27.4611ZM59.6332 28.9963L38.029 41.3842V27.7111L59.6332 15.3231V28.9963Z" fill="#ECF5FF"/>
<path d="M53.5879 22.7435L54.9561 22.2994L55.063 23.0994L54.5555 23.867L53.5879 22.7435Z" fill="#EC6B8C"/>
<path d="M53.7541 22.7935L54.784 22.4729V22.3582L53.5879 22.7435L53.7541 22.7935Z" fill="#494DA5"/>
<path d="M59.9688 26.3993C59.9688 26.3993 62.1087 27.3199 59.9688 30.1286V26.3993Z" fill="#FE86DB"/>
<path d="M58.8345 51.8751C58.8345 51.8751 58.5377 52.1634 58.0658 51.8751C57.772 51.6957 57.4336 51.5663 57.0923 51.5163C56.8994 51.4869 56.6976 51.4869 56.5076 51.534C56.3681 51.5663 56.0861 51.6546 56.0238 51.8016C55.8635 52.1898 56.0624 52.534 56.3562 52.7839C57.1517 53.4633 58.1133 53.9722 59.1729 54.0663C59.627 54.1074 60.1879 54.1163 60.6094 53.9163C60.6094 53.9163 60.6806 52.1957 60.4847 51.9722L58.8345 51.8751Z" fill="#B64D50"/>
<path d="M59.7749 35.8049C59.7749 35.8049 60.3596 37.9902 60.2943 39.696L60.7959 51.8016C60.7959 51.8016 59.8165 52.6633 57.9348 52.3427L57.3145 35.9314L59.7749 35.8049Z" fill="#494DA5"/>
<path d="M54.9596 52.9251C54.9596 52.9251 54.6628 53.2133 54.1909 52.9251C53.897 52.7457 53.5587 52.6163 53.2173 52.5663C53.0244 52.5398 52.8256 52.5369 52.6326 52.5839C52.4931 52.6163 52.2082 52.7074 52.1489 52.8516C51.9886 53.2427 52.1874 53.5839 52.4783 53.8339C53.2737 54.5133 54.2354 55.025 55.295 55.1162C55.7491 55.1574 56.31 55.1633 56.7315 54.9662C56.7315 54.9662 56.8027 53.2457 56.6068 53.0221L54.9596 52.9251Z" fill="#B64D50"/>
<path d="M57.797 35.6255C57.797 35.6255 58.1235 37.049 57.6516 39.0637L56.8918 53.1839C56.8918 53.1839 55.5948 53.7486 54.0039 53.1839L54.4194 36.4785L57.797 35.6255Z" fill="#494DA5"/>
<path d="M54.2464 35.9961C54.2346 35.5667 54.5462 33.4403 54.5462 33.4403C54.469 30.558 54.5699 27.6698 54.5699 27.6698L56.2172 26.6022L58.6628 26.0405L59.5621 26.264C59.951 26.2905 60.2715 26.5699 60.3427 26.9522C60.4704 27.6345 60.6128 28.7345 60.4288 29.6315C60.3071 30.2257 60.1736 31.3168 60.0578 32.3815C60.0459 32.4932 59.8886 34.5961 59.9717 35.4549C59.9717 35.4549 59.9925 35.6285 59.7788 35.8049C58.1583 37.2843 54.7005 36.802 54.7005 36.802C54.3088 36.7608 54.2553 36.3314 54.2464 35.9961Z" fill="#FE57DB"/>
<path d="M48.4469 30.9021C48.6784 30.8256 48.9218 30.8315 49.3699 30.8992C49.275 30.8168 49.1414 30.7315 49.0256 30.6786C48.8298 30.5903 48.9603 30.4933 48.9603 30.4933C49.0909 30.4786 49.6638 30.6698 49.8211 30.7874C49.9784 30.905 50.3078 31.0756 50.3078 31.0756L50.296 31.155C50.3761 31.1756 50.4265 31.1874 50.4265 31.1874C50.4265 31.1874 50.0526 32.0638 49.827 32.0962C49.6014 32.1285 49.177 31.7638 48.9336 31.7344C48.5982 31.6903 48.343 31.8638 48.1056 31.8403C47.8681 31.8197 47.785 31.5286 47.7642 31.3903C47.7464 31.255 48.156 30.9992 48.4469 30.9021Z" fill="#F7CA82"/>
<path d="M50.3473 30.9933L53.0067 31.8197C53.0067 31.8197 53.4608 29.2139 53.5706 28.6786C53.6774 28.1434 54.5708 27.6728 54.5708 27.6728C55.9391 28.3581 55.5265 29.4316 55.5265 29.4316L54.4135 33.1638C54.2592 33.6815 53.6863 33.9491 53.1847 33.7403L49.6528 32.2609C49.632 31.1639 50.3473 30.9933 50.3473 30.9933Z" fill="#FE86DB"/>
<path d="M58.3194 20.8436C57.7347 20.7494 56.9363 20.7318 56.3724 20.8965C55.4226 21.1759 54.9032 21.7759 54.6747 22.67C54.4432 23.57 54.3749 25.0729 54.8943 25.9081C55.2208 26.4317 55.945 26.3346 56.4614 26.1964C57.0877 26.0317 57.9069 25.764 58.4174 25.3817C59.1327 24.8464 59.5096 23.6758 59.5541 22.8288C59.5897 22.0994 59.2098 20.9906 58.3194 20.8436Z" fill="#F7CA82"/>
<path d="M58.6595 25.1611C58.5823 25.2435 58.5022 25.317 58.4161 25.3817C57.9026 25.767 57.0834 26.0317 56.4602 26.1964C56.3622 26.2229 56.2524 26.2464 56.1426 26.264L56.2168 26.6023C56.8816 26.7846 57.5019 26.7317 57.962 26.6052C58.3033 26.5111 58.6624 26.367 58.6624 26.0111L58.6595 25.1611Z" fill="#F7B378"/>
<path d="M54.2251 20.8347C54.2251 20.8347 54.976 21.1759 56.1187 20.7053C56.6974 20.4671 58.312 20.5289 58.7691 21.023C59.339 21.3965 59.5824 22.2406 59.5527 22.8317C59.5082 23.6788 59.1312 24.8493 58.4159 25.3846C58.0212 25.6787 58.0034 25.714 57.4751 25.8758C57.3296 25.8052 56.552 25.2082 56.552 25.2082C56.8518 25.0376 57.0833 24.0494 56.7657 23.8788C56.4481 23.7053 56.2344 24.3199 56.2344 24.3199C56.0504 24.2523 55.7714 24.0435 55.9258 23.6788C56.0801 23.3141 55.9258 22.9317 55.9258 22.9317C55.3618 22.9435 54.8959 22.6259 54.7178 22.5288C54.7148 22.5259 53.9639 22.0112 54.2251 20.8347Z" fill="#B64D50"/>
<path d="M53.5879 22.7435L54.8879 23.0582C54.9888 23.0818 55.0571 23.1729 55.0541 23.2759L55.0155 24.4905C55.0125 24.6023 54.9057 24.6817 54.7959 24.6523L53.6235 24.3494L53.5879 22.7435Z" fill="#EC6B8C"/>
<path d="M53.5879 22.7435L53.7719 22.7876L53.7808 24.3905L53.6265 24.3494L53.5879 22.7435Z" fill="#494DA5"/>
<path d="M54.9505 23.5229C54.9505 23.5229 58.0936 23.7317 59.5479 22.5494C59.5479 22.5494 59.824 22.8935 59.4975 23.3258C59.4975 23.3258 57.6781 24.367 54.9297 24.1199L54.9505 23.5229Z" fill="#734BAB"/>
<path d="M4.37109 53.0575C4.09804 53.2075 3.86059 53.3898 3.65877 53.5927L2.7832 54.5457V55.7515C2.78914 56.7927 3.31745 57.8309 4.37109 58.4103L18.9975 66.4748C20.2797 67.1806 21.7103 67.5041 23.1319 67.4453V42.7018L4.37109 53.0575Z" fill="url(#paint3_linear_24_5558)"/>
<path d="M54.9074 46.8047C54.667 46.5018 54.3613 46.2341 53.9903 46.0253L39.4945 37.9167C37.1201 36.5873 34.2174 36.5785 31.837 37.8961L23.1348 42.6989V67.4424C24.3368 67.3924 25.5329 67.0689 26.6163 66.4689L53.9755 51.3693C55.0469 50.7781 55.5752 49.7105 55.5604 48.6488V47.5517L54.9074 46.8047Z" fill="url(#paint4_linear_24_5558)"/>
<path d="M4.37193 52.0222L31.838 36.8638C34.2213 35.5491 37.1211 35.5579 39.4984 36.8843L53.9943 44.993C56.0986 46.1694 56.0897 49.1723 53.9794 50.3369L26.6172 65.4395C24.2488 66.7453 21.3698 66.7483 19.0013 65.4424L4.3749 57.3779C2.25574 56.2103 2.25574 53.1898 4.37193 52.0222Z" fill="#E8772B"/>
<path d="M34.7015 64.1836C34.6303 64.2219 34.5709 64.2689 34.5175 64.3219L34.2949 64.566V64.8748C34.2949 65.1424 34.4314 65.4071 34.7015 65.5571L38.4472 67.6218C38.7766 67.8041 39.1417 67.8865 39.5068 67.8688V61.5337L34.7015 64.1836Z" fill="#ECF5FF"/>
<path d="M47.6422 62.5837C47.5799 62.5043 47.5027 62.4366 47.4077 62.3837L43.6947 60.3102C43.0863 59.969 42.3443 59.9661 41.7329 60.3043L39.5039 61.5337V67.8688C39.8126 67.8571 40.1183 67.7747 40.3973 67.6218L47.4018 63.7572C47.6778 63.6042 47.8114 63.3307 47.8084 63.0601V62.7807L47.6422 62.5837Z" fill="#ECF5FF"/>
<path d="M34.702 63.9189L41.7332 60.0367C42.3447 59.6985 43.0867 59.7014 43.6951 60.0426L47.4081 62.119C47.9453 62.419 47.9423 63.1896 47.4022 63.4895L40.3976 67.3542C39.7922 67.6894 39.0531 67.6894 38.4476 67.3542L34.702 65.2895C34.1618 64.9895 34.1618 64.216 34.702 63.9189Z" fill="#ECF5FF"/>
<path d="M40.1293 69.5629C40.058 69.6011 39.9987 69.6482 39.9482 69.6982L39.7227 69.9423V70.2541C39.7256 70.5188 39.8592 70.7864 40.1293 70.9364L43.8749 73.0011C44.2044 73.1805 44.5694 73.2628 44.9345 73.2481V66.91L40.1293 69.5629Z" fill="#ECF5FF"/>
<path d="M53.0689 67.96C53.0066 67.8836 52.9294 67.8159 52.8345 67.763L49.1244 65.6836C48.516 65.3454 47.774 65.3425 47.1626 65.6777L44.9336 66.9071V73.2422C45.2423 73.2305 45.548 73.1452 45.827 72.9952L52.8315 69.1276C53.1075 68.9747 53.2411 68.7041 53.2381 68.4335V68.1512L53.0689 67.96Z" fill="#ECF5FF"/>
<path d="M40.1297 69.2982L47.161 65.416C47.7694 65.0777 48.5144 65.0807 49.1228 65.4218L52.8329 67.4983C53.373 67.7983 53.3701 68.5688 52.8299 68.8659L45.8254 72.7334C45.2199 73.0658 44.4809 73.0658 43.8754 72.7334L40.1297 70.6658C39.5896 70.3688 39.5896 69.5982 40.1297 69.2982Z" fill="#ECF5FF"/>
<path d="M45.559 74.9392C45.4907 74.9775 45.4284 75.0245 45.3749 75.0775L45.1523 75.3216V75.6304C45.1553 75.898 45.2918 76.1627 45.559 76.3127L49.3046 78.3774C49.6341 78.5597 49.9991 78.6421 50.3642 78.6244V72.2893L45.559 74.9392Z" fill="#ECF5FF"/>
<path d="M58.4986 73.3422C58.4363 73.2628 58.3591 73.1952 58.2641 73.1422L54.5541 71.0658C53.9457 70.7247 53.2037 70.7247 52.5923 71.0599L50.3633 72.2893V78.6244C50.672 78.6127 50.9777 78.5303 51.2537 78.3774L58.2582 74.5128C58.5313 74.3628 58.6678 74.0863 58.6648 73.8157V73.5363L58.4986 73.3422Z" fill="#ECF5FF"/>
<path d="M45.5582 74.6746L52.5924 70.7923C53.2038 70.4541 53.9458 70.457 54.5543 70.7982L58.2643 72.8746C58.8015 73.1775 58.8015 73.9452 58.2613 74.2452L51.2568 78.1098C50.6513 78.4421 49.9123 78.4421 49.3068 78.1098L45.5612 76.0451C45.018 75.7481 45.0151 74.9746 45.5582 74.6746Z" fill="#ECF5FF"/>
<path d="M0.0859375 45.2106L15.7779 36.5461V6.04688L0.0859375 14.6996V45.2106Z" fill="#E8772B"/>
<path d="M4.61133 47.9017L20.3032 39.2372V8.73798L4.61133 17.3907V47.9017Z" fill="white"/>
<path d="M6.41602 44.8165L18.4988 38.146V36.452L6.41602 43.1136V44.8165Z" fill="white"/>
<path d="M7.38713 18.8583L11.2248 16.7437C11.854 16.3966 12.6257 16.8466 12.6257 17.5613V20.7642V23.2112L11.1446 21.5936L8.44671 23.0759C7.71955 23.4759 6.82617 22.9523 6.82617 22.1318V19.8024C6.82914 19.4083 7.04284 19.0466 7.38713 18.8583Z" fill="url(#paint5_linear_24_5558)"/>
<path d="M7.5689 19.9201L7.52734 19.8465L11.7835 17.4319L11.825 17.5054L7.5689 19.9201Z" fill="white"/>
<path d="M7.5689 20.7583L7.52734 20.6848L11.7835 18.2731L11.825 18.3466L7.5689 20.7583Z" fill="white"/>
<path d="M7.5689 21.5965L7.52734 21.5259L11.7835 19.1113L11.825 19.1848L7.5689 21.5965Z" fill="white"/>
<path d="M7.5689 22.467L7.52734 22.3935L11.7835 19.9818L11.825 20.0553L7.5689 22.467Z" fill="white"/>
<path d="M7.38713 34.1609L11.2248 32.0462C11.854 31.6992 12.6257 32.1492 12.6257 32.8639V36.0726V38.5196L11.1446 36.9049L8.44671 38.3872C7.71955 38.7872 6.82617 38.2667 6.82617 37.4431V35.1138C6.82914 34.7138 7.04284 34.3521 7.38713 34.1609Z" fill="url(#paint6_linear_24_5558)"/>
<path d="M7.5689 35.2226L7.52734 35.152L11.7835 32.7374L11.825 32.8109L7.5689 35.2226Z" fill="white"/>
<path d="M7.5689 36.0638L7.52734 35.9903L11.7835 33.5756L11.825 33.6492L7.5689 36.0638Z" fill="white"/>
<path d="M7.5689 36.902L7.52734 36.8285L11.7835 34.4167L11.825 34.4903L7.5689 36.902Z" fill="white"/>
<path d="M7.5689 37.7726L7.52734 37.6991L11.7835 35.2874L11.825 35.3579L7.5689 37.7726Z" fill="white"/>
<path d="M17.2228 22.5347L13.3852 24.6493C13.0379 24.8405 12.8242 25.2022 12.8242 25.5934V27.9228V30.8609L14.1895 29.0286L17.1397 27.3845L17.4662 27.2022C18.1815 26.8022 18.6208 26.0522 18.6208 25.2405V23.3494C18.6237 22.6376 17.8491 22.1876 17.2228 22.5347Z" fill="url(#paint7_linear_24_5558)"/>
<path d="M13.563 25.7111L13.5215 25.6375L17.7776 23.2258L17.8192 23.2994L13.563 25.7111Z" fill="white"/>
<path d="M17.7799 24.0674L13.5215 26.4759L13.5641 26.55L17.8226 24.1415L17.7799 24.0674Z" fill="white"/>
<path d="M13.563 27.3904L13.5215 27.3169L17.7776 24.9052L17.8192 24.9787L13.563 27.3904Z" fill="white"/>
<path d="M17.774 25.7717L13.5234 28.1937L13.5663 28.2677L17.8169 25.8456L17.774 25.7717Z" fill="white"/>
<path d="M31.1199 49.4899C31.1199 49.4899 31.0753 50.531 30.5381 50.8104C30.0009 51.0869 28.603 52.0722 28.9057 52.5133C29.2085 52.9545 30.2502 53.3574 31.3484 52.7545C32.4466 52.1516 33.0817 51.6134 33.4082 51.4045C33.7347 51.1957 33.4112 49.7193 33.3399 49.0693C33.2687 48.4252 31.1199 49.4899 31.1199 49.4899Z" fill="#B64D50"/>
<path d="M27.7632 33.2167C27.7632 33.2167 26.1367 41.5959 26.1367 42.0606C26.1367 42.5224 30.4493 47.1399 30.4493 47.1399L31.0013 43.143L29.2709 41.1048L30.6214 36.5549L31.1349 32.4315L29.9477 30.808L27.7632 31.4109V33.2167Z" fill="#FFA082"/>
<path d="M33.4733 32.4285C33.4733 32.4285 33.3842 40.7283 33.3842 41.843C33.3842 42.9547 33.7582 49.4428 33.7582 49.4428C33.7582 49.4428 33.3367 50.3692 30.6715 49.8604L30.0126 41.89L29.9473 35.3932V33.5403L33.4733 32.4285Z" fill="#FFAC82"/>
<path d="M30.6256 32.9432C30.6256 32.9432 29.2247 33.1991 27.9336 32.5962L28.1146 31.9021L30.6256 32.2344V32.9432Z" fill="#FFA082"/>
<path d="M36.3054 34.2873C36.3054 34.2873 36.2727 35.1726 36.3054 35.5285C36.3677 36.2226 36.0798 36.8902 35.8305 37.0755C35.5812 37.2608 35.0499 37.399 34.8421 37.2843C34.6344 37.1696 35.038 36.5255 35.1152 36.2108C35.2873 35.5285 35.1152 35.3079 35.1152 35.3079C35.1241 35.3196 34.9905 35.549 34.9816 35.5667C34.8955 35.7461 34.8184 35.9343 34.7382 36.1167C34.7323 36.1314 34.7234 36.1461 34.7115 36.1549C34.6937 36.1637 34.67 36.1579 34.6551 36.1461C34.4563 35.9784 34.4978 35.549 34.6076 35.352C34.7204 35.152 35.0202 33.7314 35.0202 33.7314L36.3054 34.2873Z" fill="#F7CA82"/>
<path d="M19.5691 32.2433C19.6492 32.205 19.7353 32.1697 19.7857 32.1139C19.851 32.0433 19.756 32.0374 19.6818 32.0403C19.48 32.0521 19.2841 32.1109 19.0793 32.1139C19.02 32.1139 18.9042 32.0815 18.9725 32.008C19.1684 31.7903 19.5245 31.7139 19.7976 31.6433C19.9905 31.5903 20.1864 31.5521 20.3823 31.5286C20.4862 31.5139 20.593 31.505 20.6969 31.4992C20.7563 31.4962 20.8898 31.5198 20.9432 31.4815C21.0115 31.4345 20.9432 31.4815 21.0085 31.4315L21.7505 32.4315C21.6526 32.5756 21.5279 32.6991 21.4003 32.8227C21.0916 33.1197 20.9106 33.2021 20.5159 33.3226C20.2784 33.3962 20.1359 33.5491 19.9549 33.7168C19.7738 33.8815 19.7649 34.1109 19.5216 34.1962C19.2604 34.2873 18.7647 33.8256 18.7618 33.2844C18.7588 33.005 18.9458 32.7521 19.1387 32.5638C19.2396 32.4638 19.3524 32.3756 19.4741 32.2962C19.5008 32.2756 19.5334 32.2609 19.5691 32.2433Z" fill="#F7CA82"/>
<path d="M36.538 33.8756V34.6285C36.538 34.6285 35.4279 34.6756 34.6562 34.2521V33.4697L36.538 33.8756Z" fill="#ECF5FF"/>
<path d="M22.1906 32.4844L21.6177 32.9785C21.6177 32.9785 20.852 32.1785 20.668 31.3256L21.2616 30.8109L22.1906 32.4844Z" fill="#ECF5FF"/>
<path d="M31.4262 20.4877L31.2838 20.6847L28.939 21.7965L28.7461 21.0083C30.0728 20.1436 31.4262 20.4877 31.4262 20.4877Z" fill="#BCBEC0"/>
<path d="M31.2068 19.8054C31.2068 19.8054 31.2305 20.3024 31.37 20.8495L30.3698 21.9612L29.509 22.7259H28.96L28.8086 22.0877C28.8086 22.0877 29.0193 20.7671 28.8917 20.2906L31.2068 19.8054Z" fill="#F7B378"/>
<path d="M27.2326 21.6935C27.2326 21.6935 25.713 26.3787 25.152 27.5728L20.9434 30.9462C20.9434 30.9462 20.9908 32.058 22.0653 32.708L26.4609 29.6022L27.1732 28.4257L27.7668 23.6111L27.2326 21.6935Z" fill="#8662BF"/>
<path d="M30.6703 32.3815C30.6703 32.3815 29.5781 32.6285 28.1772 32.0109L27.7676 21.6935L28.9993 21.9435L30.1835 21.7377L31.6527 20.9406L32.1365 21.6906L31.442 29.5992L30.6703 32.3815Z" fill="#40A6EC"/>
<path d="M28.5588 23.3052C28.5588 23.3052 28.2382 28.2434 28.3926 33.8962C28.3926 33.8962 27.799 33.7403 27.3627 33.402C27.3627 33.402 26.956 26.3787 27.2291 21.6935L28.7279 21.1788L28.6923 21.6082L28.5588 23.3052Z" fill="#8662BF"/>
<path d="M31.427 20.4877L31.7327 21.0112L30.1359 22.7258L29.4414 21.8612L31.427 20.4877Z" fill="#6EC7EF"/>
<path d="M34.739 22.6082C34.739 22.6082 33.9941 21.8259 31.7324 21.0142C31.7324 21.0142 30.008 23.8317 30.4324 34.2109C30.4324 34.2109 33.3827 33.8079 33.819 33.4668C33.819 33.4638 33.6468 25.217 34.739 22.6082Z" fill="#8662BF"/>
<path d="M31.7349 18.9495C31.7349 18.9495 31.4737 20.8112 29.7642 20.923C27.7904 21.0524 27.4966 18.5083 27.6658 17.2907C27.8231 16.1554 29.0904 14.7319 30.5121 15.4907C31.5836 16.0643 32.0139 17.2407 31.7349 18.9495Z" fill="#F7CA82"/>
<path d="M29.8674 14.9878C29.8674 14.9878 31.6037 14.9466 32.132 17.0436C32.132 17.0436 32.5416 18.7877 31.295 20.0465C31.295 20.0465 31.2802 19.3112 31.1704 19.1759C31.0606 19.0407 31.4167 18.5966 31.3574 18.3201C31.298 18.0436 31.2208 17.5348 30.9181 17.8083L30.8113 17.9348C30.7163 18.0466 30.5323 17.976 30.5352 17.8289C30.5382 17.6142 30.5115 17.3789 30.4017 17.2378C30.1553 16.9231 28.977 18.0377 27.6295 17.8848C27.6295 17.8848 27.2764 17.8877 27.2793 17.3701C27.2764 17.3701 27.5583 14.6849 29.8674 14.9878Z" fill="#B64D50"/>
<path d="M29.4403 21.8611L28.6152 22.5876L28.7458 21.0112L29.4403 21.8611Z" fill="#6EC7EF"/>
<path d="M29.4405 21.8611L28.832 22.3935L29.0813 22.8317L29.6245 22.8905L29.9658 22.517L29.4405 21.8611Z" fill="#F1F2F2"/>
<path d="M29.0812 22.8317L28.6152 29.6992L29.1257 30.7433L29.7371 29.8168L29.6244 22.8905L29.0812 22.8317Z" fill="#F1F2F2"/>
<path d="M32.8516 25.1523L33.8815 28.7375L33.9675 27.1993L32.8516 25.1523Z" fill="#FFC838"/>
<path d="M34.9015 22.7847C34.9015 22.7847 36.3439 26.6669 36.6259 29.0139C36.6259 29.0139 36.6259 32.5962 36.6259 34.205C36.6259 34.205 35.4713 34.2667 34.5987 33.805C34.5987 33.805 34.848 28.3992 32.8535 25.1552C32.8506 25.1523 33.4026 20.973 34.9015 22.7847Z" fill="#8662BF"/>
<path d="M30.0479 18.2407C28.6203 18.4524 27.9436 18.2083 27.7002 18.0289C27.6468 17.9878 27.5607 17.9995 27.5073 18.0495L26.5664 18.5701L29.3979 20.2024L30.312 19.6465C30.3536 19.5995 30.3655 19.5377 30.3447 19.4848L30.1963 18.3201C30.1785 18.2613 30.1162 18.2289 30.0479 18.2407Z" fill="#EC6B8C"/>
<path d="M29.1314 18.7848L26.659 18.5348C26.5937 18.523 26.5343 18.5818 26.5492 18.6377L26.7005 19.8053C26.7213 19.8759 26.7836 19.9289 26.8638 19.9436L29.3154 20.2289C29.3777 20.2406 29.4371 20.1847 29.4193 20.1289L29.3035 18.9259C29.2827 18.8524 29.2174 18.7995 29.1314 18.7848Z" fill="#494DA5"/>
<path d="M30.2188 18.4612C30.2188 18.4612 31.5009 17.6819 32.0352 16.7613C32.0352 16.7613 32.2459 16.8966 32.1865 17.2348C32.1865 17.2348 31.4238 18.423 30.2781 18.9377L30.2188 18.4612Z" fill="#734BAB"/>
</g>
<defs>
<linearGradient id="paint0_linear_24_5558" x1="8.10778" y1="57.3679" x2="114.028" y2="57.3679" gradientUnits="userSpaceOnUse">
<stop stop-color="#FFB138"/>
<stop offset="1" stop-color="#F59670"/>
</linearGradient>
<linearGradient id="paint1_linear_24_5558" x1="29.5271" y1="75.9655" x2="25.5501" y2="75.9655" gradientUnits="userSpaceOnUse">
<stop stop-color="#6AA5EC"/>
<stop offset="0.3183" stop-color="#6AA0EC"/>
<stop offset="0.6756" stop-color="#6B93EC"/>
<stop offset="1" stop-color="#6C80EC"/>
</linearGradient>
<linearGradient id="paint2_linear_24_5558" x1="74.3253" y1="52.5804" x2="41.6211" y2="61.607" gradientUnits="userSpaceOnUse">
<stop stop-color="#8CE2FF"/>
<stop offset="0.3082" stop-color="#86D9FD"/>
<stop offset="0.8164" stop-color="#77C0F6"/>
<stop offset="1" stop-color="#71B5F3"/>
</linearGradient>
<linearGradient id="paint3_linear_24_5558" x1="42.4764" y1="71.8283" x2="14.2131" y2="50.5294" gradientUnits="userSpaceOnUse">
<stop stop-color="#224099"/>
<stop offset="0.1052" stop-color="#25469C"/>
<stop offset="0.2476" stop-color="#2D57A6"/>
<stop offset="0.4113" stop-color="#3B74B7"/>
<stop offset="0.5894" stop-color="#4D9BCD"/>
<stop offset="0.7511" stop-color="#61C5E5"/>
<stop offset="1" stop-color="#6CCCE6"/>
</linearGradient>
<linearGradient id="paint4_linear_24_5558" x1="33.8337" y1="42.814" x2="48.5066" y2="82.6158" gradientUnits="userSpaceOnUse">
<stop stop-color="#224099"/>
<stop offset="0.1052" stop-color="#25469C"/>
<stop offset="0.2476" stop-color="#2D57A6"/>
<stop offset="0.4113" stop-color="#3B74B7"/>
<stop offset="0.5894" stop-color="#4D9BCD"/>
<stop offset="0.7511" stop-color="#61C5E5"/>
<stop offset="1" stop-color="#6CCCE6"/>
</linearGradient>
<linearGradient id="paint5_linear_24_5558" x1="18.7071" y1="33.2148" x2="5.25617" y2="12.8537" gradientUnits="userSpaceOnUse">
<stop stop-color="#F05A28"/>
<stop offset="1" stop-color="#F9EC31"/>
</linearGradient>
<linearGradient id="paint6_linear_24_5558" x1="18.7069" y1="48.5192" x2="5.25631" y2="28.1587" gradientUnits="userSpaceOnUse">
<stop stop-color="#F05A28"/>
<stop offset="1" stop-color="#F9EC31"/>
</linearGradient>
<linearGradient id="paint7_linear_24_5558" x1="2.48616" y1="45.2727" x2="22.8619" y2="14.4293" gradientUnits="userSpaceOnUse">
<stop stop-color="#F05A28"/>
<stop offset="1" stop-color="#F9EC31"/>
</linearGradient>
<clipPath id="clip0_24_5558">
<rect width="120" height="114" fill="white"/>
</clipPath>
</defs>
</svg>
