<svg width="120" height="116" viewBox="0 0 120 116" fill="none" xmlns="http://www.w3.org/2000/svg">
<g clip-path="url(#clip0_24_5795)">
<path d="M60 116C93.1371 116 120 100.541 120 81.4716C120 62.4022 93.1371 46.9433 60 46.9433C26.8629 46.9433 0 62.4022 0 81.4716C0 100.541 26.8629 116 60 116Z" fill="#F0F0F0"/>
<path d="M95.8479 87.1616C101.872 87.1616 106.756 84.3506 106.756 80.883C106.756 77.4154 101.872 74.6044 95.8479 74.6044C89.8233 74.6044 84.9395 77.4154 84.9395 80.883C84.9395 84.3506 89.8233 87.1616 95.8479 87.1616Z" fill="#E0E0E0"/>
<path d="M26.2168 85.3331L75.0106 113.413L97.3755 100.544L48.5691 72.4567L26.2168 85.3331Z" fill="#E0E0E0"/>
<path d="M17.5425 90.8683L7.44744 85.0587C7.27477 85.0014 7.18218 84.8143 7.23973 84.6422C7.27227 84.5449 7.34984 84.47 7.44744 84.4351L42.958 63.998C43.2983 63.8259 43.7012 63.8259 44.0415 63.998L54.1391 69.8101C54.3118 69.8675 54.4044 70.0545 54.3468 70.2267C54.3143 70.3239 54.2367 70.3988 54.1391 70.4337L18.6261 90.8683C18.2858 91.0405 17.8829 91.0405 17.5425 90.8683Z" fill="#E0E0E0"/>
<path d="M49.4659 2.23008L19.4909 19.4768C18.8503 19.8984 18.4449 20.5968 18.4023 21.3601V88.738C18.4023 89.429 18.9028 89.7109 19.4909 89.3642L49.4659 72.1174C50.1091 71.6984 50.512 70.9974 50.5545 70.2341V2.85868C50.5545 2.16522 50.064 1.88335 49.4659 2.23008ZM48.9879 64.0254C48.9879 64.6191 48.57 64.9957 48.052 65.2926L20.7972 80.9753C20.2967 81.2721 19.8638 81.0326 19.8638 80.4365V27.6586C19.9013 27.0026 20.2467 26.4039 20.7972 26.0422L48.0495 10.362C48.5675 10.0652 48.9854 10.3071 48.9854 10.8983L48.9879 64.0254Z" fill="#37474F"/>
<path d="M19.3562 89.4315C18.698 89.7109 17.9498 89.6859 17.3116 89.3642L16.0604 88.6458C15.4147 88.2292 15.0068 87.5307 14.9668 86.7649V19.392C14.9743 19.1101 15.0369 18.8332 15.1545 18.5788C15.1945 18.494 15.2371 18.4092 15.2846 18.3293L18.7155 20.3025C18.643 20.4322 18.5804 20.5644 18.5254 20.7016C18.4428 20.9161 18.3977 21.1431 18.3927 21.3726V88.738C18.4027 89.3716 18.8207 89.666 19.3562 89.4315Z" fill="#263238"/>
<path d="M34.7368 74.8189C35.6877 74.2726 36.4585 74.7166 36.4585 75.8167C36.3935 77.024 35.7528 78.129 34.7368 78.7876C33.7883 79.3364 33.0176 78.8924 33.0176 77.7898C33.0851 76.585 33.7233 75.4799 34.7368 74.8189Z" fill="#BA68C8"/>
<path d="M34.4729 12.3077C34.8758 12.0757 35.2036 12.2628 35.2036 12.7268C35.1761 13.2406 34.9059 13.7096 34.4729 13.989C34.07 14.2209 33.7422 14.0339 33.7422 13.5699C33.7697 13.0585 34.04 12.5896 34.4729 12.3077Z" fill="black"/>
<path d="M31.6594 16.7379L37.3001 13.4951C37.6379 13.303 37.9107 13.4402 37.9107 13.8044C37.8757 14.2135 37.6504 14.5852 37.3001 14.8022L31.6594 18.045C31.3216 18.2371 31.0488 18.0999 31.0488 17.7357C31.0839 17.3266 31.3091 16.9574 31.6594 16.7379Z" fill="black"/>
<path d="M48.9874 63.9705C48.9874 64.5642 48.5695 64.9409 48.0515 65.2377L20.7967 80.9204C20.2962 81.2172 19.8633 80.9778 19.8633 80.3816V27.6038C19.9008 26.9477 20.2462 26.349 20.7967 25.9874L48.049 10.2972C48.567 9.99784 48.9849 10.2398 48.9849 10.8335L48.9874 63.9705Z" fill="#E8772B"/>
<path d="M20.382 81.1723C20.2744 81.1723 20.1668 81.1449 20.0742 81.0925C19.844 80.9354 19.7164 80.6685 19.7389 80.3916V27.6038C19.7739 26.9028 20.1468 26.2592 20.7399 25.8801L47.9871 10.1999C48.2799 9.95544 48.7154 9.99535 48.9606 10.2872C49.0907 10.4419 49.1458 10.6439 49.1108 10.8435V63.9755C49.1108 64.6964 48.5402 65.1055 48.1098 65.35L20.86 81.0277C20.7174 81.1175 20.5522 81.1674 20.382 81.1723ZM48.4676 10.2972C48.3425 10.3047 48.2199 10.3421 48.1123 10.4069L20.86 26.0971C20.3495 26.4314 20.0267 26.9851 19.9891 27.5938V80.3916C19.9241 80.6286 20.0642 80.8755 20.3019 80.9404C20.4571 80.9828 20.6248 80.9379 20.7399 80.8231L47.9871 65.128C48.5902 64.7837 48.8605 64.427 48.8605 63.9705V10.8385C48.8855 10.6464 48.8054 10.4543 48.6478 10.3396C48.5927 10.3097 48.5302 10.2947 48.4676 10.2972Z" fill="white"/>
<path d="M50.5432 2.68406C50.4656 2.12031 50.0127 1.91576 49.4671 2.23006L19.4922 19.4768C19.1693 19.6763 18.9041 19.9582 18.7239 20.29L15.293 18.3169C15.4782 17.9851 15.7434 17.7082 16.0662 17.5086L46.0337 0.259437C46.7194 -0.0872929 47.5302 -0.0872929 48.2159 0.259437L49.4671 0.975348C50.0577 1.36199 50.4506 1.98561 50.5432 2.68406Z" fill="#455A64"/>
<path d="M27.9866 34.7429C28.2444 34.5807 28.5372 34.486 28.8425 34.466C29.0827 34.4535 29.3205 34.5284 29.5107 34.678C29.7184 34.8551 29.871 35.0871 29.9511 35.3465C30.0662 35.6908 30.1263 36.05 30.1313 36.4142C30.1313 36.5589 30.1313 36.6911 30.1313 36.8133V37.5043C30.1313 37.624 30.1313 37.7537 30.1313 37.8934C30.1188 38.3249 30.0587 38.754 29.9536 39.1731C29.8535 39.5772 29.7109 39.9663 29.5232 40.338C29.348 40.6897 29.1278 41.0165 28.8675 41.3133C28.6248 41.5927 28.3395 41.8297 28.0192 42.0142L26.1873 43.0694C26.1498 43.1018 26.0973 43.1018 26.0597 43.0694C26.0197 43.0245 25.9997 42.9621 26.0047 42.9023V36.1672C26.0047 36.0874 26.0247 36.0101 26.0597 35.9377C26.0847 35.8729 26.1298 35.818 26.1873 35.7806L27.9866 34.7429ZM28.875 37.0952C28.8475 36.3144 28.5397 36.0974 27.9516 36.4291L27.2609 36.8283V40.7795L27.9866 40.3629C28.5572 40.0311 28.8525 39.4599 28.875 38.6542C28.875 38.5045 28.875 38.3673 28.875 38.2376V37.4893C28.88 37.3671 28.88 37.2349 28.875 37.0902V37.0952Z" fill="white"/>
<path d="M33.2999 31.6797C33.39 31.6298 33.4601 31.6273 33.5076 31.6797C33.5552 31.7271 33.5902 31.787 33.6052 31.8518L35.0867 37.5617C35.1017 37.6066 35.1092 37.654 35.1117 37.7013C35.1117 37.7662 35.0967 37.8286 35.0692 37.8884C35.0492 37.9408 35.0116 37.9857 34.9641 38.0156L34.1082 38.5145C34.0181 38.5669 33.9531 38.5744 33.9155 38.537C33.878 38.5021 33.8505 38.4547 33.843 38.4048L33.6528 37.6564L31.8485 38.6941L31.6583 39.6695C31.6433 39.7418 31.6207 39.8142 31.5882 39.8815C31.5457 39.9663 31.4781 40.0362 31.393 40.0811L30.5397 40.58C30.5096 40.6074 30.4646 40.6074 30.4346 40.58C30.402 40.5425 30.3845 40.4951 30.3895 40.4453C30.3945 40.3879 30.402 40.3305 30.417 40.2731L31.896 32.8596C31.9185 32.7623 31.9511 32.665 31.9936 32.5752C32.0362 32.4779 32.1087 32.3956 32.2013 32.3407L33.2999 31.6797ZM32.2013 36.8657L33.2999 36.2321L32.7519 34.0495L32.2013 36.8657Z" fill="white"/>
<path d="M38.6758 28.5865C38.7134 28.5566 38.7684 28.5566 38.806 28.5865C38.846 28.6339 38.8635 28.6938 38.8585 28.7537V29.8562C38.8585 29.936 38.841 30.0134 38.806 30.0857C38.7809 30.1506 38.7334 30.2054 38.6758 30.2429L37.4771 30.9413V36.2845C37.4771 36.3643 37.4571 36.4416 37.4221 36.5139C37.3971 36.5788 37.352 36.6337 37.2945 36.6711L36.4036 37.1825C36.366 37.2149 36.3135 37.2149 36.2759 37.1825C36.2359 37.1376 36.2159 37.0752 36.2209 37.0153V31.6647L35.0272 32.3507C34.9897 32.3831 34.9346 32.3831 34.8971 32.3507C34.8595 32.3033 34.8395 32.2434 34.8445 32.1836V31.0785C34.8445 30.9987 34.862 30.9214 34.8971 30.849C34.9246 30.7867 34.9696 30.7318 35.0272 30.6919L38.6758 28.5865Z" fill="white"/>
<path d="M41.5051 26.9577C41.5952 26.9078 41.6653 26.9053 41.7128 26.9577C41.7604 27.0051 41.7954 27.0649 41.8104 27.1298L43.2894 32.8396C43.3044 32.8845 43.3144 32.9319 43.3169 32.9793C43.3169 33.0442 43.3019 33.109 43.2719 33.1664C43.2519 33.2188 43.2143 33.2637 43.1668 33.2936L42.3134 33.7925C42.2233 33.8449 42.1583 33.8524 42.1182 33.8149C42.0807 33.78 42.0582 33.7326 42.0481 33.6827L41.858 32.9344L40.0537 33.9721L39.8635 34.9474C39.851 35.0223 39.8259 35.0921 39.7909 35.1595C39.7483 35.2443 39.6808 35.3141 39.5982 35.359L38.7423 35.8579C38.7123 35.8854 38.6673 35.8854 38.6372 35.8579C38.6047 35.8205 38.5897 35.7731 38.5947 35.7232C38.5972 35.6658 38.6047 35.6085 38.6197 35.5511L40.1012 28.1376C40.1237 28.0403 40.1563 27.943 40.1988 27.8532C40.2413 27.7559 40.3139 27.6736 40.4065 27.6187L41.5051 26.9577ZM40.4065 32.1437L41.5051 31.5001L40.9546 29.3174L40.4065 32.1437Z" fill="white"/>
<path d="M94.3832 27.8707C92.7942 27.9455 92.2511 28.2473 91.4178 29.2252C90.5844 30.203 86.6855 37.4195 86.6855 37.4195C86.6855 37.4195 87.4213 39.4749 89.0304 39.3003L92.0334 34.4635L94.3832 27.8707Z" fill="#E8772B"/>
<path d="M94.5955 27.8732C94.5955 27.8732 93.4519 27.726 92.6386 28.0203C91.8253 28.3147 91.4174 28.9009 90.8568 29.754C90.4239 30.415 88.9023 33.1564 88.9023 33.1564C88.9023 33.1564 89.6531 35.2094 91.7477 35.2094L94.5955 27.8732Z" fill="#E0E0E0"/>
<path d="M100.041 79.3713V79.0271C99.9034 79.4312 99.2752 81.1648 98.3193 82.0329C97.5685 82.7239 96.5225 83.5296 96.2597 84.2904C95.9969 85.0512 97.7011 85.3605 98.4119 85.2358C99.2352 85.0911 100.304 84.6247 100.884 83.9137C101.292 83.4148 101.552 82.8212 101.843 82.4171C102.133 82.013 102.806 81.5839 102.964 81.1299C103.051 80.8805 102.949 80.3317 102.826 79.8677C102.716 79.4437 102.594 78.9772 102.448 79.0171V79.279C102.106 79.5459 101.68 79.6906 101.245 79.6856C100.892 79.7081 100.041 79.6432 100.041 79.3713Z" fill="#263238"/>
<path d="M97.6296 82.6366C97.8648 82.4245 98.1025 82.22 98.3178 82.0254C98.9859 81.4193 99.4939 80.3891 99.7867 79.6856C99.9519 79.284 100.037 78.8575 100.037 78.4234V77.054H102.444V79.2815V79.3414H102.432C102.317 79.8403 101.211 81.1673 100.583 82.0304C100.162 82.6116 99.3638 83.35 98.4078 83.4772C97.5044 83.6094 97.0365 83.325 97.6296 82.6366Z" fill="#FFA8A7"/>
<path d="M91.5316 77.0041V76.6499C91.3965 77.054 90.7659 78.7877 89.8099 79.6433C89.0592 80.3342 88.0156 81.1399 87.7504 81.9032C87.4851 82.6665 89.1943 82.9734 89.9025 82.8461C90.7283 82.7015 91.7944 82.235 92.375 81.5241C92.7829 81.0252 93.0432 80.4315 93.336 80.0274C93.6287 79.6233 94.2994 79.1942 94.4571 78.7403C94.5447 78.4908 94.4396 77.942 94.3194 77.4805C94.1993 77.0191 94.0867 76.5875 93.9416 76.6274V76.8769C93.5987 77.1463 93.1733 77.291 92.7378 77.2835C92.39 77.3409 91.5316 77.271 91.5316 77.0041Z" fill="#263238"/>
<path d="M89.1292 80.2743C89.3644 80.0648 89.5996 79.8602 89.8149 79.6632C90.483 79.057 90.9935 78.0268 91.2838 77.3234C91.4515 76.9243 91.5366 76.4952 91.5341 76.0612V74.6917H93.944V76.9193V76.9791C93.8289 77.478 92.7228 78.8051 92.0946 79.6707C91.6742 80.2494 90.8734 80.9877 89.9175 81.115C89.0016 81.2422 88.5286 80.9578 89.1292 80.2743Z" fill="#FFA8A7"/>
<path d="M101.97 42.0592C103.837 46.1252 101.903 60.4434 101.903 60.4434C101.958 61.1044 102.716 62.4015 102.996 65.3051C103.329 68.7375 102.473 77.3508 102.473 77.3508C101.728 77.7824 100.819 77.8173 100.041 77.4481C100.041 77.4481 97.7437 64.4769 97.3133 61.062C96.9354 58.0861 96.2122 51.5406 96.2122 51.5406L95.051 61.047C95.3513 62.0049 95.5691 62.9877 95.7017 63.983C95.8969 65.9786 93.9499 75.3328 93.9499 75.3328C93.9499 75.3328 93.1191 75.6372 91.54 75.4052C91.54 75.4052 90.8518 63.0077 90.6692 60.5906C90.3639 56.5321 90.5515 43.8777 91.2998 41.463L101.97 42.0592Z" fill="#455A64"/>
<path d="M96.2113 51.5406L95.6057 47.764C95.6057 47.764 93.0406 47.2352 91.877 46.1451C91.877 46.1451 93.0982 47.6567 94.91 48.1407L95.5932 51.0467L95.1277 60.4009L96.2113 51.5406Z" fill="#37474F"/>
<path d="M98.6736 27.9355C99.3843 27.9829 99.6221 27.9679 100.138 28.0203C101.166 28.1251 101.414 29.6267 101.837 30.5148C102.275 31.4851 102.315 32.5902 101.949 33.5904L100.29 38.3973C100.29 38.3973 101.071 40.2806 101.979 42.0591C97.7927 44.3865 92.565 43.1642 91.3062 41.463C91.2512 41.1038 91.5765 38.285 91.7742 36.4441C91.0385 34.6007 90.8433 33.4308 91.1536 32.2035C91.7317 29.941 93.8012 27.8582 94.3918 27.8607L98.6736 27.9355Z" fill="#F0F0F0"/>
<path d="M102.252 18.8033L101.386 18.7284C101.491 18.6686 101.576 18.5838 101.636 18.479C101.816 18.1298 101.696 17.7007 101.358 17.4962L100.8 18.5089C99.8492 16.8776 98.0599 15.9122 96.168 16.0145L95.72 16.0369C92.9347 16.1841 90.7951 18.5563 90.9428 21.3327C90.9428 21.3327 90.9428 21.3327 90.9428 21.3352C91.0954 24.2038 91.2656 27.4142 91.2656 27.4142L96.4658 27.1373C99.4162 26.9926 101.688 24.4907 101.543 21.5497C101.543 21.5397 101.543 21.5322 101.541 21.5222L101.501 20.7739C101.476 20.3025 101.383 19.836 101.226 19.392C101.303 19.4319 101.388 19.4568 101.476 19.4643C101.871 19.4893 102.214 19.1974 102.252 18.8033Z" fill="#455A64"/>
<path d="M91.8843 21.6619C91.8542 22.2107 91.8692 22.762 91.9268 23.3108C92.1245 25.895 93.0004 26.4887 93.4283 26.6509C93.8562 26.813 94.6795 26.6509 95.4528 26.4837V28.0079C95.4528 28.0079 94.5094 29.3574 94.617 30.0633C94.7246 30.7692 96.2436 30.859 97.2296 30.1107C97.8677 29.5744 98.3482 28.8759 98.616 28.0877V24.5156C98.616 24.5156 99.1891 25.1991 100.032 24.573C100.876 23.9469 100.831 22.515 100.283 22.0286C99.7346 21.5422 98.641 21.7468 98.4758 22.4677C98.4758 22.4677 96.649 22.3155 96.4188 19.3196C94.7371 21.5223 91.9919 19.9383 91.8843 21.6619Z" fill="#E8772B"/>
<path d="M98.4787 22.2706L98.5487 23.5502C98.0657 23.5752 97.6528 23.206 97.6278 22.7246L97.5527 21.2977L98.4787 22.2706Z" fill="#455A64"/>
<path d="M95.1309 22.4277C95.1384 22.6073 95.291 22.7495 95.4712 22.742C95.6514 22.7346 95.7941 22.5824 95.7865 22.4028C95.779 22.2257 95.6339 22.0885 95.4562 22.0885C95.2735 22.0935 95.1284 22.2457 95.1309 22.4277Z" fill="#263238"/>
<path d="M95.1077 24.7202L94.2344 25.0494C94.312 25.2889 94.5697 25.4211 94.8125 25.3438C94.82 25.3413 94.825 25.3388 94.83 25.3363C95.0702 25.234 95.1903 24.9671 95.1077 24.7202Z" fill="#F28F8F"/>
<path d="M95.4883 20.9685L96.2515 21.2179C96.3241 21.0159 96.219 20.7964 96.0163 20.724C96.0113 20.7215 96.0063 20.7215 96.0013 20.7191C95.7911 20.6567 95.5684 20.7664 95.4883 20.9685Z" fill="#455A64"/>
<path d="M92.328 22.57C92.323 22.752 92.4682 22.9017 92.6509 22.9067H92.6534C92.8386 22.9017 92.9837 22.7496 92.9812 22.565C92.9962 22.3854 92.8636 22.2257 92.6834 22.2107C92.5032 22.1958 92.3431 22.328 92.328 22.5076C92.3255 22.5275 92.3255 22.545 92.328 22.565V22.57Z" fill="#263238"/>
<path d="M94.2309 22.293L94.2835 24.2537L93.2324 23.9893L94.2309 22.293Z" fill="#F28F8F"/>
<path d="M95.4551 26.4837C96.2834 26.3291 97.9751 25.7354 98.2078 25.0569C98.1202 25.4061 97.925 25.7179 97.6523 25.9524C97.1643 26.4164 95.4576 27.0001 95.4576 27.0001L95.4551 26.4837Z" fill="#F28F8F"/>
<path d="M97.6053 42.5106C98.9791 42.1864 99.2419 41.67 98.8765 40.308C98.8665 40.2631 98.8515 40.2182 98.834 40.1758C98.5662 39.5323 97.4902 39.9139 97.4902 39.9139C97.4902 39.9139 97.9306 39.3676 98.4236 38.6667C98.9166 37.9657 99.1393 36.8208 99.2044 36.0126C99.2694 35.2044 99.4021 33.5855 99.4021 33.5855C99.4021 33.5855 100.473 32.9469 100.055 31.7795L101.707 30.7817L102.017 30.9962C102.272 31.8468 102.247 32.7573 101.95 33.5954L100.29 38.3973C100.944 39.5747 101.507 40.7994 101.98 42.0591C98.8941 43.7753 95.2454 43.5558 93.0332 42.6503C94.5522 42.8923 96.1038 42.8449 97.6053 42.5106Z" fill="#E6E6E6"/>
<path d="M98.7732 22.0212L96.8813 22.1209C96.7511 21.642 96.3032 21.3152 95.8052 21.3427H95.6425C95.2146 21.3651 94.8442 21.6445 94.7041 22.0461C94.5339 21.889 94.3087 21.8041 94.076 21.8116C93.8758 21.8091 93.6806 21.884 93.5329 22.0212C93.3327 21.6944 92.9674 21.5048 92.5845 21.5223H92.4218C91.8387 21.5522 91.3933 22.0486 91.4233 22.6298C91.4533 23.211 91.9513 23.655 92.5344 23.6251H92.6971C93.2802 23.5952 93.7281 23.1013 93.6981 22.5201C93.6881 22.4053 93.663 22.2956 93.6205 22.1883C93.7381 22.0661 93.9008 22.0012 94.071 22.0087C94.2912 21.9962 94.5014 22.0885 94.6415 22.2581C94.634 22.3305 94.634 22.4003 94.6415 22.4727C94.6716 23.0539 95.1671 23.5004 95.7501 23.4704H95.9128C96.4934 23.443 96.9413 22.9491 96.9138 22.3704C96.9138 22.3679 96.9138 22.3654 96.9138 22.3629C96.9138 22.3629 96.9138 22.338 96.9138 22.3255L98.6055 22.2357C98.6505 22.1559 98.7056 22.0835 98.7732 22.0212ZM92.6946 23.4355H92.5319C92.0489 23.4879 91.616 23.1387 91.566 22.6573C91.5134 22.1758 91.8637 21.7443 92.3467 21.6944C92.3793 21.6919 92.4093 21.6894 92.4418 21.6894H92.6045C93.0875 21.6645 93.5004 22.0336 93.5254 22.5176C93.5504 23.0015 93.1776 23.4106 92.6946 23.4355ZM95.9103 23.2684H95.7451C95.2596 23.2684 94.8668 22.8743 94.8668 22.3928C94.8668 21.9463 95.2046 21.5722 95.6525 21.5223H95.8152C96.3007 21.5223 96.6936 21.9139 96.6961 22.3953C96.6961 22.8443 96.3582 23.221 95.9103 23.2684Z" fill="#263238"/>
<path d="M83.2188 35.8904L91.6722 38.1105L93.9995 47.6443L85.9615 45.317L83.2188 35.8904Z" fill="#BA68C8"/>
<path opacity="0.25" d="M83.2188 35.8904L91.6722 38.1105L93.9995 47.6443L85.9615 45.317L83.2188 35.8904Z" fill="#E8772B"/>
<path opacity="0.2" d="M88.9141 43.7654C88.9691 44.2817 89.332 44.8779 90.388 45.3818C91.4441 45.8857 93.5012 45.6038 93.5012 45.6038L93.2159 44.4289L88.9141 43.7654Z" fill="black"/>
<g opacity="0.2">
<path d="M87.0284 42.6429C86.9508 42.8549 86.5729 43.5783 85.4718 43.6656L85.3867 43.3738L87.0284 42.6429Z" fill="black"/>
</g>
<g opacity="0.1">
<path d="M85.7769 37.4045L85.7093 37.0827C85.6692 36.9056 86.1672 36.8981 86.8154 37.0652L88.0666 37.387C88.7173 37.5566 89.2754 37.836 89.3179 38.0131L89.388 38.3349L85.7769 37.4045Z" fill="black"/>
</g>
<path d="M85.1154 36.1947C85.0903 36.0849 85.2931 36.055 85.5633 36.1298L86.0638 36.267C86.0638 36.267 85.9162 35.5711 87.0098 35.8155C88.1034 36.06 88.3436 36.8458 88.3436 36.8458L88.8716 36.9954C89.1619 37.0777 89.4247 37.2449 89.4597 37.3446L89.5223 37.5442L85.1679 36.4017C85.1679 36.4017 85.1404 36.307 85.1154 36.1947Z" fill="#37474F"/>
<path d="M85.7155 36.5389C86.1134 36.6337 86.2786 36.6886 86.3386 36.9605C86.4062 37.2748 86.4362 37.5018 86.4362 37.5018L88.3632 38.0007C88.3632 38.0007 88.2706 37.604 88.2405 37.4519C88.2105 37.2997 88.2756 37.2024 88.5834 37.2848L88.6084 37.1625L85.5879 36.3942L85.7155 36.5389Z" fill="#37474F"/>
<path d="M85.6485 37.4344C85.6485 37.4344 85.6185 37.2898 85.5784 37.1127C85.5384 36.9356 86.0364 36.9281 86.687 37.0952L87.9383 37.417C88.5889 37.5866 89.147 37.866 89.1895 38.0431L89.2571 38.3649L85.6485 37.4344Z" fill="#37474F"/>
<path d="M84.1101 38.951C84.1101 38.951 84.4254 40.0286 84.4979 40.2856C84.5705 40.5425 85.5165 41.004 86.1396 41.1736C86.7627 41.3432 87.4409 41.5478 87.1406 42.4208C86.8703 43.2191 85.8468 43.4012 85.3263 43.3787C84.8058 43.3563 84.0925 42.8599 83.8123 42.0616C83.4544 41.0414 83.6471 39.9513 83.5045 39.3551C83.3618 38.759 83.7972 38.5943 84.1101 38.951Z" fill="#E8772B"/>
<path d="M99.9454 28.0079C101.042 28.0752 102.175 28.6689 102.348 29.981C102.52 31.2931 103.587 38.2127 103.169 38.981C102.2 40.7795 95.8188 44.1994 95.1832 44.4913C94.2697 44.9627 93.2662 45.2321 92.2402 45.2795C91.2392 45.2795 89.9204 45.2571 89.2497 44.3616C88.6566 43.5658 88.3213 42.0966 89.6626 42.3485C90.6811 42.5007 91.7122 42.5456 92.7382 42.4832L92.583 41.8422C92.9309 41.8397 93.2762 41.897 93.6066 42.0093C94.2772 42.2089 94.8854 41.6351 96.069 40.9067C97.5931 39.9663 99.9129 37.9807 99.9129 37.9807L98.9669 32.2135C98.9669 32.2135 98.9369 29.7141 99.9454 28.0079Z" fill="#E8772B"/>
<path d="M99.7483 28.0078C100.161 27.933 100.587 27.9704 100.98 28.1176C101.623 28.367 102.196 28.6863 102.464 29.981C102.731 31.2756 103.259 35.9901 103.259 35.9901C103.259 35.9901 101.855 37.0029 99.5706 36.5214L98.7473 32.2484C98.7473 32.2484 98.1092 29.2351 99.7483 28.0078Z" fill="#E0E0E0"/>
<path d="M21.6152 50.8472L48.367 35.4514V39.1457L21.6152 54.5415V50.8472Z" fill="#455A64"/>
<path d="M22.6836 51.4633V52.6931L47.2982 38.5295V37.2972L22.6836 51.4633Z" fill="#263238"/>
<path d="M21.616 50.8472L20.5449 50.231L47.2992 34.8352L48.3677 35.4513L21.616 50.8472Z" fill="#37474F"/>
<path d="M20.5449 50.231L21.616 50.8472V54.5414L20.5449 53.9253V50.231Z" fill="#263238"/>
<path d="M98.6652 98.8905L75.1191 112.43V111.829L98.6627 98.2894L98.6652 98.8905Z" fill="#37474F"/>
<path d="M52.6486 61.8752L47.4609 64.8685L44.2727 66.6995C44.1701 66.7519 44.07 66.8117 43.9724 66.8741C42.7061 67.6449 41.9378 69.0193 41.9479 70.4986V85.3531C41.9529 86.6951 41.3122 87.9573 40.2286 88.753C39.4879 89.3118 38.5845 89.6161 37.6561 89.6211C36.9078 89.6186 36.1721 89.4215 35.5239 89.0449C31.5525 86.7575 29.105 82.5318 29.105 77.9595V62.5462C29.105 57.9714 26.6576 53.7432 22.6836 51.4558L46.2346 37.9134C50.2086 40.2033 52.6561 44.4289 52.6586 49.0038V55.7139C52.6511 57.6346 52.6486 61.8752 52.6486 61.8752Z" fill="#F5F5F5"/>
<path d="M61.2096 103.822C57.2356 101.537 54.7882 97.314 54.7882 92.7417V77.8772C54.7907 76.1709 54.4504 74.4797 53.7872 72.9057C52.6986 70.3339 50.7992 68.1887 48.3743 66.7943C46.3272 65.6169 43.7096 66.3178 42.5309 68.3583C42.1556 69.0069 41.9579 69.7427 41.9579 70.4936V85.3381C41.9579 87.6979 40.041 89.6086 37.6736 89.6086C36.9228 89.6086 36.1871 89.4116 35.5364 89.0399C31.565 86.7525 29.1175 82.5268 29.1175 77.9545V62.5462C29.115 57.9689 26.6626 53.7407 22.6836 51.4558V52.0695C26.3423 54.3045 28.572 58.2707 28.577 62.5462V77.9545C28.5845 82.7139 31.132 87.1067 35.2612 89.4939C36.7452 90.3619 38.5845 90.3619 40.0685 89.4939C40.1611 89.4415 40.2512 89.3866 40.3413 89.3267C41.6826 88.4462 42.4884 86.947 42.4809 85.3456V70.4911C42.4784 68.4256 44.1601 66.7494 46.2321 66.7469C46.8928 66.7469 47.5409 66.919 48.1115 67.2483C51.9178 69.4434 54.2627 73.4919 54.2677 77.8747V92.7392C54.2752 97.4961 56.8227 101.891 60.9519 104.276L75.1235 112.428V111.822L61.2096 103.822Z" fill="#455A64"/>
<path d="M98.6631 98.2893L75.1196 111.822L61.2107 103.815C57.2367 101.53 54.7893 97.3065 54.7893 92.7342V77.8771C54.7918 76.1709 54.4514 74.4797 53.7883 72.9057C53.578 72.4143 53.3403 71.9378 53.075 71.4764C51.9489 69.5307 50.3273 67.9168 48.3753 66.7942C47.1191 66.0609 45.5725 66.0235 44.2812 66.692L47.4694 64.861L53.8834 61.1692L67.6121 53.2693L67.6446 53.2493C68.9659 52.481 70.5976 52.481 71.9189 53.2493C75.8904 55.5342 78.3378 59.7599 78.3378 64.3322V79.1942C78.3378 83.7666 80.7853 87.9922 84.7567 90.2796L98.6631 98.2893Z" fill="#FAFAFA"/>
<path d="M54.2618 77.8771C54.2568 73.4944 51.9119 69.4459 48.1056 67.2507C46.3113 66.218 44.014 66.8317 42.978 68.6202C42.6476 69.1889 42.475 69.835 42.475 70.4935V85.3481C42.485 86.9445 41.6867 88.4387 40.3529 89.3217C40.2628 89.3816 40.1727 89.4365 40.0801 89.4889L54.2718 81.3195L54.2618 77.8771Z" fill="#E0E0E0"/>
<path opacity="0.15" d="M54.2618 77.8771C54.2568 73.4944 51.9119 69.4459 48.1056 67.2507C46.3113 66.218 44.014 66.8317 42.978 68.6202C42.6476 69.1889 42.475 69.835 42.475 70.4935V85.3481C42.485 86.9445 41.6867 88.4387 40.3529 89.3217C40.2628 89.3816 40.1727 89.4365 40.0801 89.4889L54.2718 81.3195L54.2618 77.8771Z" fill="black"/>
<mask id="mask0_24_5795" style="mask-type:luminance" maskUnits="userSpaceOnUse" x="22" y="37" width="31" height="53">
<path d="M52.6486 61.8752L47.4609 64.8685L44.2727 66.6995C44.1701 66.7519 44.07 66.8117 43.9724 66.8741C42.7061 67.6449 41.9378 69.0193 41.9479 70.4986V85.3531C41.9529 86.6951 41.3122 87.9573 40.2286 88.753C39.4879 89.3118 38.5845 89.6161 37.6561 89.6211C36.9078 89.6186 36.1721 89.4215 35.5239 89.0449C31.5525 86.7575 29.105 82.5318 29.105 77.9595V62.5462C29.105 57.9714 26.6576 53.7432 22.6836 51.4558L46.2346 37.9134C50.2086 40.2033 52.6561 44.4289 52.6586 49.0038V55.7139C52.6511 57.6346 52.6486 61.8752 52.6486 61.8752Z" fill="white"/>
</mask>
<g mask="url(#mask0_24_5795)">
<path d="M26.865 51.5356C27.4431 51.9772 28.2288 52.037 28.867 51.6853L45.6663 42.0193C46.2969 41.6551 46.4446 40.9766 45.9516 40.5525C45.4586 40.1285 44.5151 40.1235 43.8845 40.4852L27.0752 50.1587C26.4446 50.5204 26.3695 51.1141 26.865 51.5356Z" fill="#BA68C8"/>
<path opacity="0.4" d="M40.4118 47.8788C40.3092 47.8763 40.2241 47.7915 40.2266 47.6892C40.2266 47.6244 40.2617 47.567 40.3167 47.5321L48.1721 43.0121C48.2596 42.9622 48.3723 42.9921 48.4223 43.0794C48.4699 43.1668 48.4398 43.2765 48.3547 43.3289L40.5044 47.8538C40.4769 47.8713 40.4443 47.8788 40.4118 47.8788Z" fill="black"/>
<path opacity="0.4" d="M41.0172 48.8866C40.9497 48.8866 40.8896 48.8516 40.8546 48.7943C40.807 48.707 40.8371 48.5972 40.9222 48.5448L48.7775 44.0249C48.8726 43.9825 48.9827 44.0249 49.0253 44.1172C49.0628 44.197 49.0378 44.2943 48.9652 44.3466L41.1098 48.8616C41.0823 48.8791 41.0498 48.8866 41.0172 48.8866Z" fill="black"/>
<path opacity="0.4" d="M41.5245 49.9367C41.4219 49.9342 41.3393 49.8469 41.3419 49.7446C41.3444 49.6823 41.3769 49.6224 41.4319 49.59L49.2873 45.07C49.3749 45.0201 49.4875 45.0501 49.5375 45.1374C49.5851 45.2247 49.5551 45.3369 49.4675 45.3868L41.6146 49.9068C41.5871 49.9242 41.5571 49.9342 41.5245 49.9367Z" fill="black"/>
<path opacity="0.4" d="M41.9352 51.0293C41.8676 51.0293 41.8076 50.9943 41.7726 50.937C41.725 50.8497 41.755 50.7399 41.8401 50.6875L49.6955 46.1676C49.7831 46.1177 49.8957 46.1476 49.9457 46.2349C49.9933 46.3222 49.9632 46.432 49.8782 46.4844L42.0228 51.0043C41.9953 51.0218 41.9652 51.0293 41.9352 51.0293Z" fill="black"/>
<path opacity="0.4" d="M42.2312 52.0994C42.1662 52.0994 42.1036 52.0645 42.0711 52.0071C42.021 51.9198 42.0511 51.8075 42.1386 51.7576L49.989 47.2327C50.0766 47.1828 50.1892 47.2127 50.2392 47.3C50.2893 47.3873 50.2593 47.4996 50.1717 47.5495L42.3188 52.0694C42.2938 52.0869 42.2613 52.0969 42.2312 52.0994Z" fill="black"/>
<path opacity="0.4" d="M42.4364 53.2493C42.3338 53.2518 42.2487 53.172 42.2462 53.0697C42.2437 52.9999 42.2812 52.9375 42.3438 52.9026L50.1967 48.3826C50.2918 48.3402 50.4019 48.3826 50.4444 48.4749C50.4819 48.5548 50.4569 48.652 50.3843 48.7044L42.529 53.2244C42.5015 53.2419 42.4689 53.2493 42.4364 53.2493Z" fill="black"/>
<path opacity="0.4" d="M42.5458 54.4766C42.4432 54.4791 42.3581 54.3993 42.3556 54.297C42.3531 54.2272 42.3906 54.1648 42.4532 54.1299L50.306 49.6099C50.4011 49.5675 50.5112 49.6099 50.5538 49.7022C50.5913 49.7821 50.5663 49.8793 50.4937 49.9317L42.6384 54.4492C42.6108 54.4667 42.5783 54.4766 42.5458 54.4766Z" fill="black"/>
<path opacity="0.4" d="M31.3465 63.2297C31.2989 63.2297 31.2564 63.2022 31.2314 63.1623C31.1963 63.1 31.2189 63.0176 31.2814 62.9827L50.338 52.0071C50.4005 51.9722 50.4806 51.9921 50.5182 52.0545C50.5557 52.1168 50.5357 52.1967 50.4731 52.2316C50.4731 52.2316 50.4706 52.2316 50.4706 52.2341L31.4115 63.2097C31.3915 63.2222 31.369 63.2297 31.3465 63.2297Z" fill="black"/>
<path opacity="0.4" d="M31.3465 64.4021C31.2989 64.4021 31.2564 64.3746 31.2314 64.3347C31.1963 64.2724 31.2189 64.1901 31.2814 64.1551L50.338 53.1795C50.4005 53.1446 50.4831 53.167 50.5182 53.2294C50.5557 53.2893 50.5357 53.3666 50.4756 53.404C50.4731 53.404 50.4731 53.4065 50.4706 53.4065L31.4115 64.3821C31.3915 64.3946 31.369 64.4021 31.3465 64.4021Z" fill="black"/>
<path opacity="0.4" d="M31.3465 65.5745C31.2989 65.5745 31.2564 65.5471 31.2314 65.5071C31.1963 65.4448 31.2189 65.3625 31.2814 65.3276L50.338 54.3519C50.4005 54.3145 50.4831 54.3369 50.5182 54.4018C50.5557 54.4642 50.5332 54.5465 50.4706 54.5814L31.4115 65.557C31.3915 65.5695 31.369 65.5745 31.3465 65.5745Z" fill="black"/>
<path opacity="0.4" d="M31.3472 66.7469C31.2997 66.7469 31.2571 66.7195 31.2321 66.6795C31.197 66.6197 31.2171 66.5398 31.2771 66.5049C31.2796 66.5049 31.2796 66.5024 31.2821 66.5024L50.3387 55.5268C50.4063 55.4969 50.4838 55.5268 50.5139 55.5941C50.5389 55.6515 50.5214 55.7164 50.4713 55.7538L31.4123 66.7294C31.3922 66.7419 31.3697 66.7469 31.3472 66.7469Z" fill="black"/>
<path opacity="0.4" d="M31.3479 61.5235C31.2779 61.5335 31.2103 61.4836 31.2003 61.4137C31.1928 61.3539 31.2253 61.2965 31.2829 61.274L41.3705 55.4669C41.428 55.422 41.5131 55.4345 41.5556 55.4944C41.6007 55.5517 41.5882 55.6366 41.5281 55.679C41.5206 55.6839 41.5106 55.6889 41.5031 55.6939L31.413 61.501C31.393 61.516 31.3705 61.5235 31.3479 61.5235Z" fill="black"/>
<path d="M31.0617 54.7909C31.8625 56.34 32.3305 58.0387 32.4331 59.7798C32.4256 59.8846 32.5031 59.9769 32.6057 59.9844C32.6558 59.9894 32.7033 59.9744 32.7434 59.942L33.3039 59.6202C33.4691 59.508 33.5617 59.3184 33.5542 59.1213C33.4916 58.2158 33.339 57.3203 33.0962 56.4448C32.861 55.654 32.5582 54.8857 32.1928 54.1449C32.1102 53.9902 31.9175 53.9328 31.7624 54.0151C31.7574 54.0176 31.7549 54.0201 31.7499 54.0226L31.1968 54.3394C31.0417 54.4342 30.9841 54.6288 31.0617 54.7909Z" fill="#BA68C8"/>
<path d="M32.7215 52.4686C33.2846 53.3666 33.7375 54.3319 34.0729 55.3372C34.4082 56.3549 34.6109 57.4101 34.676 58.4777C34.666 58.58 34.741 58.6723 34.8436 58.6823C34.8937 58.6872 34.9437 58.6723 34.9813 58.6423L35.5418 58.3181C35.712 58.2108 35.8121 58.0212 35.8071 57.8192C35.7295 56.759 35.5268 55.7114 35.199 54.6986C34.8712 53.6958 34.4207 52.7405 33.8577 51.8474C33.7551 51.6953 33.5523 51.6454 33.3897 51.7327L32.8316 52.042C32.6865 52.1193 32.6314 52.3014 32.709 52.4461C32.714 52.4561 32.7165 52.4611 32.7215 52.4686Z" fill="#BA68C8"/>
<path d="M37.1554 53.5661L36.6048 53.8829C36.4447 53.9827 36.3696 54.1773 36.4196 54.3594C36.6924 55.2798 36.8601 56.2302 36.9201 57.1881C36.9101 57.2904 36.9877 57.3827 37.0903 57.3902C37.1379 57.3951 37.1879 57.3802 37.2255 57.3502L37.786 57.0285C37.9562 56.9187 38.0563 56.7316 38.0513 56.5296C37.9812 55.5742 37.8085 54.6288 37.5358 53.7083C37.5007 53.5761 37.3631 53.4963 37.228 53.5337C37.2029 53.5412 37.1779 53.5512 37.1554 53.5661Z" fill="#BA68C8"/>
<path d="M39.3971 51.3361C39.342 51.1914 39.1794 51.1216 39.0342 51.1765C39.0142 51.1839 38.9942 51.1939 38.9767 51.2064L38.4211 51.5207C38.2634 51.618 38.1959 51.8125 38.2609 51.9872C38.361 52.2366 38.4561 52.486 38.5512 52.7704C38.8866 53.7857 39.0893 54.8408 39.1518 55.9085C39.1418 56.0132 39.2194 56.1055 39.3245 56.113C39.372 56.118 39.4221 56.103 39.4596 56.0731L40.0202 55.7513C40.1904 55.6415 40.2905 55.4545 40.2855 55.2524C40.2079 54.1873 40.0027 53.1346 39.6723 52.1194C39.5948 51.8475 39.4997 51.588 39.3971 51.3361Z" fill="#BA68C8"/>
<path opacity="0.4" d="M31.7354 59.271C31.7104 59.2261 31.6528 59.2111 31.6078 59.2361L31.3725 59.3708C31.32 59.049 31.2599 58.7297 31.1873 58.4154L31.5052 58.2333C31.5477 58.2009 31.5527 58.141 31.5202 58.1011C31.4926 58.0687 31.4476 58.0562 31.4101 58.0712L31.1398 58.2283C31.0597 57.9115 30.9721 57.5972 30.8695 57.2904L31.1723 57.1183C31.2174 57.0933 31.2324 57.0359 31.2074 56.991C31.1823 56.9461 31.1248 56.9312 31.0797 56.9561L30.807 57.1133C30.7019 56.8139 30.5917 56.5171 30.4641 56.2277C30.4641 56.2203 30.4641 56.2128 30.4641 56.2053L30.7644 56.0332C30.8095 56.0082 30.8245 55.9534 30.7995 55.9085C30.7995 55.9085 30.7995 55.9084 30.7995 55.906C30.7744 55.8611 30.7169 55.8461 30.6718 55.871L30.389 56.0332C30.2589 55.7413 30.1138 55.452 29.9561 55.1626L30.2539 54.9905C30.299 54.9655 30.314 54.9107 30.2889 54.8658C30.2889 54.8658 30.2889 54.8658 30.2889 54.8633C30.2639 54.8184 30.2064 54.8034 30.1613 54.8283L29.866 55.0005C29.7059 54.7211 29.5357 54.4442 29.3505 54.1698L29.6883 53.9777C29.7309 53.9528 29.7484 53.9004 29.7234 53.8555C29.7234 53.853 29.7209 53.853 29.7209 53.8505C29.6958 53.8056 29.6408 53.7907 29.5957 53.8156C29.5957 53.8156 29.5958 53.8156 29.5932 53.8156L29.2479 54.0176C29.0477 53.7308 28.84 53.4464 28.6148 53.1645C28.5772 53.1271 28.5172 53.1296 28.4796 53.167C28.4496 53.197 28.4446 53.2469 28.4671 53.2818C28.6873 53.5537 28.8925 53.8306 29.0852 54.1099L28.7649 54.2945C28.7199 54.3195 28.7049 54.3768 28.7324 54.4218C28.7499 54.4492 28.7774 54.4667 28.81 54.4667C28.825 54.4716 28.8425 54.4716 28.8575 54.4667L29.1903 54.2771C29.373 54.5515 29.5457 54.8259 29.7034 55.1052L29.3305 55.3198C29.2854 55.3447 29.2704 55.4021 29.298 55.447C29.3155 55.4769 29.3455 55.4944 29.378 55.4919C29.393 55.4969 29.4081 55.4969 29.4231 55.4919L29.7934 55.2798C29.9511 55.5692 30.0963 55.8611 30.2264 56.1529L29.841 56.3749C29.796 56.3999 29.7809 56.4572 29.8085 56.5021C29.826 56.5321 29.856 56.5495 29.8885 56.547C29.9036 56.547 29.9211 56.542 29.9336 56.5346L30.3015 56.3225C30.4291 56.6169 30.5517 56.9212 30.6493 57.228L30.2564 57.455C30.2114 57.48 30.1964 57.5373 30.2239 57.5822C30.2414 57.6097 30.2689 57.6271 30.3015 57.6271C30.3165 57.6321 30.334 57.6321 30.349 57.6271L30.7119 57.4176C30.8145 57.7269 30.9021 58.0387 30.9796 58.358L30.5892 58.5825C30.5442 58.6075 30.5292 58.6623 30.5542 58.7072C30.5542 58.7072 30.5542 58.7072 30.5542 58.7097C30.5717 58.7372 30.6018 58.7546 30.6343 58.7546C30.6493 58.7596 30.6668 58.7596 30.6818 58.7546L31.0272 58.5576C31.0998 58.8719 31.1573 59.1937 31.2074 59.5154L30.7844 59.7649C30.7394 59.7898 30.7244 59.8472 30.7519 59.8921C30.7694 59.922 30.7995 59.9395 30.832 59.937C30.847 59.937 30.8645 59.932 30.877 59.9245L31.2374 59.7175C31.2924 60.1091 31.33 60.5082 31.3525 60.9123C31.355 60.9622 31.3951 60.9996 31.4451 60.9996C31.4952 60.9972 31.5352 60.9547 31.5327 60.9024C31.5102 60.4683 31.4676 60.0393 31.4076 59.6177L31.7029 59.4481C31.7529 59.4456 31.7929 59.4032 31.7904 59.3533C31.7904 59.3159 31.7679 59.286 31.7354 59.271Z" fill="black"/>
<g opacity="0.15">
<path d="M32.6903 77.503C32.6102 76.8021 32.5827 76.0937 32.6052 75.3877C32.6803 75.1158 33.8164 71.227 35.9085 70.0171C36.0362 69.9373 36.1763 69.8799 36.3214 69.845C36.3765 69.8326 36.4341 69.8251 36.4916 69.8251C37.0472 69.8251 37.2949 70.5934 37.5352 71.3367C37.6252 71.641 37.7354 71.9404 37.8655 72.2297C38.0081 72.5291 38.2509 72.9257 38.7113 72.9257C38.914 72.9182 39.1117 72.8583 39.2844 72.7511C40.2854 72.1798 40.5782 70.6333 40.886 68.9969C41.0086 68.2635 41.1763 67.5401 41.3865 66.8267C41.6918 65.8713 42.0872 65.2802 42.6378 64.9659C42.7779 64.8761 42.9381 64.8237 43.1032 64.8137C43.6863 64.8137 43.9065 65.8489 44.1192 66.8492C44.2118 67.373 44.3545 67.8869 44.5447 68.3833C44.7574 68.8647 45.0452 69.0992 45.398 69.0992C45.6057 69.0892 45.8059 69.0268 45.9836 68.9171C47.2173 68.2087 47.5902 67.0038 47.9506 65.8414C48.2584 64.8436 48.5462 63.9207 49.3595 63.4492C49.5397 63.3345 49.7499 63.2671 49.9651 63.2596C50.0552 63.2596 50.1478 63.2746 50.2329 63.3045C50.2554 63.4891 50.2679 63.6762 50.2704 63.8633L50.2854 66.2181C50.3054 66.6696 50.338 67.0238 50.378 67.3281L32.6903 77.503Z" fill="#BA68C8"/>
<path d="M50.5237 67.3905C50.4712 67.0387 50.4412 66.6421 50.4186 66.2106L50.4061 63.8558C50.4036 63.6388 50.3861 63.4218 50.3561 63.2072C50.236 63.1499 50.1033 63.1199 49.9682 63.1199C49.7304 63.1274 49.4977 63.1998 49.2975 63.327C47.4807 64.3796 48.1739 67.5002 45.9191 68.7973C45.759 68.8996 45.5738 68.957 45.3836 68.967C45.0458 68.967 44.8205 68.7175 44.6504 68.3284C44.1198 67.136 44.1324 64.684 43.0888 64.684C42.9011 64.6939 42.7159 64.7513 42.5583 64.8536C41.9126 65.2253 41.5247 65.9362 41.2545 66.7893C40.5813 68.8896 40.6213 71.8406 39.2199 72.6363C39.0698 72.7311 38.8971 72.786 38.7194 72.796C38.3866 72.796 38.1664 72.5465 37.9912 72.1748C37.5583 71.2668 37.4056 69.6928 36.4897 69.6928C36.4221 69.6928 36.3571 69.7003 36.292 69.7153C36.1319 69.7527 35.9817 69.8176 35.8416 69.9024C33.6118 71.1945 32.4707 75.3678 32.4707 75.3678C32.4457 76.151 32.4807 76.9368 32.5783 77.715L32.8285 77.5679C32.8085 77.4756 32.796 77.3808 32.786 77.286C32.7259 76.6624 32.7059 76.0338 32.7234 75.4077C32.8285 75.0385 33.9472 71.2993 35.9642 70.1294C36.0793 70.057 36.2069 70.0047 36.3396 69.9722C36.3846 69.9598 36.4322 69.9548 36.4797 69.9548C36.9377 69.9548 37.1729 70.6782 37.3981 71.3766C37.4907 71.6859 37.6008 71.9902 37.7335 72.2871C37.826 72.4767 38.1013 73.0579 38.6994 73.0579C38.9246 73.0504 39.1449 72.983 39.3376 72.8633C40.3961 72.2646 40.6914 70.6881 41.0017 69.0193C41.1268 68.2935 41.292 67.5726 41.5022 66.8666C41.7975 65.9462 42.1729 65.3699 42.6884 65.0806C42.806 65.0033 42.9437 64.9559 43.0863 64.9459C43.5618 64.9459 43.782 65.9711 43.9747 66.8766C44.0673 67.4079 44.2124 67.9318 44.4051 68.4356C44.6379 68.962 44.9657 69.2314 45.3811 69.2314C45.6188 69.2239 45.8491 69.1515 46.0493 69.0243C47.328 68.2885 47.7259 67.0038 48.0763 65.8713C48.3766 64.9085 48.6569 64.0005 49.4276 63.554C49.5878 63.4492 49.773 63.3893 49.9657 63.3819C50.0157 63.3819 50.0633 63.3868 50.1108 63.3993C50.1384 63.6637 50.1409 63.8533 50.1409 63.8558V66.223C50.1609 66.6296 50.1884 66.9714 50.2234 67.2508C50.2335 67.3431 50.251 67.4354 50.276 67.5252L50.5087 67.3905" fill="black"/>
</g>
<g opacity="0.4">
<path d="M32.4707 74.1779V75.3678C32.4457 76.151 32.4807 76.9368 32.5783 77.715L50.5212 67.3905C50.4687 67.0387 50.4362 66.6421 50.4161 66.2081L50.4036 63.8558C50.4036 63.8558 50.4036 60.3361 48.1514 61.6283C45.794 62.9852 46.4597 67.2907 44.788 68.2535C43.1163 69.2164 43.6669 65.3799 41.4246 66.6721C39.1824 67.9642 40.3035 70.8353 38.0613 72.125C35.819 73.4146 36.9402 66.9065 34.6979 68.1962C32.4557 69.4858 32.4707 72.6937 32.4707 74.1779Z" fill="#BA68C8"/>
</g>
<path opacity="0.4" d="M31.6528 79.531C31.6202 79.531 31.5877 79.5135 31.5727 79.4836C31.5477 79.4387 31.5627 79.3838 31.6052 79.3564C31.6052 79.3564 31.6052 79.3564 31.6077 79.3564L50.6918 68.4631C50.7369 68.4381 50.7919 68.4531 50.8169 68.498C50.8445 68.5429 50.8294 68.5978 50.7844 68.6252L31.7003 79.5185C31.6853 79.526 31.6703 79.531 31.6528 79.531Z" fill="black"/>
<path d="M34.7222 68.8248C34.6696 68.8248 34.6296 68.7849 34.6271 68.7325V68.5454C34.6246 68.4955 34.6646 68.4556 34.7146 68.4531C34.7172 68.4531 34.7172 68.4531 34.7197 68.4531C34.7697 68.4531 34.8122 68.4955 34.8122 68.5454V68.7325C34.8122 68.7824 34.7722 68.8223 34.7222 68.8248Z" fill="white"/>
<path d="M34.7626 75.9789C34.7151 75.9789 34.6751 75.9415 34.67 75.8941C34.67 75.7743 34.65 75.6446 34.6425 75.5349C34.64 75.485 34.6776 75.4401 34.7301 75.4376C34.7777 75.4301 34.8202 75.4625 34.8277 75.5099C34.8277 75.5149 34.8277 75.5199 34.8277 75.5224C34.8277 75.6421 34.8452 75.7594 34.8552 75.8766C34.8602 75.9265 34.8252 75.9739 34.7727 75.9789H34.7626ZM34.7201 75.2655C34.6675 75.2655 34.6275 75.2256 34.625 75.1732C34.625 75.0709 34.625 74.9512 34.625 74.814C34.625 74.7641 34.6675 74.7217 34.7176 74.7217C34.7727 74.7217 34.8102 74.7616 34.8127 74.814C34.8127 74.9487 34.8127 75.0634 34.8127 75.1707C34.8152 75.2206 34.7726 75.263 34.7226 75.2655H34.7201ZM34.7201 74.5496C34.67 74.5471 34.63 74.5072 34.6275 74.4573V74.0981C34.63 74.0482 34.67 74.0083 34.7201 74.0058C34.7701 74.0083 34.8102 74.0482 34.8127 74.0981V74.4573C34.8102 74.5096 34.7701 74.5496 34.7176 74.5496H34.7201ZM34.7201 73.8336C34.67 73.8336 34.6275 73.7912 34.6275 73.7414V73.3821C34.63 73.3298 34.67 73.2899 34.7226 73.2899C34.7726 73.2923 34.8127 73.3323 34.8152 73.3821V73.7414C34.8152 73.7912 34.7726 73.8336 34.7226 73.8336H34.7201ZM34.7201 73.1177C34.67 73.1152 34.63 73.0753 34.6275 73.0254V72.6588C34.635 72.6064 34.6851 72.5715 34.7376 72.5814C34.7777 72.5889 34.8102 72.6188 34.8152 72.6588V73.018C34.8177 73.0703 34.7777 73.1152 34.7251 73.1177C34.7201 73.1177 34.7126 73.1177 34.7076 73.1177H34.7201ZM34.7201 72.4018C34.67 72.4018 34.6275 72.3594 34.6275 72.3095V71.9528C34.6275 71.9029 34.67 71.8605 34.7201 71.8605C34.7701 71.8605 34.8127 71.9029 34.8127 71.9528V72.3095C34.8177 72.3594 34.7802 72.4043 34.7301 72.4093C34.7226 72.4093 34.7151 72.4093 34.7076 72.4093L34.7201 72.4018ZM34.7201 71.6859C34.67 71.6884 34.63 71.6485 34.6275 71.5986C34.6275 71.5961 34.6275 71.5961 34.6275 71.5936V71.2369C34.6275 71.187 34.67 71.1446 34.7201 71.1446C34.7701 71.1446 34.8127 71.187 34.8127 71.2369V71.5936C34.8152 71.6435 34.7752 71.6859 34.7276 71.6859C34.7201 71.6859 34.7151 71.6859 34.7076 71.6859H34.7201ZM34.7201 70.97C34.67 70.9725 34.63 70.9326 34.6275 70.8827C34.6275 70.8802 34.6275 70.8802 34.6275 70.8777V70.521C34.6275 70.4686 34.6675 70.4287 34.7201 70.4262C34.7701 70.4262 34.8127 70.4686 34.8127 70.5185V70.521V70.8777C34.8152 70.9276 34.7752 70.97 34.7276 70.97C34.7201 70.97 34.7151 70.97 34.7076 70.97H34.7201ZM34.7201 70.2566C34.6675 70.2541 34.6275 70.2142 34.6275 70.1618V69.8051C34.635 69.7527 34.6851 69.7178 34.7376 69.7278C34.7777 69.7352 34.8102 69.7652 34.8152 69.8051V70.1643C34.8127 70.2192 34.7676 70.2591 34.7126 70.2566C34.7101 70.2566 34.7076 70.2566 34.7076 70.2566H34.7201ZM34.7201 69.5407C34.67 69.5382 34.63 69.4983 34.6275 69.4484V69.0917C34.6275 69.0393 34.67 68.9969 34.7226 68.9969C34.7726 68.9969 34.8152 69.0393 34.8152 69.0892V69.4484C34.8152 69.5008 34.7701 69.5432 34.7201 69.5407C34.7151 69.5407 34.7101 69.5407 34.7076 69.5407H34.7201Z" fill="white"/>
<path d="M34.8226 76.5177C34.7776 76.5177 34.7375 76.4828 34.73 76.4379L34.7075 76.2508C34.7025 76.2009 34.74 76.1535 34.7901 76.1485C34.8401 76.1435 34.8877 76.181 34.8927 76.2308L34.9152 76.4129C34.9227 76.4628 34.8877 76.5102 34.8376 76.5177C34.8376 76.5177 34.8376 76.5177 34.8351 76.5177H34.8226Z" fill="white"/>
<path d="M48.1654 61.9076C48.1129 61.9076 48.0703 61.8652 48.0703 61.8128V61.6282C48.0703 61.5759 48.1129 61.5334 48.1654 61.5334C48.218 61.5359 48.258 61.5759 48.258 61.6282V61.8128C48.258 61.8652 48.218 61.9076 48.1654 61.9076Z" fill="white"/>
<path d="M48.2187 69.0617C48.1712 69.0617 48.1311 69.0243 48.1261 68.9769C48.1136 68.8572 48.1061 68.7275 48.0986 68.6177C48.0961 68.5653 48.1336 68.5229 48.1862 68.5179C48.2362 68.5129 48.2788 68.5504 48.2838 68.6003C48.2838 68.6027 48.2838 68.6027 48.2838 68.6052C48.2838 68.725 48.3013 68.8422 48.3113 68.9595C48.3163 69.0093 48.2813 69.0567 48.2287 69.0617H48.2262H48.2187ZM48.1762 68.3483C48.1236 68.3483 48.0836 68.3084 48.0811 68.256C48.0811 68.1537 48.0811 68.034 48.0811 67.8968C48.0811 67.8469 48.1236 67.8045 48.1737 67.8045C48.2237 67.8045 48.2663 67.8469 48.2663 67.8968C48.2663 68.0315 48.2663 68.1463 48.2663 68.2535C48.2688 68.3059 48.2262 68.3483 48.1762 68.3483ZM48.1762 67.6324C48.1261 67.6324 48.0836 67.59 48.0836 67.5401V67.1709C48.0836 67.121 48.1261 67.0786 48.1762 67.0786C48.2287 67.0786 48.2688 67.1185 48.2713 67.1709V67.5276C48.2738 67.5775 48.2312 67.6199 48.1812 67.6224H48.1787L48.1762 67.6324ZM48.1762 66.9165C48.1236 66.9165 48.0836 66.8766 48.0811 66.8242V66.465C48.0836 66.4151 48.1236 66.3752 48.1737 66.3727C48.2262 66.3727 48.2663 66.4126 48.2688 66.465V66.8242C48.2663 66.8741 48.2262 66.9165 48.1762 66.9165ZM48.1762 66.2006C48.1261 66.1981 48.0861 66.1582 48.0836 66.1083V65.7491C48.0836 65.6992 48.1261 65.6568 48.1762 65.6568C48.2262 65.6568 48.2688 65.6992 48.2688 65.7491V66.1083C48.2688 66.1607 48.2287 66.2006 48.1762 66.2006C48.1737 66.2006 48.1687 66.2006 48.1637 66.2006H48.1762ZM48.1762 65.4847C48.1236 65.4847 48.0836 65.4448 48.0811 65.3924V65.0332C48.0886 64.9808 48.1386 64.9459 48.1912 64.9558C48.2312 64.9633 48.2638 64.9933 48.2688 65.0332V65.3924C48.2688 65.4448 48.2237 65.4872 48.1712 65.4847C48.1687 65.4847 48.1662 65.4847 48.1637 65.4847H48.1762ZM48.1762 64.7688C48.1261 64.7712 48.0836 64.7288 48.0811 64.679V64.6765V64.3198C48.0736 64.2674 48.1086 64.22 48.1587 64.21C48.2087 64.2 48.2588 64.2374 48.2688 64.2873C48.2713 64.2973 48.2713 64.3073 48.2688 64.3173V64.674C48.2688 64.7288 48.2287 64.7688 48.1762 64.7688C48.1737 64.7688 48.1687 64.7688 48.1637 64.7688H48.1762ZM48.1762 64.0528C48.1261 64.0553 48.0836 64.0129 48.0811 63.963V63.9605V63.6038C48.0786 63.554 48.1211 63.5115 48.1712 63.5091H48.1737C48.2262 63.5115 48.2663 63.5515 48.2663 63.6038V63.9605C48.2663 64.0129 48.2262 64.0528 48.1762 64.0528C48.1712 64.0528 48.1662 64.0528 48.1637 64.0528H48.1762ZM48.1762 63.3394C48.1261 63.3394 48.0836 63.297 48.0836 63.2471V63.2446V62.8879C48.0836 62.838 48.1261 62.7956 48.1762 62.7956C48.2262 62.7956 48.2688 62.838 48.2688 62.8879V63.2446C48.2688 63.297 48.2262 63.3394 48.1762 63.3394C48.1712 63.3394 48.1662 63.3394 48.1637 63.3394H48.1762ZM48.1762 62.6235C48.1236 62.621 48.0836 62.5811 48.0836 62.5287V62.182C48.0911 62.1296 48.1412 62.0947 48.1937 62.1047C48.2337 62.1122 48.2663 62.1421 48.2713 62.182V62.5412C48.2638 62.5936 48.2162 62.631 48.1662 62.6235C48.1662 62.6235 48.1662 62.6235 48.1637 62.6235H48.1762Z" fill="white"/>
<path d="M48.2782 69.6005C48.2332 69.6005 48.1932 69.5656 48.1856 69.5207L48.1631 69.3336C48.1556 69.2837 48.1907 69.2388 48.2382 69.2314C48.2407 69.2314 48.2407 69.2314 48.2432 69.2314C48.2933 69.2239 48.3408 69.2588 48.3483 69.3087C48.3483 69.3087 48.3483 69.3087 48.3483 69.3112L48.3708 69.4958C48.3783 69.5457 48.3433 69.593 48.2933 69.6005C48.2933 69.6005 48.2933 69.6005 48.2908 69.6005H48.2782Z" fill="white"/>
<path d="M41.4369 67.2732C41.3843 67.2732 41.3443 67.2333 41.3418 67.1809V66.9938C41.3493 66.9414 41.3994 66.9065 41.4519 66.9165C41.4919 66.924 41.5245 66.9539 41.5295 66.9938V67.1709C41.5345 67.2233 41.4944 67.2682 41.4419 67.2732C41.4394 67.2732 41.4394 67.2732 41.4369 67.2732Z" fill="white"/>
<path d="M41.4795 72.1599C41.432 72.1599 41.392 72.1224 41.3869 72.0751C41.3869 71.9603 41.3669 71.8431 41.3594 71.7258C41.3569 71.6734 41.3945 71.631 41.447 71.6261C41.4971 71.6211 41.5421 71.656 41.5471 71.7059C41.5471 71.7084 41.5471 71.7109 41.5471 71.7134C41.5471 71.8281 41.5621 71.9428 41.5721 72.0576C41.5771 72.1075 41.5421 72.1549 41.4895 72.1599H41.4795ZM41.437 71.4639C41.3844 71.4639 41.3444 71.424 41.3419 71.3716V71.0224C41.3394 70.9725 41.3819 70.9301 41.432 70.9276H41.4345C41.4845 70.9301 41.5246 70.97 41.5271 71.0199V71.3691C41.5271 71.4215 41.487 71.4614 41.4345 71.4639H41.437ZM41.437 70.7655C41.3869 70.768 41.3469 70.728 41.3444 70.6782C41.3444 70.6757 41.3444 70.6757 41.3444 70.6732V70.3239C41.3444 70.2716 41.3844 70.2316 41.437 70.2292C41.487 70.2292 41.5296 70.2716 41.5296 70.3214V70.3239V70.6632C41.5296 70.7131 41.487 70.7555 41.437 70.7555V70.7655ZM41.437 70.067C41.3844 70.067 41.3444 70.0271 41.3419 69.9747V69.6255C41.3419 69.5756 41.3844 69.5332 41.4345 69.5332C41.4845 69.5307 41.5271 69.5731 41.5296 69.623V69.6255V69.9747C41.5271 70.0246 41.487 70.067 41.437 70.067ZM41.437 69.3686C41.3869 69.3686 41.3444 69.3262 41.3444 69.2763V68.9171C41.3519 68.8647 41.402 68.8298 41.4545 68.8397C41.4946 68.8472 41.5271 68.8772 41.5321 68.9171V69.2663C41.5371 69.3162 41.4996 69.3611 41.447 69.3661C41.442 69.3661 41.4395 69.3661 41.4345 69.3661L41.437 69.3686ZM41.437 68.6726C41.3844 68.6701 41.3444 68.6302 41.3444 68.5778V68.2286C41.3519 68.1762 41.402 68.1413 41.4545 68.1513C41.4946 68.1587 41.5271 68.1887 41.5321 68.2286V68.5778C41.5296 68.6302 41.487 68.6701 41.4345 68.6676L41.437 68.6726ZM41.437 67.9742C41.3844 67.9717 41.3444 67.9318 41.3444 67.8794V67.5326C41.3369 67.4803 41.3719 67.4329 41.422 67.4229C41.472 67.4129 41.5221 67.4503 41.5321 67.5002C41.5346 67.5102 41.5346 67.5202 41.5321 67.5301V67.8794C41.5296 67.9293 41.487 67.9692 41.437 67.9692V67.9742Z" fill="white"/>
<path d="M41.5497 72.6887C41.5047 72.6887 41.4646 72.6538 41.4571 72.6089L41.4346 72.4218C41.4271 72.3719 41.4621 72.327 41.5122 72.3195C41.5147 72.3195 41.5172 72.3195 41.5172 72.3195C41.5672 72.3145 41.6123 72.3494 41.6198 72.3993L41.6423 72.5839C41.6498 72.6338 41.6148 72.6812 41.5647 72.6887C41.5647 72.6887 41.5647 72.6887 41.5622 72.6887H41.5497Z" fill="white"/>
<path opacity="0.4" d="M34.7076 67.8295C34.8853 67.7272 35.0304 67.7945 35.0304 67.9816C35.0104 68.1961 34.8928 68.3907 34.7076 68.5055C34.5299 68.6077 34.3848 68.5379 34.3848 68.3533C34.4023 68.1388 34.5224 67.9442 34.7076 67.8295Z" fill="black"/>
<path opacity="0.4" d="M41.4381 66.2779C41.6157 66.1757 41.7609 66.243 41.7609 66.4301C41.7434 66.6446 41.6232 66.8392 41.4381 66.9514C41.2604 67.0562 41.1152 66.9864 41.1152 66.8018C41.1328 66.5872 41.2529 66.3927 41.4381 66.2779Z" fill="black"/>
<path opacity="0.4" d="M48.1646 61.289C48.3423 61.1867 48.4874 61.2565 48.4874 61.4411C48.4699 61.6581 48.3498 61.8502 48.1646 61.965C47.9844 62.0672 47.8418 61.9999 47.8418 61.8128C47.8593 61.5983 47.9794 61.4037 48.1646 61.289Z" fill="black"/>
<path opacity="0.4" d="M31.7771 69.9947C31.8222 69.9697 31.8372 69.9148 31.8122 69.8699C31.8122 69.8699 31.8122 69.8699 31.8122 69.8674C31.7872 69.8225 31.7296 69.8076 31.6846 69.835L31.4343 69.9747V69.0143L31.7721 68.8198C31.8172 68.7948 31.8322 68.7399 31.8072 68.695C31.8072 68.695 31.8072 68.695 31.8072 68.6925C31.7821 68.6476 31.7246 68.6327 31.6795 68.6576L31.4293 68.7998V67.7871C31.4268 67.7372 31.3868 67.6973 31.3367 67.6948C31.2867 67.6948 31.2441 67.7372 31.2441 67.7871V68.917L30.9038 69.1116C30.8587 69.1366 30.8437 69.1939 30.8712 69.2388C30.8888 69.2663 30.9188 69.2837 30.9513 69.2837C30.9688 69.2837 30.9838 69.2812 30.9989 69.2713L31.2491 69.1316V70.0919L30.9088 70.2865C30.8637 70.3115 30.8487 70.3688 30.8762 70.4137C30.8938 70.4437 30.9238 70.4611 30.9563 70.4586C30.9738 70.4586 30.9889 70.4561 31.0039 70.4462L31.2541 70.3065V71.2668L30.9138 71.4614C30.8712 71.4863 30.8537 71.5387 30.8787 71.5836C30.8787 71.5861 30.8812 71.5861 30.8812 71.5886C30.8963 71.6185 30.9288 71.636 30.9613 71.636C30.9763 71.636 30.9939 71.631 31.0064 71.6235L31.2566 71.4814V72.4417L30.9163 72.6363C30.8712 72.6612 30.8562 72.7161 30.8812 72.761C30.8812 72.761 30.8812 72.761 30.8812 72.7635C30.8988 72.7934 30.9288 72.8109 30.9638 72.8109C30.9788 72.8109 30.9964 72.8059 31.0089 72.7984L31.2591 72.6562V73.6166L30.9188 73.8112C30.8737 73.8361 30.8587 73.891 30.8837 73.9359C30.8837 73.9359 30.8837 73.9359 30.8837 73.9384C30.9013 73.9683 30.9313 73.9858 30.9663 73.9858C30.9813 73.9883 30.9964 73.9883 31.0114 73.9858L31.2616 73.8436V74.804L30.9213 74.9985C30.8762 75.0235 30.8612 75.0809 30.8863 75.1258C30.9038 75.1557 30.9338 75.1732 30.9688 75.1732C30.9839 75.1732 30.9989 75.1682 31.0139 75.1607L31.2641 75.0185V75.9789L30.9238 76.1734C30.8787 76.1984 30.8637 76.2558 30.8888 76.3007C30.9063 76.3281 30.9363 76.3481 30.9688 76.3481C30.9864 76.3481 31.0014 76.3431 31.0164 76.3356L31.2666 76.1934C31.2666 76.5127 31.2666 76.832 31.2666 77.1488L30.9188 77.3483C30.8737 77.3708 30.8537 77.4257 30.8787 77.4731C30.8963 77.5055 30.9288 77.5254 30.9638 77.5229C30.9813 77.5229 30.9964 77.518 31.0114 77.5105L31.2791 77.3558C31.2992 77.705 31.3292 78.0543 31.3717 78.396C31.3792 78.4409 31.4193 78.4758 31.4643 78.4758C31.5144 78.4683 31.5519 78.4234 31.5444 78.3736C31.5444 78.3736 31.5444 78.3736 31.5444 78.3711C31.4994 78.0044 31.4668 77.6227 31.4468 77.2535L31.7671 77.069C31.8122 77.044 31.8272 76.9866 31.8022 76.9417C31.7771 76.8968 31.7196 76.8819 31.6745 76.9068L31.4393 77.0415C31.4393 76.7247 31.4243 76.4054 31.4393 76.0861L31.7746 75.8916C31.8197 75.8666 31.8347 75.8117 31.8097 75.7668C31.7847 75.7219 31.7296 75.707 31.6846 75.7319C31.6846 75.7319 31.6846 75.7319 31.682 75.7319L31.4318 75.8716V74.9112L31.7671 74.7167C31.8122 74.6942 31.8297 74.6369 31.8072 74.592C31.7847 74.5471 31.7271 74.5296 31.682 74.552C31.6795 74.5545 31.677 74.5545 31.6745 74.557L31.4243 74.6967V73.7364L31.7621 73.5418C31.8072 73.5168 31.8222 73.4595 31.7947 73.4146C31.7671 73.3722 31.7121 73.3572 31.667 73.3821L31.4168 73.5218V72.5615L31.7546 72.3669C31.7997 72.3419 31.8122 72.2846 31.7872 72.2397C31.7621 72.1948 31.7046 72.1823 31.6595 72.2072L31.4093 72.3469V71.3866L31.7471 71.192C31.7897 71.1671 31.8072 71.1147 31.7821 71.0698C31.7821 71.0673 31.7796 71.0673 31.7796 71.0648C31.7571 71.0224 31.7046 71.0049 31.662 71.0274C31.6595 71.0274 31.657 71.0299 31.6545 71.0324L31.4043 71.172V70.1892L31.7771 69.9947Z" fill="black"/>
<path d="M55.1584 75.7569L37.2254 86.0715C36.5948 86.4332 35.6814 86.3908 35.2234 85.9293C34.7655 85.4679 34.9557 84.7594 35.5863 84.3977L53.5042 74.0856C54.1223 73.7314 54.9006 73.8187 55.4261 74.3001C55.8966 74.7641 55.789 75.4027 55.1584 75.7569Z" fill="#BA68C8"/>
<path opacity="0.4" d="M31.9847 80.7732C31.9146 80.7832 31.847 80.7333 31.837 80.6635C31.8295 80.6036 31.862 80.5462 31.9196 80.5238L52.1073 68.9171C52.1748 68.8871 52.2524 68.9171 52.2824 68.9844C52.3075 69.0418 52.29 69.1066 52.2399 69.1441L32.0497 80.7633C32.0297 80.7732 32.0072 80.7757 31.9847 80.7732Z" fill="black"/>
<path opacity="0.4" d="M32.3979 81.8633C32.3503 81.8633 32.3078 81.8359 32.2828 81.796C32.2477 81.7336 32.2678 81.6538 32.3303 81.6164L52.523 69.9972C52.5856 69.9598 52.6657 69.9797 52.7007 70.0421C52.7007 70.0421 52.7007 70.0446 52.7032 70.0446C52.7382 70.1069 52.7182 70.1868 52.6556 70.2242L32.4705 81.8434C32.4479 81.8584 32.4229 81.8658 32.3979 81.8633Z" fill="black"/>
<path opacity="0.4" d="M32.9054 82.906C32.8328 82.9085 32.7702 82.8511 32.7677 82.7788C32.7652 82.7289 32.7928 82.6815 32.8403 82.6565L53.0355 71.0324C53.1031 71.0024 53.1807 71.0324 53.2107 71.0997C53.2357 71.1571 53.2182 71.2219 53.1681 71.2594L32.9704 82.886C32.9504 82.8985 32.9279 82.9035 32.9054 82.906Z" fill="black"/>
<path opacity="0.4" d="M33.5091 83.8988C33.4616 83.8988 33.419 83.8714 33.394 83.8315C33.3565 83.7716 33.3765 83.6943 33.4366 83.6568C33.4391 83.6568 33.4391 83.6543 33.4416 83.6543L53.6393 72.0302C53.7068 72.0002 53.7844 72.0302 53.8144 72.0975C53.8395 72.1549 53.8219 72.2197 53.7719 72.2572L33.5742 83.8838C33.5542 83.8963 33.5317 83.9013 33.5091 83.8988Z" fill="black"/>
</g>
<path d="M51.1348 64.6515L67.7564 55.0902C68.3871 54.7285 69.3906 54.514 69.9536 54.741C70.5167 54.968 70.4116 55.5567 69.781 55.9184L52.9666 65.5894C52.336 65.9536 51.4401 65.991 50.9396 65.7216C50.4391 65.4522 50.5042 65.0132 51.1348 64.6515Z" fill="#BA68C8"/>
<path opacity="0.4" d="M53.0633 67.2807C53.0157 67.2807 52.9732 67.2532 52.9482 67.2133C52.9131 67.151 52.9357 67.0687 52.9982 67.0337L72.1474 56.0157C72.2099 55.9808 72.29 56.0007 72.3275 56.0631C72.3651 56.1254 72.3426 56.2053 72.28 56.2402L72.2775 56.2427L53.1283 67.2607C53.1083 67.2732 53.0858 67.2807 53.0633 67.2807Z" fill="black"/>
<path opacity="0.4" d="M53.8563 68.1338C53.8087 68.1338 53.7662 68.1063 53.7411 68.0664C53.7061 68.004 53.7286 67.9217 53.7912 67.8868L72.9704 56.8538C73.0304 56.8164 73.108 56.8363 73.1455 56.8962C73.1455 56.8987 73.148 56.8987 73.148 56.9012C73.1831 56.9636 73.1631 57.0434 73.1005 57.0808L53.9213 68.1163C53.9013 68.1288 53.8788 68.1338 53.8563 68.1338Z" fill="black"/>
<path opacity="0.4" d="M57.0319 77.8971C56.9819 77.8971 56.9393 77.8547 56.9393 77.8048V77.8024V76.7896C56.9393 76.0288 56.9393 76.0288 56.9193 75.5124V75.4276C56.8617 74.2502 56.6365 73.0853 56.2461 71.9703C55.8582 70.8727 55.2727 69.855 54.5194 68.9645C54.4869 68.9246 54.4919 68.8647 54.5319 68.8348C54.572 68.8023 54.632 68.8073 54.6645 68.8472C55.4303 69.7552 56.0234 70.7929 56.4163 71.9104C56.8117 73.0354 57.0444 74.2128 57.107 75.4027V75.49C57.1295 76.0088 57.1295 76.0088 57.127 76.7771V77.7899C57.1345 77.8423 57.097 77.8897 57.0444 77.8971C57.0419 77.8971 57.0369 77.8971 57.0319 77.8971Z" fill="black"/>
<path d="M56.8388 69.9148C56.7537 69.7652 56.6611 69.6205 56.5635 69.4758C56.4659 69.3436 56.4959 69.1615 56.626 69.0642C56.636 69.0567 56.6461 69.0493 56.6586 69.0443L63.9759 64.8336C64.136 64.7388 64.3413 64.7887 64.4414 64.9434C64.5289 65.0855 64.614 65.2377 64.6916 65.3949C64.7742 65.5595 64.7141 65.7615 64.554 65.8538L57.2767 70.0396C57.124 70.1269 56.9313 70.0745 56.8438 69.9223C56.8413 69.9198 56.8413 69.9173 56.8388 69.9148Z" fill="#BA68C8"/>
<path d="M57.5514 71.6061C57.604 71.7732 57.6565 71.9378 57.7016 72.105C57.7366 72.2397 57.8718 72.3195 58.0069 72.2846C58.0294 72.2796 58.0519 72.2696 58.0695 72.2596L75.4293 62.2693C75.592 62.167 75.6746 61.9749 75.632 61.7879C75.5845 61.6157 75.5344 61.4486 75.4844 61.289C75.4543 61.1543 75.3192 61.0695 75.1841 61.1019C75.1515 61.1094 75.1215 61.1243 75.094 61.1418L57.7291 71.1321C57.569 71.2344 57.4964 71.4265 57.5514 71.6061Z" fill="#BA68C8"/>
<path opacity="0.7" d="M57.5514 71.6061C57.604 71.7732 57.6565 71.9378 57.7016 72.105C57.7366 72.2397 57.8718 72.3195 58.0069 72.2846C58.0294 72.2796 58.0519 72.2696 58.0695 72.2596L75.4293 62.2693C75.592 62.167 75.6746 61.9749 75.632 61.7879C75.5845 61.6157 75.5344 61.4486 75.4844 61.289C75.4543 61.1543 75.3192 61.0695 75.1841 61.1019C75.1515 61.1094 75.1215 61.1243 75.094 61.1418L57.7291 71.1321C57.569 71.2344 57.4964 71.4265 57.5514 71.6061Z" fill="white"/>
<path d="M58.0574 73.9059C58.0799 74.0905 58.0974 74.2701 58.1124 74.4423C58.1024 74.5445 58.1775 74.6368 58.2801 74.6468C58.3302 74.6518 58.3802 74.6368 58.4177 74.6069L70.1795 67.8394C70.3497 67.7322 70.4498 67.5426 70.4423 67.3405C70.4273 67.1609 70.4072 66.9838 70.3872 66.8042C70.3847 66.692 70.2921 66.5997 70.1795 66.6022C70.1345 66.6022 70.0919 66.6171 70.0569 66.6446L58.2951 73.4096C58.13 73.5193 58.0374 73.7089 58.0574 73.9059Z" fill="#BA68C8"/>
<path opacity="0.15" d="M58.0574 73.9059C58.0799 74.0905 58.0974 74.2701 58.1124 74.4423C58.1024 74.5445 58.1775 74.6368 58.2801 74.6468C58.3302 74.6518 58.3802 74.6368 58.4177 74.6069L70.1795 67.8394C70.3497 67.7322 70.4498 67.5426 70.4423 67.3405C70.4273 67.1609 70.4072 66.9838 70.3872 66.8042C70.3847 66.692 70.2921 66.5997 70.1795 66.6022C70.1345 66.6022 70.0919 66.6171 70.0569 66.6446L58.2951 73.4096C58.13 73.5193 58.0374 73.7089 58.0574 73.9059Z" fill="black"/>
<path d="M58.1523 76.2981V76.827C58.1523 77.0066 58.28 77.0764 58.4376 76.9891L63.4727 74.093C63.6428 73.9833 63.7479 73.7962 63.7579 73.5941V73.0653C63.7579 72.8832 63.6303 72.8159 63.4727 72.9007L58.4376 75.7993C58.2675 75.9115 58.1624 76.0961 58.1523 76.2981Z" fill="#BA68C8"/>
<path opacity="0.5" d="M58.1523 76.2981V76.827C58.1523 77.0066 58.28 77.0764 58.4376 76.9891L63.4727 74.093C63.6428 73.9833 63.7479 73.7962 63.7579 73.5941V73.0653C63.7579 72.8832 63.6303 72.8159 63.4727 72.9007L58.4376 75.7993C58.2675 75.9115 58.1624 76.0961 58.1523 76.2981Z" fill="white"/>
<path opacity="0.4" d="M76.0906 67.9642C76.038 67.9642 75.9955 68.0066 75.9955 68.059V68.5105L74.6541 69.2812V68.9445C74.6466 68.8921 74.5966 68.8572 74.544 68.8672C74.504 68.8747 74.4714 68.9046 74.4664 68.9445V69.3885L73.1251 70.1618V69.83C73.1326 69.7776 73.0976 69.7303 73.0475 69.7203C72.995 69.7128 72.9474 69.7477 72.9374 69.7976C72.9349 69.8076 72.9349 69.8176 72.9374 69.8275V70.2666L71.5961 71.0374V70.7131C71.5961 70.6607 71.556 70.6208 71.5035 70.6183C71.4534 70.6183 71.4109 70.6607 71.4109 70.7106V70.7131V71.1446L70.067 71.9179V71.5986C70.067 71.5487 70.0245 71.5063 69.9744 71.5063C69.9244 71.5063 69.8819 71.5487 69.8819 71.5986V72.0252L68.538 72.7984V72.4841C68.5405 72.4342 68.5005 72.3943 68.4504 72.3918C68.4479 72.3918 68.4479 72.3918 68.4454 72.3918C68.3954 72.3918 68.3528 72.4342 68.3528 72.4841V72.9057L67.0065 73.6765V73.3697C66.999 73.3173 66.9489 73.2824 66.8964 73.2923C66.8563 73.2998 66.8238 73.3298 66.8188 73.3697V73.7838L65.4774 74.557V74.2552C65.4699 74.2028 65.4199 74.1679 65.3673 74.1779C65.3273 74.1854 65.2948 74.2153 65.2898 74.2552V74.6643L63.9484 75.4351V75.1507C63.9409 75.0983 63.8909 75.0634 63.8383 75.0734C63.7983 75.0809 63.7657 75.1108 63.7607 75.1507V75.5523L62.4194 76.3256V76.0363C62.4119 75.9839 62.3618 75.949 62.3093 75.9589C62.2692 75.9664 62.2367 75.9963 62.2317 76.0363V76.4329L60.8904 77.2062V76.9218C60.8829 76.8694 60.8328 76.8345 60.7803 76.8445C60.7402 76.8519 60.7077 76.8819 60.7027 76.9218V77.3134L59.3613 78.0842V77.8073C59.3538 77.7549 59.3038 77.72 59.2512 77.73C59.2112 77.7375 59.1787 77.7674 59.1736 77.8073V78.1915L58.01 78.8625C57.9649 78.8874 57.9499 78.9423 57.9749 78.9872C57.9749 78.9872 57.9749 78.9872 57.9749 78.9897C57.9925 79.0196 58.0225 79.0371 58.0575 79.0371C58.0725 79.0371 58.0901 79.0321 58.1026 79.0221L59.1736 78.406V78.7852C59.1812 78.8375 59.2312 78.8725 59.2838 78.8625C59.3238 78.855 59.3563 78.8251 59.3613 78.7852V78.2987L60.7027 77.5279V77.8946C60.7102 77.947 60.7602 77.9819 60.8128 77.972C60.8528 77.9645 60.8854 77.9345 60.8904 77.8946V77.4157L62.2317 76.6424V77.0091C62.2392 77.0615 62.2893 77.0964 62.3418 77.0864C62.3819 77.0789 62.4144 77.049 62.4194 77.0091V76.5352L63.7607 75.7644V76.1236C63.7682 76.1759 63.8183 76.2109 63.8708 76.2009C63.9109 76.1934 63.9434 76.1635 63.9484 76.1236V75.6496L65.2898 74.8788V75.233C65.2973 75.2854 65.3473 75.3203 65.3999 75.3104C65.4399 75.3029 65.4724 75.273 65.4774 75.233V74.7716L66.8188 73.9983V74.3475C66.8263 74.3999 66.8764 74.4348 66.9289 74.4248C66.9689 74.4173 67.0015 74.3874 67.0065 74.3475V73.9035L68.3478 73.1327V73.4744C68.3503 73.5243 68.3904 73.5642 68.4404 73.5667C68.4905 73.5667 68.533 73.5243 68.533 73.4744V73.0254L69.8769 72.2522V72.5889C69.8769 72.6388 69.9194 72.6812 69.9694 72.6812C70.0195 72.6812 70.062 72.6388 70.062 72.5889V72.1324L71.4059 71.3591V71.6909C71.4059 71.7408 71.4484 71.7832 71.4985 71.7832C71.5485 71.7807 71.5886 71.7408 71.5911 71.6909V71.2519L72.9324 70.4811V70.8054C72.9399 70.8578 72.99 70.8927 73.0425 70.8827C73.0826 70.8752 73.1151 70.8453 73.1201 70.8054V70.3738L74.4614 69.6005V69.9123C74.4689 69.9647 74.519 69.9997 74.5715 69.9897C74.6116 69.9822 74.6441 69.9523 74.6491 69.9123V69.4858L75.9905 68.715V69.0268C75.998 69.0792 76.048 69.1141 76.1006 69.1041C76.1406 69.0967 76.1731 69.0667 76.1782 69.0268V68.049C76.1756 68.0066 76.1381 67.9692 76.0906 67.9642Z" fill="black"/>
<path d="M61.3739 80.2344C61.0286 80.3143 60.7008 80.4465 60.398 80.6286C58.5411 81.7162 57.0371 84.4376 57.0371 86.7051C57.0371 86.7674 57.0371 86.8248 57.0371 86.8822L60.393 85.3506L61.3739 80.2344Z" fill="#BA68C8"/>
<path d="M61.373 80.2344L60.3945 85.3506L63.7204 83.4273C63.7454 83.2203 63.7579 83.0133 63.7579 82.8062C63.7529 80.9404 62.7519 79.9476 61.373 80.2344Z" fill="#BA68C8"/>
<path d="M63.2999 85.151C63.5126 84.5973 63.6528 84.0161 63.7204 83.4274L60.3945 85.3506L63.2999 85.151Z" fill="#BA68C8"/>
<path d="M57.0391 86.8772C57.1141 89.0224 58.5906 89.9179 60.3974 88.8727C61.6487 88.1593 62.7197 86.71 63.3003 85.131L60.3949 85.3306L57.0391 86.8772Z" fill="#BA68C8"/>
<path opacity="0.7" d="M61.373 80.2344L60.3945 85.3506L63.7204 83.4273C63.7454 83.2203 63.7579 83.0133 63.7579 82.8062C63.7529 80.9404 62.7519 79.9476 61.373 80.2344Z" fill="white"/>
<path opacity="0.15" d="M63.2999 85.151C63.5126 84.5973 63.6528 84.0161 63.7204 83.4274L60.3945 85.3506L63.2999 85.151Z" fill="black"/>
<path opacity="0.5" d="M57.0391 86.8772C57.1141 89.0224 58.5906 89.9179 60.3974 88.8727C61.6487 88.1593 62.7197 86.71 63.3003 85.131L60.3949 85.3306L57.0391 86.8772Z" fill="white"/>
<path d="M57.0389 87.0144C57.0139 87.0144 56.9888 87.0069 56.9688 86.9944C56.9313 86.972 56.9088 86.9321 56.9062 86.8872C56.9062 86.8273 56.9062 86.7674 56.9062 86.7051C56.9062 84.3977 58.4428 81.6214 60.3322 80.5163C60.6475 80.3267 60.9903 80.1896 61.3482 80.1072C61.3907 80.0973 61.4358 80.1097 61.4683 80.1422C61.5008 80.1721 61.5134 80.217 61.5059 80.2594L60.5224 85.3805C60.5149 85.4229 60.4873 85.4579 60.4498 85.4753L57.0939 87.0069C57.0764 87.0144 57.0564 87.0169 57.0389 87.0144ZM61.2056 80.4141C60.9428 80.4914 60.69 80.6036 60.4548 80.7433C58.643 81.8035 57.169 84.4601 57.1565 86.6776L60.2671 85.2608L61.2056 80.4141Z" fill="white"/>
<path d="M60.3944 85.4828C60.3669 85.4828 60.3393 85.4753 60.3168 85.4578C60.2743 85.4279 60.2542 85.3755 60.2643 85.3256L61.2452 80.212C61.2552 80.1596 61.2953 80.1172 61.3478 80.1072C61.9234 79.9625 62.534 80.0897 62.9995 80.4564C63.5726 80.9204 63.8904 81.756 63.8904 82.8062C63.8904 83.0182 63.8779 83.2303 63.8528 83.4423C63.8478 83.4822 63.8228 83.5196 63.7878 83.5396L60.4595 85.4653C60.4394 85.4778 60.4169 85.4828 60.3944 85.4828ZM61.5005 80.3491L60.5896 85.0886L63.6101 83.3425C63.6301 83.1629 63.6401 82.9833 63.6401 82.8037C63.6401 81.8334 63.3573 81.0701 62.8443 80.656C62.464 80.3616 61.971 80.2494 61.5005 80.3491Z" fill="white"/>
<path d="M60.3957 85.4828C60.3381 85.4828 60.2881 85.4454 60.2706 85.3905C60.2505 85.3331 60.2756 85.2683 60.3281 85.2383L63.6564 83.3126C63.699 83.2876 63.7515 83.2876 63.7941 83.3126C63.8366 83.34 63.8591 83.3874 63.8541 83.4373C63.7841 84.036 63.6389 84.6222 63.4237 85.1834C63.4062 85.2308 63.3611 85.2633 63.3111 85.2683L60.4032 85.4678L60.3957 85.4828ZM63.5588 83.6743L60.9512 85.171L63.2035 85.0163C63.3661 84.5823 63.4838 84.1333 63.5588 83.6743Z" fill="white"/>
<path d="M58.966 89.449C58.6481 89.4515 58.3353 89.3741 58.055 89.222C57.3543 88.8328 56.9464 88.0047 56.9064 86.8872C56.9039 86.8348 56.9339 86.7849 56.984 86.7624L60.3398 85.2308C60.3548 85.2283 60.3699 85.2283 60.3849 85.2308L63.2903 85.0313C63.3353 85.0263 63.3804 85.0462 63.4054 85.0837C63.4329 85.1186 63.4404 85.166 63.4229 85.2059C62.8173 86.8497 61.6712 88.304 60.4625 89.0074C60.0095 89.2818 59.494 89.434 58.966 89.449ZM57.1742 86.9545C57.2267 87.9323 57.5846 88.6507 58.1752 88.98C58.7658 89.3093 59.519 89.2295 60.3248 88.758C61.4459 88.1144 62.4945 86.7949 63.0951 85.2857L60.4199 85.4703L57.1742 86.9545Z" fill="white"/>
<path d="M71.2054 74.8239C70.1118 76.136 69.3636 77.9694 69.3636 79.5809C69.341 80.1995 69.4887 80.8131 69.789 81.3569L72.7269 77.6476L71.2054 74.8239Z" fill="#BA68C8"/>
<path d="M74.2431 73.0678C73.7076 73.0628 73.1795 73.2125 72.7266 73.4969C72.146 73.8461 71.6305 74.2951 71.2051 74.8239L72.7266 77.6427L74.2431 73.0678Z" fill="#BA68C8"/>
<path d="M75.7771 74.138C75.5169 73.5169 74.9188 73.1003 74.2431 73.0679L72.7266 77.6477L75.7771 74.138Z" fill="#BA68C8"/>
<path d="M75.7775 74.1379L72.727 77.6477L69.7891 81.3619C70.3646 82.2973 71.4632 82.5218 72.727 81.7959C74.5839 80.7258 76.0904 78.0044 76.0904 75.7119C76.1054 75.1706 75.9978 74.6343 75.7775 74.1379Z" fill="#BA68C8"/>
<path opacity="0.7" d="M74.2431 73.0678C73.7076 73.0628 73.1795 73.2125 72.7266 73.4969C72.146 73.8461 71.6305 74.2951 71.2051 74.8239L72.7266 77.6427L74.2431 73.0678Z" fill="white"/>
<path opacity="0.15" d="M75.7771 74.138C75.5169 73.5169 74.9188 73.1003 74.2431 73.0679L72.7266 77.6477L75.7771 74.138Z" fill="black"/>
<path opacity="0.5" d="M75.7775 74.1379L72.727 77.6477L69.7891 81.3619C70.3646 82.2973 71.4632 82.5218 72.727 81.7959C74.5839 80.7258 76.0904 78.0044 76.0904 75.7119C76.1054 75.1706 75.9978 74.6343 75.7775 74.1379Z" fill="white"/>
<path d="M69.7885 81.4891C69.746 81.4841 69.7059 81.4617 69.6834 81.4243C69.3706 80.8605 69.2179 80.2244 69.2405 79.5809C69.2405 77.9819 69.9562 76.126 71.1123 74.7391C71.1399 74.7067 71.1824 74.6892 71.2249 74.6917C71.27 74.6967 71.3075 74.7216 71.33 74.7615L72.8491 77.5828C72.8741 77.6277 72.8691 77.6851 72.8366 77.725L69.8911 81.4392C69.8661 81.4717 69.8285 81.4891 69.7885 81.4891ZM71.1824 75.0609C70.1389 76.383 69.4957 78.0991 69.4957 79.5809C69.4807 80.1097 69.5883 80.636 69.8085 81.1199L72.5613 77.6277L71.1824 75.0609Z" fill="white"/>
<path d="M72.7265 77.7749C72.6764 77.7749 72.6314 77.7474 72.6089 77.705L71.0899 74.8863C71.0648 74.8389 71.0698 74.7815 71.1049 74.7391C71.5378 74.1978 72.0633 73.7388 72.6589 73.3846C73.1344 73.0853 73.685 72.9281 74.248 72.9356C74.2906 72.9381 74.3281 72.9581 74.3506 72.993C74.3756 73.0254 74.3806 73.0678 74.3681 73.1077L72.8516 77.6851C72.8341 77.735 72.7891 77.7699 72.7365 77.7749H72.7265ZM71.3626 74.8389L72.6965 77.3134L74.0603 73.1975C73.6099 73.2325 73.1744 73.3746 72.7916 73.6116C72.2485 73.9359 71.7655 74.3525 71.3626 74.8389Z" fill="white"/>
<path d="M72.7277 77.7749C72.7052 77.7749 72.6826 77.7699 72.6626 77.7575C72.6076 77.7275 72.5825 77.6627 72.6026 77.6028L74.1191 73.0255C74.1366 72.9706 74.1916 72.9332 74.2492 72.9357C74.9724 72.9706 75.6131 73.4146 75.8958 74.0806C75.9184 74.128 75.9109 74.1854 75.8758 74.2253L72.8253 77.73C72.8003 77.7599 72.7652 77.7749 72.7277 77.7749ZM74.3368 73.2051L73.058 77.0615L75.6206 74.118C75.3803 73.6142 74.8948 73.2674 74.3368 73.2051Z" fill="white"/>
<path d="M71.3009 82.3522C70.6302 82.3597 70.0096 82.0055 69.6767 81.4268C69.6442 81.3819 69.6442 81.3195 69.6767 81.2746L72.6122 77.5628L75.6677 74.0531C75.6953 74.0182 75.7403 74.0008 75.7854 74.0082C75.8279 74.0132 75.8654 74.0407 75.8855 74.0806C76.1157 74.5919 76.2283 75.1482 76.2133 75.707C76.2133 78.0343 74.6742 80.8156 72.7824 81.9032C72.3369 82.1801 71.8264 82.3348 71.3009 82.3522ZM69.952 81.3544C70.5251 82.2001 71.5311 82.3173 72.6597 81.6662C74.479 80.6211 75.958 77.942 75.958 75.697C75.968 75.2455 75.893 74.7965 75.7403 74.3724L72.8249 77.72L69.952 81.3544Z" fill="white"/>
<path d="M65.1642 77.8572L65.7147 77.5404C65.8724 77.4506 66 77.5254 66 77.705V78.2338C65.99 78.4359 65.8849 78.623 65.7147 78.7327L65.1642 79.0495C65.0065 79.1393 64.8789 79.067 64.8789 78.8849V78.3586C64.8864 78.1565 64.994 77.9694 65.1642 77.8572Z" fill="#BA68C8"/>
<path d="M65.1642 80.2244L65.7147 79.9076C65.8724 79.8153 66 79.8902 66 80.0723V80.5986C65.9925 80.8006 65.8849 80.9877 65.7147 81.0975L65.1642 81.4143C65.0065 81.5066 64.8789 81.4318 64.8789 81.2497V80.7158C64.8889 80.5163 64.9965 80.3342 65.1642 80.2244Z" fill="#BA68C8"/>
<path opacity="0.7" d="M65.1642 80.2244L65.7147 79.9076C65.8724 79.8153 66 79.8902 66 80.0723V80.5986C65.9925 80.8006 65.8849 80.9877 65.7147 81.0975L65.1642 81.4143C65.0065 81.5066 64.8789 81.4318 64.8789 81.2497V80.7158C64.8889 80.5163 64.9965 80.3342 65.1642 80.2244Z" fill="white"/>
<path d="M65.1642 82.5892L65.7147 82.2724C65.8724 82.1826 66 82.2549 66 82.437V82.9633C65.99 83.1654 65.8849 83.35 65.7147 83.4622L65.1642 83.779C65.0065 83.8688 64.8789 83.794 64.8789 83.6144V83.0856C64.8889 82.8835 64.994 82.6989 65.1642 82.5892Z" fill="#BA68C8"/>
<path opacity="0.15" d="M65.1642 82.5892L65.7147 82.2724C65.8724 82.1826 66 82.2549 66 82.437V82.9633C65.99 83.1654 65.8849 83.35 65.7147 83.4622L65.1642 83.779C65.0065 83.8688 64.8789 83.794 64.8789 83.6144V83.0856C64.8889 82.8835 64.994 82.6989 65.1642 82.5892Z" fill="black"/>
<path d="M65.1642 84.954L65.7147 84.6372C65.8724 84.5474 66 84.6222 66 84.8018V85.3306C65.99 85.5327 65.8849 85.7198 65.7147 85.8295L65.1642 86.1463C65.0065 86.2361 64.8789 86.1638 64.8789 85.9817V85.4554C64.8864 85.2533 64.994 85.0662 65.1642 84.954Z" fill="#BA68C8"/>
<path opacity="0.5" d="M65.1642 84.954L65.7147 84.6372C65.8724 84.5474 66 84.6222 66 84.8018V85.3306C65.99 85.5327 65.8849 85.7198 65.7147 85.8295L65.1642 86.1463C65.0065 86.2361 64.8789 86.1638 64.8789 85.9817V85.4554C64.8864 85.2533 64.994 85.0662 65.1642 84.954Z" fill="white"/>
<path opacity="0.4" d="M66.5652 77.8048C66.4977 77.8048 66.4376 77.7674 66.4051 77.71C66.355 77.6227 66.385 77.5104 66.4726 77.4606L68.1468 76.4977C68.2419 76.4553 68.352 76.4977 68.3945 76.59C68.4321 76.6698 68.4071 76.7671 68.3345 76.8195L66.6578 77.7848C66.6278 77.7998 66.5978 77.8073 66.5652 77.8048Z" fill="black"/>
<path opacity="0.4" d="M66.5419 80.192C66.4393 80.1945 66.3542 80.1147 66.3517 80.0124C66.3492 79.9426 66.3867 79.8802 66.4493 79.8453L68.1234 78.8824C68.206 78.8225 68.3236 78.84 68.3862 78.9248C68.4463 79.0071 68.4288 79.1244 68.3437 79.1867C68.3337 79.1942 68.3211 79.2017 68.3111 79.2067L66.6345 80.1696C66.6069 80.1845 66.5744 80.192 66.5419 80.192Z" fill="black"/>
<path opacity="0.4" d="M66.5056 82.5817C66.403 82.5792 66.3179 82.4944 66.3204 82.3921C66.3204 82.3273 66.3554 82.2674 66.4105 82.235L68.0871 81.2721C68.1747 81.2222 68.2873 81.2521 68.3374 81.3395C68.3849 81.4268 68.3549 81.5365 68.2698 81.5889L66.5931 82.5518C66.5681 82.5692 66.5356 82.5792 66.5056 82.5817Z" fill="black"/>
<path opacity="0.4" d="M66.489 84.9714C66.4215 84.9714 66.3614 84.9365 66.3289 84.8791C66.2788 84.7918 66.3089 84.6795 66.3965 84.6297L68.0731 83.6643C68.1582 83.6069 68.2758 83.6294 68.3334 83.7142C68.3909 83.799 68.3684 83.9162 68.2833 83.9736C68.2758 83.9786 68.2683 83.9836 68.2583 83.9886L66.5816 84.9514C66.5541 84.9664 66.5216 84.9739 66.489 84.9714Z" fill="black"/>
<path opacity="0.4" d="M57.2469 93.3778C57.1793 93.3778 57.1192 93.3404 57.0867 93.283C57.0366 93.1957 57.0667 93.0834 57.1543 93.0335L65.0046 88.5161C65.0922 88.4662 65.2048 88.4961 65.2549 88.5834C65.3024 88.6707 65.2724 88.783 65.1848 88.8329L57.3369 93.3628C57.3094 93.3753 57.2769 93.3803 57.2469 93.3778Z" fill="black"/>
<path opacity="0.4" d="M57.4969 94.5352C57.3943 94.5377 57.3093 94.4578 57.3068 94.3556C57.3043 94.2857 57.3418 94.2233 57.4044 94.1884L65.2547 89.6734C65.3448 89.6236 65.4574 89.6535 65.5075 89.7433C65.5575 89.8331 65.5275 89.9453 65.4399 89.9952L57.592 94.5102C57.5645 94.5277 57.5295 94.5377 57.4969 94.5352Z" fill="black"/>
<path opacity="0.4" d="M57.8591 95.6552C57.7565 95.6527 57.6714 95.5679 57.6739 95.4656C57.6739 95.4008 57.7089 95.3409 57.764 95.3085L65.6118 90.7935C65.6944 90.7336 65.812 90.7511 65.8746 90.8359C65.9346 90.9182 65.9171 91.0354 65.832 91.0978C65.822 91.1053 65.8095 91.1128 65.7995 91.1178L57.9517 95.6327C57.9241 95.6477 57.8916 95.6552 57.8591 95.6552Z" fill="black"/>
<path opacity="0.4" d="M69.5613 86.291C69.4962 86.291 69.4337 86.2561 69.4011 86.1987C69.3511 86.1114 69.3811 85.9992 69.4687 85.9493L77.3166 81.4343C77.4042 81.3869 77.5143 81.4168 77.5668 81.5016C77.6144 81.5889 77.5843 81.7012 77.4967 81.7511L69.6514 86.2661C69.6239 86.2835 69.5938 86.291 69.5613 86.291Z" fill="black"/>
<path opacity="0.4" d="M69.8133 87.4484C69.7482 87.4484 69.6856 87.4135 69.6531 87.3561C69.6031 87.2688 69.6331 87.1566 69.7207 87.1067L77.5685 82.5917C77.6561 82.5443 77.7662 82.5742 77.8188 82.659C77.8663 82.7463 77.8363 82.8586 77.7487 82.9085L69.9034 87.4235C69.8758 87.4409 69.8458 87.4484 69.8133 87.4484Z" fill="black"/>
<path opacity="0.4" d="M70.1774 88.5684C70.1098 88.5684 70.0498 88.5335 70.0147 88.4761C69.9672 88.3888 69.9972 88.2791 70.0823 88.2267L77.9302 83.7117C78.0202 83.6593 78.1354 83.6917 78.1854 83.779C78.2355 83.8663 78.2054 83.9836 78.1178 84.0335L70.26 88.541C70.235 88.5584 70.2074 88.5684 70.1774 88.5684Z" fill="black"/>
<path d="M60.0126 96.9249L77.9055 86.6277C78.4986 86.2685 79.2669 86.4082 79.6973 86.9495C80.0802 87.4709 79.925 88.1543 79.2944 88.5185L61.3965 98.8132C60.7659 99.1749 59.895 99.0801 59.5171 98.5637C59.1392 98.0474 59.3845 97.2866 60.0126 96.9249Z" fill="#BA68C8"/>
<path opacity="0.4" d="M62.9644 101.969C62.8969 101.969 62.8368 101.934 62.8018 101.876C62.7542 101.789 62.7842 101.677 62.8718 101.627L70.7172 97.1045C70.8048 97.0571 70.9149 97.087 70.9674 97.1718C71.015 97.2591 70.985 97.3689 70.8999 97.4212L63.052 101.936C63.027 101.956 62.997 101.966 62.9644 101.969Z" fill="black"/>
<path opacity="0.4" d="M61.9841 101.278C61.8815 101.275 61.7964 101.19 61.7989 101.088C61.7989 101.023 61.8339 100.963 61.889 100.931L69.7368 96.416C69.8244 96.3686 69.937 96.3986 69.9871 96.4859C70.0346 96.5732 70.0046 96.6829 69.9195 96.7353L62.0767 101.253C62.0491 101.27 62.0166 101.278 61.9841 101.278Z" fill="black"/>
<path opacity="0.4" d="M64.0027 102.577C63.9351 102.577 63.8751 102.54 63.8426 102.483C63.7925 102.395 63.8225 102.283 63.9101 102.233L71.7605 97.7156C71.8481 97.6682 71.9582 97.6981 72.0107 97.7829C72.0583 97.8702 72.0282 97.9825 71.9407 98.0324L64.0953 102.547C64.0678 102.565 64.0352 102.575 64.0027 102.577Z" fill="black"/>
<path opacity="0.4" d="M74.1688 95.523C74.0662 95.5255 73.9811 95.4457 73.9786 95.3434C73.9761 95.2735 74.0137 95.2112 74.0762 95.1762L81.9216 90.6613C82.0117 90.6089 82.1268 90.6413 82.1793 90.7286C82.2319 90.8159 82.1994 90.9332 82.1093 90.9831L74.2639 95.4955C74.2364 95.5155 74.2014 95.5255 74.1688 95.523Z" fill="black"/>
<path opacity="0.4" d="M73.1872 94.832C73.0846 94.8295 72.9995 94.7447 73.002 94.6424C73.002 94.5776 73.037 94.5177 73.0921 94.4853L80.9399 89.9728C81.0275 89.9229 81.1401 89.9528 81.1902 90.0401C81.2377 90.1274 81.2077 90.2397 81.1201 90.2896L73.2748 94.8046C73.2473 94.8195 73.2172 94.8295 73.1872 94.832Z" fill="black"/>
<path opacity="0.4" d="M75.2 96.1316C75.1349 96.1316 75.0724 96.0967 75.0398 96.0393C74.9898 95.952 75.0198 95.8398 75.1074 95.7899L82.9552 91.2749C83.0403 91.2175 83.1579 91.24 83.2155 91.3248C83.2731 91.4096 83.2505 91.5268 83.1654 91.5842C83.1579 91.5892 83.1504 91.5942 83.1404 91.5992L75.2951 96.1067C75.2651 96.1241 75.2325 96.1316 75.2 96.1316Z" fill="black"/>
<path d="M75.3176 101.759C73.6159 100.779 70.728 100.851 68.8711 101.919C67.0143 102.986 66.8892 104.648 68.5934 105.628C70.2976 106.608 73.1829 106.539 75.0398 105.471C76.8967 104.403 77.0168 102.742 75.3176 101.759ZM74.1589 104.962C72.8326 105.725 70.7705 105.778 69.5543 105.077C68.3381 104.376 68.4257 103.188 69.752 102.425C71.0783 101.662 73.1404 101.612 74.3591 102.313C75.5778 103.014 75.4852 104.199 74.1589 104.962Z" fill="#BA68C8"/>
<path d="M70.6325 102.934C71.4283 102.475 72.667 102.435 73.3978 102.864C74.1285 103.293 74.0734 103.997 73.2776 104.456C72.4818 104.915 71.2431 104.955 70.5249 104.523C69.8067 104.091 69.8367 103.391 70.6325 102.934Z" fill="#BA68C8"/>
<path opacity="0.5" d="M70.6325 102.934C71.4283 102.475 72.667 102.435 73.3978 102.864C74.1285 103.293 74.0734 103.997 73.2776 104.456C72.4818 104.915 71.2431 104.955 70.5249 104.523C69.8067 104.091 69.8367 103.391 70.6325 102.934Z" fill="black"/>
<path opacity="0.15" d="M75.3176 101.759C73.6159 100.779 70.728 100.851 68.8711 101.919C67.0143 102.986 66.8892 104.648 68.5934 105.628C70.2976 106.608 73.1829 106.539 75.0398 105.471C76.8967 104.403 77.0168 102.742 75.3176 101.759ZM74.1589 104.962C72.8326 105.725 70.7705 105.778 69.5543 105.077C68.3381 104.376 68.4257 103.188 69.752 102.425C71.0783 101.662 73.1404 101.612 74.3591 102.313C75.5778 103.014 75.4852 104.199 74.1589 104.962Z" fill="black"/>
<path d="M70.5898 101.268L70.9777 101.961C71.7285 101.789 72.5068 101.774 73.2625 101.919L73.788 101.208C72.7295 101.008 71.6409 101.028 70.5898 101.268Z" fill="#BA68C8"/>
<path opacity="0.7" d="M70.5898 101.268L70.9777 101.961C71.7285 101.789 72.5068 101.774 73.2625 101.919L73.788 101.208C72.7295 101.008 71.6409 101.028 70.5898 101.268Z" fill="white"/>
<path opacity="0.4" d="M72.1891 100.924C72.0865 100.916 72.0089 100.829 72.0139 100.726L72.0665 99.8733L75.5149 97.8778C75.605 97.8254 75.7201 97.8578 75.7727 97.9451C75.8252 98.0324 75.7927 98.1497 75.7026 98.1996L72.4143 100.095L72.3743 100.749C72.3668 100.849 72.2867 100.924 72.1891 100.924Z" fill="black"/>
<path d="M85.405 95.9595C83.7007 94.9792 80.8154 95.0516 78.956 96.1192C77.0966 97.1868 76.974 98.8481 78.6782 99.8285C80.3824 100.809 83.2703 100.739 85.1272 99.6713C86.984 98.6037 87.1092 96.9399 85.405 95.9595ZM84.2463 99.1624C82.92 99.9257 80.8579 99.9781 79.6392 99.2772C78.4205 98.5762 78.5131 97.3889 79.8394 96.6256C81.1657 95.8623 83.2278 95.8124 84.444 96.5133C85.6602 97.2143 85.5726 98.3991 84.2463 99.1624Z" fill="#BA68C8"/>
<path d="M80.7203 97.1344C81.5161 96.6754 82.7523 96.6355 83.473 97.0646C84.1938 97.4936 84.1512 98.197 83.3529 98.656C82.5546 99.115 81.3209 99.1549 80.6002 98.7234C79.8794 98.2918 79.9245 97.6034 80.7203 97.1344Z" fill="#BA68C8"/>
<path opacity="0.5" d="M80.7203 97.1344C81.5161 96.6754 82.7523 96.6355 83.473 97.0646C84.1938 97.4936 84.1512 98.197 83.3529 98.656C82.5546 99.115 81.3209 99.1549 80.6002 98.7234C79.8794 98.2918 79.9245 97.6034 80.7203 97.1344Z" fill="black"/>
<path opacity="0.15" d="M85.405 95.9595C83.7007 94.9792 80.8154 95.0516 78.956 96.1192C77.0966 97.1868 76.974 98.8481 78.6782 99.8285C80.3824 100.809 83.2703 100.739 85.1272 99.6713C86.984 98.6037 87.1092 96.9399 85.405 95.9595ZM84.2463 99.1624C82.92 99.9257 80.8579 99.9781 79.6392 99.2772C78.4205 98.5762 78.5131 97.3889 79.8394 96.6256C81.1657 95.8623 83.2278 95.8124 84.444 96.5133C85.6602 97.2143 85.5726 98.3991 84.2463 99.1624Z" fill="black"/>
<path d="M85.4039 95.9595C83.965 95.1313 81.6827 95.0565 79.8984 95.6976L80.5141 96.3237C81.7953 95.8672 83.4245 95.9221 84.453 96.5133C84.6232 96.6105 84.7808 96.7303 84.921 96.87L86.0696 96.4609C85.8719 96.2663 85.6467 96.0967 85.4039 95.9595Z" fill="#BA68C8"/>
<path opacity="0.7" d="M85.4039 95.9595C83.965 95.1313 81.6827 95.0565 79.8984 95.6976L80.5141 96.3237C81.7953 95.8672 83.4245 95.9221 84.453 96.5133C84.6232 96.6105 84.7808 96.7303 84.921 96.87L86.0696 96.4609C85.8719 96.2663 85.6467 96.0967 85.4039 95.9595Z" fill="white"/>
<path opacity="0.4" d="M82.3051 95.1089H82.2926C82.19 95.1014 82.1124 95.0141 82.1174 94.9118L82.17 94.0562L85.6184 92.0731C85.7135 92.0307 85.8236 92.0731 85.8662 92.1654C85.9037 92.2453 85.8787 92.3425 85.8061 92.3949L82.5228 94.2757L82.4828 94.9318C82.4778 95.0291 82.4027 95.1064 82.3051 95.1089Z" fill="black"/>
<path opacity="0.4" d="M73.2625 107.905C73.1599 107.905 73.0748 107.823 73.0723 107.721C73.0723 107.654 73.1073 107.591 73.1674 107.556L92.2164 96.6056C92.3065 96.5557 92.4191 96.5856 92.4692 96.6754C92.5192 96.7652 92.4892 96.8775 92.4016 96.9274L73.345 107.881C73.32 107.896 73.2925 107.903 73.2625 107.905Z" fill="black"/>
<path opacity="0.4" d="M74.2804 108.494C74.1778 108.492 74.0952 108.404 74.0977 108.302C74.1002 108.24 74.1327 108.18 74.1878 108.147L93.2444 97.1868C93.3294 97.1269 93.4446 97.1444 93.5071 97.2292C93.5672 97.3115 93.5497 97.4288 93.4646 97.4911C93.4546 97.4986 93.4421 97.5061 93.432 97.5111L74.3755 108.472C74.3455 108.487 74.3129 108.494 74.2804 108.494Z" fill="black"/>
<path opacity="0.4" d="M75.3094 109.078C75.2418 109.078 75.1817 109.04 75.1492 108.983C75.0991 108.896 75.1292 108.784 75.2168 108.734L94.2833 97.778C94.3734 97.7281 94.486 97.758 94.5361 97.8478C94.5861 97.9376 94.5561 98.0499 94.4685 98.0998L75.412 109.063C75.3794 109.078 75.3444 109.083 75.3094 109.078Z" fill="black"/>
</g>
<defs>
<clipPath id="clip0_24_5795">
<rect width="120" height="116" fill="white"/>
</clipPath>
</defs>
</svg>
