<svg width="120" height="120" viewBox="0 0 120 120" fill="none" xmlns="http://www.w3.org/2000/svg">
<path opacity="0.5" d="M106.062 103.129C103.61 105.71 101.289 107.374 99.456 108.689C77.9046 124.145 52.4031 119.64 46.9836 118.54C38.9802 116.915 23.5101 113.774 12.3256 100.627C-4.59569 80.7372 -1.96105 49.4008 11.1643 28.7151C13.565 24.9312 26.2472 3.93056 52.0227 0.562679C67.6222 -1.47546 85.8059 2.63539 98.974 13.6625C126.615 36.8101 124.647 83.5721 106.062 103.129Z" fill="#E8772B"/>
<g opacity="0.58">
<path d="M55.1564 84.2723C55.1564 84.2723 41.4555 36.2446 15.6962 11.0107C13.9646 9.31436 10.932 10.164 10.3552 12.5141C6.49913 28.2303 -0.289614 75.641 55.1564 84.2723Z" fill="#BDD0FB"/>
<path opacity="0.5" d="M50.0075 81.4012C50.1351 81.5109 49.978 81.7029 49.8363 81.6111C44.6003 78.2266 24.2217 61.3125 15.665 25.9088C15.6377 25.7953 15.8114 25.742 15.8494 25.8529C18.6216 34.0174 29.8385 64.0719 50.0075 81.4012Z" fill="white"/>
</g>
<g opacity="0.79">
<path d="M58.0337 68.9698C58.0337 68.9698 51.9686 25.9551 34.5593 1.4206C33.3891 -0.22877 30.9867 0.190721 30.3279 2.16613C25.9224 15.3722 16.344 55.7177 58.0337 68.9698Z" fill="#91B3FA"/>
<path opacity="0.5" d="M54.354 65.947C54.4415 66.0554 54.3036 66.2052 54.2032 66.1108C50.5034 62.6346 36.4494 45.8647 33.1607 14.3171C33.1501 14.216 33.2884 14.1878 33.3072 14.2876C34.6777 21.6469 40.499 48.84 54.354 65.947Z" fill="white"/>
</g>
<path d="M95.6423 28.3073C95.4484 28.3073 95.2879 28.1541 95.2802 27.9591C95.2729 27.7777 94.4827 9.72164 86.5993 3.22827C84.2712 1.3109 81.5208 0.581166 78.4238 1.0604C71.8947 2.07051 67.3777 6.87525 64.9983 15.341C63.2078 21.7132 63.3738 27.872 63.376 27.9335C63.3819 28.1336 63.2248 28.3005 63.025 28.3069C62.8299 28.3146 62.6579 28.1558 62.6515 27.9561C62.6497 27.8938 62.479 21.6385 64.296 15.161C65.3685 11.339 66.9132 8.18322 68.8873 5.78107C71.3734 2.75629 74.5447 0.927258 78.3128 0.344322C81.6237 -0.167773 84.5666 0.614454 87.0612 2.66966C90.4857 5.49046 93.032 10.6054 94.6291 17.8721C95.8126 23.2559 96.003 27.8848 96.0047 27.9309C96.0124 28.1306 95.8566 28.2992 95.6563 28.3069C95.6516 28.3073 95.6469 28.3073 95.6423 28.3073Z" fill="url(#paint0_linear_24_4984)"/>
<path d="M32.7025 106.071L45.0666 22.2854L91.5145 21.5181L106.486 110.727H36.7243C34.2429 110.727 32.3405 108.524 32.7025 106.071Z" fill="#7D97F4"/>
<path d="M100.536 22.2854L91.5156 21.5181L106.487 110.727H115.442C117.258 110.727 118.615 109.06 118.245 107.283L100.536 22.2854Z" fill="#91B3FA"/>
<path d="M53.0311 28.1152C52.836 28.1152 52.675 27.9603 52.669 27.7639C52.6673 27.7016 52.4965 21.4464 54.314 14.9688C55.3861 11.1469 56.9312 7.99109 58.9053 5.58893C61.3914 2.56415 64.5627 0.735119 68.3308 0.152184C71.6417 -0.359912 74.5846 0.422315 77.0792 2.47752C80.5037 5.29832 83.05 10.4133 84.6471 17.6799C85.8306 23.0638 86.021 27.6927 86.0227 27.7388C86.0304 27.9385 85.8746 28.1071 85.6743 28.1147C85.6697 28.1152 85.665 28.1152 85.6603 28.1152C85.4664 28.1152 85.3059 27.962 85.2982 27.7669C85.291 27.5856 84.5007 9.5295 76.6173 3.03613C74.2892 1.11876 71.5388 0.389028 68.4418 0.868691C61.9084 1.87923 57.3901 6.68908 55.0121 15.1647C53.2241 21.5364 53.3918 27.6803 53.394 27.7418C53.4004 27.9419 53.2428 28.1088 53.043 28.1152C53.0383 28.1152 53.0345 28.1152 53.0311 28.1152Z" fill="url(#paint1_linear_24_4984)"/>
<path d="M99.1192 40.9026C99.1969 40.7307 99.2012 40.5348 99.1312 40.3598C98.086 37.7503 94.3366 28.4075 94.1885 28.2914C94.0164 28.1566 88.6417 23.0442 88.6417 23.0442C87.6517 22.1028 87.2853 22.9541 87.2853 22.9541L84.748 31.7344L89.7308 43.7478C89.8717 44.0875 90.2538 44.2577 90.6009 44.1352L98.7196 41.2701C98.8968 41.2069 99.0415 41.0746 99.1192 40.9026ZM87.819 26.2204C87.3908 25.885 87.3157 25.2667 87.6512 24.8386C87.9868 24.4106 88.6054 24.3355 89.0336 24.6709C89.4619 25.0063 89.537 25.6247 89.2014 26.0527C88.8659 26.4808 88.2472 26.5559 87.819 26.2204Z" fill="#E8772B"/>
<path opacity="0.7" d="M90.3984 34.2467C91.0943 35.5918 90.8659 36.5686 90.222 36.9015C89.5637 37.2416 88.6727 36.831 88.0306 35.6076C87.406 34.3999 87.508 33.339 88.2317 32.9652C88.9767 32.5798 89.8041 33.0979 90.3984 34.2467ZM91.6228 39.5742L90.9376 31.5663L91.4439 31.3047L92.1292 39.3126L91.6228 39.5742ZM88.6902 35.2162C89.0638 35.9562 89.5385 36.3953 89.8933 36.2123C90.2481 36.0292 90.1571 35.4288 89.7563 34.6529C89.3904 33.9458 88.9515 33.4512 88.5681 33.6492C88.2056 33.8366 88.3192 34.4997 88.6902 35.2162ZM95.0106 35.2226C95.7014 36.5579 95.4853 37.5407 94.8343 37.877C94.1832 38.2137 93.2849 37.8066 92.6449 36.5695C92.0254 35.3716 92.1224 34.3009 92.8388 33.9309C93.5842 33.546 94.4167 34.0738 95.0106 35.2226ZM93.3028 36.1922C93.6713 36.9224 94.1512 37.3713 94.5055 37.1882C94.8671 37.0013 94.7698 36.4047 94.3685 35.6289C93.9979 34.912 93.5637 34.4272 93.1803 34.6252C92.8183 34.8125 92.9318 35.4757 93.3028 36.1922Z" fill="white"/>
<path d="M88.2314 25.2252C88.1251 25.2081 88.0328 25.1365 88.0042 25.0366C87.9867 24.9764 87.5496 23.5532 85.683 22.9694C85.5383 22.9242 85.4576 22.7838 85.5028 22.6558C85.5481 22.5278 85.7022 22.4603 85.8473 22.506C88.0136 23.1837 88.5157 24.8595 88.5362 24.9303C88.5742 25.0631 88.4858 25.1941 88.339 25.2231C88.3022 25.2308 88.266 25.2308 88.2314 25.2252Z" fill="url(#paint2_linear_24_4984)"/>
<path d="M79.2559 105.736L100.047 65.9218H95.7873C95.0018 65.9218 94.5697 65.009 95.0679 64.4022L117.228 37.4062C118.188 36.2361 120.085 36.9782 119.996 38.4893L118.438 64.8878C118.349 66.3989 117.008 67.5256 115.504 67.3532L112.534 67.0135L91.9048 111.669C91.3677 112.831 90.2034 113.576 88.9226 113.576H81.7727L79.2559 105.736Z" fill="#E8772B"/>
<path d="M62.0664 77.8123L76.745 110.404C77.6142 112.334 79.5354 113.576 81.6535 113.576H89.2205C90.2247 113.576 91.1494 113.031 91.6366 112.154L91.9055 111.669C91.0927 111.669 90.3481 111.213 89.9783 110.49L70.4212 72.1874L62.0664 77.8123Z" fill="#E8772B"/>
<path d="M72.397 76.0558C70.925 74.8942 68.7745 75.2356 67.7353 76.7962L46.154 109.206C44.4253 111.802 41.5128 113.361 38.3931 113.361H35.3563L32.8848 106.245C32.8848 106.245 52.9479 75.4955 58.1194 70.844C58.1194 70.844 63.2691 66.2048 68.3467 69.7122C69.6881 70.6391 70.7068 71.9616 71.3288 73.468L72.397 76.0558Z" fill="#E8772B"/>
<path d="M9.41211 87.1068C9.41211 87.1068 13.0249 82.5931 20.0249 81.8911C20.0249 81.8911 23.3499 83.0233 29.9739 94.8872C36.5978 106.751 40.9944 112.161 46.154 109.206L45.727 109.915C44.3194 112.252 41.7902 113.68 39.0617 113.68H36.208C33.0662 113.68 30.1169 112.17 28.2824 109.621C23.1271 102.457 12.5791 88.2189 9.41211 87.1068Z" fill="url(#paint3_linear_24_4984)"/>
<path opacity="0.66" d="M117.497 46.8483C117.489 46.8483 117.481 46.8479 117.472 46.847C117.353 46.8334 117.267 46.7258 117.281 46.6067L117.427 45.3169C117.44 45.1974 117.548 45.1115 117.667 45.1252C117.787 45.1389 117.872 45.2465 117.859 45.3656L117.713 46.6554C117.7 46.7664 117.606 46.8483 117.497 46.8483Z" fill="white"/>
<path opacity="0.66" d="M98.9985 63.1186C98.9524 63.1186 98.9055 63.104 98.8662 63.0733C98.771 63.0003 98.753 62.8638 98.8265 62.7686L117.125 39.0031C117.341 38.7228 117.707 38.6233 118.034 38.756C118.363 38.8888 118.556 39.2139 118.516 39.5656L118.194 42.4141C118.18 42.5332 118.072 42.6198 117.953 42.6057C117.834 42.5925 117.748 42.4845 117.762 42.3655L118.084 39.5169C118.106 39.3257 117.989 39.2067 117.872 39.1593C117.754 39.1119 117.587 39.1158 117.47 39.2686L99.1714 63.0341C99.1279 63.0895 99.0634 63.1186 98.9985 63.1186Z" fill="white"/>
<path opacity="0.66" d="M57.4871 88.0329C57.4452 88.0329 57.403 88.0209 57.3654 87.9958C57.2659 87.9288 57.2394 87.7935 57.3069 87.694L66.7704 73.6729C67.1124 73.1663 67.6811 72.8915 68.2899 72.938C68.8995 72.9841 69.4196 73.3417 69.6808 73.8939C69.7321 74.0023 69.686 74.1321 69.5775 74.1833C69.4691 74.2349 69.3393 74.1884 69.2881 74.0796C69.0942 73.6703 68.7091 73.4053 68.257 73.3712C67.807 73.337 67.3843 73.5406 67.1312 73.9157L57.6677 87.9369C57.6254 87.9996 57.5567 88.0329 57.4871 88.0329Z" fill="white"/>
<path opacity="0.66" d="M55.0281 91.677C54.9862 91.677 54.944 91.6651 54.9064 91.6399C54.8069 91.5729 54.7805 91.4375 54.8479 91.3381L55.4546 90.4385C55.5216 90.3386 55.657 90.313 55.7564 90.38C55.8559 90.447 55.8824 90.5824 55.8149 90.6818L55.2082 91.5814C55.1668 91.6437 55.0981 91.677 55.0281 91.677Z" fill="white"/>
<path d="M55.4782 115.185C55.4616 116.84 54.039 118.182 52.3001 118.185L10.2723 118.277C8.52099 118.281 7.06769 116.94 7.02585 115.278L5.06748 37.0333C5.02095 35.1727 6.49089 33.6684 8.34978 33.6773L52.9618 33.8907C54.8071 33.8997 56.2868 35.4116 56.268 37.2642L55.4782 115.185Z" fill="url(#paint4_linear_24_4984)"/>
<path d="M51.6896 41.7795C51.702 39.9919 50.2346 38.5329 48.4116 38.5248L13.0034 38.369C11.1689 38.3609 9.71345 39.8123 9.75273 41.6063L11.2082 108.133C11.244 109.762 12.6858 111.078 14.4281 111.075L48.0675 111.022C49.8 111.02 51.2131 109.703 51.2242 108.079L51.6896 41.7795Z" fill="#91B3FA"/>
<path opacity="0.54" d="M36.0427 35.9936C36.0436 36.3407 35.7644 36.6203 35.4194 36.6191L26.2044 36.5772C25.8585 36.5755 25.5746 36.2929 25.5704 35.9454C25.5661 35.5978 25.8436 35.3169 26.1898 35.3186L35.4151 35.3617C35.761 35.3634 36.0419 35.6465 36.0427 35.9936Z" fill="url(#paint5_linear_24_4984)"/>
<path d="M8.45089 38.3682C8.22077 38.3682 8.00645 38.4535 7.88307 38.6481C5.29198 42.7351 2.70046 46.968 0.109375 50.8769C2.65606 50.8769 5.20232 50.8769 7.74901 50.8769C9.74195 46.968 11.7349 42.6126 13.7278 38.3686C11.9684 38.3682 10.2095 38.3682 8.45089 38.3682Z" fill="url(#paint6_linear_24_4984)"/>
<path d="M15.3877 50.9709C12.841 50.9709 10.2947 50.9709 7.74805 50.9709C9.74099 46.7798 11.7339 42.5883 13.7269 38.3972C15.6093 38.3972 17.4912 38.3972 19.3736 38.3972C18.0449 42.5883 16.7163 46.7794 15.3877 50.9709Z" fill="url(#paint7_linear_24_4984)"/>
<path d="M23.0283 50.9709C20.4816 50.9709 17.9354 50.9709 15.3887 50.9709C16.7173 46.7798 18.0459 42.5883 19.3746 38.3972C21.2569 38.3972 23.1389 38.3972 25.0212 38.3972C24.3569 42.5883 23.6926 46.7794 23.0283 50.9709Z" fill="url(#paint8_linear_24_4984)"/>
<path d="M30.667 50.9709C28.1203 50.9709 25.574 50.9709 23.0273 50.9709C23.6917 46.7798 24.356 42.5883 25.0203 38.3972C26.9027 38.3972 28.7846 38.3972 30.667 38.3972C30.667 42.5883 30.667 46.7794 30.667 50.9709Z" fill="url(#paint9_linear_24_4984)"/>
<path d="M38.3076 50.9709C35.7609 50.9709 33.2147 50.9709 30.668 50.9709C30.668 46.7798 30.668 42.5883 30.668 38.3972C32.5503 38.3972 34.4323 38.3972 36.3147 38.3972C36.979 42.5883 37.6433 46.7794 38.3076 50.9709Z" fill="url(#paint10_linear_24_4984)"/>
<path d="M45.947 50.9709C43.4003 50.9709 40.8541 50.9709 38.3074 50.9709C37.6431 46.7798 36.9788 42.5883 36.3145 38.3972C38.1968 38.3972 40.0788 38.3972 41.9611 38.3972C43.2898 42.5883 44.6184 46.7794 45.947 50.9709Z" fill="url(#paint11_linear_24_4984)"/>
<path d="M53.5865 50.9709C51.0398 50.9709 48.4935 50.9709 45.9468 50.9709C44.6182 46.7798 43.2896 42.5883 41.9609 38.3972C43.8433 38.3972 45.7253 38.3972 47.6076 38.3972C49.6006 42.5883 51.5931 46.7794 53.5865 50.9709Z" fill="url(#paint12_linear_24_4984)"/>
<path d="M53.4522 38.6477C53.3288 38.4531 53.1145 38.3677 52.8844 38.3677C51.1254 38.3677 49.3664 38.3677 47.6074 38.3677C49.6004 42.6117 51.5929 46.9675 53.5863 50.8761C56.1325 50.8761 58.6792 50.8761 61.2259 50.8761C58.6344 46.9675 56.0433 42.7351 53.4522 38.6477Z" fill="url(#paint13_linear_24_4984)"/>
<path d="M0 50.8765V53.0546C0 54.8687 1.84394 56.2373 3.9479 56.2373H4.02987C6.13382 56.2373 7.82151 54.8687 7.82151 53.0546V50.8765H0Z" fill="url(#paint14_linear_24_4984)"/>
<path d="M7.82227 50.8765V53.0546C7.82227 54.8687 9.44847 56.2373 11.517 56.2373H11.5977C13.6662 56.2373 15.3086 54.8687 15.3086 53.0546V50.8765H7.82227Z" fill="url(#paint15_linear_24_4984)"/>
<path d="M15.3066 50.8765V53.0546C15.3066 54.8687 17.1079 56.2373 19.2118 56.2373H19.2938C21.3978 56.2373 23.0163 54.8687 23.0163 53.0546V50.8765H15.3066Z" fill="url(#paint16_linear_24_4984)"/>
<path d="M23.0156 50.8765V53.0546C23.0156 54.8687 24.711 56.2373 26.7795 56.2373H26.8602C28.9287 56.2373 30.6134 54.8687 30.6134 53.0546V50.8765H23.0156Z" fill="url(#paint17_linear_24_4984)"/>
<path d="M30.6152 50.8765V53.0546C30.6152 54.8687 32.3742 56.2373 34.4782 56.2373H34.5601C36.6641 56.2373 38.213 54.8687 38.213 53.0546V50.8765H30.6152Z" fill="url(#paint18_linear_24_4984)"/>
<path d="M38.2129 50.8765V53.0546C38.2129 54.8687 39.9774 56.2373 42.0459 56.2373H42.1266C44.1951 56.2373 45.9225 54.8687 45.9225 53.0546V50.8765H38.2129Z" fill="url(#paint19_linear_24_4984)"/>
<path d="M45.9219 50.8765V53.0546C45.9219 54.8687 47.6382 56.2373 49.7421 56.2373H49.8241C51.928 56.2373 53.6315 54.8687 53.6315 53.0546V50.8765H45.9219Z" fill="url(#paint20_linear_24_4984)"/>
<path d="M53.6309 50.8765V53.0546C53.6309 54.8687 55.2413 56.2373 57.3098 56.2373H57.3905C59.459 56.2373 61.1172 54.8687 61.1172 53.0546V50.8765H53.6309Z" fill="url(#paint21_linear_24_4984)"/>
<path opacity="0.7" d="M42.699 65.9215C42.5569 65.7469 42.334 65.6744 42.0979 65.6795L20.5781 66.1306L20.0346 64.4044C19.959 64.1641 19.7327 64.0101 19.477 64.0165L16.5226 64.0942C16.2058 64.1023 15.9492 64.3229 15.9492 64.6387C15.9492 64.9549 16.2058 65.1623 16.5226 65.1546L19.0475 65.0949L23.6162 79.6875C23.693 79.9333 23.9236 80.1018 24.1853 80.1057L39.2899 80.3084C39.6443 80.3131 39.932 80.0907 39.932 79.7557C39.932 79.4207 39.6443 79.1916 39.2899 79.1877L24.6259 79.0298L23.4488 75.2412L39.5632 75.2655C39.8932 75.2659 40.1839 75.05 40.2766 74.7509L42.8199 66.5313C42.886 66.3171 42.8416 66.0965 42.699 65.9215Z" fill="white"/>
<path opacity="0.7" d="M26.3947 81.0065C25.1519 80.9873 24.1465 81.9539 24.1465 83.1616C24.1465 84.3693 25.1519 85.3781 26.3947 85.4105C27.6448 85.4434 28.6678 84.4768 28.6678 83.2559C28.6678 82.035 27.6452 81.0257 26.3947 81.0065ZM26.3947 84.2361C25.8137 84.2225 25.3423 83.7518 25.3423 83.1863C25.3423 82.6213 25.8137 82.1698 26.3947 82.1805C26.9771 82.1912 27.4523 82.6623 27.4523 83.2303C27.4527 83.7987 26.9775 84.2498 26.3947 84.2361Z" fill="white"/>
<path opacity="0.7" d="M36.4632 81.1627C35.1589 81.1422 34.1035 82.1323 34.1035 83.3694C34.1035 84.6066 35.1585 85.6406 36.4632 85.6747C37.7756 85.7093 38.8494 84.7196 38.8494 83.4684C38.8494 82.2176 37.7756 81.1832 36.4632 81.1627ZM36.4632 84.4717C35.8535 84.4576 35.3587 83.975 35.3587 83.3959C35.3587 82.8168 35.8535 82.3551 36.4632 82.3661C37.0746 82.3772 37.5732 82.8603 37.5732 83.4424C37.5737 84.0241 37.0746 84.4862 36.4632 84.4717Z" fill="white"/>
<path opacity="0.7" d="M44.5654 99.5789H17.2922C17.0565 99.5789 16.8652 99.3877 16.8652 99.1522V91.3103C16.8652 91.0747 17.0565 90.8835 17.2922 90.8835H44.5654C44.8011 90.8835 44.9924 91.0747 44.9924 91.3103V99.1522C44.9924 99.3877 44.8011 99.5789 44.5654 99.5789Z" fill="white"/>
<path opacity="0.7" d="M43.1146 105.955H18.1613C17.9256 105.955 17.7344 105.764 17.7344 105.528V102.324C17.7344 102.088 17.9256 101.897 18.1613 101.897H43.1146C43.3502 101.897 43.5415 102.088 43.5415 102.324V105.528C43.5415 105.764 43.3502 105.955 43.1146 105.955Z" fill="white"/>
<path d="M80.6195 55.6812C80.6195 55.6812 79.2521 56.3461 79.0006 57.11C78.7986 57.7228 77.2869 57.8017 77.1374 59.0073C77.0601 59.6295 76.5995 60.1279 75.9796 60.2231C74.4353 60.4595 72.0552 61.2613 71.6743 63.9417C71.3836 65.9876 72.427 66.7634 73.5221 67.0318C74.3265 67.229 74.861 68.0108 74.6983 68.8224C74.5425 69.6008 74.7752 70.5008 76.1243 71.2122C79.1479 72.807 82.1672 67.4342 82.1672 67.4342L82.7858 58.0535L80.6195 55.6812Z" fill="url(#paint22_linear_24_4984)"/>
<path d="M97.0709 53.457C97.0709 53.457 91.034 63.0012 83.8555 64.8448C83.8555 64.8448 85.2541 68.8267 86.3338 69.2825C86.3338 69.2825 95.1655 61.9169 97.4351 54.8132L97.0709 53.457Z" fill="url(#paint23_linear_24_4984)"/>
<path d="M68.1915 114.502L67.9959 116.11C67.9588 116.415 67.7184 116.656 67.4132 116.691C66.8974 116.75 66.07 116.81 65.2605 116.725C64.9053 116.687 64.6744 116.327 64.7828 115.987C64.98 115.367 65.3412 114.435 65.8617 113.887H67.6458C67.9759 113.886 68.2312 114.175 68.1915 114.502Z" fill="url(#paint24_linear_24_4984)"/>
<path d="M82.1656 95.6691L82.4666 97.4396C82.4666 97.4396 81.4582 107.65 81.2789 111.734C81.2507 112.374 81.4164 113.007 81.7528 113.553L83.5062 116.4L79.0494 113.771L78.9606 113.227L79.6903 112.224L78.7348 100.786C78.6789 100.114 78.8172 99.4398 79.1344 98.8445L80.0562 97.1136L82.1656 95.6691Z" fill="url(#paint25_linear_24_4984)"/>
<path d="M83.8007 116.812H82.3786C82.1122 116.812 81.8612 116.69 81.6989 116.479C81.2553 115.904 80.337 114.78 79.8977 114.751C79.3064 114.711 79.3819 116.812 79.3819 116.812H79.0506L78.6309 114.201C78.5255 113.545 78.8521 112.894 79.4421 112.586C79.4421 112.586 79.5775 113.585 80.3101 114.027C81.0427 114.469 83.2927 116.052 83.2927 116.052C83.2927 116.052 83.5681 116.012 83.8708 116.067C84.3195 116.148 84.2567 116.812 83.8007 116.812Z" fill="url(#paint26_linear_24_4984)"/>
<path d="M76.0625 96.5097C76.0625 96.5097 70.1545 107.712 69.2153 110.269C68.276 112.827 67.9473 114.961 67.9345 115.162C67.9148 115.478 67.522 115.781 66.4389 115.781C65.88 115.781 65.6064 115.557 65.4723 115.34C65.3579 115.155 65.3519 114.924 65.4484 114.729C65.7899 114.037 66.8748 111.828 67.2765 110.826C67.756 109.63 68.7879 104.208 69.3536 102.323C69.9193 100.438 70.5588 98.3929 73.0227 96.5093C73.0223 96.5097 74.7134 94.8544 76.0625 96.5097Z" fill="url(#paint27_linear_24_4984)"/>
<path d="M79.7937 78.155C81.3178 71.7 77.457 68.0492 77.457 68.0492C79.8931 65.7119 84.3316 64.6484 84.3316 64.6484C84.3316 64.6484 88.5668 67.7436 88.0643 70.1658C87.7697 71.5856 85.0873 78.6705 85.0873 78.6705C85.0873 78.6705 82.6068 79.8436 79.7937 78.155Z" fill="url(#paint28_linear_24_4984)"/>
<path d="M76.4151 81.3504C77.0355 79.483 79.7939 78.155 79.7939 78.155C82.607 79.8436 85.0875 78.6705 85.0875 78.6705C85.0875 78.6705 85.6438 80.7957 85.26 82.7711C84.8762 84.7461 82.467 97.4401 82.467 97.4401C78.6715 98.2086 72.834 96.6668 72.834 96.6668C75.2517 92.3759 75.7948 83.2183 76.4151 81.3504Z" fill="url(#paint29_linear_24_4984)"/>
<path d="M81.563 60.3822L80.324 65.9453C80.2053 66.4352 80.6523 66.355 81.148 66.2615C81.9596 66.1087 83.0056 65.7934 83.3557 65.1622C83.3911 65.0978 83.4091 65.0252 83.4193 64.9527L83.9517 61.0949C83.994 60.7889 83.8283 60.4919 83.5457 60.3664L82.5185 59.9111C82.1227 59.7366 81.6646 59.9623 81.563 60.3822Z" fill="url(#paint30_linear_24_4984)"/>
<path d="M83.9373 55.3112C83.9373 55.3112 85.2565 56.2035 85.8231 58.4768C86.3896 60.7501 85.4687 61.5652 84.5243 61.5153C83.5799 61.4653 82.2111 61.1734 81.0247 59.5428C79.8391 57.9118 82.2086 54.2205 83.9373 55.3112Z" fill="url(#paint31_linear_24_4984)"/>
<path d="M82.2205 58.6258C82.2205 58.6258 81.7372 55.3689 84.4423 55.8669L84.9892 56.4362C84.9892 56.4362 86.3136 54.9455 84.8479 53.8189C83.3822 52.6923 81.3491 52.9808 80.2241 55.0322C79.0992 57.0835 78.691 58.5247 79.6337 59.7993C80.5768 61.074 81.2859 59.9807 81.2859 59.9807C81.2859 59.9807 80.8534 58.8776 81.2125 58.4043C81.5711 57.931 82.0344 58.6796 82.0344 58.6796L82.2205 58.6258Z" fill="url(#paint32_linear_24_4984)"/>
<path d="M82.0918 59.1952C82.0918 59.1952 81.8532 57.5186 80.9971 57.9981C80.1411 58.4775 81.3058 59.5641 81.7729 59.9338L82.0918 59.1952Z" fill="url(#paint33_linear_24_4984)"/>
<path d="M97.0294 55.4218C97.0478 55.6185 96.3151 55.7547 96.082 54.9153C96.1461 54.5508 96.2601 52.9552 96.5393 52.7073C98.028 51.3869 100.683 49.9014 100.683 49.9014C100.979 50.3546 100.59 50.6529 100.59 50.6529L99.2649 51.547C99.4032 52.0044 99.6047 52.4094 99.6278 52.9317C99.6448 53.3273 99.4988 53.7148 99.2363 54.0148C98.9724 54.3161 98.6176 54.7049 98.2974 55.0002C97.692 55.5597 97.0294 55.4218 97.0294 55.4218Z" fill="url(#paint34_linear_24_4984)"/>
<path d="M97.7483 54.7715L97.5459 54.6882C97.5728 54.623 98.2089 53.0781 98.5163 52.7568C98.6333 52.6347 98.6897 52.5306 98.6845 52.4465C98.682 52.4009 98.6594 52.3561 98.6167 52.31L97.5446 52.8831L97.0712 53.6244L96.8867 53.5062L97.3909 52.7167L98.647 52.0454L98.7038 52.0915C98.831 52.1952 98.8963 52.307 98.904 52.4325C98.9134 52.5823 98.8387 52.7376 98.6756 52.9079C98.4429 53.1503 97.9272 54.3353 97.7483 54.7715Z" fill="url(#paint35_linear_24_4984)"/>
<path d="M81.1756 81.5608C81.1841 81.5612 81.1926 81.5612 81.2012 81.5612L92.2704 81.5493C92.5441 81.5489 92.7657 81.3294 92.7652 81.0587C92.7648 80.7881 92.5419 80.5643 92.2691 80.569L81.1999 80.581C80.9262 80.5814 80.7047 80.8009 80.7051 81.0715C80.7051 81.3337 80.9139 81.548 81.1756 81.5608Z" fill="url(#paint36_linear_24_4984)"/>
<path d="M102.222 71.6206H93.0031C92.323 71.6206 91.7039 72.0089 91.414 72.6171L87.1523 81.5544H98.6088C99.0473 81.5544 99.4409 81.2894 99.6019 80.8865L102.907 72.6162C103.098 72.1383 102.742 71.6206 102.222 71.6206Z" fill="url(#paint37_linear_24_4984)"/>
<path d="M97.0995 76.6514C97.3017 76.038 97.1572 75.4393 96.7767 75.3139C96.3962 75.1886 95.9239 75.5842 95.7216 76.1975C95.5194 76.8108 95.6639 77.4096 96.0444 77.5349C96.4249 77.6603 96.8972 77.2647 97.0995 76.6514Z" fill="#91B3FA"/>
<path d="M77.4408 68.0624C75.9303 69.5859 74.0142 76.3383 74.965 77.4662C75.8022 78.7793 78.6525 80.5665 81.3665 80.569H85.3712C83.6886 78.7818 82.5299 78.3286 81.15 79.5781C80.0549 79.1104 78.6354 77.2989 77.6876 76.4902C77.3157 76.1727 77.2278 75.6307 77.4767 75.21C78.2294 73.9361 79.1737 72.6264 79.4739 71.3577C79.5379 69.8709 78.4373 68.1695 77.4408 68.0624Z" fill="url(#paint38_linear_24_4984)"/>
<defs>
<linearGradient id="paint0_linear_24_4984" x1="62.6464" y1="14.2498" x2="96.005" y2="14.2498" gradientUnits="userSpaceOnUse">
<stop stop-color="#4F52FF"/>
<stop offset="1" stop-color="#4042E2"/>
</linearGradient>
<linearGradient id="paint1_linear_24_4984" x1="52.6638" y1="14.0579" x2="86.0225" y2="14.0579" gradientUnits="userSpaceOnUse">
<stop stop-color="#4F52FF"/>
<stop offset="1" stop-color="#4042E2"/>
</linearGradient>
<linearGradient id="paint2_linear_24_4984" x1="85.3491" y1="23.5942" x2="88.6856" y2="24.1277" gradientUnits="userSpaceOnUse">
<stop stop-color="#09005D"/>
<stop offset="1" stop-color="#1A0F91"/>
</linearGradient>
<linearGradient id="paint3_linear_24_4984" x1="39.6347" y1="114.523" x2="23.358" y2="92.0256" gradientUnits="userSpaceOnUse">
<stop stop-color="#FF928E"/>
<stop offset="1" stop-color="#FE7062"/>
</linearGradient>
<linearGradient id="paint4_linear_24_4984" x1="30.5097" y1="6.16013" x2="30.9443" y2="91.3817" gradientUnits="userSpaceOnUse">
<stop stop-color="#09005D"/>
<stop offset="1" stop-color="#1A0F91"/>
</linearGradient>
<linearGradient id="paint5_linear_24_4984" x1="31.0086" y1="23.6303" x2="30.7939" y2="36.7311" gradientUnits="userSpaceOnUse">
<stop stop-color="#4042E2"/>
<stop offset="1" stop-color="#4F52FF"/>
</linearGradient>
<linearGradient id="paint6_linear_24_4984" x1="6.91848" y1="54.7719" x2="6.91848" y2="111.794" gradientUnits="userSpaceOnUse">
<stop stop-color="#4042E2"/>
<stop offset="1" stop-color="#4F52FF"/>
</linearGradient>
<linearGradient id="paint7_linear_24_4984" x1="13.571" y1="45.0482" x2="13.972" y2="59.7306" gradientUnits="userSpaceOnUse">
<stop stop-color="#FF928E"/>
<stop offset="1" stop-color="#FE7062"/>
</linearGradient>
<linearGradient id="paint8_linear_24_4984" x1="20.2051" y1="54.8865" x2="20.2051" y2="112.206" gradientUnits="userSpaceOnUse">
<stop stop-color="#4042E2"/>
<stop offset="1" stop-color="#4F52FF"/>
</linearGradient>
<linearGradient id="paint9_linear_24_4984" x1="26.8572" y1="45.0511" x2="27.2617" y2="59.8602" gradientUnits="userSpaceOnUse">
<stop stop-color="#FF928E"/>
<stop offset="1" stop-color="#FE7062"/>
</linearGradient>
<linearGradient id="paint10_linear_24_4984" x1="34.4878" y1="54.8865" x2="34.4878" y2="112.206" gradientUnits="userSpaceOnUse">
<stop stop-color="#4042E2"/>
<stop offset="1" stop-color="#4F52FF"/>
</linearGradient>
<linearGradient id="paint11_linear_24_4984" x1="41.1401" y1="45.0268" x2="41.548" y2="59.9626" gradientUnits="userSpaceOnUse">
<stop stop-color="#FF928E"/>
<stop offset="1" stop-color="#FE7062"/>
</linearGradient>
<linearGradient id="paint12_linear_24_4984" x1="47.7736" y1="54.8865" x2="47.7736" y2="112.206" gradientUnits="userSpaceOnUse">
<stop stop-color="#4042E2"/>
<stop offset="1" stop-color="#4F52FF"/>
</linearGradient>
<linearGradient id="paint13_linear_24_4984" x1="54.4259" y1="44.9664" x2="54.8352" y2="59.9528" gradientUnits="userSpaceOnUse">
<stop stop-color="#FF928E"/>
<stop offset="1" stop-color="#FE7062"/>
</linearGradient>
<linearGradient id="paint14_linear_24_4984" x1="3.93028" y1="47.2145" x2="3.85992" y2="64.319" gradientUnits="userSpaceOnUse">
<stop stop-color="#4042E2"/>
<stop offset="1" stop-color="#4F52FF"/>
</linearGradient>
<linearGradient id="paint15_linear_24_4984" x1="11.2682" y1="7.43731" x2="11.413" y2="29.1752" gradientUnits="userSpaceOnUse">
<stop stop-color="#FF928E"/>
<stop offset="1" stop-color="#FE7062"/>
</linearGradient>
<linearGradient id="paint16_linear_24_4984" x1="19.1811" y1="47.2149" x2="19.1107" y2="64.3185" gradientUnits="userSpaceOnUse">
<stop stop-color="#4042E2"/>
<stop offset="1" stop-color="#4F52FF"/>
</linearGradient>
<linearGradient id="paint17_linear_24_4984" x1="26.5169" y1="7.33573" x2="26.6617" y2="29.0737" gradientUnits="userSpaceOnUse">
<stop stop-color="#FF928E"/>
<stop offset="1" stop-color="#FE7062"/>
</linearGradient>
<linearGradient id="paint18_linear_24_4984" x1="34.4339" y1="47.2154" x2="34.3635" y2="64.318" gradientUnits="userSpaceOnUse">
<stop stop-color="#4042E2"/>
<stop offset="1" stop-color="#4F52FF"/>
</linearGradient>
<linearGradient id="paint19_linear_24_4984" x1="41.7695" y1="7.23408" x2="41.9144" y2="28.972" gradientUnits="userSpaceOnUse">
<stop stop-color="#FF928E"/>
<stop offset="1" stop-color="#FE7062"/>
</linearGradient>
<linearGradient id="paint20_linear_24_4984" x1="49.7964" y1="47.2147" x2="49.7261" y2="64.3194" gradientUnits="userSpaceOnUse">
<stop stop-color="#4042E2"/>
<stop offset="1" stop-color="#4F52FF"/>
</linearGradient>
<linearGradient id="paint21_linear_24_4984" x1="57.075" y1="7.13209" x2="57.2198" y2="28.87" gradientUnits="userSpaceOnUse">
<stop stop-color="#FF928E"/>
<stop offset="1" stop-color="#FE7062"/>
</linearGradient>
<linearGradient id="paint22_linear_24_4984" x1="83.0248" y1="50.2097" x2="78.9714" y2="60.3822" gradientUnits="userSpaceOnUse">
<stop stop-color="#09005D"/>
<stop offset="1" stop-color="#1A0F91"/>
</linearGradient>
<linearGradient id="paint23_linear_24_4984" x1="100.666" y1="35.7025" x2="81.8324" y2="81.2132" gradientUnits="userSpaceOnUse">
<stop stop-color="#FEBBBA"/>
<stop offset="1" stop-color="#FF928E"/>
</linearGradient>
<linearGradient id="paint24_linear_24_4984" x1="68.1955" y1="115.327" x2="64.7558" y2="115.327" gradientUnits="userSpaceOnUse">
<stop stop-color="#09005D"/>
<stop offset="1" stop-color="#1A0F91"/>
</linearGradient>
<linearGradient id="paint25_linear_24_4984" x1="74.6453" y1="113.144" x2="99.5727" y2="90.8149" gradientUnits="userSpaceOnUse">
<stop stop-color="#FEBBBA"/>
<stop offset="1" stop-color="#FF928E"/>
</linearGradient>
<linearGradient id="paint26_linear_24_4984" x1="84.1769" y1="114.699" x2="78.6111" y2="114.699" gradientUnits="userSpaceOnUse">
<stop stop-color="#09005D"/>
<stop offset="1" stop-color="#1A0F91"/>
</linearGradient>
<linearGradient id="paint27_linear_24_4984" x1="73.4308" y1="97.4838" x2="65.7526" y2="116.326" gradientUnits="userSpaceOnUse">
<stop stop-color="#FEBBBA"/>
<stop offset="1" stop-color="#FF928E"/>
</linearGradient>
<linearGradient id="paint28_linear_24_4984" x1="83.7431" y1="-51.2757" x2="83.4534" y2="-15.0458" gradientUnits="userSpaceOnUse">
<stop stop-color="#4042E2"/>
<stop offset="1" stop-color="#4F52FF"/>
</linearGradient>
<linearGradient id="paint29_linear_24_4984" x1="85.7842" y1="80.7452" x2="99.6946" y2="62.0446" gradientUnits="userSpaceOnUse">
<stop stop-color="#09005D"/>
<stop offset="1" stop-color="#1A0F91"/>
</linearGradient>
<linearGradient id="paint30_linear_24_4984" x1="98.0384" y1="46.5877" x2="74.3456" y2="71.161" gradientUnits="userSpaceOnUse">
<stop stop-color="#FEBBBA"/>
<stop offset="1" stop-color="#FF928E"/>
</linearGradient>
<linearGradient id="paint31_linear_24_4984" x1="84.9298" y1="63.695" x2="79.781" y2="47.9609" gradientUnits="userSpaceOnUse">
<stop stop-color="#FEBBBA"/>
<stop offset="1" stop-color="#FF928E"/>
</linearGradient>
<linearGradient id="paint32_linear_24_4984" x1="85.6605" y1="51.0277" x2="79.7078" y2="60.2196" gradientUnits="userSpaceOnUse">
<stop stop-color="#09005D"/>
<stop offset="1" stop-color="#1A0F91"/>
</linearGradient>
<linearGradient id="paint33_linear_24_4984" x1="83.2873" y1="64.604" x2="78.1343" y2="48.8643" gradientUnits="userSpaceOnUse">
<stop stop-color="#FEBBBA"/>
<stop offset="1" stop-color="#FF928E"/>
</linearGradient>
<linearGradient id="paint34_linear_24_4984" x1="104.563" y1="37.3154" x2="85.7296" y2="82.8261" gradientUnits="userSpaceOnUse">
<stop stop-color="#FEBBBA"/>
<stop offset="1" stop-color="#FF928E"/>
</linearGradient>
<linearGradient id="paint35_linear_24_4984" x1="104.853" y1="27.0178" x2="96.5963" y2="57.8874" gradientUnits="userSpaceOnUse">
<stop stop-color="#FEBBBA"/>
<stop offset="1" stop-color="#FF928E"/>
</linearGradient>
<linearGradient id="paint36_linear_24_4984" x1="79.2981" y1="78.625" x2="88.0846" y2="81.5068" gradientUnits="userSpaceOnUse">
<stop stop-color="#09005D"/>
<stop offset="1" stop-color="#1A0F91"/>
</linearGradient>
<linearGradient id="paint37_linear_24_4984" x1="91.3922" y1="72.9378" x2="97.6797" y2="79.5863" gradientUnits="userSpaceOnUse">
<stop stop-color="#09005D"/>
<stop offset="1" stop-color="#1A0F91"/>
</linearGradient>
<linearGradient id="paint38_linear_24_4984" x1="66.1896" y1="80.6783" x2="85.6342" y2="72.5402" gradientUnits="userSpaceOnUse">
<stop stop-color="#FEBBBA"/>
<stop offset="1" stop-color="#FF928E"/>
</linearGradient>
</defs>
</svg>
