<svg width="120" height="90" viewBox="0 0 120 90" fill="none" xmlns="http://www.w3.org/2000/svg">
<g clip-path="url(#clip0_24_5782)">
<path d="M14.035 17.2112C14.035 17.2112 24.9834 7.63059 38.4403 12.194C51.8972 16.7575 62.3897 37.5112 75.3907 38.1961C88.3918 38.8811 100.481 31.809 110.744 37.9671C121.008 44.1251 122.834 70.8121 103.216 73.5498C83.6015 76.2874 72.6531 66.4799 64.2133 66.9358C55.7736 67.3917 35.2468 77.6551 19.0522 73.0939C2.8576 68.5326 -11.738 37.0553 14.035 17.2112Z" fill="#E8772B" fill-opacity="0.55"/>
<g opacity="0.46">
<path d="M87.1834 18.7774H40.3841C39.8911 18.7774 39.5333 18.3128 39.6577 17.8372L44.027 1.05151C44.1142 0.719935 44.4131 0.488708 44.7534 0.488708H91.5527C92.0457 0.488708 92.4035 0.953343 92.2791 1.42888L87.9098 18.2146C87.8248 18.5462 87.5259 18.7774 87.1834 18.7774Z" fill="#E8772B"/>
<path d="M46.8027 4.07928H63.0867" stroke="#D8D8E1" stroke-width="0.751595" stroke-miterlimit="10" stroke-linecap="round" stroke-linejoin="round"/>
<path d="M45.5488 11.5963H61.835" stroke="#D8D8E1" stroke-width="0.751595" stroke-miterlimit="10" stroke-linecap="round" stroke-linejoin="round"/>
<path d="M52.3984 8.75616H68.6824" stroke="#D8D8E1" stroke-width="0.751595" stroke-miterlimit="10" stroke-linecap="round" stroke-linejoin="round"/>
<path d="M46.3848 6.58569H51.2711" stroke="#D8D8E1" stroke-width="0.751595" stroke-miterlimit="10" stroke-linecap="round" stroke-linejoin="round"/>
<path d="M45.7168 8.75616H50.6031" stroke="#D8D8E1" stroke-width="0.751595" stroke-miterlimit="10" stroke-linecap="round" stroke-linejoin="round"/>
<path d="M65.6758 4.07928H71.4783" stroke="#D8D8E1" stroke-width="0.751595" stroke-miterlimit="10" stroke-linecap="round" stroke-linejoin="round"/>
<path d="M68.5213 15.1214H59.8547C59.811 15.1214 59.7783 15.08 59.7892 15.0385L60.1775 13.5486C60.1862 13.5203 60.2124 13.4985 60.243 13.4985H68.9096C68.9532 13.4985 68.9859 13.5399 68.975 13.5814L68.5867 15.0713C68.578 15.1018 68.5497 15.1214 68.5213 15.1214Z" stroke="#D8D8E1" stroke-width="0.250532" stroke-miterlimit="10"/>
<path d="M57.7479 15.1214H49.0812C49.0376 15.1214 49.0049 15.08 49.0158 15.0385L49.4041 13.5486C49.4128 13.5203 49.439 13.4985 49.4695 13.4985H58.1361C58.1798 13.4985 58.2125 13.5399 58.2016 13.5814L57.8133 15.0713C57.8046 15.1018 57.7784 15.1214 57.7479 15.1214Z" stroke="#D8D8E1" stroke-width="0.250532" stroke-miterlimit="10"/>
<path d="M83.7534 12.9619C83.3084 12.3707 81.5066 11.9388 81.0093 11.3476C80.754 11.0444 80.754 10.4838 80.8151 10.0061C80.9918 9.89266 81.1401 9.77923 81.2274 9.67453C81.3779 9.45639 81.5459 9.15099 81.7138 8.81506C81.764 8.86523 81.8338 8.9045 81.9211 8.90232C82.1567 8.89577 83.0576 7.66984 82.8264 7.38407C82.6933 7.22265 82.4795 7.36226 82.3203 7.51278C82.558 6.96743 82.726 6.5486 82.726 6.5486H82.7173C82.7391 6.4788 82.7609 6.41118 82.7784 6.33919C83.1361 4.90602 82.2636 3.74335 80.8304 3.74335C79.3972 3.74335 77.9444 4.90602 77.5867 6.33919C77.5692 6.409 77.5561 6.4788 77.543 6.5486H77.5343C77.5343 6.5486 77.4929 6.96743 77.4602 7.51278C77.3751 7.36226 77.2311 7.22047 77.0173 7.38407C76.6443 7.66765 76.9323 8.89359 77.1657 8.90232C77.2529 8.9045 77.3402 8.86523 77.4165 8.81506C77.4187 9.15099 77.434 9.45639 77.4754 9.67453C77.5191 9.80323 77.6434 9.94502 77.807 10.0824C77.6281 10.5427 77.3576 11.0619 76.9737 11.3476C76.1797 11.9388 74.1641 12.3707 73.4246 12.9619C72.7593 13.4941 72.1659 15.0495 72.0547 15.3548H83.9301C83.9716 15.0473 84.1526 13.4941 83.7534 12.9619Z" fill="#D8D8E1"/>
</g>
<path d="M82.0428 35.1406H35.2434C34.7504 35.1406 34.3927 34.6759 34.517 34.2004L38.8863 17.4147C38.9736 17.0831 39.2725 16.8519 39.6127 16.8519H86.4121C86.9051 16.8519 87.2629 17.3165 87.1385 17.792L82.7692 34.5778C82.6841 34.9094 82.3853 35.1406 82.0428 35.1406Z" stroke="#D8D8E1" stroke-width="0.250532" stroke-miterlimit="10"/>
<path d="M81.1659 33.8863H34.3665C33.8735 33.8863 33.5157 33.4217 33.6401 32.9461L38.0094 16.1604C38.0967 15.8288 38.3955 15.5976 38.7358 15.5976H85.5352C86.0282 15.5976 86.3859 16.0622 86.2616 16.5378L81.8923 33.3235C81.8072 33.6551 81.5083 33.8863 81.1659 33.8863Z" fill="#E8772B"/>
<path d="M49.0508 33.8863H72.4766" stroke="#D8D8E1" stroke-width="0.250532" stroke-miterlimit="10"/>
<path d="M42.5371 15.5976H62.3288" stroke="#D8D8E1" stroke-width="0.250532" stroke-miterlimit="10"/>
<path d="M77.3882 31.3821H66.8652C66.381 31.3821 66.0865 30.9894 66.2065 30.5051L68.8612 19.8578C68.9812 19.3735 69.472 18.9809 69.9563 18.9809H80.4792C80.9635 18.9809 81.258 19.3735 81.138 19.8578L78.4833 30.5051C78.3633 30.9894 77.8725 31.3821 77.3882 31.3821Z" fill="#B7DEFF"/>
<path d="M72.2233 31.4235L73.1438 27.7305L71.6343 27.0913C71.6343 27.0913 68.8203 28.1209 68.5804 28.3696C68.3797 28.579 67.3697 30.732 67.0469 31.4235H72.2233Z" fill="#023F61"/>
<path d="M77.4338 31.4235C77.4578 30.732 77.521 28.5768 77.425 28.3696C77.3094 28.1209 75.0103 27.0913 75.0103 27.0913L73.1823 27.7305L72.2617 31.4235H77.4338Z" fill="#023F61"/>
<path d="M73.1757 31.4235L74.6176 28.2278L71.52 28.4045L71.2168 31.4235H73.1757Z" fill="#BEBECF"/>
<path d="M72.1954 26.4151L71.5191 26.8427L71.0763 27.9072L70.9629 29.3643L71.9118 28.9739L72.6491 29.8617L73.6351 29.0437L74.2393 29.613L75.1511 27.6585L74.9919 26.4522L74.6102 26.2733L72.1954 26.4151Z" fill="#DEE0E8"/>
<path d="M72.4027 23.6207C72.4027 23.6207 72.1758 23.1059 71.7112 23.4484C71.2465 23.7908 71.7897 25.1128 72.1278 24.7157C72.4637 24.3166 72.4027 23.6207 72.4027 23.6207Z" fill="#FB8E74"/>
<path d="M75.7142 23.5924C75.7142 23.5924 76.1548 23.047 76.4886 23.3524C76.8223 23.6578 75.7273 25.0561 75.5462 24.6831C75.3652 24.3079 75.7142 23.5924 75.7142 23.5924Z" fill="#FB8E74"/>
<path d="M74.6785 27.4469L75.154 24.9252L72.4033 25.1629L71.7969 27.5297C71.7969 27.5297 72.2768 28.651 72.7938 29.1483C72.7916 29.1505 74.3927 27.7675 74.6785 27.4469Z" fill="#FB8877"/>
<path d="M76.9093 22.5758C76.8068 22.8834 76.5537 22.9598 76.5363 23.1386C76.5166 23.3175 76.4032 23.7778 76.2287 23.9566C76.0542 24.1355 75.9626 24.1857 75.9626 24.1857C75.9626 24.1857 73.6023 24.851 72.4047 23.9305C72.4047 23.9305 72.3262 23.5814 72.4091 23.1648C72.4898 22.7525 72.2891 22.6784 72.5225 22.4755C72.7559 22.2704 72.8257 22.0916 72.8301 21.8625C72.8345 21.6335 72.8541 21.3521 73.0919 21.1208C73.3296 20.8896 73.5456 20.9681 73.779 20.7631C73.779 20.7631 74.1237 20.185 74.5774 20.1196C75.0311 20.0541 75.9909 19.812 76.5603 20.5144C77.1296 21.2146 76.8678 21.8298 77.0314 22.0479C77.1972 22.2639 76.9093 22.5758 76.9093 22.5758Z" fill="#713336"/>
<path d="M72.3837 23.1866C72.3837 23.1866 71.269 26.2536 73.3675 26.4848C75.2217 26.5285 75.8782 24.2664 76.1444 23.1059C76.4105 21.9454 76.2447 20.7325 74.7614 20.7718C73.278 20.8111 72.5473 22.4995 72.3837 23.1866Z" fill="#FBA990"/>
<path d="M72.9645 22.085C72.9645 22.085 73.102 22.3315 72.9754 22.578C72.8489 22.8267 72.5043 22.9205 72.4519 23.2477C72.3996 23.5749 72.249 24.2555 72.1552 24.286C72.0636 24.3166 72.1291 23.6207 72.1443 23.3829C72.1596 23.1452 72.3363 22.1614 72.8315 21.5353C73.3266 20.9092 73.632 20.6453 74.5133 20.5035C75.3946 20.3595 76.0621 20.7304 76.3064 21.2692C76.5507 21.8058 76.1603 23.1757 76.1603 23.1757C76.1603 23.1757 76.2192 22.5257 76.001 22.373C75.7829 22.2203 75.604 22.1068 75.6389 22.0174C75.676 21.928 74.9409 22.2508 74.2079 22.0152C73.475 21.7796 73.2372 21.8865 73.1172 21.9629C72.9951 22.0392 72.9645 22.085 72.9645 22.085Z" fill="#713336"/>
<path d="M70.8903 27.9421C70.8728 28.0141 69.8672 30.4092 69.8672 30.4092L70.7506 30.852L70.502 31.3494" stroke="#022755" stroke-width="0.106539" stroke-miterlimit="10"/>
<path d="M75.2409 27.942C75.2235 28.014 75.0337 30.4092 75.0337 30.4092L73.9277 30.852V31.3493" stroke="#022755" stroke-width="0.106539" stroke-miterlimit="10"/>
<path d="M77.3882 31.3821H66.8652C66.381 31.3821 66.0865 30.9894 66.2065 30.5051L68.8612 19.8578C68.9812 19.3735 69.472 18.9809 69.9563 18.9809H80.4792C80.9635 18.9809 81.258 19.3735 81.138 19.8578L78.4833 30.5051C78.3633 30.9894 77.8725 31.3821 77.3882 31.3821Z" stroke="white" stroke-width="0.250532" stroke-miterlimit="10"/>
<path d="M40.7832 19.607H57.0672" stroke="#D8D8E1" stroke-width="0.751595" stroke-miterlimit="10" stroke-linecap="round" stroke-linejoin="round"/>
<path d="M39.5312 27.1218H55.8153" stroke="#D8D8E1" stroke-width="0.751595" stroke-miterlimit="10" stroke-linecap="round" stroke-linejoin="round"/>
<path d="M46.3789 24.2839H62.6629" stroke="#D8D8E1" stroke-width="0.751595" stroke-miterlimit="10" stroke-linecap="round" stroke-linejoin="round"/>
<path d="M40.3672 22.1112H45.2513" stroke="#D8D8E1" stroke-width="0.751595" stroke-miterlimit="10" stroke-linecap="round" stroke-linejoin="round"/>
<path d="M39.6973 24.2839H44.5836" stroke="#D8D8E1" stroke-width="0.751595" stroke-miterlimit="10" stroke-linecap="round" stroke-linejoin="round"/>
<path d="M59.6582 19.607H65.4629" stroke="#D8D8E1" stroke-width="0.751595" stroke-miterlimit="10" stroke-linecap="round" stroke-linejoin="round"/>
<path d="M62.5018 30.6491H53.8351C53.7915 30.6491 53.7588 30.6077 53.7697 30.5662L54.158 29.0764C54.1667 29.048 54.1929 29.0262 54.2234 29.0262H62.89C62.9337 29.0262 62.9664 29.0676 62.9555 29.1091L62.5672 30.599C62.5585 30.6273 62.5323 30.6491 62.5018 30.6491Z" stroke="#D8D8E1" stroke-width="0.250532" stroke-miterlimit="10"/>
<path d="M51.7283 30.6491H43.0617C43.0181 30.6491 42.9853 30.6077 42.9963 30.5662L43.3845 29.0764C43.3933 29.048 43.4194 29.0262 43.45 29.0262H52.1166C52.1602 29.0262 52.193 29.0676 52.1821 29.1091L51.7938 30.599C51.785 30.6273 51.7589 30.6491 51.7283 30.6491Z" stroke="#D8D8E1" stroke-width="0.250532" stroke-miterlimit="10"/>
<path d="M58.7031 10.7194H68.8509" stroke="#7094D8" stroke-width="0.250532" stroke-miterlimit="10"/>
<path d="M78.668 54.8553H31.8665C31.3735 54.8553 31.0157 54.3907 31.1401 53.9151L35.5094 37.1294C35.5967 36.7978 35.8955 36.5666 36.2358 36.5666H83.0352C83.5282 36.5666 83.8859 37.0312 83.7616 37.5068L79.3923 54.2925C79.3072 54.6241 79.0083 54.8553 78.668 54.8553Z" fill="#E8772B"/>
<path d="M38.2852 40.157H54.5692" stroke="#D8D8E1" stroke-width="0.751595" stroke-miterlimit="10" stroke-linecap="round" stroke-linejoin="round"/>
<path d="M37.0312 47.6719H53.3174" stroke="#D8D8E1" stroke-width="0.751595" stroke-miterlimit="10" stroke-linecap="round" stroke-linejoin="round"/>
<path d="M43.8809 44.8339H60.1649" stroke="#D8D8E1" stroke-width="0.751595" stroke-miterlimit="10" stroke-linecap="round" stroke-linejoin="round"/>
<path d="M37.8672 42.6613H42.7535" stroke="#D8D8E1" stroke-width="0.751595" stroke-miterlimit="10" stroke-linecap="round" stroke-linejoin="round"/>
<path d="M37.1992 44.8339H42.0855" stroke="#D8D8E1" stroke-width="0.751595" stroke-miterlimit="10" stroke-linecap="round" stroke-linejoin="round"/>
<path d="M57.1582 40.157H62.9629" stroke="#D8D8E1" stroke-width="0.751595" stroke-miterlimit="10" stroke-linecap="round" stroke-linejoin="round"/>
<path d="M60.0037 51.1992H51.3371C51.2935 51.1992 51.2607 51.1577 51.2716 51.1163L51.6599 49.6264C51.6687 49.598 51.6948 49.5762 51.7254 49.5762H60.392C60.4356 49.5762 60.4684 49.6177 60.4574 49.6591L60.0692 51.149C60.0604 51.1774 60.0343 51.1992 60.0037 51.1992Z" stroke="#D8D8E1" stroke-width="0.250532" stroke-miterlimit="10"/>
<path d="M49.2303 51.1992H40.5636C40.52 51.1992 40.4873 51.1577 40.4982 51.1163L40.8865 49.6264C40.8952 49.598 40.9214 49.5762 40.9519 49.5762H49.6186C49.6622 49.5762 49.6949 49.6177 49.684 49.6591L49.2957 51.149C49.287 51.1774 49.2608 51.1992 49.2303 51.1992Z" stroke="#D8D8E1" stroke-width="0.250532" stroke-miterlimit="10"/>
<path d="M75.2359 49.0376C74.7909 48.4464 72.989 48.0145 72.4917 47.4233C72.2365 47.1201 72.2365 46.5595 72.2975 46.0818C72.4742 45.9683 72.6226 45.8549 72.7098 45.7502C72.8603 45.5321 73.0283 45.2267 73.1963 44.8907C73.2464 44.9409 73.3162 44.9802 73.4035 44.978C73.6391 44.9715 74.54 43.7455 74.3088 43.4598C74.1757 43.2983 73.9619 43.4379 73.8027 43.5885C74.0405 43.0431 74.2084 42.6243 74.2084 42.6243H74.1997C74.2215 42.5545 74.2433 42.4869 74.2608 42.4149C74.6185 40.9817 73.746 39.819 72.3128 39.819C70.8796 39.819 69.4268 40.9817 69.0691 42.4149C69.0516 42.4847 69.0386 42.5545 69.0255 42.6243H69.0167C69.0167 42.6243 68.9753 43.0431 68.9426 43.5885C68.8575 43.4379 68.7135 43.2962 68.4998 43.4598C68.1267 43.7433 68.4147 44.9693 68.6481 44.978C68.7353 44.9802 68.8226 44.9409 68.899 44.8907C68.9011 45.2267 68.9164 45.5321 68.9578 45.7502C69.0015 45.8789 69.1258 46.0207 69.2894 46.1581C69.1105 46.6184 68.8401 47.1376 68.4561 47.4233C67.6621 48.0145 65.6465 48.4464 64.907 49.0376C64.2417 49.5698 63.6484 51.1251 63.5371 51.4305H75.4126C75.454 51.1251 75.6351 49.5698 75.2359 49.0376Z" fill="#D8D8E1"/>
<g opacity="0.46">
<path d="M73.8221 77.2363H27.0227C26.5297 77.2363 26.172 76.7716 26.2963 76.2961L30.6656 59.5104C30.7529 59.1788 31.0518 58.9476 31.392 58.9476H78.1914C78.6844 58.9476 79.0422 59.4122 78.9178 59.8877L74.5485 76.6735C74.4634 77.0051 74.1646 77.2363 73.8221 77.2363Z" fill="#E8772B"/>
<path d="M33.4395 62.538H49.7257" stroke="#A9C2FF" stroke-width="0.751595" stroke-miterlimit="10" stroke-linecap="round" stroke-linejoin="round"/>
<path d="M32.1875 70.0529H48.4715" stroke="#A9C2FF" stroke-width="0.751595" stroke-miterlimit="10" stroke-linecap="round" stroke-linejoin="round"/>
<path d="M39.0352 67.2149H55.3214" stroke="#A9C2FF" stroke-width="0.751595" stroke-miterlimit="10" stroke-linecap="round" stroke-linejoin="round"/>
<path d="M33.0234 65.0422H37.9076" stroke="#A9C2FF" stroke-width="0.751595" stroke-miterlimit="10" stroke-linecap="round" stroke-linejoin="round"/>
<path d="M32.3555 67.2149H37.2396" stroke="#A9C2FF" stroke-width="0.751595" stroke-miterlimit="10" stroke-linecap="round" stroke-linejoin="round"/>
<path d="M52.3125 62.538H58.1172" stroke="#A9C2FF" stroke-width="0.751595" stroke-miterlimit="10" stroke-linecap="round" stroke-linejoin="round"/>
<path d="M55.158 73.5802H46.4914C46.4478 73.5802 46.415 73.5388 46.4259 73.4973L46.8142 72.0074C46.823 71.9791 46.8491 71.9573 46.8797 71.9573H55.5463C55.5899 71.9573 55.6226 71.9987 55.6117 72.0402L55.2235 73.5301C55.2147 73.5584 55.1886 73.5802 55.158 73.5802Z" stroke="#84AEE5" stroke-width="0.250532" stroke-miterlimit="10"/>
<path d="M44.3865 73.5802H35.7199C35.6763 73.5802 35.6436 73.5388 35.6545 73.4973L36.0427 72.0074C36.0515 71.9791 36.0776 71.9573 36.1082 71.9573H44.7748C44.8184 71.9573 44.8512 71.9987 44.8403 72.0402L44.452 73.5301C44.4432 73.5584 44.4149 73.5802 44.3865 73.5802Z" stroke="#84AEE5" stroke-width="0.250532" stroke-miterlimit="10"/>
<path d="M70.3902 71.4185C69.9452 70.8274 68.1433 70.3955 67.646 69.8043C67.3908 69.5011 67.3908 68.9405 67.4518 68.4628C67.6285 68.3493 67.7769 68.2359 67.8641 68.1312C68.0146 67.9131 68.1826 67.6077 68.3506 67.2717C68.4007 67.3219 68.4705 67.3612 68.5578 67.359C68.7934 67.3524 69.6943 66.1265 69.4631 65.8407C69.33 65.6793 69.1162 65.8189 68.957 65.9694C69.1948 65.4241 69.3627 65.0053 69.3627 65.0053H69.354C69.3758 64.9355 69.3976 64.8678 69.4151 64.7959C69.7728 63.3627 68.9003 62.2 67.4671 62.2C66.0339 62.2 64.5811 63.3627 64.2234 64.7959C64.2059 64.8657 64.1929 64.9355 64.1798 65.0053H64.171C64.171 65.0053 64.1296 65.4241 64.0969 65.9694C64.0118 65.8189 63.8678 65.6771 63.6541 65.8407C63.281 66.1243 63.569 67.3503 63.8024 67.359C63.8896 67.3612 63.9769 67.3219 64.0532 67.2717C64.0554 67.6077 64.0707 67.9131 64.1121 68.1312C64.1558 68.2599 64.2801 68.4017 64.4437 68.5391C64.2648 68.9994 63.9943 69.5186 63.6104 69.8043C62.8164 70.3955 60.8008 70.8274 60.0613 71.4185C59.396 71.9508 58.8027 73.5061 58.6914 73.8115H70.5669C70.6083 73.5061 70.7915 71.9508 70.3902 71.4185Z" fill="#8DBCF8"/>
</g>
<path d="M64.4668 77.3192H72.8171" stroke="#7094D8" stroke-width="0.250532" stroke-miterlimit="10"/>
<path d="M36.0723 54.9382H55.949" stroke="#7094D8" stroke-width="0.250532" stroke-miterlimit="10"/>
<path d="M60.498 54.9382H65.3429" stroke="#7094D8" stroke-width="0.250532" stroke-miterlimit="10"/>
<path d="M81.418 36.6495H83.0976C83.5906 36.6495 83.944 37.1272 83.7979 37.5984L83.0889 39.9063" stroke="#7094D8" stroke-width="0.250532" stroke-miterlimit="10"/>
<path d="M28.2459 6.13526H27.3887C27.1727 6.13526 27.0418 5.96075 27.0964 5.74697L27.3101 4.88969C27.3647 4.67373 27.5806 4.5014 27.7966 4.5014H28.6539C28.8698 4.5014 29.0007 4.67591 28.9462 4.88969L28.7324 5.74697C28.6779 5.96075 28.4597 6.13526 28.2459 6.13526Z" fill="#E8772B"/>
<path d="M26.6209 9.64612H25.7637C25.5477 9.64612 25.4168 9.47161 25.4714 9.25784L25.6851 8.40055C25.7397 8.1846 25.9556 8.01227 26.1716 8.01227H27.0289C27.2448 8.01227 27.3757 8.18678 27.3212 8.40055L27.1074 9.25784C27.0529 9.47161 26.8347 9.64612 26.6209 9.64612Z" fill="#D8D8E1"/>
<path d="M30.3456 8.64612H29.4883C29.2723 8.64612 29.1414 8.47161 29.196 8.25784L29.4097 7.40055C29.4643 7.1846 29.6802 7.01227 29.8962 7.01227H30.7535C30.9694 7.01227 31.1003 7.18678 31.0458 7.40055L30.832 8.25784C30.7775 8.47161 30.5593 8.64612 30.3456 8.64612Z" fill="#E8772B"/>
<path d="M32.0702 9.64612H31.2129C30.9969 9.64612 30.866 9.47161 30.9206 9.25784L31.1343 8.40055C31.1889 8.1846 31.4048 8.01227 31.6208 8.01227H32.4781C32.694 8.01227 32.8249 8.18678 32.7704 8.40055L32.5566 9.25784C32.5021 9.47161 32.2861 9.64612 32.0702 9.64612Z" fill="#D8D8E1"/>
<path d="M27.9803 12.2158H27.123C26.9071 12.2158 26.7762 12.0413 26.8307 11.8275L27.0445 10.9703C27.099 10.7543 27.315 10.582 27.531 10.582H28.3882C28.6042 10.582 28.7351 10.7565 28.6805 10.9703L28.4668 11.8275C28.4122 12.0413 28.1941 12.2158 27.9803 12.2158Z" fill="#D8D8E1"/>
<path d="M26.2948 13.96H25.4375C25.2215 13.96 25.0906 13.7855 25.1452 13.5717L25.359 12.7144C25.4135 12.4984 25.6295 12.3261 25.8454 12.3261H26.7027C26.9186 12.3261 27.0495 12.5006 26.995 12.7144L26.7812 13.5717C26.7289 13.7855 26.5107 13.96 26.2948 13.96Z" fill="#D8D8E1"/>
<path d="M30.7049 12.2158H29.8476C29.6317 12.2158 29.5008 12.0413 29.5553 11.8275L29.7691 10.9703C29.8237 10.7543 30.0396 10.582 30.2556 10.582H31.1128C31.3288 10.582 31.4597 10.7565 31.4052 10.9703L31.1914 11.8275C31.139 12.0413 30.9209 12.2158 30.7049 12.2158Z" fill="#D8D8E1"/>
<path d="M28.5116 16.0039H27.6543C27.4383 16.0039 27.3074 15.8294 27.362 15.6156L27.5758 14.7583C27.6303 14.5424 27.8462 14.3701 28.0622 14.3701H28.9195C29.1354 14.3701 29.2663 14.5446 29.2118 14.7583L28.998 15.6156C28.9435 15.8294 28.7253 16.0039 28.5116 16.0039Z" fill="#E8772B"/>
<path d="M41.9836 2.14872C41.9793 2.14872 41.9749 2.14872 41.9706 2.14872C41.9575 2.14872 41.9444 2.14654 41.9313 2.14436V2.14654C41.844 2.14 41.7546 2.13782 41.663 2.13782C39.1239 2.13782 36.5542 4.17305 35.878 6.70127L35.8474 6.82125H35.8452C35.8431 6.83433 35.8409 6.84742 35.8365 6.85833L35.8169 6.93468H35.8191C35.2628 9.4978 36.9054 11.5374 39.5383 11.4305C41.9378 11.3323 44.3592 9.41709 45.0812 7.04156C45.8643 4.46972 44.4421 2.32105 41.9836 2.14872ZM43.7353 6.95649C43.2292 8.64488 41.4972 10.0082 39.7957 10.0606C37.9655 10.1195 36.8225 8.69723 37.1999 6.91068L37.2522 6.69909H37.25C37.7365 4.92781 39.5405 3.50773 41.3227 3.50773C41.4143 3.50773 41.5059 3.51209 41.5932 3.52081C43.2925 3.66478 44.2741 5.16121 43.7353 6.95649Z" fill="#EBEDFC"/>
<path d="M41.7327 2.94056C41.6542 3.25686 41.8004 3.52953 42.0883 3.60588C43.4757 3.97235 44.2173 5.34662 43.7331 6.95648C43.227 8.64487 41.495 10.0082 39.7935 10.0606C38.1226 10.1129 37.0253 8.93718 37.1322 7.37313C37.154 7.05028 36.925 6.81906 36.5978 6.81906C36.1724 6.81906 35.7492 7.20298 35.7208 7.61962C35.5703 9.849 37.1475 11.5265 39.5404 11.4283C41.94 11.3302 44.3613 9.4149 45.0833 7.03938C45.7792 4.74674 44.73 2.79222 42.7558 2.26869C42.3479 2.16617 41.844 2.49119 41.7327 2.94056Z" fill="#E8772B"/>
<path d="M53.5489 1.67973C53.5445 1.67973 53.5402 1.67973 53.5358 1.67973C53.5205 1.67973 53.5031 1.67755 53.4878 1.67755C53.4027 1.67319 53.3155 1.66882 53.2282 1.66882C50.6607 1.66882 48.0583 3.74986 47.4192 6.31953C46.7779 8.88702 48.3419 10.9702 50.9094 10.9702C50.9967 10.9702 51.0839 10.9659 51.1734 10.9615C51.1908 10.9615 51.2061 10.9593 51.2235 10.9593C51.2279 10.9593 51.2323 10.9593 51.2366 10.9593C53.6819 10.7935 56.0793 8.80412 56.7097 6.36316C56.7141 6.35007 56.7184 6.33698 56.7206 6.32171C57.3336 3.85893 55.9244 1.84552 53.5489 1.67973ZM51.4831 9.58724C51.4787 9.58724 51.4744 9.58724 51.47 9.58724C51.4155 9.5916 51.361 9.59379 51.3086 9.59379C51.289 9.59379 51.2715 9.59597 51.2519 9.59597C49.4413 9.59597 48.3397 8.1279 48.7913 6.31735C49.2428 4.5068 51.0752 3.03873 52.8857 3.03873C52.9054 3.03873 52.9228 3.04091 52.9403 3.04091C52.9948 3.04091 53.0472 3.04309 53.0995 3.04746C53.1039 3.04746 53.1082 3.04746 53.1126 3.04746C54.7857 3.16525 55.7761 4.58315 55.3442 6.31517C55.3398 6.32826 55.3376 6.34134 55.3333 6.35661C54.8882 8.07336 53.202 9.46945 51.4831 9.58724Z" fill="white"/>
<path d="M55.1368 6.93029C54.5609 8.24566 53.2673 9.28182 51.8931 9.53486C51.5484 9.59812 51.2387 9.87733 51.1558 10.2111C51.0489 10.643 51.363 10.9658 51.8058 10.8851C53.7669 10.5296 55.6101 9.05059 56.4282 7.1746C56.6136 6.75141 56.3889 6.35876 55.957 6.35876C55.621 6.35876 55.2808 6.6009 55.1368 6.93029Z" fill="#E8772B"/>
<path d="M41.2127 18.0445H32.5461C32.5024 18.0445 32.4697 18.003 32.4806 17.9616L32.8689 16.4717C32.8776 16.4433 32.9038 16.4215 32.9344 16.4215H41.601C41.6446 16.4215 41.6773 16.463 41.6664 16.5044L41.2781 17.9943C41.2694 18.0248 41.2432 18.0445 41.2127 18.0445Z" fill="#EDF4FF"/>
<path d="M81.4165 24.9597C83.2209 23.3664 83.6764 20.9343 82.434 19.5273C81.1917 18.1203 78.7218 18.2713 76.9174 19.8645C75.1131 21.4577 74.6575 23.8899 75.8999 25.2969C77.1423 26.7039 79.6122 26.5529 81.4165 24.9597Z" fill="#E8772B"/>
<path d="M84.8529 26.5431C84.7089 27.1255 84.1177 27.5967 83.5375 27.5967C82.9551 27.5967 82.6017 27.1255 82.7478 26.5431C82.8918 25.9607 83.4829 25.4895 84.0632 25.4895C84.6434 25.4917 84.999 25.9629 84.8529 26.5431Z" fill="#E8772B"/>
<path d="M78.1724 24.3661C78.0524 24.3661 77.9411 24.3203 77.8713 24.2265L76.8766 22.9024C76.737 22.717 76.8134 22.4181 77.0424 22.2327C77.2736 22.0473 77.5725 22.0473 77.7121 22.2327L78.456 23.2231L81.1107 21.0984C81.3419 20.913 81.6408 20.913 81.7804 21.0984C81.92 21.2838 81.8436 21.5827 81.6146 21.7681L78.541 24.2287C78.4254 24.3203 78.2923 24.3661 78.1724 24.3661Z" fill="white"/>
<path d="M103.592 89.5131C112.655 89.5131 120.003 88.8959 120.003 88.1345C120.003 87.3731 112.655 86.7559 103.592 86.7559C94.5289 86.7559 87.1816 87.3731 87.1816 88.1345C87.1816 88.8959 94.5289 89.5131 103.592 89.5131Z" fill="#E8772B"/>
<path d="M104.218 14.768C104.218 14.768 103.801 15.6035 103.551 17.4402C103.3 19.2769 103.967 29.8828 103.967 29.8828L111.148 29.1302L107.891 15.2697L104.218 14.768Z" fill="#024470"/>
<path d="M99.9576 59.5736L97.4512 71.9748L102.337 72.0991C102.337 72.0991 103.59 61.0766 103.09 61.0766C102.588 61.0766 99.9576 59.5736 99.9576 59.5736Z" fill="#45242C"/>
<path d="M111.316 86.3392C111.316 86.3392 109.479 88.261 108.727 88.6777C108.895 89.0114 111.567 89.0114 112.568 88.5097C113.569 88.008 114.322 86.8387 114.322 86.8387L114.239 88.0909H114.741C114.741 88.0909 115.242 86.337 115.242 85.9204C115.242 85.5037 114.741 84.9191 114.741 84.9191L111.316 86.3392Z" fill="#713336"/>
<path d="M110.562 61.6198L112.399 84.1687L114.57 84.0008C114.57 84.0008 117.076 67.4659 116.073 61.7878C115.074 56.1074 110.562 61.6198 110.562 61.6198Z" fill="#FF8D68"/>
<path d="M112.401 84.1666C112.401 84.1666 111.733 85.9204 110.815 86.7559C109.897 87.5913 112.235 87.5913 113.236 86.7559C114.238 85.9204 114.323 85.4187 114.656 85.2529C114.99 85.0849 114.574 84.0008 114.574 84.0008L112.401 84.1666Z" fill="#FF8D68"/>
<path d="M96.2359 85.9596C96.2359 85.9596 94.1003 87.5433 93.291 87.8291C93.4001 88.1868 96.033 88.6362 97.1063 88.3111C98.1795 87.9861 99.1175 86.9609 99.1175 86.9609L98.823 88.1824L99.316 88.2675C99.316 88.2675 100.106 86.6227 100.175 86.2126C100.245 85.8004 99.8504 85.1394 99.8504 85.1394L96.2359 85.9596Z" fill="#713336"/>
<path d="M99.6613 61.4671L97.6719 84.0029L99.8402 84.2036C99.8402 84.2036 105.097 68.3275 105.067 62.5599C105.036 56.7946 99.6613 61.4671 99.6613 61.4671Z" fill="#FF8D68"/>
<path d="M97.6706 84.0029C97.6706 84.0029 96.7174 85.6193 95.6703 86.2868C94.6232 86.9543 96.929 87.3492 98.0567 86.6948C99.1845 86.0403 99.3525 85.5604 99.7102 85.4514C100.068 85.3423 99.8389 84.2036 99.8389 84.2036L97.6706 84.0029Z" fill="#FF8D68"/>
<path d="M91.9675 25.6422L87.6506 24.7914C87.6506 24.7914 87.5851 25.3804 87.9778 25.5113C88.3704 25.6422 88.3704 25.6422 88.3704 25.6422C88.3704 25.6422 89.3521 27.9981 89.8101 28.2577C90.2682 28.5194 93.0168 29.6537 93.0168 29.6537L93.7345 26.8834L91.9675 25.6422Z" fill="#FF7759"/>
<path d="M95.0746 29.1324C95.0746 29.1324 95.0331 28.8401 94.455 27.6687C93.8137 26.3708 93.6697 25.8364 93.6697 25.8364C93.6697 25.8364 91.6411 25.0511 91.3139 24.6584C90.9866 24.2658 90.7903 24.2003 90.7903 24.2003C90.7903 24.2003 90.3977 24.9202 90.9866 25.4437C91.5756 25.9672 92.0992 26.3599 92.0992 26.3599C92.0992 26.3599 92.0337 27.865 92.23 28.5849C92.4264 29.3048 93.0153 29.6538 93.0153 29.6538L95.0746 29.1324Z" fill="#FF8D68"/>
<path d="M101.794 31.5559C101.794 31.5559 98.8707 36.2328 98.7878 35.814C98.7049 35.3973 95.0293 28.9666 95.0293 28.9666L93.0137 29.6537C93.0137 29.6537 96.0305 39.0708 97.9523 40.5737C97.9523 40.5737 98.1203 40.8246 98.7049 40.7417C99.2895 40.6588 103.798 35.9819 103.798 35.9819L101.794 31.5559Z" fill="#FF8D68"/>
<path d="M104.531 26.0021C104.531 26.0021 102.964 26.6282 102.214 27.7145C101.461 28.8008 99.291 33.7264 99.291 33.7264C99.291 33.7264 100.46 35.814 103.132 36.5666L106.806 29.8021L104.531 26.0021Z" fill="#E86D5E"/>
<path d="M102.589 42.0353C102.589 42.0353 102.713 44.04 102.713 44.7904C102.713 44.7904 99.7072 59.3206 99.5807 62.7039C99.4563 66.085 101.961 72.976 101.961 72.976C101.961 72.976 112.734 72.7252 116.24 71.9748L116.615 64.7086C116.615 64.7086 117.117 52.0566 116.615 48.4246C116.113 44.7926 113.984 42.9122 113.984 42.9122L113.358 41.1584L102.589 42.0353Z" fill="#713336"/>
<path d="M111.796 25.1252C111.796 25.1252 114.615 26.4406 115.492 27.8193C116.369 29.1979 118.999 36.6495 118.999 36.6495C118.999 36.6495 116.057 37.714 113.487 37.714C113.487 37.714 113.738 40.0939 113.989 40.8465C114.24 41.599 113.363 41.911 113.363 41.911C113.363 41.911 107.224 43.6016 102.652 42.6003C102.652 42.6003 102.089 42.476 102.089 42.2251C102.089 41.9742 102.152 41.3482 102.152 41.3482C102.152 41.3482 101.714 37.0901 101.59 36.3375C101.465 35.585 100.087 33.541 100.211 32.7252C100.335 31.9115 102.467 28.1312 102.467 28.1312C102.467 28.1312 103.906 26.4406 104.535 26.0022C105.161 25.5637 106.727 25.5637 106.727 25.5637L111.796 25.1252Z" fill="#E86D5E"/>
<path d="M106.453 22.8697C106.455 22.9678 106.813 25.0947 105.635 26.5977C104.457 28.1355 109.101 28.0701 110.181 26.4995C111.163 25.0925 111.065 24.8635 111.065 24.8635C111.065 24.8635 110.279 22.3134 110.508 20.6447C110.443 19.1417 106.388 20.0579 106.453 22.8697Z" fill="#FF8D68"/>
<path d="M106.426 13.998C106.426 13.998 105.071 14.3449 104.305 16.4237C103.538 18.5026 104.05 22.9199 104.561 23.4412C105.071 23.9604 106.626 23.7619 108.779 23.0508C111.055 22.3004 111.825 19.9336 112.23 18.3717C113.009 15.3832 110.409 12.3075 106.426 13.998Z" fill="#FF8D68"/>
<path d="M103.799 16.3561C103.799 16.3561 105.051 19.362 109.811 19.53L110.917 24.8438C110.917 24.8438 112.944 25.8167 113.735 26.253C113.735 26.253 114.654 16.6069 112.483 14.2685C110.313 11.93 106.471 12.5147 104.966 13.8518C103.465 15.1869 103.799 16.3561 103.799 16.3561Z" fill="#024470"/>
<path d="M111.795 25.1252L110.731 24.124C110.731 24.124 109.791 26.818 106.473 27.0056C106.473 27.0056 106.034 26.3163 106.285 25.315L105.722 25.7535C105.722 25.7535 104.531 27.444 104.658 27.9457C104.782 28.4475 106.37 27.5705 106.37 27.5705C106.37 27.5705 108.248 28.6983 109.001 28.7616C109.749 28.8205 111.669 25.3128 111.795 25.1252Z" fill="white"/>
<path d="M109.887 19.4514C109.887 19.4514 110.389 18.6225 110.89 18.9279C111.392 19.2333 110.57 21.1071 109.887 21.1507C109.202 21.1944 109.566 19.9314 109.887 19.4514Z" fill="#FF7759"/>
<path d="M111.066 30.5525L112.986 37.3998" stroke="#BB524F" stroke-width="0.250532" stroke-miterlimit="10"/>
<path d="M109.875 30.9495C109.875 30.9495 110.313 32.2649 111.753 33.1418" stroke="#BB524F" stroke-width="0.250532" stroke-miterlimit="10"/>
<path d="M112.066 29.32C112.066 29.32 112.317 27.5662 114.322 27.4418" stroke="#BB524F" stroke-width="0.250532" stroke-miterlimit="10"/>
<path d="M102.233 28.5696C102.233 28.5696 100.187 31.9312 100.209 32.7252C100.231 33.5192 101.546 35.7726 101.546 35.7726L103.176 40.0306" stroke="#BB524F" stroke-width="0.250532" stroke-miterlimit="10"/>
<path d="M109.312 42.537L111.505 40.0306" stroke="#BB524F" stroke-width="0.250532" stroke-miterlimit="10"/>
<path d="M90.9388 26.3772L88.3691 25.6421C88.3691 25.6421 88.6004 26.2114 88.7662 26.3772C88.9341 26.5452 90.7294 27.1712 90.7294 27.1712" stroke="#E66657" stroke-width="0.22381" stroke-miterlimit="10"/>
<path d="M88.7656 26.3772C88.7656 26.3772 89.0165 27.1298 89.1408 27.2541C89.2652 27.3785 90.8532 27.8387 90.8532 27.8387" stroke="#E66657" stroke-width="0.22381" stroke-miterlimit="10"/>
<path d="M91.3145 25.7512L92.0976 26.3619L92.6931 26.2093" stroke="#E66657" stroke-width="0.22381" stroke-miterlimit="10"/>
<path d="M106.723 23.5786C106.723 23.5786 108.309 23.2449 109.144 21.7419" stroke="#E66657" stroke-width="0.22381" stroke-miterlimit="10"/>
<path d="M105.343 19.9052L105.051 21.491L105.594 21.6175" stroke="#E66657" stroke-width="0.22381" stroke-miterlimit="10"/>
<path d="M105.26 22.3265C105.26 22.3265 106.054 22.4945 106.889 22.0342" stroke="#E66657" stroke-width="0.22381" stroke-miterlimit="10"/>
<path d="M108.224 20.7188C108.224 21.1464 107.877 21.491 107.452 21.491C107.024 21.491 106.68 21.1442 106.68 20.7188C106.68 20.2913 107.027 19.9466 107.452 19.9466C107.879 19.9466 108.224 20.2934 108.224 20.7188Z" fill="#FA6157"/>
<path d="M106.721 19.6761C106.721 19.7808 106.636 19.8637 106.533 19.8637C106.431 19.8637 106.346 19.7786 106.346 19.6761C106.346 19.5714 106.431 19.4885 106.533 19.4885C106.636 19.4885 106.721 19.5714 106.721 19.6761Z" fill="#024470"/>
<path d="M104.697 19.6761C104.697 19.7808 104.612 19.8637 104.51 19.8637C104.405 19.8637 104.322 19.7786 104.322 19.6761C104.322 19.5714 104.407 19.4885 104.51 19.4885C104.612 19.4885 104.697 19.5714 104.697 19.6761Z" fill="#024470"/>
<path d="M103.361 44.352C103.361 44.352 106.806 45.4165 110.063 44.0378" stroke="#562525" stroke-width="0.250532" stroke-miterlimit="10"/>
<path d="M104.385 45.5844C104.385 45.5844 106.139 46.169 108.979 45.0827" stroke="#562525" stroke-width="0.250532" stroke-miterlimit="10"/>
<path d="M103.629 44.6866L97.0117 48.5073L102.085 57.2934L108.702 53.4727L103.629 44.6866Z" fill="white"/>
<path d="M109.896 48.0908C109.896 48.0908 108.851 49.2382 108.539 49.4891C108.225 49.7399 106.096 49.9275 106.096 49.9275C106.096 49.9275 105.156 51.4937 104.905 51.4305C104.654 51.3672 104.717 51.1796 104.717 51.1796C104.717 51.1796 104.654 48.3613 104.842 48.0472C105.029 47.733 108.098 46.8561 108.098 46.8561L108.474 46.4177L109.896 48.0908Z" fill="#FF8D68"/>
<path d="M118.081 36.9417C118.164 37.1926 118.834 39.1558 119.167 40.1571C119.501 41.1583 111.986 46.4198 110.817 47.3382L109.899 48.0908L108.479 46.4198L115.075 39.8233L114.115 37.6528L118.081 36.9417Z" fill="#FF8D68"/>
<path d="M104.906 51.4305L105.301 49.6766" stroke="#E66657" stroke-width="0.22381" stroke-miterlimit="10"/>
<path d="M104.676 49.8446L105.136 48.8412" stroke="#E66657" stroke-width="0.22381" stroke-miterlimit="10"/>
<path d="M104.844 48.0493L104.676 51.4305H105.219L106.096 49.9275" stroke="#E66657" stroke-width="0.22381" stroke-miterlimit="10"/>
<path d="M19.7465 89.5132C28.8098 89.5132 36.157 88.896 36.157 88.1346C36.157 87.3732 28.8098 86.7559 19.7465 86.7559C10.6832 86.7559 3.33594 87.3732 3.33594 88.1346C3.33594 88.896 10.6832 89.5132 19.7465 89.5132Z" fill="#E8772B"/>
<path d="M13.1391 83.702C13.1391 83.702 13.4881 82.9559 14.7795 83.1544C16.073 83.3529 16.2214 83.6016 16.3719 84.2495C16.5202 84.8952 16.9696 85.5932 17.2662 85.7416C17.5651 85.8899 18.658 86.6359 19.5545 86.7864C20.4489 86.9348 20.5492 87.4823 20.3507 87.731C20.1522 87.9797 16.7689 88.1782 16.0229 88.08C16.0229 88.08 13.4859 88.0298 12.8904 87.8313C12.2949 87.6306 13.0889 83.9507 13.1391 83.702Z" fill="#2D2737"/>
<path d="M11.7036 66.2182C11.7036 66.2182 11.3262 64.159 13.5011 63.4675C15.6759 62.776 16.0882 63.7816 16.747 65.6598C17.4057 67.5379 16.182 83.5864 16.182 83.5864C16.182 83.5864 13.6778 84.0139 13.0342 83.6343C13.0342 83.6343 11.1255 73.1877 11.2586 70.3214C11.3895 67.455 11.7036 66.2182 11.7036 66.2182Z" fill="#3D4776"/>
<path d="M12.7656 83.0039C12.7656 83.0039 15.6014 82.7553 16.4958 82.6069L16.4456 83.9005C16.4456 83.9005 14.2075 84.2975 12.8158 84.099L12.7656 83.0039Z" fill="#51598D"/>
<path d="M12.0709 26.0088C12.0709 26.0088 10.28 26.1091 9.18713 30.1861C8.09208 34.2653 7.39622 39.2367 7.79541 40.5303C8.19242 41.8238 12.4701 45.3053 14.0625 45.3053C15.6549 45.3053 15.7531 44.1121 15.4542 43.1174C15.1554 42.1227 12.0731 39.4374 12.0731 39.4374C12.0731 39.4374 14.5599 31.4797 14.4595 29.3921C14.3592 27.3045 13.166 26.0088 12.0709 26.0088Z" fill="#7E78C7"/>
<path d="M34.4881 24.7938L34.1914 24.8243L34.8567 23.5068C34.8567 23.5068 36.5495 23.3999 36.82 24.1154L36.0434 25.8365L34.4881 24.7938Z" fill="#FF8D68"/>
<path d="M35.4405 21.0482C35.4405 21.0482 35.3751 19.7023 35.8528 19.5104C36.3305 19.3184 36.8693 19.6914 36.8693 19.6914C36.8693 19.6914 37.6437 19.6129 37.8924 19.9423C38.1411 20.2717 38.1193 20.7734 38.1193 20.7734C38.1193 20.7734 38.5555 20.8715 38.6712 21.286C38.7846 21.7026 38.5817 22.5054 38.5817 22.5054C38.5817 22.5054 38.0756 23.1271 37.4888 22.9722C36.9042 22.8217 35.4405 21.0482 35.4405 21.0482Z" fill="#FF7759"/>
<path d="M34.5549 22.1368C34.5549 22.1368 34.376 20.3742 34.5658 20.1408C34.7556 19.9074 36.697 17.2221 36.697 17.2221C36.697 17.2221 37.1006 17.6802 36.8671 18.2015C36.6359 18.7229 35.7219 20.3088 35.7219 20.3088L35.7176 21.6634C35.7176 21.6612 35.1199 22.0779 34.5549 22.1368Z" fill="#FF7759"/>
<path d="M34.6981 23.546C34.6981 23.546 34.2334 20.7167 34.5497 20.3262C34.866 19.938 36.4192 20.1648 36.7137 20.2761C37.0103 20.3873 37.8305 21.4453 37.944 21.8598C38.0574 22.2742 37.2852 23.7794 36.8206 24.1109C36.3559 24.4447 34.9664 24.0891 34.6981 23.546Z" fill="#FF8D68"/>
<path d="M33.6055 25.4133L34.2032 24.3182C34.2032 24.3182 35.5949 24.0695 36.2929 25.1646C36.4914 25.5616 36.3933 25.5616 36.3933 25.5616L35.9461 26.456L33.6055 25.4133Z" fill="#DEE0E8"/>
<path d="M19.4369 13.4396C19.4369 13.4396 20.9093 13.817 21.7426 16.0747C22.5759 18.3346 22.0197 23.1359 21.4656 23.7008C20.9115 24.2658 19.221 24.0499 16.8803 23.2777C14.4066 22.4618 13.5712 19.89 13.1284 18.195C12.282 14.9448 15.1069 11.6029 19.4369 13.4396Z" fill="#FF8D68"/>
<path d="M14.1602 25.9106L15.3534 21.6329C15.3534 21.6329 17.7398 20.937 19.2319 22.5273L19.7292 23.2231V26.0088C19.7292 26.0088 17.2424 26.5061 14.1602 25.9106Z" fill="#FF8D68"/>
<path d="M10.8272 48.9373C10.8272 48.9373 9.93282 54.1595 10.8272 60.1277C11.7216 66.096 13.5125 66.6937 15.155 66.6937C16.7954 66.6937 17.2448 61.9187 17.5415 59.8311C17.8403 57.7413 19.0335 50.5798 16.7954 48.9394C14.5573 47.2947 12.0204 47.1463 10.8272 48.9373Z" fill="#3D4776"/>
<path d="M17.0953 55.9504C17.0953 55.9504 15.3044 51.1754 18.439 49.0878C21.5736 47.0002 23.9601 47.2969 24.7061 50.7282C25.4521 54.1595 25.6005 65.9477 24.5578 68.3341C23.5107 70.7206 19.7806 66.9904 17.0953 55.9504Z" fill="#3D4776"/>
<path d="M22.3074 13.6425C22.3074 13.6425 23.0142 14.5609 22.5888 15.6188C22.1656 16.679 20.6125 17.1022 20.6125 17.1022C20.6125 17.1022 21.1076 17.8089 20.6125 18.7971L20.2591 19.3621C20.2591 19.3621 20.7542 20.492 20.6125 20.7734C20.4707 21.0548 19.9777 20.985 19.9777 20.985C19.9777 20.985 19.4127 19.4319 19.2011 19.5737C18.9895 19.7155 18.4245 20.4201 18.4245 21.057C18.4245 21.694 18.6361 22.187 18.4943 22.6102C18.3525 23.0334 16.1646 23.0334 15.2463 22.8916C14.3279 22.7498 12.9165 19.9271 12.5632 18.6553C12.5632 18.6553 12.068 16.8906 12.7747 15.4072C12.7747 15.4072 12.633 14.1355 13.8349 12.8659C15.0347 11.5942 18.8477 12.0196 19.4825 12.5125C19.4825 12.5125 19.4127 11.8058 20.1173 11.9476C20.8262 12.0894 21.8842 12.7241 22.3074 13.6425Z" fill="#C53A45"/>
<path d="M20.1898 20.0688C20.1898 20.0688 19.9782 19.1505 19.2016 19.5737C18.425 19.9969 19.3434 22.187 19.9782 22.0452C20.613 21.9034 20.3316 20.4222 20.1898 20.0688Z" fill="#FF7759"/>
<path d="M13.5273 25.8866C13.5273 25.8866 13.8611 24.7152 14.1599 24.6171C14.4588 24.5167 18.1388 24.1197 20.1282 25.3129C21.0226 26.0088 20.9244 26.5061 20.9244 26.5061C20.9244 26.5061 14.9845 25.3675 13.5273 25.8866Z" fill="#DEE0E8"/>
<path d="M12.7662 25.6118C12.7662 25.6118 18.9329 25.2148 23.3088 27.1038C25.2982 28.0985 29.8486 32.5987 29.8486 32.5987L33.4304 25.1384C33.4304 25.1384 35.4438 24.4164 36.24 26.3076C36.24 26.3076 33.9779 35.1095 32.0867 37.8951C30.8934 38.8898 25.1979 35.657 25.1979 35.657C25.1979 35.657 26.0922 47.1944 25.7955 52.3686C25.3985 53.3633 17.6394 53.8607 16.2476 53.7603C14.8559 53.66 9.98053 52.0697 9.88237 51.7709C9.78202 51.472 10.5782 39.5355 10.3797 38.1438C10.1812 36.7521 9.58352 29.8873 9.78202 28.8926C9.98053 27.9 10.8771 26.0088 12.7662 25.6118Z" fill="#7E78C7"/>
<path d="M19.3334 83.9985C19.3334 83.9985 19.6824 83.2524 20.9738 83.451C22.2673 83.6495 22.4157 83.8981 22.5662 84.546C22.7145 85.1917 23.1639 85.8897 23.4605 86.0381C23.7594 86.1864 24.8523 86.9324 25.7488 87.083C26.6432 87.2313 26.7435 87.7788 26.545 88.0275C26.3465 88.2762 22.9632 88.4747 22.2172 88.3765C22.2172 88.3765 19.6802 88.3263 19.0847 88.1278C18.487 87.9271 19.2832 84.2472 19.3334 83.9985Z" fill="#3E3343"/>
<path d="M19.9297 66.5431C19.9297 66.5431 19.7814 64.4533 22.0195 64.0061C24.2576 63.5589 24.5564 64.6038 25.0036 66.5431C25.4508 68.4823 22.4667 84.2974 22.4667 84.2974C22.4667 84.2974 19.9297 84.4457 19.3342 83.9985C19.3342 83.9985 18.5882 73.4057 19.0354 70.5699C19.4826 67.7363 19.9297 66.5431 19.9297 66.5431Z" fill="#3D4776"/>
<path d="M19.1342 84.2472C19.1342 84.2472 21.0734 84.7947 22.716 84.4958L22.8643 83.3528L19.084 83.1041L19.1342 84.2472Z" fill="#51598D"/>
<path d="M16.4961 54.8314C16.4961 54.8314 18.5859 61.5457 20.1521 64.8286" stroke="#2A2E59" stroke-width="0.22381" stroke-miterlimit="10"/>
<path d="M20.75 66.1702C20.75 66.1702 22.0174 65.4242 23.2869 66.1702" stroke="#2A2E59" stroke-width="0.22381" stroke-miterlimit="10"/>
<path d="M20.5254 66.9904C20.5254 66.9904 21.5703 66.3927 23.3612 67.6623" stroke="#2A2E59" stroke-width="0.22381" stroke-miterlimit="10"/>
<path d="M12.6934 65.2737C12.6934 65.2737 13.5136 64.5276 15.3786 65.3478" stroke="#2A2E59" stroke-width="0.22381" stroke-miterlimit="10"/>
<path d="M13.291 66.0197C13.291 66.0197 14.4842 65.422 15.6033 66.3185" stroke="#2A2E59" stroke-width="0.22381" stroke-miterlimit="10"/>
<path d="M16.0507 67.2151L15.6035 82.4324" stroke="#2A2E59" stroke-width="0.22381" stroke-miterlimit="10"/>
<path d="M22.2168 54.4584C22.2168 54.4584 23.9074 55.4531 24.6032 53.8607" stroke="#2A2E59" stroke-width="0.22381" stroke-miterlimit="10"/>
<path d="M23.9062 54.6569C23.9062 54.6569 24.7025 60.8236 24.5039 64.9028" stroke="#2A2E59" stroke-width="0.22381" stroke-miterlimit="10"/>
<path d="M9.7832 31.4797L10.5794 40.0351" stroke="#524B81" stroke-width="0.22381" stroke-miterlimit="10"/>
<path d="M23.4355 34.4638C23.4355 34.4638 29.3296 38.7153 32.0891 37.8951" stroke="#524B81" stroke-width="0.22381" stroke-miterlimit="10"/>
<path d="M30.4473 33.4189C30.4473 33.4189 31.6405 34.0908 31.5663 35.657" stroke="#524B81" stroke-width="0.22381" stroke-miterlimit="10"/>
<path d="M30.1504 32.8234C30.1504 32.8234 31.4178 32.4504 32.1638 33.7178" stroke="#524B81" stroke-width="0.22381" stroke-miterlimit="10"/>
<path d="M23.2115 27.6754C23.2115 27.6754 20.0791 29.3158 22.1667 33.1223" stroke="#524B81" stroke-width="0.22381" stroke-miterlimit="10"/>
<path d="M18.7715 22.7149C18.7715 22.7149 19.2928 24.0586 21.0467 23.834" stroke="#E66657" stroke-width="0.22381" stroke-miterlimit="10"/>
<path d="M35.6582 19.9554L36.2428 19.4341C36.2428 19.4341 36.6529 19.4319 36.8711 19.6937" stroke="#E66657" stroke-width="0.22381" stroke-miterlimit="10"/>
<path d="M36.3535 20.0405C36.3535 20.0034 37.1868 19.5562 37.1868 19.5562C37.1868 19.5562 37.9459 19.7416 38.0572 20.1408C38.1684 20.5378 38.0812 20.7494 38.0812 20.7494" stroke="#E66657" stroke-width="0.22381" stroke-miterlimit="10"/>
<path d="M37.3359 20.7625C37.373 20.7494 38.3917 20.8127 38.3917 20.8127C38.3917 20.8127 38.7647 21.0614 38.7517 21.5456C38.7386 22.0299 38.5793 22.5098 38.5793 22.5098C38.5793 22.5098 38.2172 23.0268 37.5955 23.0137" stroke="#E66657" stroke-width="0.22381" stroke-miterlimit="10"/>
<path d="M37.9197 21.8074C37.9197 21.8074 38.0441 22.0059 37.8826 22.3659C37.7212 22.7258 37.5249 23.6703 36.8203 24.1132" stroke="#E66657" stroke-width="0.22381" stroke-miterlimit="10"/>
<path d="M16.7595 15.3287C15.3045 14.6198 13.4395 15.4771 13.4395 15.4771C13.4395 15.4771 13.6641 14.5064 14.7068 14.1726" stroke="#A03A45" stroke-width="0.298413" stroke-miterlimit="10"/>
<path d="M13.5137 16.0748C13.5137 16.0748 13.8867 16.0377 14.371 16.7837" stroke="#A03A45" stroke-width="0.298413" stroke-miterlimit="10"/>
<path d="M19.9277 12.7307C19.9277 12.7307 21.7688 13.0296 21.8168 14.8685" stroke="#A03A45" stroke-width="0.298413" stroke-miterlimit="10"/>
</g>
<defs>
<clipPath id="clip0_24_5782">
<rect width="120" height="89.0222" fill="white" transform="translate(0 0.488892)"/>
</clipPath>
</defs>
</svg>
