<svg width="120" height="120" viewBox="0 0 120 120" fill="none" xmlns="http://www.w3.org/2000/svg">
<g clip-path="url(#clip0_24_5992)">
<path d="M89.5189 74.101H109.033V59.048H89.5189V74.101Z" fill="#EBEBEB"/>
<path d="M90.9134 72.7894H93.2656V70.132H90.9134V72.7894Z" fill="white"/>
<path d="M103.082 59.0886H100.865V62.2996H103.082V59.0886Z" fill="#FAFAFA"/>
<path d="M103.082 70.8442H100.865V74.0552H103.082V70.8442Z" fill="#FAFAFA"/>
<path d="M94.3902 74.2064C94.3551 74.2064 94.3281 70.8955 94.3281 66.8123C94.3281 62.729 94.3551 59.4181 94.3902 59.4181C94.4253 59.4181 94.4523 62.729 94.4523 66.8123C94.4523 70.8955 94.4253 74.2064 94.3902 74.2064Z" fill="#E0E0E0"/>
<path d="M81.5617 100.023H115.232V74.0512H81.5617V100.023Z" fill="#EBEBEB"/>
<path d="M83.9711 97.7557H88.0273V93.1702H83.9711V97.7557Z" fill="white"/>
<path d="M104.961 74.1201H101.137V79.6616H104.961V74.1201Z" fill="#FAFAFA"/>
<path d="M104.961 94.4041H101.137V99.9456H104.961V94.4041Z" fill="#FAFAFA"/>
<path d="M89.9654 100.202C89.906 100.202 89.8574 94.4904 89.8574 87.4446C89.8574 80.3988 89.906 74.6871 89.9654 74.6871C90.0249 74.6871 90.0735 80.3988 90.0735 87.4446C90.0735 94.4904 90.0249 100.202 89.9654 100.202Z" fill="#E0E0E0"/>
<path d="M114.162 20.0356L115.966 23.6895L120.001 24.2755L117.081 27.1219L117.77 31.1377L114.162 29.2419L110.557 31.1377L111.245 27.1219L108.326 24.2755L112.361 23.6895L114.162 20.0356Z" fill="#E8772B"/>
<path d="M6.75631 67.2281L7.89325 69.5317L10.4372 69.9017L8.5981 71.6949L9.03019 74.2253L6.75631 73.0317L4.48512 74.2253L4.91722 71.6949L3.07812 69.9017L5.62207 69.5317L6.75631 67.2281Z" fill="#E8772B"/>
<path d="M8.16924 47.1629L10.6916 52.2778L16.3385 53.0961L12.2525 57.0794L13.2166 62.6993L8.16924 60.0473L3.11916 62.6993L4.08327 57.0794L0 53.0961L5.6442 52.2778L8.16924 47.1629Z" fill="#E8772B"/>
<path d="M112.557 36.5388L113.645 38.7425L116.076 39.0963L114.315 40.8138L114.731 43.2362L112.557 42.0912L110.38 43.2362L110.796 40.8138L109.035 39.0963L111.468 38.7425L112.557 36.5388Z" fill="#E8772B"/>
<path d="M76.847 0.82373L77.9353 3.0274L80.3685 3.38117L78.6077 5.09604L79.0236 7.51845L76.847 6.37611L74.673 7.51845L75.0889 5.09604L73.3281 3.38117L75.7613 3.0274L76.847 0.82373Z" fill="#E8772B"/>
<path d="M101.741 24.4105L102.454 25.8526L104.045 26.0849L102.894 27.2056L103.164 28.7936L101.741 28.0428L100.318 28.7936L100.588 27.2056L99.4375 26.0849L101.028 25.8526L101.741 24.4105Z" fill="#E8772B"/>
<path d="M36.0372 97.245L37.4226 100.054L40.5255 100.505L38.2814 102.692L38.8107 105.782L36.0372 104.323L33.2637 105.782L33.793 102.692L31.5488 100.505L34.6491 100.054L36.0372 97.245Z" fill="#E8772B"/>
<path d="M39.699 94.45L40.2716 95.6112L41.5516 95.7975L40.6253 96.7022L40.8441 97.9769L39.699 97.3747L38.5513 97.9769L38.77 96.7022L37.8438 95.7975L39.1238 95.6112L39.699 94.45Z" fill="#E8772B"/>
<path d="M90.9143 83.6909L92.1349 86.1619L94.8598 86.5562L92.8884 88.4817L93.3529 91.1957L90.9143 89.913L88.4757 91.1957L88.9402 88.4817L86.9688 86.5562L89.6963 86.1619L90.9143 83.6909Z" fill="#E8772B"/>
<path d="M96.733 81.5007L97.3082 82.6646L98.5937 82.851L97.6647 83.7584L97.8834 85.0384L96.733 84.4335L95.5853 85.0384L95.804 83.7584L94.875 82.851L96.1605 82.6646L96.733 81.5007Z" fill="#E8772B"/>
<path d="M89.1068 17.1865L90.0601 14.1997C89.3174 12.7117 88.9663 11.0049 89.1257 9.22794C89.5875 4.11575 94.1136 0.345752 99.2312 0.810251C104.351 1.27205 108.127 5.79281 107.662 10.905C107.201 16.0172 102.674 19.7872 97.5569 19.3227C95.418 19.1282 93.6599 18.3559 92.1989 17.0002L89.1068 17.1865Z" fill="#FAFAFA"/>
<path d="M89.1077 17.1865C89.1077 17.1865 89.1806 17.1784 89.313 17.1703C89.4507 17.1595 89.6505 17.146 89.9071 17.1271C90.431 17.092 91.2007 17.038 92.1999 16.9705H92.2134L92.2242 16.9786C93.1046 17.7915 94.4468 18.6908 96.2642 19.0769C96.7152 19.1742 97.1905 19.2498 97.6847 19.2795C97.9332 19.2876 98.1843 19.2984 98.4409 19.3092C98.6975 19.3065 98.9567 19.2795 99.2214 19.266C100.275 19.1688 101.376 18.8852 102.435 18.3667C103.494 17.8509 104.504 17.1028 105.349 16.1387C106.192 15.1746 106.877 13.9972 107.258 12.6766C107.639 11.3587 107.734 9.9139 107.488 8.488C107.445 8.12882 107.331 7.78045 107.242 7.42667C107.202 7.24844 107.126 7.0783 107.064 6.90546C106.999 6.73533 106.937 6.55979 106.867 6.38965C106.548 5.72531 106.2 5.05827 105.724 4.47225C105.508 4.16168 105.244 3.89703 104.992 3.62157C104.874 3.47844 104.722 3.36501 104.587 3.23809C104.447 3.11656 104.317 2.98423 104.172 2.87351L103.729 2.54674L103.507 2.3847L103.272 2.24427L102.802 1.96342C102.646 1.8743 102.476 1.80408 102.314 1.72576C101.006 1.11273 99.5913 0.815672 98.2195 0.845378C96.8476 0.872384 95.5324 1.20725 94.3792 1.76357C93.2261 2.31989 92.235 3.09226 91.4572 3.97264C90.6768 4.85303 90.1096 5.83874 89.7343 6.82715C89.6883 6.95137 89.6451 7.0756 89.6019 7.19713C89.556 7.31865 89.5155 7.44018 89.4885 7.5671C89.4264 7.81556 89.367 8.06131 89.3049 8.30166C89.24 8.79317 89.1482 9.26577 89.1401 9.72756C89.0645 11.5775 89.5533 13.1141 90.0853 14.1916L90.0907 14.2024V14.2078C89.7748 15.1692 89.5317 15.9092 89.367 16.4142C89.2833 16.6626 89.2211 16.8544 89.1779 16.9867C89.132 17.1163 89.1077 17.1865 89.1077 17.1865C89.1077 17.1865 89.1239 17.1244 89.1617 16.9975C89.2022 16.8652 89.2617 16.6761 89.3373 16.4277C89.4966 15.9146 89.7289 15.1638 90.0313 14.1889L90.034 14.2105C89.4885 13.133 88.9835 11.5856 89.051 9.71676C89.0591 9.24956 89.1455 8.77426 89.2103 8.27736C89.2698 8.0343 89.3292 7.78585 89.3913 7.5347C89.4183 7.40777 89.4588 7.28354 89.5047 7.15932C89.5479 7.03509 89.5938 6.91087 89.637 6.78394C90.0097 5.78473 90.5822 4.78281 91.3708 3.88892C92.1567 2.99503 93.1559 2.20917 94.3252 1.64205C95.4919 1.07493 96.8287 0.734654 98.2195 0.704948C99.6103 0.672541 101.047 0.972305 102.376 1.59344C102.54 1.67445 102.711 1.74467 102.87 1.83379L103.345 2.11735L103.583 2.26048L103.807 2.42521L104.258 2.75738C104.406 2.87081 104.539 3.00584 104.682 3.12736C104.82 3.25699 104.971 3.37041 105.092 3.51624C105.346 3.7971 105.616 4.06446 105.835 4.37773C106.316 4.97185 106.672 5.6497 106.994 6.32484C107.067 6.49768 107.126 6.67592 107.193 6.84875C107.256 7.02429 107.334 7.19443 107.374 7.37806C107.466 7.73724 107.582 8.09102 107.626 8.45559C107.874 9.9031 107.774 11.3695 107.388 12.7063C106.999 14.0458 106.302 15.2394 105.443 16.2143C104.585 17.1919 103.558 17.9454 102.484 18.4639C101.409 18.9851 100.291 19.2687 99.2268 19.3632C98.9594 19.3767 98.6975 19.401 98.4382 19.4037C98.1789 19.3929 97.9251 19.3821 97.6739 19.3713C97.1743 19.3389 96.6963 19.2606 96.2399 19.1607C94.4062 18.7637 93.056 17.8428 92.181 17.0164L92.2026 17.0245C91.1926 17.0785 90.4175 17.119 89.8882 17.146C89.6343 17.1595 89.4372 17.1676 89.2995 17.1757C89.1698 17.1838 89.1077 17.1865 89.1077 17.1865Z" fill="#263238"/>
<path d="M93.6816 9.74277L95.0585 8.55047L97.38 10.9327L102.579 6.60052L103.682 7.9701L97.0182 13.3974L93.6816 9.74277Z" fill="#E8772B"/>
<path d="M73.0858 83.5749L21.2968 95.1171C20.0411 95.398 18.7934 94.604 18.5126 93.3482L1.70688 17.9347C1.42602 16.679 2.21999 15.4313 3.47576 15.1504L55.262 3.60819C56.5177 3.32733 57.7654 4.1213 58.0463 5.37706L74.8519 80.7906C75.1328 82.049 74.3415 83.294 73.0858 83.5749Z" fill="#E0E0E0"/>
<path d="M73.0852 83.5746C73.0852 83.5746 73.1419 83.5557 73.258 83.5233C73.3714 83.4909 73.5389 83.4261 73.7441 83.3127C73.944 83.1938 74.1816 83.0156 74.3977 82.7428C74.611 82.4728 74.8027 82.1028 74.8703 81.6491C74.9081 81.425 74.9054 81.1792 74.8649 80.928C74.8216 80.6769 74.7541 80.4149 74.6947 80.1395C74.5705 79.5886 74.4355 78.9836 74.2896 78.3301C73.9953 77.023 73.6577 75.5134 73.2769 73.812C71.7565 67.0147 69.5582 57.1765 66.8442 45.0239C65.4885 38.9449 64.0004 32.288 62.4071 25.1423C61.6104 21.5694 60.7841 17.8724 59.9361 14.0673C59.5121 12.1634 59.08 10.2324 58.6452 8.27453C58.4265 7.29692 58.205 6.31121 57.9836 5.3201C57.8647 4.8367 57.5731 4.40191 57.1815 4.08864C56.7845 3.78347 56.2903 3.60254 55.7853 3.60524C55.5314 3.60524 55.2857 3.65385 55.0345 3.71326C54.7834 3.76997 54.5295 3.82668 54.2784 3.8834C53.7734 3.99682 53.2657 4.11024 52.758 4.22367C51.7398 4.45052 50.719 4.67736 49.6901 4.90691C47.6323 5.36601 45.5528 5.83051 43.4491 6.29771C39.2416 7.23481 34.9477 8.19351 30.5754 9.16842C21.8229 11.1182 12.7679 13.1356 3.49409 15.2042C2.92697 15.3284 2.41386 15.6768 2.09519 16.1602C1.77113 16.6382 1.6415 17.2431 1.74412 17.813C1.98717 18.9634 2.25453 20.1138 2.50568 21.2589C3.01609 23.549 3.5238 25.8256 4.0261 28.0832C5.03342 32.6013 6.02453 37.0518 6.99944 41.4241C8.94655 50.1712 10.8261 58.6078 12.6166 66.6447C14.4071 74.6816 16.1058 82.3188 17.6964 89.4673C17.8963 90.3611 18.0934 91.2469 18.2878 92.1246C18.3878 92.5621 18.4796 93.005 18.5849 93.4317C18.6956 93.8557 18.9333 94.2392 19.2546 94.5308C19.576 94.8225 19.9784 95.0169 20.3997 95.0926C20.6103 95.1277 20.8264 95.1331 21.0397 95.1115C21.2504 95.0844 21.461 95.0331 21.6744 94.9845C22.5196 94.7955 23.3595 94.6092 24.1886 94.4255C27.5076 93.6883 30.6916 92.978 33.7297 92.3029C45.8877 89.6023 55.7259 87.4148 62.5232 85.9052C65.9233 85.1517 68.5617 84.5684 70.3522 84.1714C71.2461 83.9743 71.9293 83.8231 72.3884 83.7231C72.8475 83.6232 73.0852 83.5746 73.0852 83.5746C73.0852 83.5746 72.8502 83.6313 72.3938 83.7339C71.9347 83.8366 71.2542 83.9905 70.3603 84.193C68.5698 84.5954 65.9314 85.1869 62.534 85.9484C55.7367 87.4688 45.9012 89.6671 33.7459 92.3812C30.7078 93.059 27.5238 93.7693 24.2048 94.5119C23.3757 94.6983 22.5385 94.8846 21.6906 95.0737C21.4799 95.1196 21.2693 95.1736 21.0478 95.2006C20.8264 95.2222 20.6022 95.2168 20.3835 95.1817C19.9433 95.1034 19.5247 94.9008 19.1925 94.5984C18.8604 94.2959 18.6092 93.8962 18.4958 93.456C18.3878 93.0185 18.2986 92.5837 18.1987 92.1435C18.0016 91.2658 17.8044 90.3801 17.6046 89.4862C16.0113 82.3377 14.3072 74.7005 12.514 66.6636C10.7208 58.6267 8.84123 50.1901 6.88871 41.443C5.91381 37.0707 4.9227 32.6175 3.91538 28.1021C3.41307 25.8445 2.90537 23.5679 2.39496 21.2778C2.1411 20.13 1.87915 18.9877 1.6307 17.8265C1.52537 17.2323 1.6604 16.595 2.00067 16.0927C2.33555 15.5877 2.87296 15.2204 3.46979 15.0908C12.7436 13.0248 21.7986 11.0075 30.543 9.05769C34.9153 8.08279 39.2119 7.12678 43.4167 6.18968C45.5204 5.72249 47.5999 5.25799 49.6577 4.79889C50.6866 4.56934 51.7101 4.34249 52.7256 4.11564C53.2333 4.00222 53.741 3.8888 54.246 3.77807C54.4998 3.72136 54.751 3.66465 55.0021 3.61064C55.2506 3.55122 55.5125 3.49721 55.7772 3.49991C56.3038 3.49721 56.8223 3.68625 57.2355 4.00492C57.6433 4.32899 57.9485 4.78539 58.0727 5.29039C58.2941 6.2815 58.5156 7.26721 58.7343 8.24752C59.1691 10.2054 59.6012 12.1363 60.0252 14.0403C60.8732 17.8481 61.6942 21.5424 62.4908 25.118C64.0815 32.2664 65.5614 38.9233 66.9144 45.0023C69.6149 57.1603 71.8024 66.9985 73.3147 73.7985C73.6928 75.4972 74.0277 77.0095 74.3166 78.3166C74.4625 78.9701 74.5948 79.5751 74.7163 80.1287C74.7757 80.4068 74.8433 80.6661 74.8838 80.9199C74.9243 81.1738 74.927 81.4223 74.8865 81.6491C74.8162 82.1055 74.6191 82.4782 74.4031 82.7509C74.1843 83.0237 73.944 83.2019 73.7414 83.3208C73.5335 83.4315 73.366 83.4963 73.2526 83.5287C73.1419 83.5611 73.0852 83.5746 73.0852 83.5746Z" fill="#263238"/>
<g opacity="0.3">
<path d="M23.9246 92.446L71.1091 81.6599L69.6157 72.4104L66.9421 67.228L21.8047 84.96L23.9246 92.446Z" fill="black"/>
</g>
<g opacity="0.3">
<path d="M43.6211 6.37604L45.4062 9.32236L45.7545 10.8833L44.542 11.1534L43.6211 6.37604Z" fill="black"/>
</g>
<path d="M4.39648 18.3722L20.7674 91.8278L72.081 80.3908L69.1536 67.2579L55.7101 6.93524L4.39648 18.3722Z" fill="white"/>
<path d="M4.39648 18.3722C4.76106 18.2911 24.5131 13.8703 55.6993 6.89203L55.7425 6.88123L55.7533 6.92714C60.3065 27.3408 65.9858 52.8153 72.1323 80.3746V80.38L72.1458 80.434L72.0918 80.4475C53.7468 84.5335 36.3281 88.4142 20.7782 91.8791L20.7269 91.8899L20.7161 91.8386C11.0804 48.462 4.49641 18.8178 4.39648 18.3722C4.49641 18.8205 11.1209 48.4512 20.816 91.817L20.7539 91.7791C36.3038 88.3116 53.7225 84.4282 72.0675 80.3395L72.0243 80.407V80.4016C65.8859 52.8369 60.2119 27.3597 55.6642 6.94604L55.7182 6.98115C24.5212 13.9054 4.76106 18.2911 4.39648 18.3722Z" fill="#263238"/>
<path d="M44.8214 11.7504L18.8581 17.5377L17.551 11.6748C17.3458 10.7539 17.9264 9.84108 18.8473 9.63584L41.4754 4.59387C42.3963 4.38862 43.3091 4.96925 43.5143 5.89014L44.8214 11.7504Z" fill="#263238"/>
<path d="M32.8329 3.54608L26.2246 5.01789L28.2608 10.5109L33.238 9.40092L32.8329 3.54608Z" fill="#263238"/>
<path d="M41.4758 4.59122C41.4812 4.62093 36.423 5.77407 30.1739 7.16757C23.9247 8.56107 18.8531 9.6656 18.8477 9.63589C18.8423 9.60619 23.9004 8.45304 30.1496 7.05955C36.396 5.66605 41.4677 4.56152 41.4758 4.59122Z" fill="#455A64"/>
<path d="M19.1696 16.1929C19.1398 16.1983 18.8779 15.1396 18.5835 13.8272C18.2919 12.512 18.0785 11.4426 18.1082 11.4372C18.1379 11.4318 18.3999 12.4904 18.6943 13.8029C18.9859 15.1153 19.1993 16.1875 19.1696 16.1929Z" fill="#455A64"/>
<path d="M43.5836 10.1598C43.5539 10.1652 43.3135 9.20379 43.0489 8.01284C42.7842 6.81918 42.5925 5.84698 42.6222 5.84158C42.6519 5.83617 42.8922 6.79758 43.1569 7.98853C43.4215 9.18218 43.6133 10.1544 43.5836 10.1598Z" fill="#455A64"/>
<path d="M42.5558 11.4398C42.5612 11.4695 37.368 12.6524 30.9541 14.0837C24.5375 15.5123 19.3335 16.6465 19.3281 16.6168C19.3227 16.5871 24.5159 15.4043 30.9298 13.973C37.3437 12.5444 42.5477 11.4101 42.5558 11.4398Z" fill="#455A64"/>
<path d="M28.887 32.8094C28.8951 32.8391 25.3898 33.6466 21.0635 34.6107C16.7345 35.5748 13.221 36.3336 13.2129 36.3012C13.2048 36.2715 16.7074 35.464 21.0365 34.4999C25.3655 33.5358 28.8789 32.7797 28.887 32.8094Z" fill="#263238"/>
<path d="M55.0055 29.8683C55.0136 29.898 45.8587 31.964 34.5622 34.4836C23.2603 37.0032 14.0972 39.0178 14.0918 38.9881C14.0837 38.9584 23.2386 36.8925 34.5378 34.3729C45.8316 31.8532 54.9974 29.8386 55.0055 29.8683Z" fill="#263238"/>
<path d="M55.566 32.3935C55.5741 32.4232 46.4192 34.4892 35.1227 37.0088C23.8208 39.5284 14.6578 41.5431 14.6523 41.5134C14.6442 41.4836 23.7992 39.4177 35.0984 36.8981C46.3949 34.3784 55.5606 32.3611 55.566 32.3935Z" fill="#263238"/>
<path d="M56.1305 34.9184C56.1386 34.9481 46.9837 37.014 35.6872 39.5336C24.3853 42.0533 15.2222 44.0679 15.2168 44.0382C15.2087 44.0085 24.3636 41.9425 35.6628 39.4229C46.9566 36.9033 56.1224 34.8859 56.1305 34.9184Z" fill="#263238"/>
<path d="M56.693 37.4409C56.7011 37.4706 47.5462 39.5365 36.2497 42.0562C24.9478 44.5758 15.7847 46.5904 15.7793 46.5607C15.7712 46.531 24.9261 44.4651 36.2253 41.9454C47.5191 39.4285 56.6849 37.4112 56.693 37.4409Z" fill="#263238"/>
<path d="M57.2535 39.9657C57.2616 39.9954 48.1067 42.0614 36.8102 44.581C25.5083 47.1006 16.3453 49.1153 16.3398 49.0855C16.3317 49.0558 25.4867 46.9899 36.7859 44.4703C48.0824 41.9533 57.2481 39.936 57.2535 39.9657Z" fill="#263238"/>
<path d="M24.2757 57.7355C24.273 57.7328 24.2649 57.7058 24.2514 57.6491C24.2352 57.587 24.2163 57.5059 24.192 57.4087C24.1406 57.19 24.0677 56.8875 23.9786 56.5067C23.7977 55.7263 23.5438 54.6298 23.2414 53.3174L23.3008 53.3552C22.0126 53.6441 20.4922 53.9871 18.8718 54.349C18.861 54.3625 18.9528 54.2221 18.915 54.2815V54.2842V54.2896L18.9177 54.3004L18.9231 54.3193L18.9312 54.3571L18.9474 54.4327L18.9798 54.5839C19.0015 54.6838 19.0258 54.7838 19.0474 54.8837C19.0906 55.0835 19.1365 55.2807 19.1797 55.4751C19.2661 55.8667 19.3498 56.2475 19.4335 56.6202C19.5983 57.3628 19.7522 58.065 19.8926 58.7104L19.8332 58.6726C21.1511 58.389 22.2502 58.1541 23.0334 57.984C23.4169 57.9029 23.7221 57.8408 23.9408 57.7949C24.0407 57.776 24.119 57.7598 24.1839 57.7463C24.2433 57.7382 24.273 57.7355 24.2757 57.7355C24.2784 57.7382 24.2514 57.7436 24.2001 57.7571C24.1406 57.7733 24.0623 57.7922 23.9678 57.8138C23.7518 57.8651 23.452 57.9353 23.0766 58.0245C22.2881 58.2054 21.1808 58.462 19.8548 58.7671L19.8062 58.7779L19.7954 58.7293C19.6496 58.0839 19.493 57.3844 19.3255 56.6418C19.2418 56.2691 19.1554 55.8883 19.069 55.4967C19.0258 55.3023 18.9799 55.1051 18.9366 54.9053C18.915 54.8054 18.8907 54.7055 18.8691 54.6055L18.8367 54.4543L18.8205 54.3787L18.8124 54.3409L18.807 54.322L18.8043 54.3112V54.3058V54.3031C18.7665 54.3625 18.8556 54.2194 18.8475 54.2356C20.4679 53.8764 21.9883 53.5415 23.2792 53.2552L23.3278 53.2444L23.3386 53.2931C23.6248 54.6217 23.8625 55.7344 24.0326 56.5256C24.1109 56.9037 24.1731 57.2062 24.219 57.4222C24.2379 57.5168 24.2541 57.5951 24.2649 57.6572C24.273 57.7112 24.2784 57.7382 24.2757 57.7355Z" fill="#263238"/>
<path d="M57.1984 46.8177L26.2988 53.7029L26.8733 56.281L57.7728 49.3958L57.1984 46.8177Z" fill="#E0E0E0"/>
<path d="M25.9886 65.4188C25.9859 65.4161 25.9778 65.3891 25.9643 65.3324C25.9481 65.2702 25.9292 65.1892 25.9048 65.092C25.8535 64.8733 25.7806 64.5708 25.6915 64.19C25.5106 63.4095 25.2567 62.3131 24.9542 61.0006L25.0137 61.0384C23.7255 61.3274 22.2051 61.6704 20.5874 62.0323C20.5766 62.0458 20.6684 61.9053 20.6306 61.9647V61.9674V61.9728L20.6333 61.9836L20.6387 62.0025L20.6468 62.0404L20.663 62.116L20.6954 62.2672C20.717 62.3671 20.7413 62.467 20.763 62.567C20.8062 62.7668 20.8521 62.964 20.8953 63.1584C20.9817 63.55 21.0654 63.9308 21.1491 64.3034C21.3139 65.0461 21.4678 65.7482 21.6082 66.3937L21.5488 66.3559C22.8667 66.0723 23.9658 65.8374 24.749 65.6672C25.1325 65.5862 25.4376 65.5241 25.6564 65.4782C25.7563 65.4593 25.8346 65.4431 25.8994 65.4296C25.9562 65.4242 25.9859 65.4188 25.9886 65.4188C25.9913 65.4215 25.9643 65.4269 25.9129 65.4404C25.8535 65.4566 25.7752 65.4755 25.6807 65.4971C25.4647 65.5484 25.1649 65.6186 24.7895 65.7077C24.0009 65.8887 22.8937 66.1452 21.5677 66.4504L21.5191 66.4612L21.5083 66.4126C21.3625 65.7671 21.2058 65.0677 21.0384 64.325C20.9547 63.9524 20.8683 63.5716 20.7819 63.18C20.7386 62.9856 20.6927 62.7884 20.6495 62.5886C20.6279 62.4887 20.6036 62.3887 20.582 62.2888L20.5496 62.1376L20.5334 62.062L20.5253 62.0269L20.5199 62.008L20.5172 61.9971V61.9917V61.989C20.4794 62.0485 20.5685 61.9053 20.5604 61.9215C22.1808 61.5624 23.7012 61.2275 24.9921 60.9412L25.0407 60.9304L25.0515 60.979C25.3377 62.3077 25.5754 63.4204 25.7455 64.2116C25.8238 64.5897 25.8859 64.8922 25.9319 65.1082C25.9508 65.2027 25.967 65.281 25.9778 65.3432C25.9859 65.3945 25.9913 65.4215 25.9886 65.4188Z" fill="#263238"/>
<path d="M58.9093 54.5013L28.0098 61.3865L28.5842 63.9645L59.4838 57.0793L58.9093 54.5013Z" fill="#E0E0E0"/>
<path d="M27.6995 73.1018C27.6968 73.0991 27.6887 73.0721 27.6752 73.0154C27.659 72.9532 27.6401 72.8722 27.6158 72.775C27.5645 72.5563 27.4916 72.2538 27.4024 71.873C27.2215 71.0925 26.9676 69.9961 26.6652 68.6836L26.7246 68.7214C25.4364 69.0104 23.916 69.3534 22.2984 69.7153C22.2876 69.7288 22.3794 69.5883 22.3416 69.6477V69.6504V69.6558L22.3443 69.6666L22.3497 69.6855L22.3578 69.7234L22.374 69.799L22.4064 69.9502C22.428 70.0501 22.4523 70.15 22.4739 70.25C22.5171 70.4498 22.563 70.6469 22.6062 70.8414C22.6926 71.233 22.7764 71.6138 22.8601 71.9864C23.0248 72.7291 23.1787 73.4312 23.3192 74.0767L23.2598 74.0389C24.5776 73.7553 25.6768 73.5204 26.4599 73.3502C26.8434 73.2692 27.1486 73.2071 27.3673 73.1612C27.4673 73.1423 27.5456 73.1261 27.6104 73.1126C27.6671 73.1072 27.6968 73.1018 27.6995 73.1018C27.7022 73.1045 27.6752 73.1099 27.6239 73.1234C27.5645 73.1396 27.4862 73.1585 27.3916 73.1801C27.1756 73.2314 26.8758 73.3016 26.5004 73.3907C25.7119 73.5717 24.6046 73.8282 23.2787 74.1334L23.2301 74.1442L23.2193 74.0956C23.0734 73.4501 22.9168 72.7507 22.7494 72.008C22.6656 71.6354 22.5792 71.2546 22.4928 70.863C22.4496 70.6686 22.4064 70.4714 22.3605 70.2716C22.3389 70.1717 22.3146 70.0717 22.293 69.9718L22.2605 69.8206L22.2443 69.745L22.2362 69.7071L22.2308 69.6882L22.2281 69.6774V69.672V69.6693C22.1903 69.7288 22.2795 69.5856 22.2713 69.6018C23.8917 69.2427 25.4121 68.9078 26.703 68.6215L26.7516 68.6107L26.7624 68.6593C27.0487 69.988 27.2863 71.1006 27.4565 71.8919C27.5348 72.27 27.5969 72.5725 27.6428 72.7885C27.6617 72.883 27.6779 72.9613 27.6887 73.0235C27.6968 73.0775 27.7022 73.1045 27.6995 73.1018Z" fill="#263238"/>
<path d="M60.6222 62.1848L29.7227 69.07L30.2971 71.648L61.1967 64.7628L60.6222 62.1848Z" fill="#E0E0E0"/>
<path d="M20.0195 56.1476L20.484 55.4184L21.864 56.1854L23.6383 53.5064L24.3269 53.979L22.0342 57.3547L20.0195 56.1476Z" fill="#E8772B"/>
<path d="M21.6738 63.5743L22.1383 62.8452L23.5183 63.6121L25.2926 60.9332L25.9812 61.4058L23.6885 64.7815L21.6738 63.5743Z" fill="#E8772B"/>
<path d="M23.3711 71.1899L23.8356 70.4608L25.2156 71.225L26.9899 68.5488L27.6785 69.0214L25.3857 72.3971L23.3711 71.1899Z" fill="#FF725E"/>
<path d="M37.5132 80.7444C37.5213 80.7741 34.9126 81.3818 31.6881 82.1001C28.4636 82.8185 25.8441 83.3775 25.836 83.3451C25.8279 83.3154 28.4366 82.7077 31.6638 81.9894C34.8856 81.271 37.5078 80.7147 37.5132 80.7444Z" fill="#263238"/>
<path d="M43.3344 79.3538C43.3425 79.3835 42.381 79.6238 41.1901 79.8885C39.9991 80.1531 39.0296 80.3449 39.0215 80.3125C39.0134 80.2828 39.9748 80.0424 41.1658 79.7778C42.3567 79.5131 43.3263 79.3241 43.3344 79.3538Z" fill="#263238"/>
<path d="M62.5998 73.291C62.6079 73.3207 60.2584 73.8716 57.3579 74.517C54.4548 75.1652 52.0972 75.6648 52.0918 75.6324C52.0837 75.6027 54.4305 75.0518 57.3336 74.4063C60.234 73.7582 62.5916 73.2586 62.5998 73.291Z" fill="#263238"/>
<path d="M60.0908 80.3987C60.0854 80.396 60.1124 80.3258 60.1421 80.1827C60.1745 80.0422 60.1745 79.8235 60.1097 79.5588C60.0422 79.2915 59.9018 78.9863 59.737 78.6298C59.5777 78.2761 59.3698 77.8548 59.3671 77.3417C59.3752 76.8393 59.5966 76.2803 60.0503 75.8887C60.4986 75.4891 61.2061 75.3486 61.8462 75.5539C62.1649 75.6565 62.4727 75.8374 62.6996 76.1156C62.8076 76.256 62.8967 76.4262 62.9021 76.6206C62.9183 76.8177 62.7671 77.0149 62.5861 77.077C62.4052 77.1445 62.2324 77.1661 62.0541 77.2093C61.8759 77.2471 61.6976 77.2822 61.5167 77.3201C61.1548 77.3903 60.7876 77.4578 60.4122 77.5064C59.6614 77.6063 58.908 77.6198 58.2031 77.5199C57.8574 77.4821 57.4929 77.4767 57.2336 77.6765C56.9743 77.8737 56.842 78.195 56.6503 78.4651C56.5558 78.6001 56.4342 78.7325 56.2749 78.8027C56.1183 78.8756 55.9346 78.8729 55.7807 78.8243C55.4701 78.7189 55.2406 78.511 54.9921 78.3706C54.8706 78.2977 54.7437 78.2409 54.6113 78.2274C54.4817 78.2139 54.3521 78.2463 54.2495 78.3193C54.0415 78.4678 53.9308 78.7135 53.7931 78.9188C53.5203 79.3563 53.0504 79.5615 52.6534 79.5777C52.2456 79.5966 51.9162 79.4238 51.7082 79.2429C51.4949 79.0565 51.3896 78.8594 51.3355 78.7243C51.2815 78.5866 51.2734 78.511 51.2734 78.511C51.2788 78.5083 51.295 78.5839 51.3545 78.7162C51.4166 78.8459 51.5246 79.0349 51.7352 79.2105C51.9432 79.3833 52.2618 79.5399 52.648 79.5156C53.0288 79.4967 53.469 79.2942 53.7256 78.8783C53.8606 78.6784 53.9632 78.4246 54.2009 78.2517C54.317 78.168 54.4709 78.1275 54.6221 78.141C54.7734 78.1545 54.9111 78.2193 55.0407 78.295C55.2973 78.4408 55.5295 78.6433 55.8104 78.7352C55.9508 78.7784 56.1021 78.7784 56.2344 78.7162C56.3694 78.6568 56.4774 78.5434 56.5666 78.4111C56.7529 78.1545 56.8798 77.8224 57.1715 77.5955C57.3173 77.4821 57.4983 77.4254 57.6765 77.4065C57.8574 77.3876 58.0384 77.3984 58.2166 77.4146C58.9215 77.5145 59.6533 77.4983 60.4014 77.4011C60.7741 77.3525 61.1386 77.2876 61.5005 77.2174C61.6814 77.1796 61.8597 77.1445 62.0352 77.1067C62.2108 77.0662 62.3944 77.0419 62.5483 76.9825C62.7023 76.9258 62.8076 76.7907 62.7968 76.6314C62.7941 76.4748 62.7185 76.3181 62.6185 76.1912C62.4106 75.9374 62.1189 75.7618 61.8165 75.6619C61.2088 75.4648 60.5418 75.5944 60.1151 75.9698C59.6803 76.3397 59.4616 76.8718 59.4508 77.3525C59.4481 77.8386 59.6425 78.2571 59.7991 78.6136C59.9585 78.9701 60.0962 79.2861 60.1583 79.5588C60.2177 79.8316 60.2096 80.0557 60.1691 80.1962C60.1286 80.3312 60.0908 80.3987 60.0908 80.3987Z" fill="#263238"/>
<path d="M65.6723 76.942C65.6723 76.9447 65.6237 76.9609 65.5318 76.9852C65.4265 77.0095 65.2915 77.0419 65.1241 77.0824C64.7541 77.1689 64.2437 77.2877 63.6171 77.4308C62.3452 77.7252 60.5898 78.1411 58.6616 78.6299C56.7307 79.1187 54.9888 79.5913 53.7303 79.9369C53.1119 80.1071 52.6042 80.2475 52.2396 80.3474C52.0722 80.3906 51.9372 80.4284 51.8345 80.4554C51.74 80.4798 51.6914 80.4906 51.6914 80.4852C51.6914 80.4825 51.7373 80.4636 51.8291 80.4338C51.9318 80.4014 52.0641 80.3582 52.2288 80.3042C52.5772 80.1935 53.0822 80.0423 53.7087 79.8586C54.9618 79.4913 56.701 79.0079 58.6319 78.5191C60.5628 78.0303 62.3209 77.6252 63.5982 77.3498C64.2356 77.2121 64.7541 77.104 65.1133 77.0365C65.2834 77.0041 65.4211 76.9798 65.5264 76.9582C65.621 76.9447 65.6723 76.9366 65.6723 76.942Z" fill="#263238"/>
<path d="M43.5237 17.6843L22.5488 22.358L23.427 26.2989L44.4018 21.6252L43.5237 17.6843Z" fill="#E0E0E0"/>
<path d="M63.3633 81.6329L70.1417 117.434L76.3341 105.992L88.0708 112.881L75.6104 78.0195L63.3633 81.6329Z" fill="#E8772B"/>
<g opacity="0.3">
<path d="M65.6426 93.6747C66.8957 93.934 68.3567 93.4911 69.2452 92.5702C69.8636 91.9302 70.2741 91.0633 71.0519 90.6366C71.7513 90.2531 72.6128 90.3071 73.3798 90.5205C74.1494 90.7338 74.8732 91.0876 75.6428 91.2901C77.1552 91.6817 78.8241 91.436 80.1582 90.6204L78.203 85.1922L69.1291 84.058L64.8027 89.2566L65.6426 93.6747Z" fill="black"/>
</g>
<path d="M75.8921 104.569C75.8543 104.58 74.8443 100.861 73.6398 96.2646C72.4327 91.6683 71.4848 87.9334 71.5226 87.9253C71.5604 87.9145 72.5677 91.6331 73.7776 96.2295C74.982 100.826 75.9299 104.561 75.8921 104.569Z" fill="#263238"/>
<path d="M64.3579 83.4964L57.5795 119.295L51.3871 107.853L39.6504 114.742L52.1108 79.883L64.3579 83.4964Z" fill="#E8772B"/>
<g opacity="0.3">
<path d="M48.3828 90.3099C48.3828 90.3099 50.311 91.8952 52.6092 91.166C54.9074 90.4342 56.336 90.2802 57.581 91.166C58.8259 92.0518 62.1935 94.936 62.1935 94.936L62.974 90.8068L58.4506 84.5955L53.7272 85.5488L50.3623 85.8837L49.112 88.2494L48.3828 90.3099Z" fill="black"/>
</g>
<path d="M104.086 51.1786C104.086 53.7469 100.802 55.9586 100.322 58.3865C99.8273 60.8872 102.004 64.1846 101.051 66.4855C100.078 68.8269 96.1977 69.6154 94.8069 71.6949C93.4026 73.7932 94.1507 77.6767 92.3737 79.4536C90.5967 81.2306 86.7106 80.4825 84.615 81.8868C82.5328 83.2803 81.747 87.1611 79.4056 88.1306C77.1047 89.0839 73.8073 86.9072 71.3066 87.4014C68.8787 87.8821 66.667 91.166 64.0987 91.166C61.5305 91.166 59.3187 87.8821 56.8909 87.4014C54.3902 86.9072 51.0928 89.0839 48.7919 88.1306C46.4505 87.1584 45.6619 83.2776 43.5825 81.8841C41.4841 80.4798 37.6007 81.2279 35.8237 79.4509C34.0467 77.674 34.7948 73.7878 33.3905 71.6922C31.997 69.61 28.1163 68.8242 27.1468 66.4828C26.1935 64.1819 28.3701 60.8845 27.8759 58.3838C27.3952 55.9559 24.1113 53.7442 24.1113 51.1759C24.1113 48.6077 27.3952 46.3959 27.8759 43.9681C28.3701 41.4674 26.1935 38.17 27.1468 35.8691C28.119 33.5277 31.9997 32.7391 33.3905 30.6597C34.7948 28.5613 34.0467 24.6779 35.8237 22.9009C37.6007 21.1239 41.4868 21.872 43.5825 20.4677C45.6646 19.0742 46.4505 15.1935 48.7919 14.224C51.0928 13.2707 54.3902 15.4473 56.8909 14.9531C59.3187 14.4724 61.5305 11.1885 64.0987 11.1885C66.667 11.1885 68.8787 14.4724 71.3066 14.9531C73.8073 15.4473 77.1047 13.2707 79.4056 14.224C81.747 15.1962 82.5355 19.0769 84.615 20.4704C86.7133 21.8747 90.5967 21.1266 92.3737 22.9036C94.1507 24.6806 93.4026 28.5667 94.8069 30.6624C96.2004 32.7445 100.081 33.5304 101.051 35.8718C102.004 38.1727 99.8273 41.4701 100.322 43.9708C100.802 46.3986 104.086 48.6104 104.086 51.1786Z" fill="#E8772B"/>
<path d="M54.7355 28.7639C54.7301 28.7666 54.7058 28.7287 54.6626 28.6531C54.6113 28.564 54.5519 28.456 54.479 28.3237C54.3196 28.0374 54.1036 27.6161 53.8416 27.0922C53.3204 26.0444 52.6453 24.5699 51.9944 22.9063C51.3463 21.2401 50.844 19.698 50.5172 18.5746C50.3525 18.0129 50.231 17.5538 50.1526 17.2378C50.1175 17.092 50.0878 16.9705 50.0662 16.8705C50.0473 16.7868 50.0392 16.7409 50.0446 16.7409C50.05 16.7409 50.0662 16.7814 50.0932 16.8651C50.1229 16.9624 50.1607 17.0812 50.2066 17.2243C50.3093 17.5592 50.447 18.0048 50.6144 18.5476C50.9655 19.6629 51.4786 21.1942 52.1268 22.8577C52.7749 24.5186 53.4338 25.9958 53.9307 27.0517C54.1765 27.5648 54.3763 27.9861 54.5276 28.3021C54.5924 28.4371 54.6437 28.5505 54.6869 28.6423C54.7247 28.7179 54.7409 28.7612 54.7355 28.7639Z" fill="#263238"/>
<path d="M58.2955 27.4108C58.2874 27.4135 58.2496 27.3082 58.1929 27.1137C58.1362 26.9193 58.0578 26.6384 57.9687 26.2874C57.7905 25.5852 57.569 24.6103 57.3692 23.5247C57.1694 22.4391 57.0289 21.4479 56.9479 20.7296C56.9074 20.3704 56.8777 20.0788 56.8642 19.8762C56.848 19.6737 56.8453 19.5629 56.8561 19.5602C56.8669 19.5602 56.8885 19.6683 56.9209 19.8681C56.956 20.0977 56.9992 20.3812 57.0505 20.7134C57.1586 21.4263 57.3125 22.412 57.5123 23.4977C57.7122 24.5806 57.9174 25.5582 58.0687 26.2631C58.1389 26.5925 58.201 26.8734 58.2496 27.1002C58.2874 27.2974 58.3063 27.4081 58.2955 27.4108Z" fill="#263238"/>
<path d="M64.5725 26.7872C64.5347 26.7872 64.4348 23.7598 64.3484 20.0222C64.2647 16.2846 64.2269 13.2546 64.2647 13.2519C64.3025 13.2519 64.4024 16.2792 64.4888 20.0168C64.5752 23.7544 64.6104 26.7845 64.5725 26.7872Z" fill="#263238"/>
<path d="M70.893 20.5623C70.9308 20.5731 70.4933 22.0881 69.9181 23.9461C69.3429 25.8041 68.846 27.3002 68.8109 27.2867C68.7731 27.2759 69.2106 25.7609 69.7858 23.9029C70.3583 22.0476 70.8552 20.5515 70.893 20.5623Z" fill="#263238"/>
<path d="M73.4699 28.3884C73.4645 28.3857 73.478 28.3425 73.505 28.2615C73.5374 28.1643 73.578 28.0482 73.6293 27.905C73.7373 27.5972 73.9047 27.1543 74.1154 26.6061C74.5367 25.515 75.1443 24.0162 75.8356 22.3716C76.527 20.7242 77.1697 19.2416 77.6423 18.1722C77.8746 17.6537 78.069 17.227 78.2121 16.9083C78.2769 16.7733 78.331 16.6598 78.3742 16.568C78.412 16.4897 78.4363 16.4519 78.439 16.4519C78.4444 16.4546 78.4309 16.4978 78.3985 16.5788C78.3607 16.6734 78.3148 16.7895 78.2607 16.9299C78.1284 17.254 77.9502 17.6861 77.7341 18.21C77.275 19.3064 76.6539 20.789 75.9653 22.4256C75.282 24.0621 74.6663 25.5447 74.2072 26.6439C73.9911 27.1705 73.8129 27.6026 73.6806 27.9239C73.6212 28.0617 73.5725 28.1751 73.532 28.2696C73.4969 28.3506 73.4753 28.3911 73.4699 28.3884Z" fill="#263238"/>
<path d="M76.8465 30.1492C76.8384 30.1438 76.8924 30.0466 77.0004 29.8738C77.1058 29.7009 77.2678 29.4579 77.4703 29.1581C77.8754 28.5586 78.4587 27.7457 79.1366 26.8761C79.8171 26.0066 80.4626 25.2423 80.946 24.7022C81.1863 24.4321 81.3862 24.2161 81.5266 24.0729C81.667 23.9271 81.748 23.8515 81.7561 23.8569C81.7642 23.8623 81.6967 23.9541 81.5671 24.1108C81.4186 24.289 81.2376 24.5104 81.0216 24.7697C80.5598 25.3233 79.9252 26.0957 79.2473 26.9653C78.5695 27.8348 77.9753 28.6369 77.5514 29.2202C77.3515 29.493 77.1814 29.7225 77.0463 29.9116C76.9248 30.0682 76.8546 30.1546 76.8465 30.1492Z" fill="#263238"/>
<path d="M81.7561 34.1758C81.7291 34.1461 83.8653 32.1153 86.528 29.6416C89.1908 27.1651 91.3702 25.1802 91.3972 25.2099C91.4242 25.2396 89.288 27.2678 86.6252 29.7469C83.9598 32.2179 81.7804 34.2028 81.7561 34.1758Z" fill="#263238"/>
<path d="M90.3346 35.013C90.3427 35.0319 90.0267 35.1912 89.5217 35.4559C89.014 35.7205 88.3254 36.1013 87.5638 36.5307C86.8022 36.9574 86.1001 37.3274 85.5816 37.5704C85.3223 37.6919 85.109 37.7865 84.9605 37.8459C84.8119 37.9053 84.7282 37.935 84.7228 37.9269C84.7147 37.908 85.0307 37.7487 85.5357 37.484C86.0434 37.2193 86.732 36.8386 87.4936 36.4092C88.2552 35.9825 88.9573 35.6125 89.4758 35.3694C89.7351 35.2479 89.9484 35.1534 90.0969 35.094C90.2455 35.0346 90.3292 35.0049 90.3346 35.013Z" fill="#263238"/>
<path d="M98.2725 38.3077C98.286 38.3455 95.7421 39.2718 92.5932 40.3817C89.4416 41.4916 86.8788 42.3612 86.8653 42.3234C86.8518 42.2856 89.3957 41.3593 92.5473 40.2494C95.6962 39.1421 98.2617 38.2726 98.2725 38.3077Z" fill="#263238"/>
<path d="M100.8 52.7477C100.798 52.7855 98.0322 52.5559 94.6268 52.2318C91.2214 51.9078 88.4614 51.6134 88.4668 51.5756C88.4695 51.5378 91.2349 51.7673 94.6403 52.0914C98.0457 52.4155 100.806 52.7071 100.8 52.7477Z" fill="#263238"/>
<path d="M98.77 65.6969C98.7538 65.732 96.1694 64.5465 92.9989 63.0476C89.8284 61.5488 87.271 60.3066 87.2872 60.2715C87.3034 60.2363 89.8878 61.4219 93.0583 62.9207C96.2288 64.4195 98.7862 65.6618 98.77 65.6969Z" fill="#263238"/>
<path d="M90.269 78.0196C90.2393 78.0439 88.3759 75.8834 86.1074 73.191C83.8362 70.4985 82.0214 68.2975 82.0511 68.2705C82.0808 68.2462 83.9442 70.4067 86.2154 73.0992C88.4812 75.7916 90.2987 77.9953 90.269 78.0196Z" fill="#263238"/>
<path d="M83.172 79.6481C83.1639 79.6535 83.0829 79.5454 82.9479 79.3456C82.8101 79.1457 82.6157 78.8514 82.3807 78.4868C81.9108 77.7549 81.2816 76.7341 80.62 75.5837C79.9583 74.4359 79.3858 73.3773 78.9888 72.605C78.789 72.2188 78.6323 71.9055 78.527 71.6841C78.4217 71.4653 78.3677 71.3411 78.3758 71.3357C78.3839 71.3303 78.4541 71.4464 78.5756 71.6571C78.708 71.892 78.8754 72.1945 79.0752 72.5563C79.4965 73.3152 80.0799 74.363 80.7415 75.5108C81.4031 76.6585 82.0189 77.6874 82.4672 78.4301C82.6805 78.7839 82.856 79.0809 82.9938 79.3132C83.1153 79.5238 83.1801 79.6427 83.172 79.6481Z" fill="#263238"/>
<path d="M78.764 85.8459C78.7586 85.8486 78.7343 85.8108 78.6937 85.7352C78.6451 85.646 78.5884 85.5353 78.5182 85.4057C78.367 85.1194 78.1563 84.6981 77.9079 84.1715C77.411 83.121 76.7709 81.6465 76.1633 79.9802C75.5557 78.3113 75.0966 76.772 74.8022 75.6458C74.6537 75.0841 74.543 74.6277 74.4755 74.309C74.4457 74.1632 74.4187 74.0417 74.3971 73.9418C74.3809 73.858 74.3755 73.8121 74.3809 73.8121C74.3863 73.8121 74.3998 73.8526 74.4268 73.9364C74.4539 74.0336 74.489 74.1524 74.5295 74.2955C74.624 74.6304 74.7482 75.076 74.8994 75.6188C75.2181 76.7342 75.6907 78.2654 76.2956 79.9316C76.9033 81.5952 77.5244 83.0724 77.9997 84.131C78.2319 84.6441 78.4237 85.0681 78.5668 85.3814C78.6289 85.5164 78.6775 85.6298 78.7208 85.7217C78.7505 85.8 78.7667 85.8432 78.764 85.8459Z" fill="#263238"/>
<path d="M69.8349 81.5006C69.8133 81.5006 69.7809 81.1415 69.7188 80.5608C69.6567 79.9802 69.5595 79.1781 69.4109 78.3005C69.2624 77.4228 69.095 76.6315 68.9653 76.0617C68.8357 75.4919 68.7493 75.1408 68.7709 75.1354C68.779 75.1327 68.8141 75.2164 68.8654 75.373C68.9167 75.5297 68.9869 75.7565 69.0625 76.0374C69.2165 76.6018 69.4028 77.3931 69.5514 78.2761C69.6999 79.1592 69.7809 79.9667 69.8187 80.55C69.8376 80.8417 69.8484 81.0793 69.8484 81.2441C69.8484 81.4088 69.8457 81.5006 69.8349 81.5006Z" fill="#263238"/>
<path d="M63.9961 89.2756C63.9907 89.2756 63.988 89.227 63.9853 89.1379C63.9826 89.0299 63.9826 88.9002 63.9799 88.7409C63.9772 88.3952 63.9772 87.8983 63.9907 87.2799C64.0123 86.0484 64.069 84.3444 64.1663 82.4675C64.2635 80.5879 64.385 78.8892 64.4849 77.6605C64.5362 77.0474 64.5795 76.5505 64.6146 76.2076C64.6335 76.0482 64.647 75.9186 64.6578 75.8133C64.6686 75.7242 64.6794 75.6755 64.6821 75.6755C64.6875 75.6755 64.6875 75.7242 64.6848 75.8133C64.6794 75.9213 64.674 76.0509 64.6659 76.2103C64.6443 76.5748 64.6146 77.069 64.5795 77.6659C64.5065 78.9162 64.4093 80.6041 64.304 82.4729C64.2041 84.3498 64.1339 86.0511 64.0879 87.2826C64.0663 87.8821 64.0474 88.3763 64.0339 88.7409C64.0258 88.9002 64.0204 89.0299 64.015 89.1379C64.0042 89.227 63.9988 89.2756 63.9961 89.2756Z" fill="#263238"/>
<path d="M59.2452 75.6728C59.2641 75.6755 59.2344 75.9402 59.1642 76.3615C59.094 76.7827 58.9805 77.3634 58.832 78.0007C58.6835 78.638 58.5268 79.2079 58.4026 79.6157C58.2784 80.0261 58.1866 80.2746 58.1677 80.2692C58.1488 80.2638 58.2055 80.0045 58.3054 79.5886C58.4161 79.1241 58.5485 78.5759 58.6943 77.9656C58.8347 77.3553 58.9589 76.8044 59.067 76.3399C59.1642 75.9267 59.2263 75.6701 59.2452 75.6728Z" fill="#263238"/>
<path d="M50.6632 71.5491C50.6929 71.5734 50.1663 72.3214 49.4803 73.2234C48.7971 74.1254 48.2165 74.8357 48.1867 74.8141C48.157 74.7898 48.6837 74.0417 49.3696 73.1397C50.0528 72.2377 50.6308 71.5248 50.6632 71.5491Z" fill="#263238"/>
<path d="M46.1581 68.5217C46.1878 68.546 44.5108 70.5147 42.4151 72.9155C40.3195 75.3191 38.5965 77.2446 38.5668 77.2176C38.5371 77.1933 40.2141 75.2245 42.3098 72.821C44.4054 70.4229 46.1284 68.4974 46.1581 68.5217Z" fill="#263238"/>
<path d="M43.9062 65.173C43.9305 65.2027 42.9988 66.0128 41.8241 66.9796C40.6493 67.9491 39.6771 68.708 39.6528 68.6783C39.6285 68.6486 40.5602 67.8384 41.7349 66.8716C42.907 65.9048 43.8792 65.1433 43.9062 65.173Z" fill="#263238"/>
<path d="M41.2677 60.1202C41.2839 60.1553 38.9506 61.3139 36.0556 62.7101C33.1578 64.1063 30.7975 65.2081 30.7813 65.173C30.7651 65.1379 33.0984 63.9793 35.9961 62.5831C38.8912 61.1869 41.2515 60.0851 41.2677 60.1202Z" fill="#263238"/>
<path d="M40.2095 57.5978C40.2122 57.6086 40.1257 57.6329 39.9664 57.6707C39.8098 57.7085 39.5775 57.7571 39.294 57.8084C38.7241 57.9138 37.9302 58.0353 37.0498 58.1244C36.1694 58.2135 35.3673 58.2513 34.7867 58.2594C34.4977 58.2648 34.2628 58.2621 34.1008 58.2567C33.9387 58.2513 33.8496 58.2432 33.8496 58.2351C33.8496 58.2135 34.2061 58.1946 34.784 58.1595C35.3619 58.1244 36.1586 58.0704 37.0363 57.9813C37.914 57.8922 38.7052 57.7895 39.2778 57.7085C39.8503 57.6302 40.2068 57.5789 40.2095 57.5978Z" fill="#263238"/>
<path d="M39.3526 51.7808C39.3526 51.7916 39.1825 51.7862 38.88 51.77C38.5533 51.7538 38.1212 51.7322 37.5946 51.7052C36.5089 51.6539 35.0101 51.6026 33.3547 51.6107C31.6992 51.6215 30.2004 51.6863 29.1147 51.7511C28.5908 51.7835 28.1587 51.8105 27.832 51.8322C27.5295 51.8511 27.3594 51.8565 27.3594 51.8484C27.3594 51.8376 27.5241 51.8132 27.8266 51.7781C28.129 51.7403 28.5665 51.6971 29.1093 51.6539C30.1923 51.5648 31.6938 51.4838 33.3547 51.473C35.0155 51.4649 36.517 51.5297 37.6 51.608C38.1428 51.6458 38.5803 51.6863 38.8827 51.7187C39.1879 51.7484 39.3553 51.77 39.3526 51.7808Z" fill="#263238"/>
<path d="M39.8856 46.6714C39.8748 46.7092 38.1275 46.2528 35.9806 45.6559C33.8336 45.0564 32.1025 44.5406 32.1133 44.5028C32.1241 44.465 33.8714 44.9214 36.0184 45.5182C38.1626 46.1177 39.8964 46.6336 39.8856 46.6714Z" fill="#263238"/>
<path d="M41.0128 42.3856C41.0101 42.391 40.9669 42.3802 40.8859 42.3559C40.7886 42.3262 40.6698 42.291 40.5294 42.2478C40.2188 42.1533 39.7759 42.0021 39.2304 41.8022C38.1421 41.4053 36.6568 40.8003 35.0688 40.0199C33.4809 39.2367 32.0955 38.4292 31.1179 37.8054C30.6291 37.4948 30.2375 37.2356 29.9728 37.0465C29.8513 36.9601 29.7514 36.8899 29.6704 36.8305C29.6029 36.7792 29.5678 36.7522 29.5705 36.7468C29.5732 36.7441 29.6137 36.763 29.6866 36.8062C29.773 36.8602 29.8783 36.9223 30.0052 37.0006C30.278 37.1735 30.6777 37.4192 31.1719 37.719C32.1603 38.3185 33.5511 39.1098 35.1336 39.8902C36.7162 40.668 38.1907 41.2864 39.2682 41.705C39.8083 41.9157 40.2458 42.0804 40.5483 42.1911C40.686 42.2451 40.8021 42.2883 40.8967 42.3235C40.975 42.3613 41.0155 42.3802 41.0128 42.3856Z" fill="#263238"/>
<path d="M43.5572 38.0781C43.5356 38.1106 42.1664 37.187 40.5029 36.0149C38.8393 34.8429 37.508 33.868 37.5296 33.8355C37.5512 33.8031 38.9177 34.7267 40.5839 35.8988C42.2475 37.0708 43.5788 38.0484 43.5572 38.0781Z" fill="#263238"/>
<path d="M38.1838 24.9506C38.1865 24.9479 38.2216 24.9722 38.2864 25.0262C38.362 25.091 38.4511 25.1693 38.5618 25.2611C38.813 25.4853 39.1506 25.7824 39.5557 26.1415C40.409 26.9031 41.5568 27.9266 42.8261 29.0609C44.1007 30.187 45.2539 31.2078 46.1099 31.964C46.515 32.3258 46.8526 32.6229 47.1038 32.8471C47.2091 32.9443 47.2955 33.0253 47.3684 33.0928C47.4278 33.1495 47.4575 33.1819 47.4548 33.1846C47.4521 33.1873 47.4143 33.163 47.3495 33.1144C47.2712 33.0523 47.1794 32.9794 47.0659 32.8903C46.8229 32.6931 46.4718 32.4015 46.0451 32.0396C45.1864 31.3158 44.0143 30.3031 42.7315 29.1662C41.4515 28.0292 40.3064 26.9814 39.4854 26.2172C39.075 25.8337 38.7455 25.5204 38.5213 25.3017C38.4187 25.2017 38.335 25.118 38.2648 25.0478C38.2108 24.9884 38.1811 24.956 38.1838 24.9506Z" fill="#263238"/>
<path d="M46.6083 25.1963C46.6164 25.1909 46.6812 25.2585 46.7919 25.3827C46.9026 25.5096 47.0593 25.696 47.2456 25.9309C47.621 26.4008 48.1206 27.0624 48.6391 27.8186C49.1576 28.5748 49.5924 29.2823 49.8949 29.8035C50.0461 30.0628 50.1622 30.2761 50.2405 30.4247C50.3189 30.5732 50.3567 30.6596 50.3486 30.6623C50.3297 30.6731 50.1325 30.3598 49.8111 29.8521C49.4898 29.3471 49.0415 28.6504 48.5257 27.8969C48.0099 27.1435 47.5238 26.4737 47.17 25.9903C46.8108 25.5096 46.5921 25.2098 46.6083 25.1963Z" fill="#263238"/>
<g opacity="0.2">
<path d="M35.8145 22.9009L47.5619 33.1874L50.4813 30.8514L43.665 20.4056C43.665 20.4056 43.1438 20.7891 41.7854 21.1779C40.4702 21.5533 36.5976 21.6532 35.8145 22.9009Z" fill="black"/>
</g>
<g opacity="0.2">
<path d="M48.8906 14.1997L54.6266 28.5586L58.2913 27.4109L57.0707 14.9558C57.0707 14.9558 56.4387 15.1044 55.0398 14.9261C53.6841 14.7533 50.3921 13.4651 48.8906 14.1997Z" fill="black"/>
</g>
<g opacity="0.3">
<path d="M64.1895 11.1912L64.5729 26.7843L68.0081 26.949L71.4864 14.9801C71.4189 14.9747 70.5223 14.8181 69.4637 14.1429C68.2754 13.3841 65.853 11.0697 64.1895 11.1912Z" fill="black"/>
</g>
<g opacity="0.2">
<path d="M79.1736 14.1376L73.4727 28.5127L76.5756 29.9953L84.4208 20.3111C84.3614 20.2787 83.6187 19.6602 82.9301 18.5584C82.182 17.3648 80.91 14.6183 79.1736 14.1376Z" fill="black"/>
</g>
<g opacity="0.2">
<path d="M92.5601 23.1088L81.9414 34.1758L84.3071 37.3652L94.6827 30.4409C94.6827 30.4409 94.2479 29.7495 93.9995 28.4209C93.751 27.0733 93.7159 24.6238 92.5601 23.1088Z" fill="black"/>
</g>
<g opacity="0.2">
<path d="M100.942 35.6016L86.6426 41.4862L87.8281 45.14L100.27 43.7898C100.27 43.7898 100.191 43.4063 100.356 42.002C100.515 40.6436 101.941 37.6109 100.942 35.6016Z" fill="black"/>
</g>
<g opacity="0.2">
<path d="M104.108 51.1786L88.5203 51.7241L88.3906 55.1619L100.284 58.6403C100.289 58.5728 100.395 57.903 100.757 57.2198C101.629 55.567 104.108 53.2337 104.108 51.1786Z" fill="black"/>
</g>
<g opacity="0.2">
<path d="M101.236 65.921L86.8826 60.3254L85.4297 63.4446L95.195 71.1898C95.2247 71.1304 95.7945 70.6011 96.8909 69.9044C98.0819 69.1428 100.907 67.9168 101.236 65.921Z" fill="black"/>
</g>
<g opacity="0.2">
<path d="M80.1235 65.6968L76.5723 68.6783C76.8423 68.9591 81.5764 77.0068 84.493 81.9813C84.5336 81.9516 84.5714 81.9165 84.6119 81.8895C86.5347 80.604 89.9509 81.1198 91.8791 79.8451L80.1235 65.6968Z" fill="black"/>
<path d="M73.5949 71.3383L68.291 73.1476L70.8025 87.5471C70.9673 87.4904 71.1347 87.4418 71.3022 87.4094C73.8029 86.9152 77.1003 89.0918 79.4012 88.1385C79.7171 88.0062 80.0034 87.8199 80.2708 87.5957L73.5949 71.3383Z" fill="black"/>
<path d="M63.9089 91.1632L64.7569 72.351L60.1713 71.1898L56.7578 87.3878C56.801 87.3959 56.8415 87.4013 56.8847 87.4094C59.2531 87.8766 61.419 91.0147 63.9089 91.1632Z" fill="black"/>
<path d="M52.3783 69.1589C52.3783 69.1589 46.3182 77.2769 43.1504 81.6491C43.2989 81.722 43.4421 81.803 43.5771 81.8948C45.6592 83.2883 46.4451 87.1691 48.7865 88.1413C48.8945 88.1845 49.0052 88.2223 49.116 88.252L57.5823 72.2268L52.3783 69.1589Z" fill="black"/>
<path d="M46.1574 62.6235L33.2324 71.5084C33.281 71.5732 33.335 71.6354 33.381 71.7002C34.7853 73.7985 34.0372 77.6819 35.8142 79.4589C35.9789 79.6236 36.1652 79.7587 36.3597 79.8829C40.9264 74.7356 49.1253 65.4942 49.4224 65.1729L46.1574 62.6235Z" fill="black"/>
<path d="M43.1959 56.2799L27.9134 58.7482C28.1564 61.2004 26.2255 64.2952 27.1329 66.4881C27.1896 66.6231 27.2571 66.75 27.3301 66.8743C32.6772 64.2115 43.8522 58.6726 44.3167 58.6429L43.1959 56.2799Z" fill="black"/>
<path d="M42.3609 47.7676L27.9155 43.598C27.9047 43.7249 27.8885 43.8491 27.8642 43.9706C27.3835 46.3985 24.0996 48.6102 24.0996 51.1785C24.0996 51.3513 24.1158 51.5214 24.1428 51.6916H41.7749L42.3609 47.7676Z" fill="black"/>
<path d="M27.1953 35.7556C32.5938 38.6479 43.1503 44.5 43.1503 44.5L45.7483 39.5661L33.5444 30.3787C33.4931 30.4732 33.4417 30.5705 33.3823 30.6596C32.0131 32.7066 28.2458 33.506 27.1953 35.7556Z" fill="black"/>
</g>
<path d="M104.085 51.1786C104.085 51.1786 104.077 51.1219 104.069 51.0085C104.056 50.8951 104.058 50.7222 103.999 50.5062C103.915 50.066 103.667 49.4314 103.189 48.6968C102.724 47.9514 102.022 47.117 101.29 46.061C100.934 45.529 100.561 44.9295 100.364 44.2111C100.167 43.4901 100.205 42.6772 100.359 41.8589C100.507 41.0353 100.753 40.1873 100.969 39.288C101.166 38.3941 101.382 37.4165 101.182 36.4227C101.077 35.9312 100.842 35.464 100.513 35.0562C100.178 34.6511 99.7564 34.3108 99.3108 33.9895C98.4142 33.3521 97.3853 32.8444 96.3969 32.1801C95.9054 31.8479 95.4193 31.4752 95.0196 31.0026C94.6145 30.53 94.3525 29.9413 94.1743 29.331C93.8259 28.1022 93.7503 26.7897 93.4856 25.4746C93.3506 24.821 93.1697 24.1567 92.8213 23.568C92.481 22.9738 91.9274 22.5147 91.282 22.2366C90.6392 21.9503 89.9317 21.8045 89.216 21.6857C88.5004 21.5668 87.7658 21.4831 87.0313 21.3535C86.2967 21.2212 85.546 21.0483 84.8654 20.6729C84.1822 20.3003 83.6475 19.7007 83.2019 19.0607C82.7536 18.4153 82.3674 17.7239 81.9569 17.0434C81.5464 16.3628 81.1143 15.6796 80.5526 15.0963C79.9936 14.521 79.2455 14.1052 78.4218 14.0511C77.6009 13.989 76.7718 14.1457 75.9535 14.3401C75.1325 14.5372 74.3116 14.7776 73.4582 14.9369C72.6129 15.1017 71.7055 15.1611 70.8494 14.8883C70.0069 14.5967 69.2642 14.0835 68.5458 13.5569C67.8275 13.0276 67.1253 12.4632 66.353 11.996C65.586 11.5423 64.711 11.1669 63.8009 11.2668L63.6308 11.2804C63.5741 11.2912 63.5201 11.3047 63.4661 11.3155C63.3553 11.3425 63.2446 11.3614 63.1339 11.3938C62.9206 11.4721 62.6991 11.5369 62.4966 11.6422C62.078 11.8286 61.6864 12.0797 61.3002 12.3363C60.5305 12.8602 59.8068 13.4624 59.0182 13.9971C58.6293 14.2699 58.2108 14.5102 57.776 14.7155C57.3358 14.9153 56.8551 15.0341 56.369 15.072C55.3913 15.1206 54.4299 14.8991 53.4874 14.6615C52.5422 14.4238 51.597 14.1538 50.6248 14.0592C50.1387 14.0187 49.6472 14.0403 49.1746 14.1565C48.6993 14.2699 48.278 14.5399 47.9054 14.8532C47.16 15.504 46.6388 16.379 46.123 17.2378C45.6072 18.102 45.1157 19.004 44.4297 19.7791C44.084 20.1598 43.6844 20.5082 43.2145 20.7432C42.7446 20.9727 42.2477 21.1266 41.74 21.2455C40.7245 21.4669 39.6875 21.5641 38.6667 21.7478C37.6567 21.9314 36.6035 22.2177 35.8554 22.9441C35.4935 23.3141 35.2424 23.7786 35.056 24.2647C34.867 24.7535 34.759 25.272 34.6617 25.7905C34.4727 26.833 34.3863 27.9024 34.1324 28.9529C34.0109 29.4795 33.8327 29.998 33.5572 30.4733C33.2818 30.9486 32.9037 31.3591 32.4743 31.6967C31.6209 32.3826 30.6514 32.8903 29.7224 33.4575C29.2606 33.7437 28.8042 34.0408 28.3829 34.3838C27.9697 34.7321 27.5943 35.1318 27.3351 35.6044C27.0731 36.0743 26.9543 36.6171 26.9597 37.1599C26.957 37.7055 27.0407 38.251 27.1487 38.7884C27.3783 39.8686 27.7186 40.9299 27.9022 42.0399C27.9967 42.5935 28.0318 43.166 27.9589 43.7304C27.886 44.2976 27.6673 44.835 27.3945 45.3319C26.8328 46.3203 26.0982 47.1845 25.4474 48.1027C25.1179 48.5591 24.8155 49.0371 24.5751 49.5448C24.3375 50.0498 24.17 50.5953 24.1673 51.1543C24.17 51.7133 24.3348 52.2589 24.5697 52.7639C24.8074 53.2716 25.1098 53.7496 25.4393 54.206C26.0901 55.1269 26.8247 55.991 27.3891 56.9768C27.6619 57.471 27.8833 58.0111 27.9562 58.5782C28.0318 59.1426 27.9994 59.7151 27.9022 60.2687C27.7213 61.3787 27.3783 62.4427 27.1487 63.5229C27.038 64.0631 26.957 64.6086 26.957 65.1541C26.9516 65.6996 27.0704 66.2397 27.3297 66.7123C27.5862 67.1849 27.9616 67.5873 28.3748 67.9357C28.7961 68.2787 29.2525 68.5784 29.7143 68.8647C30.6406 69.4318 31.6128 69.9395 32.4662 70.6255C32.8929 70.963 33.2764 71.3735 33.5491 71.8488C33.8246 72.3241 34.0055 72.8453 34.1243 73.3692C34.3782 74.4225 34.4646 75.4919 34.6536 76.5343C34.7482 77.0555 34.8589 77.574 35.0479 78.0601C35.2343 78.5462 35.4854 79.0107 35.8446 79.3807C36.5927 80.1072 37.6459 80.3961 38.6559 80.5798C39.6794 80.7661 40.7164 80.8606 41.7318 81.0821C42.2369 81.2009 42.7365 81.3548 43.2064 81.5844C43.6763 81.8193 44.0759 82.1677 44.4216 82.5485C45.1076 83.3235 45.5991 84.2255 46.1149 85.0924C46.6334 85.9512 47.1546 86.8262 47.8973 87.477C48.2699 87.7903 48.6912 88.0604 49.1665 88.1738C49.6391 88.2926 50.1306 88.3115 50.6167 88.271C51.5916 88.1765 52.5368 87.9064 53.4793 87.6688C54.4218 87.4311 55.3832 87.2097 56.3609 87.2583C56.847 87.2961 57.3277 87.4149 57.7679 87.6148C58.2026 87.82 58.6212 88.0604 59.0101 88.3331C59.7987 88.8678 60.5224 89.47 61.2921 89.994C61.6783 90.2505 62.0699 90.5017 62.4885 90.688C62.6937 90.796 62.9124 90.8581 63.1258 90.9365C63.2338 90.9662 63.3472 90.9878 63.458 91.0148C63.5147 91.0256 63.5687 91.0418 63.6227 91.0499L63.7928 91.0634C64.7029 91.166 65.5779 90.7879 66.3449 90.3342C67.1145 89.867 67.8167 89.3026 68.5377 88.7733C69.2561 88.2467 69.9988 87.7363 70.8413 87.4446C71.6974 87.1719 72.6048 87.2313 73.4501 87.396C74.3008 87.5553 75.1244 87.7957 75.9454 87.9928C76.7637 88.1873 77.5955 88.3439 78.4137 88.2818C79.2374 88.2251 79.9828 87.8119 80.5418 87.234C81.1008 86.6534 81.5329 85.9674 81.9461 85.2869C82.3566 84.6036 82.7428 83.9123 83.1911 83.2695C83.6394 82.6295 84.1741 82.03 84.8573 81.6573C85.5379 81.2819 86.2886 81.1091 87.0232 80.9767C87.7604 80.8471 88.4923 80.7634 89.2079 80.6446C89.9236 80.5258 90.6284 80.3772 91.2739 80.091C91.9193 79.8128 92.4702 79.3537 92.8105 78.7596C93.1589 78.1709 93.3398 77.5065 93.4748 76.853C93.7395 75.5405 93.8151 74.2253 94.1635 72.9993C94.339 72.3889 94.6037 71.8002 95.0088 71.3303C95.4084 70.8577 95.8973 70.485 96.3861 70.1529C97.3718 69.4885 98.4034 68.9808 99.2973 68.3435C99.7429 68.0248 100.161 67.6818 100.499 67.2767C100.831 66.8689 101.063 66.4018 101.169 65.9102C101.285 65.4187 101.255 64.9164 101.209 64.4384C101.161 63.9577 101.053 63.4932 100.955 63.0449C100.739 62.1456 100.496 61.2977 100.345 60.474C100.191 59.6557 100.153 58.8428 100.351 58.1218C100.55 57.4007 100.92 56.8012 101.277 56.2719C102.009 55.216 102.714 54.3842 103.175 53.6361C103.653 52.8989 103.899 52.267 103.985 51.8268C104.048 51.6107 104.042 51.4379 104.056 51.3245C104.077 51.238 104.085 51.1786 104.085 51.1786C104.085 51.1786 104.083 51.2353 104.075 51.3488C104.064 51.4622 104.069 51.635 104.01 51.8538C103.929 52.2967 103.686 52.9367 103.21 53.6767C102.749 54.4274 102.049 55.2646 101.323 56.3205C100.969 56.8525 100.602 57.4494 100.407 58.1596C100.215 58.8699 100.253 59.6746 100.41 60.4875C100.561 61.3058 100.807 62.1538 101.026 63.053C101.126 63.504 101.236 63.9685 101.285 64.4546C101.331 64.938 101.361 65.4457 101.244 65.9481C101.139 66.4504 100.899 66.9311 100.564 67.347C100.224 67.7601 99.7996 68.1058 99.3513 68.4272C98.4493 69.0699 97.4204 69.5803 96.4401 70.242C95.954 70.5741 95.4733 70.9414 95.079 71.4059C94.6847 71.8677 94.4254 72.4429 94.2526 73.0479C93.9096 74.2631 93.834 75.5756 93.5721 76.8962C93.437 77.5551 93.2561 78.2276 92.8996 78.8325C92.5512 79.4428 91.9787 79.9208 91.3225 80.2044C90.6662 80.496 89.9533 80.6473 89.2349 80.7661C88.5166 80.8849 87.782 80.9687 87.0502 81.101C86.321 81.2333 85.5784 81.4061 84.9167 81.7734C84.2524 82.1353 83.7312 82.7213 83.2883 83.3559C82.8454 83.9933 82.4619 84.6846 82.0487 85.3679C81.6382 86.0511 81.2034 86.7425 80.6309 87.3366C80.0638 87.9253 79.2806 88.3601 78.4353 88.4168C77.5928 88.4816 76.7529 88.3196 75.9292 88.1279C75.1055 87.9307 74.2846 87.6904 73.4393 87.5337C72.6021 87.3717 71.7163 87.3177 70.8872 87.5797C70.0663 87.8632 69.3317 88.3682 68.6161 88.8948C67.9004 89.4241 67.1956 89.9886 66.4151 90.4639C66.2152 90.5719 66.0235 90.6988 65.8102 90.7879C65.7048 90.8365 65.6022 90.8879 65.4969 90.9311L65.1701 91.0472C64.7299 91.1822 64.26 91.2713 63.7901 91.2092L63.6146 91.1957C63.5579 91.1876 63.5012 91.1714 63.4418 91.1606C63.3283 91.1336 63.2122 91.112 63.0988 91.0796C62.88 90.9986 62.6532 90.9338 62.4452 90.823C62.0159 90.6313 61.6216 90.3774 61.23 90.1182C60.4549 89.5889 59.7285 88.9866 58.948 88.4573C58.5618 88.1873 58.1513 87.9523 57.7246 87.7498C57.2926 87.5553 56.8335 87.4419 56.3609 87.4041C55.4103 87.3582 54.4597 87.5742 53.5199 87.8119C52.5774 88.0468 51.6295 88.3223 50.6356 88.4168C50.1387 88.4573 49.631 88.4384 49.1395 88.3169C48.6426 88.1981 48.2024 87.9145 47.8162 87.5931C47.0493 86.9234 46.5254 86.0376 46.0042 85.1761C45.4883 84.3093 44.9968 83.4127 44.3244 82.6538C43.9841 82.2811 43.6006 81.949 43.1469 81.7194C42.6933 81.498 42.2017 81.3467 41.7048 81.2279C40.7002 81.0092 39.6659 80.9119 38.6343 80.7256C38.1212 80.6257 37.6027 80.5204 37.1085 80.3232C36.6143 80.1315 36.139 79.8668 35.7528 79.4887C35.3747 79.0999 35.1127 78.6191 34.9237 78.1195C34.7293 77.6199 34.6212 77.0933 34.524 76.5694C34.3323 75.5189 34.2459 74.4495 33.9947 73.4124C33.8759 72.8939 33.6976 72.3862 33.433 71.9271C33.1683 71.4707 32.8011 71.0737 32.3798 70.7416C31.5426 70.0691 30.5758 69.5614 29.6414 68.9916C29.1769 68.7026 28.7151 68.4029 28.2857 68.0518C27.8644 67.6953 27.4755 67.2821 27.2055 66.7879C26.9354 66.2964 26.8085 65.7239 26.8166 65.1649C26.8166 64.6032 26.9003 64.0496 27.011 63.504C27.2406 62.4157 27.5835 61.3517 27.7618 60.2579C27.8563 59.7124 27.8887 59.1534 27.8131 58.6079C27.7402 58.0624 27.5295 57.5439 27.2622 57.0578C26.7086 56.0883 25.9767 55.2241 25.3205 54.2978C24.991 53.836 24.6804 53.3526 24.4374 52.8341C24.1943 52.3156 24.0242 51.7484 24.0215 51.1651C24.0269 50.5791 24.1997 50.0147 24.4428 49.4962C24.6858 48.9777 24.9964 48.4943 25.3259 48.0325C25.9821 47.1089 26.714 46.2447 27.2649 45.2752C27.5322 44.7891 27.7429 44.2679 27.8131 43.7223C27.8833 43.1768 27.8509 42.6205 27.7591 42.075C27.5781 40.9813 27.2379 39.9172 27.0056 38.8289C26.8949 38.2834 26.8112 37.7298 26.8139 37.168C26.8085 36.609 26.9327 36.0392 27.2082 35.5477C27.4782 35.0535 27.8671 34.6403 28.2884 34.2865C28.7178 33.9355 29.1796 33.6357 29.6441 33.3467C30.5758 32.7769 31.5426 32.2692 32.3798 31.5968C32.8011 31.2646 33.1656 30.8676 33.4303 30.4112C33.6949 29.9521 33.8705 29.4444 33.9893 28.9259C34.2378 27.8889 34.3269 26.8195 34.5186 25.7716C34.6158 25.2477 34.7266 24.7211 34.9183 24.2215C35.1073 23.7219 35.3693 23.2412 35.7474 22.8523C36.1336 22.4742 36.6116 22.2096 37.1058 22.0178C37.6 21.8234 38.1185 21.7154 38.6316 21.6181C39.6632 21.4318 40.6975 21.3373 41.6994 21.1158C42.199 20.9997 42.6879 20.8458 43.1415 20.6243C43.5952 20.3975 43.9787 20.0626 44.319 19.6899C44.9914 18.9311 45.4802 18.0345 45.9961 17.1703C46.5173 16.3088 47.0385 15.4257 47.8081 14.7533C48.1943 14.4292 48.6345 14.1484 49.1314 14.0295C49.6229 13.908 50.1306 13.8864 50.6275 13.9296C51.6213 14.0268 52.5693 14.2996 53.5117 14.5345C54.4515 14.7722 55.4022 14.9882 56.3528 14.9423C56.8254 14.9072 57.2845 14.7911 57.7165 14.5994C58.1432 14.3968 58.5537 14.1619 58.9399 13.8918C59.7204 13.3625 60.4468 12.7603 61.2219 12.231C61.6135 11.9717 62.0078 11.7178 62.4371 11.5261C62.6451 11.4181 62.8719 11.3506 63.0907 11.2695C63.2041 11.2371 63.3202 11.2155 63.4337 11.1885C63.4904 11.1777 63.5471 11.1615 63.6065 11.1507L63.782 11.1372C64.2492 11.0751 64.7218 11.1669 65.162 11.2993L65.4888 11.4154C65.5968 11.4586 65.6967 11.5126 65.8021 11.5585C66.0154 11.6476 66.2071 11.7746 66.407 11.8826C67.1875 12.3579 67.8896 12.9223 68.608 13.4516C69.3236 13.9782 70.0582 14.4805 70.8791 14.7668C71.7055 15.0287 72.5913 14.9774 73.4285 14.8127C74.2711 14.6561 75.092 14.4157 75.9184 14.2186C76.7421 14.0241 77.582 13.8648 78.4245 13.9269C79.2725 13.9809 80.053 14.4157 80.6228 15.0044C81.1953 15.5986 81.6274 16.2899 82.0406 16.9705C82.4511 17.6537 82.8346 18.3451 83.2802 18.9824C83.7231 19.617 84.2443 20.203 84.9086 20.5649C85.5703 20.9322 86.3129 21.105 87.0421 21.2374C87.7739 21.367 88.5058 21.4534 89.2268 21.5722C89.9452 21.6911 90.6581 21.8423 91.3144 22.134C91.9706 22.4175 92.5458 22.8955 92.8942 23.5031C93.2507 24.1081 93.4343 24.7805 93.5667 25.4395C93.8313 26.76 93.9042 28.0725 94.2472 29.2878C94.4227 29.89 94.6766 30.4679 95.0736 30.9297C95.4652 31.3942 95.9459 31.7642 96.432 32.0937C97.4123 32.7553 98.4412 33.2657 99.3432 33.9085C99.7915 34.2298 100.215 34.5755 100.556 34.9887C100.893 35.4046 101.131 35.8853 101.239 36.3849C101.355 36.8872 101.323 37.3949 101.28 37.8783C101.231 38.3644 101.12 38.8289 101.02 39.2799C100.801 40.1819 100.556 41.0272 100.405 41.8454C100.248 42.661 100.21 43.4631 100.402 44.1733C100.596 44.8836 100.964 45.4831 101.317 46.0124C102.044 47.0684 102.746 47.9055 103.205 48.6563C103.68 49.3962 103.923 50.0363 104.004 50.4792C104.064 50.6979 104.056 50.8708 104.069 50.9842C104.083 51.1219 104.085 51.1786 104.085 51.1786Z" fill="#263238"/>
<path d="M56.5932 88.2926C56.631 88.3034 55.6345 92.3434 54.3679 97.3179C53.1014 102.295 52.0428 106.319 52.0049 106.311C51.9671 106.3 52.9636 102.26 54.2302 97.2855C55.4968 92.3083 56.5554 88.2818 56.5932 88.2926Z" fill="#263238"/>
<path d="M64.092 75.6944C77.6317 75.6944 88.6078 64.7183 88.6078 51.1786C88.6078 37.6389 77.6317 26.6628 64.092 26.6628C50.5523 26.6628 39.5762 37.6389 39.5762 51.1786C39.5762 64.7183 50.5523 75.6944 64.092 75.6944Z" fill="white"/>
<path d="M48.9994 42.6854C48.6619 43.0229 46.8012 46.404 46.6337 49.191C46.4636 51.9807 46.866 67.6414 46.866 67.6414L46.9389 68.6784C51.3516 73.8392 67.3931 81.5196 81.8411 68.6514L82.6513 59.0184L80.2667 38.6264L71.984 36.5983L70.0423 33.4494L57.0985 36.4794L55.9453 39.207L48.9994 42.6854Z" fill="#455A64"/>
<path d="M69.1427 25.2532C69.7125 23.1359 70.2742 20.9998 70.4714 18.815C70.6685 16.6303 70.4849 14.3726 69.618 12.3579C69.4857 12.0528 68.3919 10.0138 68.0625 10.0652C67.8275 10.1003 68.5351 12.0177 68.427 12.2283C67.3873 14.2456 67.1983 16.6141 67.498 18.8636C67.7951 21.1159 68.3703 23.1224 69.1427 25.2532Z" fill="#263238"/>
<path d="M68.9294 16.8841C68.8241 11.383 65.5375 6.85956 60.0391 7.11611L59.5314 7.17013C54.4354 7.70754 50.6033 12.069 50.7275 17.192C50.8437 21.9585 51.0354 27.2246 51.3325 29.7577C51.9509 35.0022 57.2872 35.2642 57.2872 35.2642C57.298 35.2642 57.533 38.7128 57.533 38.7128L59.788 41.1622L70.2419 34.6863L68.9294 16.8841Z" fill="#FFBF9D"/>
<path d="M57.293 35.3047C57.293 35.3047 60.6228 35.1507 63.9148 32.5636C63.9148 32.5636 62.8129 37.3193 57.5225 37.3976L57.293 35.3047Z" fill="#FF9A6C"/>
<path d="M53.7497 21.467C53.7767 21.864 54.1359 22.1692 54.5517 22.1476C54.9676 22.126 55.2809 21.7884 55.2539 21.3887C55.2269 20.9917 54.8677 20.6866 54.4518 20.7082C54.0359 20.7298 53.7227 21.07 53.7497 21.467Z" fill="#263238"/>
<path d="M52.0797 19.2525C52.1823 19.3416 52.7062 18.8609 53.5137 18.7772C54.3184 18.6827 54.9558 19.0364 55.0314 18.9284C55.0692 18.8798 54.9558 18.7124 54.6776 18.553C54.4048 18.3937 53.9511 18.256 53.4488 18.3127C52.9465 18.3694 52.5442 18.5989 52.32 18.8123C52.0959 19.0256 52.031 19.212 52.0797 19.2525Z" fill="#263238"/>
<path d="M60.8766 20.862C60.9036 21.259 61.2628 21.5641 61.6787 21.5425C62.0946 21.5209 62.4078 21.1834 62.3808 20.7837C62.3538 20.3867 61.9946 20.0815 61.5788 20.1031C61.1656 20.1247 60.8496 20.465 60.8766 20.862Z" fill="#263238"/>
<path d="M60.0204 18.7447C60.1231 18.8338 60.647 18.3531 61.4544 18.2694C62.2592 18.1749 62.8939 18.5286 62.9722 18.4206C63.01 18.372 62.8993 18.2046 62.6184 18.0452C62.3456 17.8859 61.8919 17.7482 61.3896 17.8049C60.8873 17.8616 60.4849 18.0911 60.2608 18.3045C60.0339 18.5205 59.9691 18.7069 60.0204 18.7447Z" fill="#263238"/>
<path d="M57.7779 25.2504C57.7779 25.2045 57.2675 25.1694 56.4438 25.1532C56.2358 25.1532 56.036 25.1343 55.9874 24.9966C55.9226 24.8535 55.9847 24.6212 56.0603 24.3701C56.2007 23.8515 56.3493 23.306 56.5032 22.7362C57.1135 20.4137 57.5321 18.5125 57.4403 18.4882C57.3458 18.4639 56.776 20.3273 56.1656 22.6498C56.0198 23.2223 55.8794 23.7678 55.7497 24.289C55.6957 24.5321 55.5904 24.8103 55.7281 25.11C55.8011 25.2585 55.9631 25.3531 56.0981 25.3747C56.2331 25.4017 56.3493 25.3909 56.4519 25.3855C57.2729 25.345 57.7779 25.2964 57.7779 25.2504Z" fill="#263238"/>
<path d="M60.2121 25.5584C60.0798 25.5638 60.1716 26.4414 59.4857 27.1409C58.8024 27.843 57.8599 27.843 57.8653 27.9673C57.8599 28.024 58.0922 28.1158 58.4865 28.0834C58.8753 28.0564 59.4263 27.8728 59.8448 27.4434C60.2607 27.014 60.4039 26.4847 60.3958 26.1228C60.3931 25.7528 60.2715 25.5449 60.2121 25.5584Z" fill="#263238"/>
<path d="M59.7187 15.4663C59.8213 15.6769 60.6153 15.4879 61.574 15.5014C62.5327 15.496 63.3267 15.6931 63.4293 15.4825C63.4752 15.3826 63.3213 15.1908 62.9891 15.0099C62.6596 14.8289 62.1519 14.6804 61.5767 14.6777C61.0015 14.675 60.4911 14.8208 60.1616 14.9964C59.8321 15.1746 59.6728 15.3664 59.7187 15.4663Z" fill="#263238"/>
<path d="M52.1312 16.533C52.2932 16.7004 52.828 16.452 53.495 16.3737C54.1593 16.271 54.7427 16.3656 54.8534 16.1603C54.8993 16.0604 54.7913 15.8876 54.5266 15.739C54.2647 15.5932 53.8434 15.4933 53.3843 15.5554C52.9252 15.6175 52.5471 15.8255 52.3337 16.0388C52.1177 16.2548 52.0583 16.452 52.1312 16.533Z" fill="#263238"/>
<path d="M68.9102 20.8162C68.9966 20.7676 72.4047 19.3687 72.6694 22.9712C72.934 26.5738 69.2639 26.0958 69.2477 25.9905C69.2342 25.8878 68.9102 20.8162 68.9102 20.8162Z" fill="#FFBF9D"/>
<path d="M70.2494 24.5456C70.2656 24.5321 70.3143 24.5861 70.425 24.6266C70.533 24.6671 70.7112 24.686 70.8949 24.6023C71.2649 24.4349 71.5403 23.8083 71.5106 23.1575C71.4944 22.828 71.4053 22.5229 71.2703 22.2717C71.1406 22.0152 70.957 21.845 70.7625 21.8234C70.5681 21.7937 70.4412 21.9179 70.4061 22.0233C70.3656 22.1286 70.3926 22.1988 70.3737 22.2042C70.3656 22.215 70.2926 22.1502 70.3089 21.999C70.3197 21.926 70.3548 21.8369 70.4331 21.764C70.5141 21.6884 70.6383 21.6425 70.7734 21.6479C71.0515 21.6479 71.3216 21.8828 71.4701 22.1583C71.6348 22.4338 71.7456 22.7767 71.7618 23.1467C71.7915 23.8732 71.4701 24.5807 70.9597 24.7698C70.7112 24.8535 70.4952 24.7941 70.3791 24.7157C70.2602 24.632 70.2359 24.5537 70.2494 24.5456Z" fill="#FF9A6C"/>
<path d="M52.6767 11.0697C52.0718 10.7862 53.7002 8.78505 55.0937 8.0424C57.1975 6.91896 60.4652 6.10338 62.4987 6.54088C64.9481 7.06749 67.0222 8.13692 68.3697 10.2461C69.7173 12.3579 70.3358 14.8775 70.4276 17.381C70.4546 18.1452 70.4276 18.9446 70.063 19.6144C69.612 20.4434 68.6776 21.0078 68.791 22.1043C68.8315 22.504 68.7451 22.9172 68.4886 23.2277C67.8755 23.9704 67.0249 23.3654 66.6117 22.7281C65.7286 21.367 65.5314 19.6873 65.3586 18.075C65.2344 16.93 65.1129 15.7579 65.3667 14.6318C65.5044 14.0188 65.7502 13.4327 65.8555 12.8143C65.9581 12.1959 65.896 11.5045 65.4855 11.0319C65.418 10.9536 65.31 10.8591 65.175 10.7538C64.0974 9.92469 62.6499 9.74916 61.3996 10.2839C59.4173 11.1319 56.02 12.4281 55.0694 11.7962C53.7029 10.8888 53.3492 10.2623 53.3492 10.2623L52.6767 11.0697Z" fill="#263238"/>
<path d="M48.9987 42.6854C48.7907 42.9743 45.839 43.9546 44.7183 45.8207C43.5975 47.6868 42.4903 56.064 42.4903 56.064L41.7773 61.5786C43.1816 63.8011 45.0639 66.7421 47.0651 68.8161L48.9987 42.6854Z" fill="#455A64"/>
<g opacity="0.3">
<path d="M71.1758 50.7736C71.3 51.897 71.4269 53.0339 71.8131 54.098C72.1993 55.1593 72.8771 56.1585 73.8683 56.7067C74.2814 56.9363 74.7513 57.0875 75.097 57.4089C75.4697 57.7545 75.656 58.2569 75.9936 58.6376C76.3852 59.0805 76.9523 59.3263 77.5086 59.5261C79.1587 60.1121 80.7871 60.3903 82.5371 60.3282C82.5911 59.7503 82.5938 57.6276 82.6478 57.0497L71.1758 50.7736Z" fill="black"/>
</g>
<path d="M79.2634 38.6292C79.2634 38.6292 82.9848 39.731 84.0759 41.3162C85.1669 42.9015 87.0978 49.048 87.4948 50.1876C87.8918 51.3272 87.5434 53.9711 86.8007 55.8696C86.0581 57.7681 84.7672 59.4047 82.5392 59.6531C80.3113 59.9016 76.7897 58.6134 75.9984 57.7708C75.2072 56.9282 74.875 55.0378 74.875 55.0378C75.8661 54.865 76.841 54.6192 77.797 54.306" fill="#455A64"/>
<path d="M77.7973 54.3006C77.7973 54.3033 77.7811 54.3087 77.7514 54.3222C77.7135 54.3357 77.6676 54.3519 77.6109 54.3735C77.4867 54.4167 77.3004 54.4788 77.0546 54.5517C76.5631 54.6976 75.8339 54.8974 74.8833 55.0729L74.9131 55.0297C74.9968 55.451 75.1156 55.9128 75.2938 56.3962C75.383 56.6366 75.4856 56.885 75.6152 57.1254C75.7475 57.3657 75.9015 57.6088 76.1148 57.8032C76.3281 57.9977 76.5928 58.1543 76.8683 58.3001C77.1437 58.4487 77.4381 58.5783 77.7432 58.7025C78.3563 58.9483 79.0179 59.1616 79.7201 59.329C80.4222 59.4911 81.1676 59.6126 81.9399 59.6153C82.1344 59.6234 82.3261 59.5991 82.5206 59.5883C82.7123 59.5559 82.9095 59.5397 83.1012 59.4857C83.4874 59.3993 83.8655 59.2534 84.2192 59.0509C84.9322 58.6566 85.5344 58.0409 85.9935 57.3198C86.458 56.5988 86.7983 55.7805 87.0467 54.9271C87.2412 54.2709 87.3843 53.6065 87.4761 52.9476C87.5706 52.2886 87.6166 51.6297 87.5733 50.9897C87.549 50.6683 87.4896 50.3658 87.3789 50.0661C87.279 49.7636 87.1791 49.4638 87.0818 49.1668C86.8847 48.5754 86.6903 47.9947 86.5012 47.4303C86.1177 46.3015 85.7397 45.2347 85.3616 44.2436C84.9754 43.2579 84.6162 42.3343 84.1652 41.5593C83.9438 41.1704 83.644 40.8652 83.3253 40.6195C83.0121 40.3656 82.688 40.1631 82.3774 39.9848C81.7563 39.6311 81.1919 39.3826 80.7274 39.1882C80.2629 38.9964 79.8956 38.8614 79.6445 38.7723C79.5256 38.7291 79.4311 38.6967 79.3609 38.6723C79.2961 38.6507 79.2637 38.6372 79.2637 38.6345C79.2637 38.6318 79.2988 38.6399 79.3636 38.6588C79.4365 38.6804 79.531 38.7102 79.6526 38.7453C79.9064 38.8263 80.2764 38.9505 80.7463 39.1368C81.2162 39.3232 81.786 39.5689 82.4152 39.9173C82.7285 40.0928 83.058 40.2954 83.3794 40.5492C83.7034 40.795 84.0221 41.111 84.2489 41.5079C84.7134 42.2911 85.078 43.2147 85.4696 44.2004C85.8531 45.1915 86.2366 46.2583 86.6227 47.3871C86.8145 47.9515 87.0089 48.5321 87.2088 49.1236C87.3087 49.4206 87.4086 49.7177 87.5085 50.0202C87.6192 50.3199 87.6868 50.6521 87.7111 50.9789C87.757 51.6351 87.7111 52.3021 87.6166 52.9665C87.522 53.6335 87.3789 54.3033 87.1818 54.9676C86.9279 55.8318 86.5849 56.6609 86.1096 57.3981C85.6424 58.1354 85.0213 58.7673 84.284 59.1724C83.9195 59.3803 83.5279 59.5289 83.1309 59.618C82.9338 59.672 82.7312 59.6909 82.5341 59.7233C82.3342 59.7341 82.1344 59.7584 81.9399 59.7503C81.1514 59.7449 80.3979 59.6207 79.6904 59.4533C78.9828 59.2831 78.3158 59.0644 77.7 58.8132C77.3922 58.6863 77.0951 58.554 76.817 58.4C76.5388 58.2515 76.2714 58.0895 76.0446 57.8842C75.8204 57.6763 75.6638 57.4224 75.5315 57.1767C75.3992 56.9282 75.2965 56.6771 75.2101 56.4313C75.0373 55.9398 74.9211 55.4753 74.8401 55.0486L74.832 55.0135L74.8698 55.0081C75.8204 54.8461 76.5496 54.657 77.0438 54.5247C77.2842 54.4572 77.4705 54.4032 77.6055 54.3654C77.6649 54.3492 77.7108 54.3357 77.7487 54.3249C77.7811 54.3033 77.7973 54.3006 77.7973 54.3006Z" fill="#263238"/>
<path d="M84.6235 52.3128C84.5965 52.3182 84.5101 51.8537 84.1995 51.1678C83.8943 50.4845 83.3461 49.5798 82.5198 48.7832C82.1093 48.3835 81.6529 48.081 81.2154 47.8542C81.102 47.8029 80.9939 47.7543 80.8859 47.7083C80.7806 47.6597 80.6672 47.6381 80.5645 47.603C80.3566 47.5274 80.1541 47.5085 79.9677 47.4788C79.9218 47.4707 79.8759 47.4653 79.8327 47.4572C79.7895 47.4572 79.7463 47.4572 79.7031 47.4572C79.6193 47.4572 79.541 47.4572 79.4654 47.4572C79.3169 47.4491 79.1899 47.4761 79.0846 47.4896C78.8767 47.5193 78.7606 47.5328 78.7579 47.522C78.7552 47.5139 78.8686 47.4815 79.0765 47.4356C79.1818 47.4113 79.3088 47.3762 79.46 47.3789C79.5383 47.3762 79.6193 47.3708 79.7031 47.3681C79.7463 47.3654 79.7922 47.3654 79.8354 47.3627C79.8813 47.3681 79.9272 47.3735 79.9758 47.3789C80.1676 47.4032 80.3782 47.4167 80.5943 47.4896C80.7023 47.522 80.8184 47.5436 80.9291 47.5922C81.0398 47.6408 81.1533 47.6894 81.2694 47.7381C81.7231 47.9649 82.1957 48.2728 82.6143 48.6805C83.4569 49.4934 84.0024 50.4224 84.2886 51.1273C84.3616 51.3028 84.4264 51.4648 84.4669 51.6107C84.5101 51.7565 84.5533 51.878 84.5695 51.9834C84.6154 52.194 84.6343 52.3101 84.6235 52.3128Z" fill="#263238"/>
<path d="M86.6553 48.9723C86.6256 48.9831 86.5229 48.4943 86.0935 47.8381C85.6723 47.1927 84.8675 46.3852 83.7224 46.0422C82.5801 45.6938 81.4702 45.8019 80.6951 45.8748C80.3251 45.918 80.0172 45.9558 79.7688 45.9855C79.55 46.0125 79.4285 46.0233 79.4258 46.0125C79.4231 46.0017 79.542 45.9747 79.758 45.9315C79.974 45.8883 80.2873 45.8316 80.6789 45.7749C81.454 45.6749 82.5801 45.548 83.7575 45.9045C84.3436 46.0827 84.8567 46.3825 85.2591 46.7255C85.6669 47.0657 85.9612 47.4438 86.1719 47.7814C86.3825 48.1217 86.5013 48.4214 86.5688 48.6348C86.6445 48.8481 86.6634 48.9696 86.6553 48.9723Z" fill="#263238"/>
<path d="M83.8493 44.9782C83.8385 45.0241 82.869 44.7109 81.6375 44.7676C80.4034 44.8108 79.4609 45.197 79.4474 45.1511C79.442 45.1349 79.6661 45.0187 80.0577 44.8945C80.4466 44.7703 81.0056 44.6515 81.6321 44.6245C82.2587 44.6002 82.8231 44.6758 83.2228 44.7703C83.6197 44.8621 83.8547 44.962 83.8493 44.9782Z" fill="#263238"/>
<path d="M77.826 39.5582C77.8476 39.5609 77.7936 39.9389 77.7504 40.5466C77.7072 41.1569 77.6856 42.0022 77.7693 42.9312C77.8449 43.8224 78.007 44.6244 78.1501 45.2051L78.0529 45.2375C77.9422 44.9242 77.8557 44.673 77.799 44.4948C77.7423 44.3193 77.7153 44.2194 77.7234 44.2167C77.7342 44.2139 77.7774 44.3058 77.8503 44.4759C77.9233 44.646 78.0259 44.8945 78.1474 45.2024L78.0502 45.2348C77.8828 44.6541 77.7045 43.8494 77.6289 42.9474C77.5452 42.0103 77.5803 41.1542 77.6505 40.5439C77.6856 40.2387 77.7234 39.993 77.7585 39.8228C77.7936 39.65 77.8179 39.5555 77.826 39.5582Z" fill="#263238"/>
<path d="M72.5654 32.6284C72.5654 32.6284 70.6345 32.6284 70.3915 34.9508C70.2051 36.7332 70.3915 38.4643 70.3915 39.2448C70.3915 40.0252 70.0485 42.8014 70.0485 42.8014C70.0485 42.8014 68.7306 43.9708 68.7522 45.3751C68.7738 46.7875 69.7784 47.2169 69.7784 47.2169C69.7784 47.2169 69.1654 48.5536 70.3347 49.7824C70.3347 49.7824 69.773 51.076 70.2348 51.9483C70.5913 52.6234 71.3934 52.8475 71.3934 52.8475C71.3934 52.8475 70.8236 54.1222 72.1927 54.6596C73.0029 54.9756 74.1993 54.9054 74.1993 54.9054L75.6414 54.8784L76.9106 55.5805C76.9106 55.5805 79.0846 54.6326 79.1413 53.3499C79.198 52.0671 79.198 52.0671 79.198 52.0671C79.198 52.0671 78.585 49.9498 78.5283 49.2801C78.4716 48.6103 79.0306 46.9954 78.6957 46.269C78.3609 45.5452 77.1915 45.1185 77.3022 44.1058C77.413 43.0931 77.1915 42.5341 76.6892 41.9777C76.1869 41.4214 73.9697 40.3061 73.9697 40.3061C73.9697 40.3061 73.3999 38.6884 73.3999 37.5731C73.3999 36.4551 74.5152 33.055 72.5654 32.6284Z" fill="#FFBF9D"/>
<path d="M73.8677 40.7247C73.8785 40.7409 73.6732 40.8732 73.333 41.0704C72.9927 41.2702 72.5201 41.5349 71.9935 41.8211C71.4669 42.1074 70.9835 42.3612 70.6324 42.5368C70.2813 42.7123 70.0572 42.8149 70.0491 42.796C70.041 42.7798 70.2462 42.6475 70.5838 42.4477C70.924 42.2478 71.3966 41.9832 71.9233 41.6969C72.4499 41.4106 72.9306 41.1595 73.2843 40.9812C73.6354 40.8111 73.8569 40.7085 73.8677 40.7247Z" fill="#FF9A6C"/>
<path d="M75.1336 45.0916C75.139 45.0997 75.0796 45.1537 74.9662 45.2429C74.8527 45.3347 74.6826 45.4562 74.4639 45.5966C74.0291 45.8802 73.3944 46.2259 72.6545 46.5094C71.9118 46.793 71.2097 46.9577 70.6966 47.0387C70.44 47.0792 70.2321 47.1036 70.0862 47.1117C69.9404 47.1198 69.8621 47.1225 69.8594 47.1117C69.8567 47.09 70.1727 47.0468 70.6777 46.9415C71.1827 46.8362 71.8713 46.658 72.6032 46.3798C73.335 46.0989 73.967 45.7722 74.4126 45.5129C74.8554 45.2537 75.1201 45.0727 75.1336 45.0916Z" fill="#FF9A6C"/>
<path d="M76.7919 43.7034C76.827 43.7142 76.7541 43.9627 76.5246 44.1706C76.2977 44.3786 76.0439 44.4272 76.0358 44.3921C76.0223 44.3542 76.2302 44.2543 76.4301 44.0653C76.638 43.8816 76.7568 43.6845 76.7919 43.7034Z" fill="#FF9A6C"/>
<path d="M75.9974 48.9155C76.0028 48.9317 75.6976 49.0559 75.1899 49.2126C74.6822 49.3692 73.9666 49.5474 73.1645 49.6771C72.3624 49.8067 71.6279 49.8607 71.0959 49.8715C70.5638 49.885 70.2344 49.8607 70.2344 49.8445C70.2344 49.8229 70.5611 49.8094 71.0905 49.7716C71.6171 49.7338 72.3462 49.6663 73.1429 49.5366C73.9396 49.407 74.6498 49.245 75.1629 49.1153C75.676 48.9857 75.9893 48.8939 75.9974 48.9155Z" fill="#FF9A6C"/>
<path d="M77.7607 48.5943C77.7418 48.5835 77.8255 48.4349 77.9092 48.1811C77.9929 47.9272 78.0631 47.56 78.0145 47.1576C77.9659 46.7552 77.812 46.4122 77.6716 46.1881C77.5311 45.9612 77.415 45.837 77.4312 45.8208C77.442 45.8073 77.5851 45.9072 77.7553 46.1314C77.9227 46.3528 78.1063 46.712 78.1577 47.1414C78.209 47.5708 78.1171 47.9623 78.0064 48.2162C77.8903 48.4727 77.7742 48.6024 77.7607 48.5943Z" fill="#FF9A6C"/>
<path d="M76.0986 52.8233C76.1013 52.8395 75.842 52.9124 75.4126 52.9853C74.9832 53.0582 74.381 53.1204 73.714 53.1177C73.0469 53.115 72.4474 53.0501 72.018 52.9745C71.5886 52.9016 71.3294 52.826 71.3321 52.8098C71.3375 52.7882 71.6021 52.8287 72.0315 52.8773C72.4609 52.9259 73.055 52.9745 73.714 52.9772C74.3729 52.9772 74.967 52.934 75.3991 52.8854C75.8285 52.8422 76.0932 52.8044 76.0986 52.8233Z" fill="#FF9A6C"/>
<path d="M72.669 37.6029C72.6771 37.6191 72.5826 37.6894 72.4016 37.7542C72.2234 37.819 71.9533 37.8649 71.6617 37.8298C71.37 37.7947 71.1189 37.6867 70.9595 37.5813C70.8002 37.476 70.7246 37.3842 70.7354 37.3707C70.7597 37.3356 71.127 37.6299 71.6779 37.6894C72.2288 37.7623 72.6555 37.5624 72.669 37.6029Z" fill="#FF9A6C"/>
<path d="M78.1646 48.7563C78.1727 48.7563 78.1889 48.8292 78.1943 48.9642C78.1997 49.0993 78.1808 49.2964 78.1268 49.5341C78.0755 49.7717 77.9863 50.0445 77.8999 50.3442C77.8189 50.644 77.7406 50.9843 77.8 51.3272C77.8459 51.6675 78.1025 51.9457 78.143 52.294C78.1889 52.6343 78.0539 52.9233 77.9296 53.1285C77.8 53.3365 77.6731 53.485 77.5813 53.5822C77.4894 53.6794 77.4327 53.7307 77.4273 53.7226C77.4057 53.7064 77.6137 53.485 77.8459 53.0772C77.9539 52.8747 78.0647 52.6046 78.0161 52.3102C77.9836 52.0159 77.7244 51.7404 77.6623 51.3488C77.5975 50.9654 77.6893 50.6089 77.7784 50.3064C77.8729 50.0013 77.9701 49.7366 78.0323 49.507C78.1673 49.0561 78.1403 48.759 78.1646 48.7563Z" fill="#FF9A6C"/>
<path d="M78.8906 50.455C78.8987 50.4523 78.9338 50.5414 78.9824 50.7088C79.031 50.8735 79.0958 51.1166 79.1579 51.4218C79.2173 51.7269 79.2767 52.0915 79.2875 52.5047C79.2956 52.9152 79.2551 53.3851 79.0445 53.828C78.8284 54.2628 78.5152 54.6057 78.2154 54.8866C77.9129 55.1648 77.6132 55.3862 77.3566 55.559C77.1001 55.7319 76.8867 55.8615 76.7355 55.9479C76.5843 56.0316 76.4979 56.0748 76.4925 56.0667C76.4816 56.0478 76.803 55.8453 77.2999 55.4807C77.5457 55.2971 77.8346 55.0729 78.1263 54.7948C78.4153 54.5139 78.715 54.1817 78.9176 53.7713C79.1147 53.3608 79.1606 52.9125 79.1579 52.5101C79.1552 52.1077 79.1066 51.7458 79.0607 51.4407C78.9581 50.8303 78.8662 50.4577 78.8906 50.455Z" fill="#263238"/>
<path d="M59.5128 41.4647C59.5074 41.4728 59.3966 41.3891 59.1995 41.2297C58.9861 41.0542 58.7107 40.8246 58.3812 40.5519C58.2084 40.4061 58.0193 40.2467 57.8195 40.0793C57.7196 39.9956 57.6169 39.9064 57.5008 39.8497C57.3847 39.793 57.2551 39.7768 57.1389 39.8362C56.9067 39.9578 56.7501 40.2575 56.5502 40.506C56.3585 40.7652 56.1586 41.0326 55.9561 41.308C55.6293 41.7455 55.3161 42.1641 55.0271 42.553L54.8516 42.7853L54.9083 42.499C55.0973 41.5214 55.362 40.7058 55.5807 40.1441C55.6887 39.8632 55.786 39.6418 55.8562 39.4933C55.9264 39.3447 55.9696 39.2664 55.975 39.2691C55.9831 39.2718 55.9534 39.3555 55.8967 39.5095C55.84 39.6634 55.7563 39.8875 55.659 40.1711C55.4646 40.7409 55.2188 41.5538 55.0406 42.5233L54.9218 42.472C55.2107 42.0831 55.5213 41.6618 55.8454 41.2243C56.0506 40.9516 56.2505 40.6842 56.4422 40.425C56.5394 40.2953 56.6339 40.1684 56.7285 40.0442C56.8257 39.9199 56.9337 39.793 57.0849 39.7201C57.2389 39.6418 57.4252 39.6688 57.5575 39.739C57.6926 39.8092 57.7979 39.9037 57.8978 39.9902C58.0923 40.163 58.2759 40.325 58.446 40.4763C58.7647 40.7625 59.0293 41.0029 59.2346 41.1865C59.4209 41.3594 59.5182 41.4566 59.5128 41.4647Z" fill="#263238"/>
<path d="M70.9171 39.1801C70.9198 39.1828 70.8847 39.2152 70.8118 39.2747C70.7254 39.3422 70.6201 39.4232 70.4931 39.5231C70.1961 39.7473 69.7937 40.0497 69.3022 40.4197C68.2733 41.1759 66.8771 42.2048 65.3296 43.3444L65.2702 43.3876L65.2297 43.3255C65.1973 43.2769 65.1649 43.2229 65.1325 43.1716C64.4006 42.0157 63.7174 40.9382 63.1395 40.0227L63.2124 40.047C62.2591 40.4251 61.5083 40.841 60.9979 41.1516C60.7414 41.3055 60.5469 41.4351 60.4119 41.5215C60.2769 41.6079 60.2067 41.6539 60.2013 41.6485C60.1986 41.6431 60.2634 41.589 60.3903 41.4918C60.5172 41.3946 60.709 41.2569 60.9601 41.0921C61.4624 40.7654 62.2078 40.3306 63.1665 39.9363L63.2124 39.9174L63.2394 39.9606C63.8227 40.8707 64.5114 41.9455 65.2513 43.096C65.2837 43.15 65.3188 43.2013 65.3485 43.2499L65.2486 43.231C66.8069 42.1049 68.2112 41.0894 69.2482 40.3414C69.7505 39.9876 70.161 39.6959 70.4634 39.4826C70.5985 39.3908 70.7092 39.3152 70.7983 39.2557C70.8712 39.2017 70.9144 39.1774 70.9171 39.1801Z" fill="#263238"/>
<path d="M46.6799 49.9202C46.6853 49.9202 46.6907 49.985 46.6934 50.1119C46.6961 50.2496 46.7015 50.4333 46.7096 50.6574C46.7177 51.1489 46.7312 51.8322 46.7474 52.6666C46.7798 54.3626 46.8473 56.7067 46.9365 59.2966C47.0256 61.8864 47.0769 64.2332 47.0823 65.9292C47.085 66.7771 47.0823 67.4658 47.0742 67.9411C47.0688 68.1679 47.0661 68.3489 47.0634 68.4866C47.058 68.6108 47.0553 68.6783 47.0499 68.6783C47.0445 68.6783 47.0391 68.6135 47.0364 68.4866C47.0337 68.3489 47.0283 68.1652 47.0202 67.9411C47.0121 67.4496 46.9986 66.769 46.9824 65.9319C46.95 64.2359 46.8824 61.8918 46.7933 59.302C46.7042 56.7121 46.6529 54.368 46.6475 52.6693C46.6448 51.8214 46.6475 51.1327 46.6556 50.6574C46.661 50.4306 46.6637 50.2496 46.6664 50.1119C46.6691 49.9877 46.6745 49.9202 46.6799 49.9202Z" fill="#263238"/>
<path d="M59.602 74.3145C59.5993 74.3145 59.5939 74.2875 59.5885 74.2362C59.5831 74.1768 59.5723 74.1011 59.5615 74.0066C59.5399 73.7933 59.5129 73.4989 59.4751 73.1235C59.3995 72.3566 59.313 71.2439 59.2266 69.8693C59.1375 68.4948 59.0673 66.8555 59.0187 65.0326C58.9782 63.2097 58.9701 61.2059 59.0133 59.1049C59.0619 57.0011 59.1591 55 59.2779 53.1798C59.4049 51.3623 59.548 49.7258 59.6938 48.3566C59.8396 46.9874 59.9747 45.8802 60.0827 45.1159C60.1367 44.7432 60.1772 44.4489 60.2069 44.2382C60.2204 44.1437 60.2339 44.0681 60.242 44.0114C60.2501 43.96 60.2555 43.933 60.2582 43.933C60.2609 43.933 60.2609 43.96 60.2555 44.0114C60.2501 44.0708 60.242 44.1464 60.2339 44.2409C60.2096 44.4516 60.1772 44.7486 60.134 45.1213C60.0422 45.8856 59.9234 46.9955 59.791 48.3647C59.656 49.7339 59.5237 51.3704 59.4049 53.1879C59.2941 55.0054 59.1996 57.0065 59.151 59.1076C59.1078 61.2086 59.1132 63.2097 59.1456 65.0299C59.1861 66.8501 59.2455 68.4894 59.3211 69.8639C59.3941 71.2385 59.467 72.3512 59.5237 73.1208C59.548 73.4962 59.5696 73.7933 59.5831 74.0066C59.5885 74.1011 59.5912 74.1768 59.5939 74.2362C59.6047 74.2875 59.6047 74.3145 59.602 74.3145Z" fill="#263238"/>
<path d="M51.5537 30.1088C51.5537 30.1088 51.4592 30.1763 51.2675 30.3005C51.0757 30.4247 50.7922 30.6084 50.4222 30.8487C50.0522 31.0891 49.6228 31.4321 49.0989 31.8128C48.8397 32.0073 48.5831 32.2422 48.2942 32.4772C48.151 32.596 48.0052 32.7202 47.854 32.8472C47.7054 32.9768 47.5623 33.1226 47.4084 33.2657C46.1796 34.4081 44.7861 35.942 43.5033 37.9539C43.3467 38.2078 43.1847 38.4643 43.0226 38.7263C42.8525 38.9856 42.7229 39.2718 42.5662 39.5473C42.4204 39.8308 42.2557 40.109 42.1152 40.4061C41.9802 40.7058 41.8398 41.0083 41.6994 41.3162C41.6318 41.4701 41.5535 41.624 41.4914 41.7834C41.4293 41.9427 41.3699 42.1047 41.3078 42.2668C41.1862 42.5935 41.0539 42.9203 40.9351 43.2552C40.7352 43.9411 40.4841 44.6298 40.3329 45.367C39.9575 46.8199 39.7522 48.3863 39.6685 50.0201C39.574 51.6539 39.6712 53.3661 39.9521 55.108C40.5219 58.5836 41.8911 62.2024 44.2217 65.4188C46.5226 68.646 49.7741 71.4518 53.6764 73.2963C57.5733 75.1516 62.1319 75.9537 66.6851 75.4838C71.2436 75.0112 75.5159 73.2153 78.9376 70.5931C79.799 69.9449 80.593 69.2239 81.3519 68.4866C81.5355 68.2949 81.7164 68.1058 81.9001 67.9141C82.0837 67.7251 82.262 67.5333 82.4321 67.3308C82.6049 67.1336 82.7751 66.9338 82.9452 66.7366C83.1073 66.5314 83.2666 66.3262 83.4286 66.1236C84.7114 64.4898 85.7241 62.7101 86.5262 60.898C87.3255 59.0832 87.8549 57.2063 88.1789 55.3591C88.3464 54.4355 88.4382 53.5119 88.5003 52.6018C88.53 52.1482 88.5273 51.6945 88.5435 51.2462C88.5354 50.7979 88.5111 50.355 88.4949 49.9121C88.4868 49.6906 88.4787 49.4719 88.4679 49.2531C88.4544 49.0344 88.4193 48.821 88.395 48.605C88.3437 48.1756 88.2923 47.7489 88.241 47.3249C88.1735 46.9063 88.0763 46.4932 87.998 46.0854C87.9143 45.6776 87.8441 45.2671 87.7171 44.8782C87.6037 44.4839 87.493 44.095 87.3796 43.7089C87.3309 43.5144 87.2607 43.3281 87.1878 43.1417C87.1176 42.9554 87.0474 42.7718 86.9799 42.5881C86.8367 42.2235 86.7179 41.8509 86.5586 41.5025C86.3965 41.1541 86.2345 40.8111 86.0752 40.4709C84.7708 37.7649 83.0964 35.5774 81.4167 33.8896C79.7288 32.1963 78.0329 31.0108 76.6016 30.1385C76.237 29.9305 75.894 29.7307 75.5699 29.5471C75.4106 29.4498 75.2486 29.3742 75.0892 29.2986C74.9326 29.223 74.7814 29.1528 74.6355 29.0826C74.3439 28.9421 74.0738 28.8152 73.8281 28.6964C73.585 28.5721 73.3447 28.5019 73.1421 28.4182C72.7316 28.2589 72.4184 28.1374 72.2023 28.0536C71.9917 27.9699 71.8837 27.924 71.8837 27.924C71.8837 27.924 71.9944 27.9618 72.2077 28.0401C72.4238 28.1212 72.7397 28.2373 73.1529 28.3912C73.3582 28.4749 73.5985 28.5424 73.8443 28.664C74.0927 28.7801 74.3628 28.907 74.6572 29.0447C74.803 29.1123 74.9569 29.1852 75.1136 29.2581C75.2729 29.331 75.4376 29.4066 75.597 29.5038C75.921 29.6875 76.2667 29.8846 76.634 30.0926C78.0707 30.9595 79.7774 32.1423 81.4761 33.8356C83.1667 35.5234 84.8545 37.7136 86.1697 40.4304C86.329 40.7706 86.4911 41.1163 86.6558 41.4647C86.8178 41.8131 86.9367 42.1884 87.0825 42.553C87.1527 42.7367 87.2229 42.923 87.2931 43.1093C87.366 43.2957 87.4363 43.482 87.4849 43.6792C87.5983 44.0653 87.709 44.4569 87.8251 44.8512C87.9521 45.2428 88.025 45.6533 88.1114 46.0638C88.1924 46.4743 88.2896 46.8874 88.3572 47.3087C88.4085 47.7327 88.4625 48.1621 88.5138 48.5942C88.5381 48.8102 88.5732 49.0263 88.5867 49.245C88.5948 49.4638 88.6056 49.6852 88.6137 49.9067C88.6299 50.3496 88.6542 50.7952 88.665 51.2462C88.6515 51.6972 88.6515 52.1509 88.6218 52.6073C88.5624 53.52 88.4706 54.449 88.3032 55.378C87.9791 57.236 87.4471 59.121 86.6477 60.9493C85.8456 62.7722 84.8275 64.5627 83.5393 66.2046C83.3773 66.4099 83.2153 66.6151 83.0532 66.8204C82.8804 67.0175 82.7103 67.2174 82.5374 67.4172C82.3673 67.6197 82.189 67.8142 82.0027 68.0032C81.8191 68.195 81.6354 68.3867 81.4518 68.5784C80.6875 69.3184 79.8909 70.0448 79.024 70.6984C75.5861 73.3395 71.2895 75.1435 66.704 75.6188C62.1265 76.0941 57.5409 75.2867 53.6224 73.4179C49.6957 71.5599 46.4308 68.7378 44.1191 65.4917C41.7804 62.2564 40.4058 58.616 39.8387 55.1242C39.5578 53.3742 39.4633 51.6566 39.5605 50.012C39.6469 48.3701 39.8576 46.7983 40.2356 45.34C40.3896 44.6 40.6434 43.9087 40.846 43.2228C40.9675 42.8852 41.0971 42.5584 41.2213 42.2316C41.2835 42.0696 41.3456 41.9076 41.4077 41.7455C41.4725 41.5862 41.5481 41.4323 41.6183 41.2783C41.7588 40.9705 41.8992 40.6653 42.0369 40.3656C42.1774 40.0685 42.3448 39.7876 42.4933 39.5041C42.65 39.2259 42.7823 38.9396 42.9524 38.6804C43.1172 38.4184 43.2792 38.1592 43.4358 37.908C44.7294 35.8934 46.1337 34.3595 47.3706 33.2225C47.5245 33.0794 47.6703 32.9336 47.8189 32.8039C47.9728 32.677 48.1186 32.5528 48.2644 32.434C48.5534 32.199 48.8154 31.9668 49.0746 31.7723C49.6012 31.3969 50.0333 31.0567 50.4087 30.819C50.7814 30.5841 51.0676 30.4031 51.2621 30.2816C51.4538 30.1682 51.5537 30.1088 51.5537 30.1088Z" fill="#263238"/>
</g>
<defs>
<clipPath id="clip0_24_5992">
<rect width="120" height="118.59" fill="white" transform="translate(0 0.704834)"/>
</clipPath>
</defs>
</svg>
